<svg width="239" height="239" viewBox="0 0 239 239" fill="none" xmlns="http://www.w3.org/2000/svg">
<path d="M145.396 47.5666L146.051 48.2505C146.988 49.2696 147.581 50.0002 147.83 50.4421C148.746 52.0805 149.808 53.6677 151.013 55.2034C152.699 57.2122 154.94 58.4025 157.738 58.7744C158.933 58.9891 160.157 59.0903 161.411 59.0778C161.662 59.0763 161.789 59.1906 161.794 59.4209C161.537 59.3805 161.39 59.5485 161.353 59.9251C161.249 60.952 161.196 61.597 161.194 61.8599L160.219 70.1456L159.934 72.8227C146.146 71.9995 132.357 71.1795 118.566 70.3626C118.096 70.3346 117.708 70.1619 117.399 69.8445L118.723 57.8922L118.83 56.8979C118.835 56.8508 118.859 56.8077 118.895 56.7776C118.932 56.7475 118.979 56.7329 119.026 56.7368C120.017 56.8131 121.029 56.8605 122.06 56.8792C126.081 56.9523 129.337 55.5224 131.828 52.5894C132.745 51.5079 133.702 50.3744 134.701 49.1887C135.325 48.4465 136.083 47.7728 136.975 47.1675C139.752 45.2793 142.763 45.1906 145.396 47.5666Z" fill="#6BD57E"/>
<path d="M109.723 80.4922C110.291 80.3957 110.82 80.1864 111.31 79.8643C111.378 79.8208 111.448 79.8169 111.518 79.8527C111.753 79.9709 111.741 80.0619 111.483 80.1257C111.027 80.2393 110.679 80.461 110.439 80.7909C110.099 81.26 109.461 81.5635 108.934 81.7198C108.885 81.7344 108.834 81.7389 108.783 81.7331C108.732 81.7274 108.683 81.7115 108.639 81.6864C108.595 81.6614 108.556 81.6276 108.525 81.5872C108.495 81.5468 108.472 81.5006 108.46 81.4514C107.891 79.2264 107.435 77.0744 107.092 74.9956C107.085 74.953 107.09 74.9092 107.106 74.8696C107.173 74.7031 107.242 74.6323 107.312 74.6572C107.506 74.7226 107.634 74.8571 107.695 75.061C108.241 76.8799 108.85 78.6522 109.522 80.3778C109.537 80.4171 109.565 80.45 109.602 80.4709C109.639 80.4918 109.681 80.4993 109.723 80.4922Z" fill="#6BD57E"/>
<path d="M110.456 91.3894C110.445 91.3458 110.426 91.3069 110.4 91.2727C110.335 91.1886 110.354 91.1552 110.458 91.1723C110.648 91.2003 110.825 91.2221 110.988 91.2377C111.012 91.2401 111.036 91.2492 111.055 91.2637C111.075 91.2783 111.09 91.2979 111.099 91.3203C111.108 91.3427 111.111 91.3672 111.107 91.3909C111.103 91.4146 111.093 91.4367 111.077 91.4547C110.795 91.7908 110.652 92.1588 110.647 92.5587C110.641 93.2153 110.636 93.8595 110.633 94.4912C110.633 94.5333 110.613 94.5535 110.573 94.5519L110.503 94.5496C110.465 94.548 110.443 94.5286 110.435 94.4912C110.247 93.5094 110.254 92.5463 110.456 91.6018C110.471 91.531 110.471 91.4585 110.456 91.3894Z" fill="#6BD57E"/>
<path d="M108.969 93.3733C109 93.4355 109.068 93.4814 109.174 93.511C109.051 93.5125 108.91 93.5584 108.749 93.6487C108.664 93.6969 108.594 93.6798 108.539 93.5973C108.378 93.3608 108.203 93.1158 108.017 92.8621C107.929 92.7439 107.95 92.7198 108.08 92.7898C108.171 92.838 108.251 92.8046 108.318 92.6894C108.346 92.6413 108.356 92.5849 108.346 92.5307C108.299 92.3004 108.301 92.0966 108.353 91.9192C108.469 91.5178 108.568 91.5224 108.649 91.9332C108.679 92.0795 108.704 92.2794 108.726 92.533C108.734 92.6108 108.721 92.684 108.686 92.7524C108.511 93.1119 108.605 93.3188 108.969 93.3733Z" fill="#6BD57E"/>
<path d="M163.395 96.9653L163.202 97.1101C163.125 97.1692 163.122 97.2314 163.192 97.2968C163.261 97.359 163.359 97.4088 163.486 97.4461L140.333 96.5872C140.226 96.5826 140.165 96.6331 140.151 96.739L138.632 107.783C138.629 107.803 138.631 107.823 138.636 107.842C138.641 107.862 138.651 107.879 138.663 107.895C138.676 107.91 138.691 107.923 138.709 107.932C138.726 107.94 138.745 107.946 138.765 107.947L161.579 109.52L161.295 109.945L138.718 108.505C138.658 108.501 138.599 108.52 138.552 108.557C138.505 108.595 138.475 108.649 138.466 108.708L137.686 113.826C137.679 113.703 137.578 113.617 137.385 113.567L137.969 108.617C137.972 108.593 137.97 108.569 137.963 108.546C137.956 108.523 137.945 108.502 137.93 108.483C137.914 108.465 137.895 108.45 137.874 108.439C137.853 108.428 137.829 108.422 137.806 108.421C132.759 108.069 127.785 107.741 122.882 107.436C118.163 107.142 113.467 106.824 108.822 106.581C108.579 106.569 108.37 106.695 108.194 106.959C108.345 106.437 108.116 106.358 107.508 106.724C107.559 106.574 107.472 106.492 107.244 106.476C102.324 106.122 99.1174 105.886 97.6237 105.769C97.0993 105.727 96.5633 105.709 96.0155 105.715C95.9875 105.479 96.0311 105.273 96.1462 105.097L107.174 105.811C107.248 105.816 107.321 105.793 107.378 105.747C107.435 105.7 107.472 105.633 107.482 105.559L108.838 95.5019C108.84 95.4931 108.839 95.4841 108.837 95.4755C108.834 95.4669 108.83 95.4589 108.824 95.4521C108.819 95.4452 108.812 95.4397 108.804 95.4358C108.795 95.4319 108.787 95.4298 108.778 95.4296L99.0941 95.1355C98.9416 95.1308 98.8599 95.053 98.849 94.9021L98.842 94.8041C98.8407 94.7868 98.8431 94.7694 98.8489 94.753C98.8548 94.7366 98.8641 94.7216 98.8761 94.7089C98.8882 94.6962 98.9028 94.6861 98.919 94.6792C98.9352 94.6722 98.9527 94.6687 98.9704 94.6687C103.621 94.7216 108.218 94.8546 112.76 95.0678C114.376 95.1425 115.932 95.2055 117.428 95.2569C131.945 95.7587 146.273 96.2908 160.987 96.8557C161.785 96.8852 162.588 96.9218 163.395 96.9653ZM109.452 95.4296C109.432 95.4289 109.412 95.4359 109.396 95.4493C109.381 95.4627 109.371 95.4815 109.368 95.5019L108.073 105.858C108.072 105.869 108.073 105.88 108.076 105.89C108.079 105.901 108.084 105.911 108.091 105.919C108.098 105.928 108.106 105.935 108.116 105.94C108.126 105.945 108.137 105.948 108.148 105.949L137.988 107.902C138.008 107.904 138.028 107.897 138.045 107.884C138.061 107.871 138.071 107.853 138.074 107.832L139.603 96.6339C139.604 96.6226 139.603 96.6112 139.6 96.6003C139.596 96.5895 139.591 96.5795 139.583 96.5709C139.576 96.5623 139.566 96.5554 139.556 96.5506C139.546 96.5458 139.535 96.5431 139.523 96.5429L109.452 95.4296Z" fill="#6BD57E"/>
<path d="M107.753 107.513C107.662 108.46 107.62 109.431 107.492 110.341C107.188 112.532 106.88 114.797 106.567 117.136C106.55 117.259 106.604 117.322 106.728 117.327C109.919 117.448 113.147 117.736 116.232 117.857C129.191 118.363 142.144 118.983 155.093 119.719C155.661 119.751 156.231 119.817 156.802 119.918C156.649 119.91 156.512 119.926 156.389 119.967C156.273 120.006 156.272 120.05 156.384 120.1L156.624 120.207L137.385 119.337C137.326 119.334 137.268 119.354 137.222 119.391C137.177 119.429 137.148 119.482 137.14 119.54L135.859 129.669C135.856 129.69 135.858 129.711 135.864 129.731C135.869 129.751 135.879 129.77 135.892 129.786C135.905 129.803 135.921 129.816 135.94 129.825C135.958 129.835 135.978 129.841 135.999 129.842L155.565 131.168C155.221 131.319 155.359 131.465 155.98 131.606L136.011 130.423C135.937 130.419 135.864 130.443 135.808 130.489C135.751 130.536 135.714 130.603 135.705 130.675L134.409 140.987C134.408 141.002 134.409 141.017 134.413 141.031C134.417 141.046 134.424 141.059 134.434 141.071C134.443 141.083 134.455 141.092 134.469 141.099C134.482 141.106 134.497 141.11 134.512 141.11C139.776 141.356 145.087 141.634 150.444 141.944C152.737 142.076 155.243 142.19 157.962 142.287C158.018 142.289 158.073 142.309 158.116 142.346C158.16 142.382 158.19 142.432 158.202 142.487C158.21 142.522 158.211 142.556 158.207 142.59C158.183 142.76 158.086 142.85 157.915 142.861C157.321 142.9 156.765 142.88 156.249 142.803C155.427 142.678 154.993 142.613 154.946 142.609C154.338 142.567 153.779 142.534 153.27 142.511C147.158 142.243 140.889 141.957 134.463 141.652C134.43 141.65 134.398 141.661 134.372 141.683C134.347 141.704 134.33 141.735 134.325 141.769L133.086 151.438C133.084 151.457 133.085 151.476 133.091 151.493C133.096 151.511 133.105 151.528 133.117 151.542C133.129 151.556 133.144 151.568 133.161 151.576C133.178 151.584 133.196 151.589 133.214 151.59L153.868 152.575C153.076 152.486 152.72 152.645 152.801 153.051L133.158 152.138C133.125 152.137 133.092 152.148 133.065 152.169C133.039 152.19 133.02 152.22 133.014 152.253L132.839 153.133C132.809 153.277 132.72 153.345 132.573 153.336L132.479 153.331C132.356 153.323 132.301 153.259 132.314 153.137L132.398 152.272C132.4 152.251 132.398 152.23 132.391 152.21C132.385 152.19 132.375 152.171 132.361 152.155C132.347 152.139 132.33 152.126 132.311 152.117C132.292 152.108 132.272 152.102 132.251 152.101L112.078 151.112L111.865 150.899L111.8 150.498L132.381 151.501C132.448 151.504 132.486 151.473 132.496 151.406L133.735 141.785C133.75 141.659 133.695 141.593 133.569 141.587C125.797 141.149 117.435 140.739 108.484 140.357C107.091 140.297 105.61 140.263 104.04 140.254C103.718 140.251 103.534 140.132 103.489 139.899C103.456 139.736 103.37 139.621 103.223 139.554C103.145 139.517 103.081 139.457 103.041 139.382C103.001 139.306 102.986 139.22 102.999 139.136C103.409 136.408 103.84 133.326 104.289 129.889C105.189 123.025 106.111 116.097 107.055 109.104C107.063 109.045 107.103 108.871 107.174 108.582C107.238 108.325 107.213 108.141 107.099 108.029C107.299 107.78 107.517 107.608 107.753 107.513ZM105.4 125.715C105.302 126.42 105.225 127.126 105.167 127.832C105.165 127.853 105.168 127.874 105.174 127.894C105.181 127.913 105.191 127.932 105.204 127.947C105.218 127.963 105.234 127.976 105.253 127.985C105.271 127.994 105.291 127.999 105.312 128L135.112 129.774C135.157 129.778 135.201 129.763 135.235 129.735C135.27 129.706 135.293 129.665 135.299 129.62L136.582 119.421C136.585 119.4 136.583 119.379 136.577 119.359C136.572 119.34 136.562 119.321 136.548 119.305C136.535 119.29 136.518 119.277 136.5 119.268C136.481 119.259 136.461 119.253 136.44 119.253C132.258 119.127 128.098 118.865 123.991 118.655C122.372 118.573 120.819 118.489 119.33 118.405C115.127 118.166 110.889 117.995 106.616 117.892C106.512 117.889 106.453 117.939 106.439 118.044C106.108 120.564 105.761 123.122 105.4 125.715ZM105.109 128.512C105.088 128.51 105.068 128.517 105.052 128.53C105.036 128.543 105.025 128.561 105.022 128.582L103.578 139.514C103.576 139.525 103.577 139.537 103.58 139.548C103.583 139.559 103.588 139.569 103.595 139.578C103.603 139.586 103.612 139.594 103.622 139.599C103.632 139.604 103.643 139.607 103.655 139.607L133.77 141.033C133.79 141.034 133.81 141.027 133.825 141.015C133.841 141.002 133.851 140.983 133.854 140.963L135.166 130.404C135.167 130.393 135.166 130.382 135.163 130.372C135.16 130.361 135.155 130.352 135.148 130.343C135.141 130.335 135.132 130.327 135.122 130.322C135.113 130.317 135.102 130.314 135.091 130.313L105.109 128.512Z" fill="#6BD57E"/>
<path d="M209.725 198.052C207.995 198.322 206.249 198.754 204.487 199.35C204.215 199.442 203.973 199.606 203.762 199.843C203.724 199.885 203.719 199.93 203.745 199.978C203.765 200.015 203.792 200.028 203.825 200.015C203.781 200.075 203.764 200.143 203.773 200.221C203.636 200.039 203.519 199.924 203.467 199.698C202.974 197.521 202.507 195.323 202.067 193.104L196.571 166.271C196.567 166.258 196.565 166.247 196.564 166.236C193.727 152.529 190.884 138.823 188.035 125.118C187.8 123.987 187.528 123.097 187.218 122.45C187.824 122.617 188.414 122.64 188.99 122.52C190.107 122.29 191.162 121.96 192.155 121.53C192.211 121.506 192.273 121.494 192.334 121.497C192.396 121.499 192.456 121.516 192.511 121.545C192.565 121.573 192.612 121.614 192.649 121.664C192.686 121.714 192.71 121.771 192.722 121.832C193.031 123.514 193.426 125.281 193.905 127.134C193.96 127.346 194.034 127.558 194.129 127.769C194.224 127.981 194.286 128.199 194.314 128.425C194.357 128.788 194.419 129.124 194.5 129.436C194.573 129.72 194.528 129.975 194.596 130.236C194.828 131.137 195.033 132.044 195.212 132.955C195.495 134.395 195.679 135.306 195.763 135.688C200.39 156.473 205.044 177.261 209.725 198.052Z" fill="#6BD57E"/>
<path d="M157.738 58.7744C154.94 58.4026 152.699 57.2122 151.014 55.2035C150.132 52.7994 148.737 50.6794 146.829 48.8433C146.554 48.5788 146.295 48.3812 146.052 48.2505L145.396 47.5667C145.85 47.4375 146.356 47.5371 146.913 47.8654C148.226 48.6372 149.267 49.6058 150.036 50.7712C150.719 51.8044 151.416 52.8477 152.127 53.9011C152.897 55.0432 153.572 55.8702 154.151 56.3821C154.669 56.8411 155.235 57.2869 155.85 57.7195C156.085 57.886 156.398 58.0634 156.788 58.2516C157.107 58.4041 157.424 58.5784 157.738 58.7744Z" fill="#D5F4C7"/>
<path d="M169.578 78.1628C169.576 78.1616 169.573 78.1598 169.571 78.1576C169.569 78.1553 169.568 78.1527 169.567 78.1498C169.566 78.1469 169.566 78.1439 169.566 78.1409C169.566 78.1379 169.568 78.1351 169.569 78.1325L169.595 78.0812C169.607 78.0563 169.627 78.0493 169.653 78.0601C170.297 78.3278 170.781 78.674 171.105 79.0988C172.625 81.0982 172.781 83.2906 171.572 85.6759C171.555 85.7117 171.529 85.7203 171.495 85.7016L171.432 85.6666C171.352 85.623 171.336 85.5624 171.383 85.4846C172.215 84.0764 172.365 82.5033 171.833 80.7652C171.481 79.6154 170.73 78.7479 169.578 78.1628Z" fill="#D5F4C7"/>
<path d="M41.9536 186.448C43.7998 190.985 49.7234 192.355 54.0343 192.51C57.0934 192.62 60.1275 192.4 63.1368 191.849C64.0284 191.945 65.0102 191.978 66.0823 191.947C74.1999 191.712 82.1448 191.164 89.917 190.304C90.0648 190.287 90.2811 190.143 90.5658 189.872L91.9732 190.045L96.6318 190.764C97.1313 190.921 97.6261 190.914 98.1162 190.743C99.1432 190.729 99.9461 189.93 100.511 189.179C101.88 189.098 103.695 188.89 105.956 188.556C110.305 187.912 113.994 187.275 117.024 186.647C117.656 186.516 118.387 186.413 118.877 185.937C118.918 185.897 118.967 185.867 119.02 185.848C119.073 185.829 119.129 185.822 119.185 185.827C134.298 187.105 149.406 188.379 164.509 189.65C166.125 189.787 167.297 189.794 168.024 189.671C171.317 189.111 174.064 186.465 175.007 183.342C175.169 182.808 175.407 181.272 175.721 178.734C176.317 173.934 176.913 169.134 177.509 164.334C177.564 163.903 177.655 163.411 177.784 162.859C181.441 163.928 184.993 164.692 188.441 165.153C192.372 165.679 195.082 166.051 196.571 166.271L202.067 193.105C201.409 193.389 200.758 193.666 200.114 193.936C199.454 194.213 198.79 194.458 198.12 194.673C194.819 195.73 191.546 196.493 188.304 196.963C187.087 197.139 185.916 197.3 184.791 197.446C182.722 197.715 180.448 197.849 177.971 197.847C172.724 197.845 167.725 197.446 162.623 196.881C156.667 196.223 151.264 195.69 146.416 195.282C141.435 194.862 136.06 194.79 130.881 195.133C124.336 195.567 117.659 196.454 111.103 197.294C110.805 197.333 110.489 197.379 110.155 197.432C104.49 198.347 99.179 199.156 94.2232 199.859C92.1553 200.153 90.0406 200.524 87.9891 200.732C86.8657 200.846 85.7189 200.983 84.5488 201.143C75.6703 202.366 66.6113 202.408 57.3719 201.269C53.1925 200.754 49.4068 200.128 46.0147 199.39C44.2191 199 42.3877 198.562 40.5205 198.078C35.3531 196.736 30.307 195.014 25.8234 192.092C20.8964 188.878 18.1609 183.059 18.9568 177.192C19.5893 172.521 23.0693 169.723 26.9321 167.363C27.6276 166.938 28.3387 166.546 29.0653 166.185C31.919 164.764 34.8762 163.542 37.9368 162.518C38.7864 169.759 39.373 174.518 39.6966 176.795C39.9798 178.793 40.5065 181.372 41.2767 184.532C41.367 184.901 41.5926 185.539 41.9536 186.448Z" fill="#D5F4C7"/>
<path d="M211.529 187.19C211.566 187.36 211.549 187.306 211.475 187.029L206.919 168.21L206.933 167.858L207.066 168.166C207.098 168.241 207.152 168.291 207.23 168.318C209.377 169.016 211.634 169.94 213.212 171.623C216.255 174.872 217.196 180.188 214.615 183.983C213.802 185.178 212.774 186.247 211.529 187.19Z" fill="#D5F4C7"/>
<path d="M151.013 55.2034C149.807 53.6677 148.746 52.0806 147.83 50.4421C147.581 50.0002 146.988 49.2697 146.051 48.2505C146.294 48.3812 146.553 48.5788 146.828 48.8433C148.736 50.6794 150.131 52.7994 151.013 55.2034Z" fill="#D5F4C7"/>
<path d="M117.399 69.8444C117.707 70.1618 118.096 70.3345 118.566 70.3625C132.357 71.1794 146.146 71.9994 159.934 72.8225L160.66 72.9112C160.745 72.9221 160.792 72.884 160.8 72.7969L160.968 71.065C161.014 70.9795 161.02 70.9413 160.984 70.9507C161.116 70.9942 161.234 71.0635 161.337 71.1584C161.391 71.2098 161.456 71.237 161.53 71.2401L178.431 71.7326C178.48 71.7338 178.529 71.7464 178.573 71.7695C178.617 71.7925 178.655 71.8254 178.685 71.8656C178.714 71.9057 178.734 71.952 178.742 72.001C178.751 72.05 178.748 72.1003 178.734 72.148C178.533 72.8467 178.452 73.5624 178.491 74.2953L177.672 80.5083C177.411 78.4148 175.982 77.0307 174.414 75.803C173.143 74.8088 171.674 74.1405 170.007 73.7981C167.872 73.3617 165.489 73.8145 163.834 74.9885C161.053 76.9599 159.504 79.6362 159.185 83.0174C159.048 84.4567 159.258 85.8485 159.817 87.1929C160.408 88.6197 161.332 89.7361 162.588 90.5421C163.073 90.8533 163.541 91.1256 163.993 91.359C166.891 93.4363 170.651 92.554 173.167 90.3041C173.88 89.6661 174.876 88.5894 176.155 87.0738C176.041 88.1553 175.911 89.1947 175.763 90.192C175.714 90.5281 175.763 90.8899 175.665 91.198C175.587 91.4392 175.532 91.6796 175.499 91.9192C173.044 109.433 170.584 127.335 168.119 145.624C166.751 155.76 165.423 165.646 164.133 175.282C163.895 177.058 163.586 178.379 161.908 179.131C161.431 179.344 160.437 179.412 158.928 179.336C153.101 179.039 147.037 178.763 140.737 178.508C136.617 178.34 132.99 178.102 129.13 177.966C126.016 177.859 122.898 177.737 119.775 177.602L117.63 177.532C117.308 177.548 117.129 177.459 117.094 177.266C115.441 168.596 113.769 159.878 112.078 151.111L132.25 152.101C132.272 152.102 132.292 152.108 132.311 152.117C132.33 152.126 132.347 152.139 132.361 152.155C132.375 152.171 132.385 152.19 132.391 152.21C132.398 152.23 132.4 152.251 132.397 152.271L132.313 153.137C132.301 153.259 132.356 153.323 132.479 153.331L132.572 153.336C132.72 153.345 132.809 153.277 132.839 153.133L133.014 152.253C133.02 152.22 133.038 152.19 133.065 152.169C133.091 152.148 133.125 152.137 133.158 152.138L152.801 153.051C153.151 153.135 153.525 153.164 153.921 153.14C154.019 153.135 154.101 153.102 154.167 153.042C154.238 152.976 154.271 152.893 154.265 152.792C154.258 152.711 154.218 152.656 154.143 152.626C154.059 152.593 153.967 152.576 153.868 152.575L133.214 151.59C133.196 151.589 133.177 151.584 133.161 151.576C133.144 151.568 133.129 151.556 133.117 151.542C133.105 151.528 133.096 151.511 133.091 151.493C133.085 151.475 133.084 151.457 133.086 151.438L134.325 141.768C134.33 141.735 134.347 141.704 134.372 141.682C134.398 141.661 134.43 141.65 134.463 141.652C140.889 141.957 147.158 142.243 153.27 142.511C153.779 142.534 154.338 142.567 154.946 142.609C154.993 142.613 155.427 142.678 156.248 142.802C156.765 142.88 157.321 142.9 157.915 142.861C158.086 142.85 158.183 142.76 158.207 142.59C158.211 142.556 158.21 142.522 158.202 142.487C158.19 142.432 158.16 142.382 158.116 142.346C158.073 142.309 158.018 142.288 157.962 142.287C155.243 142.19 152.737 142.076 150.444 141.943C145.087 141.634 139.776 141.356 134.512 141.11C134.497 141.109 134.482 141.105 134.469 141.099C134.455 141.092 134.443 141.082 134.434 141.071C134.424 141.059 134.417 141.046 134.413 141.031C134.409 141.017 134.407 141.002 134.409 140.987L135.705 130.675C135.714 130.602 135.751 130.536 135.807 130.489C135.864 130.442 135.937 130.419 136.01 130.423L155.98 131.606C157.338 131.98 158.816 131.945 160.214 132.003C160.264 132.006 160.313 131.991 160.353 131.962C160.393 131.933 160.422 131.892 160.436 131.844C160.448 131.793 160.45 131.742 160.44 131.693C160.408 131.532 160.31 131.448 160.146 131.438L155.565 131.167L135.999 129.842C135.978 129.84 135.958 129.835 135.94 129.825C135.921 129.816 135.905 129.802 135.892 129.786C135.879 129.77 135.869 129.751 135.863 129.731C135.858 129.711 135.856 129.69 135.859 129.669L137.14 119.54C137.148 119.482 137.177 119.429 137.222 119.391C137.268 119.354 137.326 119.334 137.385 119.337L156.624 120.207C157.861 120.244 159.08 120.251 160.307 120.454C161.549 120.66 162.785 120.744 164.016 120.707C164.052 120.705 164.086 120.692 164.114 120.67C164.143 120.647 164.163 120.616 164.172 120.581L164.191 120.511C164.247 120.297 164.165 120.187 163.946 120.179L156.802 119.918C156.231 119.817 155.661 119.75 155.093 119.719C142.144 118.983 129.191 118.362 116.232 117.857C113.147 117.735 109.919 117.448 106.728 117.327C106.604 117.322 106.55 117.258 106.567 117.136C106.88 114.797 107.188 112.532 107.491 110.341C107.62 109.431 107.662 108.46 107.753 107.513L108.194 106.959C108.37 106.695 108.579 106.569 108.822 106.581C113.466 106.824 118.162 107.141 122.882 107.436C127.785 107.74 132.759 108.069 137.805 108.42C137.829 108.422 137.852 108.428 137.874 108.439C137.895 108.45 137.914 108.465 137.929 108.483C137.945 108.502 137.956 108.523 137.963 108.546C137.97 108.569 137.972 108.593 137.969 108.617L137.385 113.567C137.303 113.768 137.227 114.013 137.159 114.302C137.121 114.459 137.097 114.621 137.084 114.785C137.067 115.026 137.169 115.152 137.39 115.161C137.5 115.167 137.571 115.117 137.602 115.012C137.725 114.618 137.753 114.223 137.686 113.826L138.466 108.708C138.474 108.649 138.505 108.595 138.552 108.557C138.598 108.52 138.658 108.501 138.718 108.504L161.295 109.945L162.823 110.143C162.901 110.153 162.979 110.132 163.041 110.084C163.104 110.036 163.144 109.966 163.155 109.889L163.173 109.767C163.19 109.636 163.133 109.569 163.001 109.564L161.579 109.52L138.765 107.947C138.745 107.946 138.726 107.94 138.708 107.931C138.691 107.923 138.675 107.91 138.663 107.895C138.65 107.879 138.641 107.861 138.636 107.842C138.63 107.823 138.629 107.803 138.632 107.783L140.151 96.7389C140.165 96.6331 140.226 96.5825 140.333 96.5872L163.486 97.4461L167.641 97.6725C167.667 97.674 167.694 97.6703 167.719 97.6616C167.744 97.6528 167.768 97.6391 167.788 97.6213C167.808 97.6036 167.824 97.582 167.835 97.558C167.847 97.5339 167.854 97.5078 167.855 97.4811L167.869 97.264C167.871 97.2395 167.867 97.215 167.859 97.1919C167.851 97.1687 167.838 97.1475 167.821 97.1294C167.804 97.1113 167.784 97.0968 167.762 97.0866C167.739 97.0764 167.714 97.0709 167.69 97.0703L163.395 96.9653C162.588 96.9217 161.785 96.8851 160.986 96.8556C146.273 96.2907 131.945 95.7586 117.427 95.2568C115.932 95.2054 114.376 95.1424 112.759 95.0677C108.217 94.8546 103.621 94.7215 98.9701 94.6686C98.9524 94.6686 98.935 94.6722 98.9187 94.6791C98.9025 94.686 98.8879 94.6961 98.8759 94.7088C98.8638 94.7215 98.8546 94.7366 98.8487 94.7529C98.8428 94.7693 98.8405 94.7867 98.8417 94.804L98.8487 94.902C98.8596 95.053 98.9413 95.1308 99.0938 95.1354L108.778 95.4295C108.786 95.4297 108.795 95.4319 108.803 95.4357C108.811 95.4396 108.818 95.4452 108.824 95.452C108.83 95.4588 108.834 95.4668 108.837 95.4754C108.839 95.484 108.84 95.493 108.838 95.5019L107.482 105.559C107.472 105.633 107.435 105.7 107.378 105.746C107.32 105.793 107.248 105.816 107.174 105.811L96.146 105.097L99.801 82.6953C100.204 83.9836 100.547 84.8534 100.83 85.3047C101.881 86.9805 103.454 88.0518 105.19 88.9224C108.532 90.5958 112.239 88.955 114.524 86.3223C115.1 85.6594 115.703 84.9064 116.335 84.063C116.937 83.2601 117.338 82.479 117.537 81.7197C118.426 78.3354 117.612 74.9861 114.661 72.9322C113.291 71.9784 111.871 71.3265 110.402 70.9764C108.907 70.62 107.504 70.669 106.194 71.1234C104.185 71.822 102.496 73.2434 101.127 75.3876L102.044 69.7463C102.066 69.611 102.145 69.5448 102.282 69.548C103.757 69.5713 105.298 69.5744 106.903 69.5573C108.226 69.5433 109.643 69.5721 111.154 69.6437C113.237 69.7401 115.319 69.807 117.399 69.8444ZM104.154 91.8375L104.315 91.0206C104.321 90.9903 104.32 90.9591 104.312 90.9291C104.305 90.8992 104.291 90.8713 104.271 90.8475C104.251 90.8237 104.227 90.8044 104.199 90.7912C104.171 90.7779 104.14 90.771 104.11 90.7709L102.028 90.7615C101.975 90.7607 101.924 90.7779 101.883 90.8102C101.842 90.8425 101.813 90.8879 101.801 90.9389L101.776 91.0486C101.76 91.1124 101.785 91.1428 101.85 91.1396L102.569 91.1023C102.669 91.0961 102.716 91.1435 102.711 91.2447L102.625 93.1842C102.623 93.2222 102.636 93.2595 102.661 93.2879C102.686 93.3163 102.721 93.3335 102.758 93.3359L102.868 93.3429C102.935 93.3476 102.969 93.3157 102.971 93.2472L102.987 91.2073C102.988 91.0953 103.045 91.0401 103.157 91.0416L103.708 91.0533C103.862 91.058 103.918 91.1342 103.876 91.282C103.711 91.8546 103.619 92.5035 103.601 93.2286C103.6 93.2395 103.602 93.2504 103.607 93.2605C103.611 93.2706 103.617 93.2797 103.625 93.2872C103.634 93.2947 103.643 93.3004 103.654 93.304C103.665 93.3076 103.676 93.3089 103.687 93.3079L103.766 93.3009C103.847 93.2916 103.895 93.2472 103.909 93.1679L104.044 92.3323C104.051 92.2901 104.069 92.2507 104.098 92.2189C104.126 92.187 104.163 92.164 104.204 92.1527C104.246 92.1414 104.289 92.1421 104.33 92.155C104.371 92.1678 104.407 92.1921 104.434 92.2249C104.683 92.5237 104.873 92.8435 105.003 93.1842C105.044 93.2916 105.114 93.3593 105.214 93.3873C105.346 93.4262 105.457 93.3842 105.547 93.2612C105.581 93.2162 105.597 93.1604 105.592 93.1041C105.587 93.0478 105.562 92.995 105.522 92.9555C105.38 92.8186 105.304 92.6513 105.293 92.4537C105.29 92.407 105.265 92.3821 105.218 92.379C105.049 92.3634 104.905 92.2887 104.789 92.1549C104.72 92.0771 104.725 92.0032 104.803 91.9332L104.859 91.8819C104.87 91.8714 104.884 91.8635 104.898 91.8587C104.913 91.8538 104.929 91.8521 104.944 91.8536C104.96 91.8551 104.975 91.8599 104.989 91.8676C105.003 91.8752 105.015 91.8857 105.024 91.8982L105.228 92.1573C105.282 92.2273 105.333 92.2249 105.382 92.1503C105.475 92.0056 105.493 91.8787 105.435 91.7698C105.378 91.664 105.286 91.6064 105.16 91.5971C104.863 91.5753 104.583 91.6866 104.322 91.9309C104.171 92.0725 104.115 92.0413 104.154 91.8375ZM108.969 93.3733C108.605 93.3188 108.511 93.1119 108.686 92.7524C108.721 92.684 108.734 92.6108 108.726 92.533C108.704 92.2794 108.679 92.0795 108.649 91.9332C108.568 91.5224 108.469 91.5177 108.353 91.9192C108.301 92.0966 108.299 92.3004 108.346 92.5307C108.356 92.5848 108.346 92.6413 108.318 92.6894C108.251 92.8046 108.171 92.838 108.08 92.7898C107.951 92.7197 107.93 92.7439 108.017 92.8621C108.203 93.1157 108.378 93.3608 108.539 93.5973C108.594 93.6798 108.664 93.6969 108.75 93.6487C108.91 93.5584 109.051 93.5125 109.174 93.511C109.389 93.6417 109.598 93.6992 109.8 93.6837C109.826 93.6816 109.851 93.6705 109.869 93.6521C109.888 93.6338 109.9 93.6094 109.903 93.5833L110.187 91.205C110.193 91.1536 110.171 91.1256 110.12 91.121L109.982 91.1046C109.963 91.1026 109.945 91.1077 109.93 91.1189C109.915 91.1301 109.904 91.1466 109.9 91.1653C109.745 91.9355 109.661 92.6528 109.648 93.3173C109.643 93.56 109.59 93.5709 109.487 93.3499C109.448 93.2628 109.423 93.171 109.412 93.0745C109.405 93.0061 109.374 92.95 109.321 92.9065C109.268 92.8629 109.212 92.8481 109.151 92.8621C109.068 92.8792 109.023 92.929 109.013 93.0115L108.969 93.3733ZM110.456 91.6018C110.253 92.5463 110.246 93.5094 110.435 94.4912C110.442 94.5286 110.465 94.548 110.502 94.5496L110.572 94.5519C110.613 94.5535 110.633 94.5333 110.633 94.4912C110.636 93.8595 110.641 93.2153 110.647 92.5587C110.652 92.1588 110.795 91.7908 111.076 91.4547C111.092 91.4367 111.103 91.4146 111.107 91.3909C111.111 91.3672 111.108 91.3427 111.099 91.3203C111.09 91.2979 111.074 91.2783 111.055 91.2637C111.035 91.2492 111.012 91.2401 110.988 91.2377C110.824 91.2221 110.648 91.2003 110.458 91.1723C110.354 91.1552 110.334 91.1887 110.4 91.2727C110.426 91.3069 110.445 91.3458 110.456 91.3894C110.471 91.4585 110.471 91.531 110.456 91.6018ZM106.558 93.3523C106.519 93.3499 106.48 93.3397 106.445 93.3221C106.41 93.3046 106.378 93.2801 106.353 93.25C106.327 93.22 106.307 93.185 106.295 93.1473C106.283 93.1095 106.279 93.0697 106.282 93.0302C106.329 92.533 106.843 92.1713 106.439 91.6228C106.344 91.4921 106.216 91.468 106.056 91.5504C105.974 91.594 105.943 91.6617 105.963 91.7535C106.025 92.0476 106.016 92.351 105.935 92.6637C105.778 93.2706 106.138 93.7444 106.81 93.616C107.098 93.5631 107.191 93.4005 107.09 93.1282C107.043 93.0037 106.993 93.0022 106.938 93.1235C106.867 93.2885 106.74 93.3647 106.558 93.3523ZM107.706 91.9492C107.707 91.909 107.692 91.87 107.664 91.8409C107.637 91.8117 107.598 91.7948 107.558 91.7938L107.526 91.793C107.485 91.7921 107.446 91.8071 107.417 91.8348C107.388 91.8626 107.371 91.9008 107.37 91.941L107.333 93.4716C107.332 93.5118 107.347 93.5508 107.375 93.5799C107.402 93.6091 107.441 93.626 107.481 93.627L107.513 93.6278C107.554 93.6288 107.593 93.6137 107.622 93.586C107.651 93.5582 107.668 93.5201 107.669 93.4798L107.706 91.9492Z" fill="#D5F4C7"/>
<path d="M109.452 95.4297L139.523 96.5431C139.535 96.5433 139.546 96.5459 139.556 96.5507C139.566 96.5556 139.576 96.5625 139.583 96.571C139.591 96.5796 139.596 96.5896 139.599 96.6005C139.603 96.6113 139.604 96.6228 139.603 96.6341L138.074 107.833C138.071 107.853 138.06 107.872 138.044 107.885C138.028 107.897 138.008 107.904 137.988 107.903L108.148 105.949C108.137 105.948 108.126 105.945 108.116 105.94C108.106 105.935 108.098 105.928 108.091 105.919C108.084 105.911 108.079 105.901 108.076 105.891C108.072 105.88 108.072 105.869 108.073 105.858L109.368 95.5021C109.371 95.4817 109.38 95.4629 109.396 95.4495C109.412 95.4361 109.432 95.429 109.452 95.4297ZM110.295 100.95C110.233 101.008 110.191 101.083 110.175 101.166C110.158 101.249 110.167 101.335 110.201 101.412C110.542 102.191 110.959 102.956 111.452 103.706C111.466 103.727 111.485 103.744 111.507 103.756C111.528 103.768 111.552 103.775 111.577 103.775C111.602 103.776 111.626 103.771 111.648 103.761C111.67 103.751 111.69 103.735 111.705 103.715L113.061 101.963C113.124 101.879 113.119 101.799 113.044 101.724C112.5 101.169 112.094 100.544 111.828 99.8503C111.758 99.6698 111.653 99.6465 111.513 99.7803L110.295 100.95Z" fill="#D5F4C7"/>
<path d="M111.424 103.223L110.612 101.423C110.595 101.386 110.59 101.345 110.595 101.304C110.601 101.264 110.618 101.226 110.645 101.195L111.301 100.413C111.322 100.387 111.349 100.367 111.379 100.354C111.409 100.341 111.442 100.334 111.476 100.336C111.509 100.337 111.541 100.346 111.57 100.362C111.599 100.378 111.624 100.4 111.644 100.427L112.596 101.743C112.621 101.778 112.635 101.82 112.637 101.863C112.638 101.907 112.626 101.949 112.603 101.986L111.805 103.251C111.784 103.284 111.754 103.31 111.719 103.328C111.684 103.345 111.645 103.353 111.606 103.35C111.567 103.347 111.53 103.334 111.498 103.312C111.466 103.289 111.44 103.259 111.424 103.223Z" fill="#D5F4C7"/>
<path d="M107.508 106.724C106.297 107.978 104.99 109.133 103.587 110.187C103.019 110.614 102.417 110.981 101.78 111.289C101.702 111.326 101.633 111.314 101.572 111.252C100.463 110.114 99.4983 108.923 98.6783 107.678C98.653 107.64 98.6178 107.61 98.5766 107.591C98.5355 107.571 98.4899 107.564 98.4449 107.569C98.3282 107.581 98.2535 107.667 98.2208 107.825C98.2086 107.885 98.216 107.946 98.2419 108.001C98.8067 109.174 99.4944 110.329 100.305 111.466C100.662 111.968 100.903 112.416 101.43 112.76C101.499 112.804 101.58 112.824 101.662 112.817C101.744 112.811 101.822 112.777 101.883 112.722L107.099 108.029C107.213 108.141 107.238 108.325 107.174 108.582C107.102 108.871 107.063 109.045 107.055 109.105C106.11 116.097 105.189 123.025 104.289 129.889C103.84 133.326 103.409 136.408 102.999 139.136C102.986 139.22 103 139.306 103.041 139.382C103.081 139.457 103.145 139.517 103.223 139.554C103.37 139.621 103.456 139.736 103.489 139.899C103.534 140.132 103.717 140.251 104.039 140.254C105.609 140.263 107.091 140.297 108.483 140.357C117.435 140.739 125.797 141.149 133.569 141.587C133.695 141.593 133.75 141.659 133.735 141.785L132.495 151.406C132.486 151.473 132.448 151.504 132.381 151.501L111.8 150.498C111.816 150.183 111.763 149.886 111.641 149.606C111.61 149.533 111.554 149.492 111.473 149.482L109.996 149.312C110.302 148.476 110.477 147.759 110.521 147.16C110.636 145.54 110.139 144.247 109.03 143.279C108.163 142.739 107.291 142.38 106.413 142.203C105.934 142.091 105.084 142.013 103.862 141.969C99.2361 141.804 94.6055 141.639 89.9702 141.472C90.0449 141.055 90.1173 140.637 90.1873 140.219C90.318 139.432 90.6097 138.552 90.7638 137.63C91.1512 135.34 91.6522 132.402 92.2669 128.815C93.5848 121.136 94.8342 113.436 96.0152 105.716C96.5629 105.709 97.099 105.727 97.6233 105.769C99.1171 105.886 102.324 106.122 107.244 106.476C107.471 106.492 107.559 106.574 107.508 106.724ZM93.9305 127.327C93.9319 127.29 93.9163 127.253 93.8846 127.218C93.8529 127.183 93.8058 127.15 93.7458 127.122C93.6859 127.093 93.6144 127.07 93.5354 127.053C93.4564 127.036 93.3715 127.026 93.2854 127.023C93.1116 127.016 92.9438 127.04 92.819 127.088C92.6941 127.136 92.6225 127.204 92.6197 127.279C92.6184 127.315 92.634 127.352 92.6657 127.387C92.6974 127.423 92.7445 127.455 92.8044 127.483C92.8643 127.512 92.9358 127.535 93.0148 127.552C93.0938 127.569 93.1788 127.579 93.2649 127.582C93.4387 127.589 93.6065 127.565 93.7313 127.517C93.8562 127.47 93.9278 127.401 93.9305 127.327ZM100.595 140.023C100.596 139.975 100.578 139.928 100.545 139.893C100.512 139.858 100.466 139.837 100.418 139.836L90.6944 139.547C90.6461 139.546 90.5993 139.564 90.5641 139.597C90.529 139.63 90.5084 139.676 90.507 139.724L90.5021 139.887C90.5007 139.935 90.5185 139.982 90.5516 140.017C90.5847 140.052 90.6305 140.073 90.6787 140.074L100.402 140.363C100.451 140.364 100.498 140.347 100.533 140.314C100.568 140.28 100.588 140.235 100.59 140.186L100.595 140.023Z" fill="#D5F4C7"/>
<path d="M105.4 125.716C105.761 123.122 106.107 120.564 106.439 118.044C106.453 117.939 106.512 117.889 106.616 117.892C110.889 117.995 115.126 118.166 119.329 118.405C120.818 118.489 122.372 118.573 123.99 118.655C128.098 118.865 132.257 119.127 136.44 119.253C136.46 119.254 136.481 119.259 136.499 119.268C136.518 119.277 136.534 119.29 136.548 119.305C136.561 119.321 136.571 119.34 136.577 119.359C136.583 119.379 136.585 119.4 136.582 119.421L135.298 129.62C135.292 129.665 135.27 129.706 135.235 129.735C135.2 129.763 135.156 129.778 135.112 129.774L105.311 128C105.291 127.999 105.271 127.994 105.252 127.985C105.234 127.976 105.217 127.963 105.204 127.947C105.191 127.932 105.18 127.914 105.174 127.894C105.167 127.874 105.165 127.853 105.166 127.832C105.224 127.126 105.302 126.42 105.4 125.716Z" fill="#D5F4C7"/>
<path d="M105.109 128.511L135.091 130.313C135.102 130.314 135.113 130.317 135.122 130.322C135.132 130.327 135.141 130.334 135.148 130.343C135.155 130.351 135.16 130.361 135.163 130.372C135.166 130.382 135.167 130.393 135.166 130.404L133.854 140.963C133.851 140.983 133.841 141.001 133.825 141.014C133.81 141.027 133.79 141.034 133.77 141.033L103.655 139.607C103.643 139.607 103.632 139.604 103.622 139.599C103.612 139.594 103.603 139.586 103.595 139.578C103.588 139.569 103.583 139.559 103.58 139.548C103.577 139.537 103.576 139.525 103.578 139.514L105.022 128.581C105.025 128.561 105.036 128.542 105.052 128.529C105.068 128.516 105.088 128.51 105.109 128.511Z" fill="#D5F4C7"/>
<path d="M211.993 197.955L212.038 198.204C211.81 198.246 211.287 198.286 210.467 198.323C209.63 198.361 208.254 198.604 206.34 199.054C205.444 199.262 204.605 199.583 203.824 200.015C203.792 200.028 203.765 200.015 203.745 199.978C203.719 199.93 203.724 199.885 203.761 199.843C203.973 199.606 204.215 199.442 204.487 199.35C206.249 198.754 207.994 198.322 209.725 198.053L211.993 197.955Z" fill="#D5F4C7"/>
<path d="M210.502 199.306C210.415 199.465 210.36 199.639 210.338 199.829C210.335 199.863 210.322 199.897 210.302 199.925C210.281 199.954 210.254 199.977 210.222 199.992C209.974 200.104 209.736 200.221 209.507 200.342C209.139 200.537 208.694 200.502 208.175 200.237C208.123 200.054 207.951 199.847 207.659 199.616C207.53 199.515 207.502 199.391 207.575 199.243C207.592 199.206 207.619 199.174 207.657 199.149C207.708 199.114 207.762 199.111 207.818 199.142C208.464 199.509 208.718 200.337 209.668 199.857C209.76 199.812 209.811 199.738 209.82 199.637L209.883 198.946C209.891 198.862 209.937 198.817 210.021 198.811C210.251 198.796 210.411 198.96 210.502 199.306Z" fill="#D5F4C7"/>
<path d="M118.723 57.8922L117.4 69.8446C115.319 69.8072 113.237 69.7403 111.154 69.6438C109.643 69.5723 108.226 69.5435 106.904 69.5575C105.298 69.5746 103.757 69.5715 102.282 69.5481C102.145 69.545 102.066 69.6112 102.044 69.7465L101.127 75.3878C99.8916 77.6891 99.4497 80.125 99.8013 82.6955L96.1463 105.097C96.0312 105.273 95.9876 105.479 96.0156 105.716C94.8346 113.436 93.5852 121.136 92.2672 128.815C91.6526 132.402 91.1516 135.34 90.7642 137.63C90.6101 138.552 90.3184 139.432 90.1877 140.219C90.1176 140.637 90.0453 141.055 89.9706 141.472L81.4492 141.169C81.6422 140.263 81.8133 139.363 81.9627 138.468C85.932 114.67 89.9099 90.8714 93.8964 67.0741C94.3071 64.6203 94.6144 63.1297 94.8183 62.6022C96.0763 59.3346 99.3485 57.3951 102.871 57.4978C108.157 57.6518 113.432 57.8946 118.723 57.8922Z" fill="#D5F4C7"/>
<path d="M184.084 61.2741C184.054 61.3115 184.039 61.359 184.039 61.4165C184.038 61.4648 184.05 61.5099 184.077 61.5519C185.108 63.216 184.31 65.1836 184.086 66.9947C183.327 73.1004 182.468 79.0614 181.68 85.0528C180.629 93.0443 179.467 102.001 178.193 111.922C177.92 114.046 177.639 116.18 177.35 118.326C176.725 122.964 176.162 127.187 175.663 130.993C175.266 134.01 174.886 136.944 174.524 139.796C173.92 144.541 173.353 148.851 172.822 152.727C172.607 154.297 172.412 155.84 172.236 157.357C171.837 160.786 171.338 164.166 170.887 167.664C170.492 170.742 170.115 173.681 169.755 176.482C169.489 178.551 169.172 180.024 168.803 180.9C167.363 184.322 163.799 186.728 160.093 186.457C146.462 185.457 132.65 184.424 118.655 183.36C118.572 183.353 118.494 183.32 118.431 183.265C118.369 183.21 118.326 183.136 118.31 183.054L117.334 178.237C121.653 178.449 125.898 178.716 130.068 179.04C131.73 179.168 133.283 179.277 134.727 179.367C139.021 179.633 143.323 179.981 147.606 180.235C151.964 180.495 156.753 180.766 161.971 181.047C164.018 181.157 165.398 179.836 165.671 177.854C166.455 172.17 167.21 166.562 167.935 161.029C169.601 148.313 171.147 136.267 172.572 124.892C172.762 123.37 172.963 121.828 173.175 120.266C174.337 111.673 175.481 102.909 176.608 93.9733C176.737 92.9572 176.895 91.8159 177.082 90.5493C177.25 89.415 177.393 88.2721 177.511 87.1207C177.575 86.4998 177.653 85.8782 177.747 85.2558L178.274 82.4994C178.403 80.6929 178.51 78.9307 178.776 77.1126C178.974 75.7666 179.163 74.4378 179.343 73.1261C179.37 72.9347 179.286 72.8406 179.094 72.8437L178.958 72.846C178.768 72.8476 178.662 72.9425 178.638 73.1308L178.491 74.2954C178.452 73.5626 178.533 72.8468 178.734 72.1482C178.748 72.1005 178.751 72.0502 178.742 72.0012C178.734 71.9522 178.714 71.9059 178.685 71.8657C178.655 71.8256 178.617 71.7927 178.573 71.7696C178.529 71.7466 178.48 71.7339 178.431 71.7327L161.53 71.2403C161.456 71.2372 161.391 71.2099 161.337 71.1586C161.234 71.0637 161.116 70.9944 160.984 70.9508L161.936 62.9686L162.319 59.624C168.476 59.7796 174.664 59.9508 180.884 60.1375C181.946 60.1702 182.816 60.4541 183.493 60.9894C183.68 61.1364 183.878 61.1691 184.084 61.2741Z" fill="#D5F4C7"/>
<path d="M57.3695 114.837C58.2082 115.563 59.2375 115.618 60.4574 115C61.0129 116.78 61.2712 118.602 61.2323 120.466C61.2292 120.603 61.1599 120.661 61.0245 120.639L55.2666 119.684C55.6074 119.586 55.8151 119.444 55.8898 119.257C56.2492 118.344 56.7425 116.87 57.3695 114.837Z" fill="#D5F4C7"/>
<path d="M60.0698 136.118C58.4251 136.149 56.7625 136.194 55.082 136.253C54.6246 136.271 54.1578 136.248 53.6816 136.186C53.7314 136.234 53.7944 136.223 53.8707 136.153L54.6339 136.162C54.6724 136.163 54.7096 136.149 54.7378 136.123C54.7661 136.097 54.7832 136.061 54.7856 136.022L55.6842 120.394C56.4933 120.439 57.0511 120.494 57.3577 120.557C58.548 120.809 59.7624 121.015 61.001 121.174C61.0481 121.18 61.0915 121.202 61.1235 121.236C61.1556 121.271 61.1742 121.316 61.1761 121.363C61.2648 123.248 60.9497 125.067 60.91 126.89C60.896 127.504 60.8376 128.197 60.7349 128.969C60.6447 129.651 60.5762 130.352 60.5296 131.072C60.4175 132.768 60.2643 134.45 60.0698 136.118Z" fill="#D5F4C7"/>
<path d="M161.794 59.4209C161.794 59.5314 161.969 59.5991 162.319 59.624L161.937 62.9686C161.968 62.7819 161.962 62.6115 161.92 62.4574C161.889 62.3439 161.86 62.3446 161.834 62.4598C161.63 63.3249 161.489 64.2087 161.412 65.1112C161.41 65.1361 161.397 65.1493 161.372 65.1509L161.311 65.1579C161.264 65.1641 161.243 65.1439 161.248 65.0972C161.29 64.6428 161.264 64.2079 161.169 63.7925C161.15 63.7116 161.159 63.633 161.194 63.5567C161.473 62.9639 161.473 62.3983 161.194 61.8599C161.196 61.597 161.249 60.952 161.353 59.9251C161.391 59.5485 161.538 59.3805 161.794 59.4209Z" fill="#6BD57E"/>
<path d="M160.219 70.1455L160.242 70.575C160.247 70.6823 160.284 70.6948 160.354 70.6123L160.707 70.1945C160.711 70.1884 160.718 70.1843 160.725 70.1829C160.777 70.172 160.814 70.1836 160.837 70.2179C160.85 70.2381 160.854 70.2599 160.849 70.2832C160.802 70.5773 160.842 70.8379 160.968 71.0651L160.8 72.7969C160.792 72.884 160.746 72.9222 160.66 72.9113L159.934 72.8226L160.219 70.1455Z" fill="#6BD57E"/>
<path d="M112.484 80.2868C112.444 78.4312 111.606 75.9992 109.651 75.3901C109.518 75.3496 109.458 75.2594 109.471 75.1193L109.48 75.0376C109.486 74.9583 109.53 74.9217 109.611 74.9279C110.045 74.9699 110.429 75.1357 110.762 75.4251C112.589 77.0122 113.322 79.5585 112.496 81.8272C112.339 82.2566 112.07 82.6519 111.69 83.0128C111.656 83.0471 111.614 83.065 111.564 83.0665C111.529 83.0665 111.5 83.0556 111.478 83.0339C111.444 83.0012 111.441 82.9654 111.469 82.9265C112.05 82.1353 112.507 81.2997 112.484 80.2868Z" fill="#6BD57E"/>
<path d="M104.154 91.8377C104.115 92.0416 104.171 92.0727 104.322 91.9311C104.584 91.6868 104.863 91.5755 105.16 91.5973C105.286 91.6067 105.378 91.6642 105.436 91.77C105.493 91.8789 105.475 92.0058 105.382 92.1505C105.334 92.2252 105.282 92.2275 105.228 92.1575L105.025 91.8984C105.015 91.8859 105.003 91.8755 104.989 91.8678C104.976 91.8601 104.96 91.8554 104.945 91.8538C104.929 91.8523 104.914 91.854 104.899 91.8589C104.884 91.8637 104.871 91.8716 104.859 91.8821L104.803 91.9334C104.725 92.0034 104.721 92.0773 104.789 92.1551C104.906 92.2889 105.049 92.3636 105.219 92.3792C105.265 92.3823 105.29 92.4072 105.293 92.4539C105.304 92.6515 105.38 92.8188 105.522 92.9557C105.563 92.9952 105.588 93.048 105.593 93.1043C105.597 93.1606 105.581 93.2164 105.548 93.2614C105.457 93.3844 105.346 93.4264 105.214 93.3875C105.114 93.3595 105.044 93.2918 105.004 93.1844C104.873 92.8437 104.683 92.5239 104.434 92.2252C104.407 92.1923 104.371 92.168 104.33 92.1552C104.29 92.1424 104.246 92.1416 104.205 92.1529C104.164 92.1642 104.127 92.1872 104.098 92.2191C104.07 92.2509 104.051 92.2903 104.045 92.3325L103.909 93.1681C103.895 93.2474 103.848 93.2918 103.767 93.3011L103.688 93.3081C103.676 93.3091 103.665 93.3078 103.654 93.3042C103.644 93.3006 103.634 93.2949 103.626 93.2874C103.618 93.2799 103.611 93.2708 103.607 93.2607C103.603 93.2506 103.601 93.2397 103.601 93.2288C103.62 92.5037 103.712 91.8548 103.877 91.2822C103.919 91.1344 103.863 91.0582 103.709 91.0535L103.158 91.0418C103.046 91.0403 102.989 91.0955 102.987 91.2075L102.971 93.2474C102.969 93.3159 102.935 93.3478 102.868 93.3431L102.759 93.3361C102.721 93.3338 102.686 93.3165 102.661 93.2881C102.636 93.2597 102.624 93.2224 102.626 93.1844L102.712 91.2449C102.717 91.1437 102.669 91.0963 102.57 91.1025L101.851 91.1398C101.785 91.143 101.76 91.1126 101.776 91.0488L101.802 90.9391C101.813 90.8881 101.842 90.8427 101.883 90.8104C101.925 90.7781 101.976 90.7609 102.028 90.7617L104.11 90.7711C104.141 90.7712 104.171 90.7781 104.199 90.7914C104.227 90.8046 104.252 90.8239 104.271 90.8477C104.291 90.8716 104.305 90.8994 104.313 90.9294C104.32 90.9593 104.321 90.9905 104.315 91.0208L104.154 91.8377Z" fill="#6BD57E"/>
<path d="M109.175 93.511C109.069 93.4815 109 93.4356 108.969 93.3733L109.014 93.0116C109.023 92.9291 109.069 92.8793 109.151 92.8622C109.212 92.8482 109.269 92.863 109.322 92.9065C109.375 92.9501 109.405 93.0061 109.413 93.0746C109.424 93.171 109.448 93.2628 109.487 93.35C109.59 93.5709 109.644 93.56 109.648 93.3173C109.661 92.6529 109.745 91.9356 109.9 91.1654C109.904 91.1467 109.915 91.1301 109.93 91.1189C109.945 91.1077 109.964 91.1026 109.982 91.1047L110.12 91.121C110.171 91.1257 110.194 91.1537 110.188 91.2051L109.903 93.5834C109.9 93.6095 109.888 93.6338 109.87 93.6522C109.851 93.6705 109.826 93.6817 109.8 93.6837C109.598 93.6993 109.389 93.6417 109.175 93.511Z" fill="#6BD57E"/>
<path d="M106.558 93.3524C106.74 93.3648 106.867 93.2886 106.939 93.1236C106.993 93.0023 107.044 93.0038 107.091 93.1283C107.192 93.4006 107.098 93.5632 106.81 93.6161C106.138 93.7445 105.779 93.2707 105.935 92.6638C106.016 92.3511 106.025 92.0477 105.963 91.7536C105.943 91.6618 105.974 91.5941 106.057 91.5505C106.217 91.4681 106.344 91.4922 106.439 91.6229C106.843 92.1714 106.33 92.5331 106.283 93.0303C106.279 93.0698 106.284 93.1096 106.296 93.1474C106.308 93.1852 106.327 93.2201 106.353 93.2501C106.379 93.2802 106.41 93.3047 106.445 93.3223C106.481 93.3398 106.519 93.3501 106.558 93.3524Z" fill="#6BD57E"/>
<path d="M107.559 91.7941L107.526 91.7933C107.442 91.7912 107.373 91.8575 107.371 91.9412L107.333 93.4719C107.331 93.5556 107.398 93.6252 107.481 93.6272L107.514 93.628C107.598 93.6301 107.667 93.5638 107.669 93.4801L107.707 91.9494C107.709 91.8657 107.643 91.7961 107.559 91.7941Z" fill="#6BD57E"/>
<path d="M163.486 97.4461C163.359 97.4088 163.261 97.359 163.192 97.2968C163.122 97.2314 163.125 97.1692 163.202 97.11L163.395 96.9653L167.69 97.0704C167.715 97.071 167.739 97.0765 167.762 97.0867C167.784 97.0968 167.805 97.1114 167.822 97.1295C167.838 97.1476 167.851 97.1688 167.86 97.1919C167.868 97.2151 167.871 97.2396 167.87 97.2641L167.856 97.4811C167.854 97.5078 167.847 97.5339 167.836 97.558C167.824 97.5821 167.808 97.6036 167.788 97.6214C167.768 97.6392 167.745 97.6529 167.72 97.6616C167.694 97.6704 167.668 97.6741 167.641 97.6725L163.486 97.4461Z" fill="#6BD57E"/>
<path d="M108.194 106.96L107.753 107.513C107.517 107.608 107.299 107.78 107.1 108.028L101.883 112.722C101.822 112.777 101.744 112.811 101.663 112.817C101.581 112.824 101.499 112.804 101.43 112.759C100.903 112.416 100.662 111.968 100.305 111.466C99.4946 110.329 98.8069 109.174 98.2421 108C98.2162 107.946 98.2089 107.885 98.2211 107.825C98.2537 107.667 98.3284 107.581 98.4451 107.569C98.4901 107.564 98.5357 107.571 98.5769 107.591C98.618 107.61 98.6532 107.64 98.6785 107.678C99.4985 108.923 100.463 110.114 101.573 111.252C101.633 111.314 101.703 111.326 101.78 111.289C102.417 110.981 103.019 110.614 103.587 110.187C104.99 109.132 106.297 107.978 107.508 106.724C108.116 106.358 108.345 106.437 108.194 106.96Z" fill="#6BD57E"/>
<path d="M161.295 109.945L161.58 109.52L163.001 109.564C163.133 109.569 163.191 109.636 163.174 109.767L163.155 109.889C163.145 109.966 163.104 110.036 163.042 110.084C162.98 110.132 162.901 110.153 162.824 110.143L161.295 109.945Z" fill="#6BD57E"/>
<path d="M137.385 113.567C137.578 113.617 137.679 113.703 137.687 113.826C137.753 114.223 137.725 114.618 137.603 115.012C137.571 115.117 137.501 115.167 137.39 115.161C137.169 115.152 137.067 115.026 137.084 114.785C137.097 114.621 137.122 114.459 137.159 114.302C137.228 114.013 137.303 113.768 137.385 113.567Z" fill="#6BD57E"/>
<path d="M156.802 119.918L163.946 120.179C164.166 120.187 164.247 120.298 164.191 120.511L164.173 120.581C164.163 120.616 164.143 120.647 164.115 120.67C164.087 120.692 164.052 120.705 164.016 120.707C162.785 120.744 161.549 120.66 160.308 120.455C159.08 120.252 157.862 120.245 156.625 120.207L156.384 120.1C156.272 120.05 156.274 120.006 156.389 119.967C156.512 119.926 156.649 119.91 156.802 119.918Z" fill="#6BD57E"/>
<path d="M192.449 121.113C192.972 121.43 193.276 121.706 193.364 121.941C193.91 123.396 194.315 125.018 194.58 126.808C194.718 127.749 195.081 128.676 195.67 129.59L204.875 168.173L209.627 188.147L211.993 197.955L209.725 198.053C205.044 177.261 200.39 156.473 195.763 135.689C195.679 135.306 195.495 134.395 195.212 132.955C195.033 132.044 194.828 131.137 194.596 130.236C194.528 129.975 194.573 129.721 194.5 129.436C194.419 129.125 194.357 128.788 194.314 128.425C194.286 128.2 194.224 127.981 194.129 127.769C194.034 127.558 193.96 127.346 193.905 127.134C193.426 125.281 193.031 123.514 192.722 121.832C192.71 121.771 192.686 121.714 192.649 121.664C192.612 121.614 192.565 121.574 192.511 121.545C192.456 121.516 192.396 121.499 192.334 121.497C192.273 121.495 192.211 121.506 192.155 121.531C191.162 121.96 190.107 122.29 188.99 122.52C188.414 122.64 187.824 122.617 187.218 122.45C187.585 122.337 187.967 122.263 188.364 122.231C188.856 122.192 189.236 122.134 189.503 122.056C190.507 121.768 191.489 121.454 192.449 121.113Z" fill="#6BD57E"/>
<path d="M155.98 131.606C155.359 131.465 155.221 131.318 155.565 131.167L160.146 131.438C160.31 131.448 160.408 131.532 160.44 131.693C160.45 131.742 160.448 131.793 160.436 131.844C160.423 131.892 160.393 131.933 160.353 131.962C160.313 131.991 160.264 132.006 160.214 132.003C158.816 131.945 157.339 131.98 155.98 131.606Z" fill="#6BD57E"/>
<path d="M100.418 139.836L90.6947 139.547C90.5942 139.544 90.5103 139.623 90.5073 139.724L90.5024 139.887C90.4995 139.988 90.5785 140.071 90.679 140.074L100.403 140.363C100.503 140.366 100.587 140.287 100.59 140.186L100.595 140.023C100.598 139.923 100.519 139.839 100.418 139.836Z" fill="#6BD57E"/>
<path d="M153.868 152.575C153.968 152.576 154.059 152.594 154.143 152.626C154.218 152.656 154.258 152.711 154.265 152.792C154.271 152.893 154.238 152.976 154.167 153.042C154.101 153.102 154.02 153.135 153.922 153.14C153.525 153.165 153.151 153.135 152.801 153.051C152.72 152.645 153.076 152.486 153.868 152.575Z" fill="#6BD57E"/>
<path d="M212.038 198.204C212.119 198.271 212.135 198.353 212.085 198.449C211.987 198.636 211.525 198.837 211.343 199.059C211.243 199.178 211.129 199.277 210.999 199.355C210.614 199.588 210.448 199.572 210.502 199.306C210.412 198.961 210.252 198.796 210.022 198.811C209.938 198.817 209.892 198.863 209.884 198.947L209.821 199.637C209.811 199.739 209.761 199.812 209.669 199.857C208.719 200.338 208.465 199.509 207.818 199.143C207.762 199.111 207.709 199.114 207.657 199.15C207.62 199.175 207.593 199.206 207.576 199.243C207.502 199.391 207.53 199.515 207.66 199.616C207.952 199.847 208.124 200.054 208.175 200.237L205.802 200.186L203.773 200.221C203.764 200.143 203.781 200.075 203.825 200.016C204.606 199.583 205.445 199.262 206.341 199.054C208.255 198.604 209.63 198.361 210.467 198.323C211.287 198.286 211.811 198.246 212.038 198.204Z" fill="#6BD57E"/>
<path d="M177.784 162.858C177.655 163.411 177.563 163.902 177.509 164.333C176.913 169.134 176.317 173.934 175.721 178.734C175.407 181.272 175.169 182.808 175.007 183.341C174.064 186.464 171.317 189.111 168.024 189.671C167.297 189.794 166.125 189.787 164.509 189.65C149.406 188.379 134.298 187.105 119.185 185.827C119.129 185.822 119.073 185.829 119.02 185.848C118.967 185.867 118.918 185.897 118.877 185.937C118.387 186.413 117.656 186.516 117.024 186.646C113.994 187.275 110.305 187.911 105.956 188.556C103.695 188.89 101.88 189.098 100.511 189.179C100.967 188.451 101.242 187.669 101.337 186.835C101.351 186.708 101.421 186.66 101.547 186.691L101.995 186.8C102.018 186.806 102.041 186.807 102.064 186.804C102.087 186.801 102.109 186.792 102.128 186.78C102.148 186.768 102.165 186.752 102.179 186.733C102.193 186.714 102.202 186.692 102.208 186.67C102.364 185.946 101.367 186.096 101.778 185.309C101.795 185.278 101.819 185.251 101.848 185.231C101.877 185.212 101.911 185.2 101.946 185.197L102.177 185.178C102.264 185.17 102.313 185.123 102.322 185.036C102.351 184.762 102.218 184.477 101.923 184.182L118.578 185.813C118.614 185.817 118.65 185.812 118.683 185.799C118.716 185.785 118.746 185.765 118.769 185.738C118.793 185.711 118.81 185.678 118.818 185.644C118.827 185.609 118.827 185.573 118.819 185.538L118.333 183.47C118.319 183.414 118.288 183.364 118.245 183.327C118.201 183.29 118.147 183.268 118.09 183.264C113.352 182.953 108.592 182.605 103.809 182.221C103.357 182.185 102.919 182.086 102.495 181.922L103.624 177.04C104.158 177.23 104.688 177.345 105.214 177.385C106.721 177.502 108.23 177.602 109.739 177.686C112.375 177.832 114.907 178.016 117.334 178.237L118.31 183.054C118.327 183.136 118.369 183.21 118.432 183.265C118.494 183.32 118.572 183.353 118.655 183.36C132.65 184.424 146.462 185.457 160.093 186.457C163.799 186.728 167.363 184.322 168.803 180.9C169.172 180.024 169.489 178.551 169.755 176.482C170.115 173.681 170.492 170.742 170.887 167.664C171.338 164.165 171.837 160.786 172.236 157.357C172.412 155.84 172.608 154.297 172.822 152.727C173.353 148.851 173.92 144.54 174.524 139.796C174.886 136.944 175.266 134.01 175.663 130.992C176.162 127.187 176.725 122.964 177.35 118.326C177.64 116.18 177.92 114.045 178.193 111.922C179.467 102.001 180.629 93.0442 181.68 85.0527C182.469 79.0613 183.327 73.1004 184.086 66.9946C184.31 65.1835 185.108 63.2159 184.077 61.5518C184.05 61.5098 184.038 61.4647 184.039 61.4164C184.039 61.3589 184.054 61.3114 184.084 61.2741C187.776 61.155 190.077 64.2732 189.629 67.8489C187.482 85.0146 185.326 102.18 183.162 119.346C181.186 135.012 179.452 148.911 177.959 161.045C177.875 161.717 177.817 162.322 177.784 162.858Z" fill="#89CDA4"/>
<path d="M110.295 100.949L111.513 99.78C111.653 99.6462 111.758 99.6696 111.828 99.8501C112.094 100.544 112.5 101.169 113.044 101.724C113.119 101.799 113.124 101.878 113.06 101.962L111.704 103.715C111.69 103.735 111.67 103.75 111.648 103.761C111.626 103.771 111.602 103.776 111.577 103.775C111.552 103.774 111.528 103.768 111.506 103.755C111.485 103.743 111.466 103.726 111.452 103.706C110.959 102.956 110.542 102.191 110.201 101.411C110.167 101.334 110.158 101.248 110.175 101.166C110.191 101.083 110.233 101.007 110.295 100.949ZM111.424 103.223C111.44 103.258 111.466 103.289 111.498 103.311C111.53 103.334 111.567 103.347 111.606 103.35C111.645 103.353 111.684 103.345 111.719 103.328C111.754 103.31 111.784 103.284 111.805 103.251L112.603 101.986C112.626 101.949 112.638 101.906 112.637 101.863C112.635 101.82 112.621 101.778 112.596 101.743L111.644 100.427C111.625 100.4 111.599 100.377 111.57 100.361C111.541 100.346 111.509 100.337 111.476 100.335C111.442 100.334 111.409 100.34 111.379 100.354C111.349 100.367 111.322 100.387 111.301 100.413L110.645 101.194C110.618 101.226 110.601 101.264 110.595 101.304C110.59 101.345 110.595 101.386 110.612 101.423L111.424 103.223Z" fill="#89CDA4"/>
<path d="M70.5821 186.644C70.7346 186.8 71.0746 186.917 71.6021 186.996C77.9241 187.963 84.2453 188.921 90.5657 189.872C90.281 190.143 90.0647 190.287 89.9169 190.304C82.1447 191.164 74.1998 191.712 66.0822 191.947C65.0101 191.978 64.0283 191.945 63.1367 191.849C64.0516 191.566 65.0272 191.328 65.8535 190.955C66.8555 190.504 67.702 190.008 68.3928 189.468C69.2907 188.768 70.0204 187.827 70.5821 186.644Z" fill="#89CDA4"/>
<path d="M161.937 62.9685L160.985 70.9507C161.021 70.9414 161.015 70.9795 160.968 71.0651C160.842 70.8379 160.803 70.5773 160.849 70.2832C160.854 70.2599 160.85 70.2381 160.838 70.2179C160.814 70.1836 160.777 70.172 160.726 70.1829C160.718 70.1843 160.712 70.1884 160.707 70.1945L160.355 70.6123C160.285 70.6948 160.247 70.6823 160.243 70.575L160.219 70.1455L161.195 61.8599C161.473 62.3982 161.473 62.9638 161.195 63.5567C161.159 63.6329 161.15 63.7115 161.169 63.7924C161.264 64.2079 161.291 64.6427 161.249 65.0971C161.244 65.1438 161.265 65.164 161.312 65.1578L161.372 65.1508C161.397 65.1492 161.41 65.136 161.412 65.1111C161.49 64.2086 161.631 63.3248 161.834 62.4597C161.861 62.3445 161.89 62.3438 161.921 62.4574C161.963 62.6114 161.968 62.7818 161.937 62.9685Z" fill="#252722"/>
<path d="M93.2653 127.582C93.6272 127.596 93.9253 127.481 93.9309 127.326C93.9366 127.172 93.6478 127.036 93.2858 127.023C92.9238 127.009 92.6258 127.124 92.6201 127.278C92.6144 127.433 92.9033 127.569 93.2653 127.582Z" fill="#252722"/>
<path d="M109.03 143.279C110.139 144.246 110.637 145.54 110.521 147.16C110.478 147.759 110.303 148.476 109.996 149.312C110.013 149.429 109.983 149.573 109.905 149.746C109.873 149.816 109.876 149.884 109.915 149.949C110.178 150.389 110.552 150.6 111.037 150.582C110.838 150.518 110.697 150.576 110.612 150.757C110.58 150.824 110.526 150.862 110.451 150.871C110.218 150.901 110.041 150.965 109.922 151.065L109.672 151.24C109.594 151.293 109.594 151.346 109.672 151.398C109.933 151.574 110.075 151.882 110.097 152.32C110.101 152.423 110.052 152.475 109.95 152.477C109.747 152.48 109.567 152.408 109.408 152.26C109.395 152.247 109.378 152.238 109.36 152.234C109.342 152.23 109.323 152.231 109.306 152.237C109.288 152.243 109.272 152.253 109.259 152.267C109.246 152.281 109.237 152.297 109.233 152.316C108.589 155.241 107.96 158.102 107.347 160.898C107.291 161.157 107.471 161.337 107.672 161.467C107.734 161.509 107.784 161.565 107.817 161.631C107.851 161.698 107.867 161.771 107.863 161.845C107.846 162.177 107.775 162.325 107.651 162.291C107.554 162.263 107.476 162.206 107.415 162.121C107.362 162.046 107.291 162.003 107.203 161.992C107.181 161.99 107.158 161.995 107.139 162.005C107.119 162.015 107.103 162.031 107.092 162.05C107.081 162.069 107.076 162.091 107.077 162.113C107.079 162.136 107.087 162.157 107.1 162.175L107.569 162.8C107.767 163.063 107.701 163.203 107.373 163.22C107.189 163.229 107.041 163.138 106.927 162.945C106.919 162.931 106.906 162.92 106.892 162.913C106.877 162.906 106.861 162.904 106.845 162.906C106.829 162.909 106.814 162.916 106.802 162.927C106.79 162.938 106.781 162.952 106.778 162.968L104.614 172.652C104.594 172.742 104.616 172.82 104.679 172.885L105.118 173.336C105.176 173.394 105.211 173.471 105.218 173.553C105.225 173.634 105.204 173.716 105.158 173.784C105.026 173.977 104.904 173.998 104.794 173.847C104.693 173.708 104.624 173.722 104.588 173.889C104.581 173.926 104.585 173.962 104.6 173.996C104.714 174.245 104.844 174.5 104.99 174.762C105.009 174.797 105.019 174.837 105.017 174.877C105.014 174.917 105.001 174.955 104.978 174.988C104.954 175.021 104.923 175.046 104.885 175.061C104.848 175.077 104.808 175.081 104.768 175.074C104.58 175.04 104.432 174.934 104.325 174.755C104.228 174.593 104.161 174.605 104.124 174.79L103.73 176.701L103.625 177.04L102.495 181.922L101.923 184.182C102.219 184.477 102.352 184.762 102.322 185.036C102.313 185.123 102.265 185.17 102.177 185.178L101.946 185.197C101.911 185.2 101.878 185.212 101.848 185.231C101.819 185.251 101.795 185.277 101.778 185.309C101.368 186.096 102.364 185.946 102.208 186.67C102.203 186.692 102.193 186.714 102.179 186.733C102.166 186.752 102.148 186.768 102.129 186.78C102.109 186.792 102.087 186.801 102.064 186.804C102.041 186.807 102.018 186.806 101.995 186.8L101.547 186.691C101.421 186.66 101.351 186.708 101.337 186.835C101.242 187.669 100.967 188.45 100.511 189.179C99.9462 189.93 99.1433 190.728 98.1163 190.742C99.7081 189.621 100.608 188.141 100.817 186.303C100.825 186.222 100.795 186.16 100.728 186.117L98.5808 184.735L96.1488 183.624C94.6644 183.073 93.1099 182.784 91.4855 182.758C91.3874 182.756 91.3174 182.8 91.2754 182.889C91.1556 183.138 90.9385 183.26 90.6242 183.255C90.5431 183.253 90.4653 183.222 90.405 183.168C90.3447 183.114 90.3057 183.041 90.2951 182.961C90.1271 181.712 90.9557 181.365 92.0643 181.306C93.5752 181.228 95.0697 181.357 96.5479 181.691C97.5639 181.967 98.5419 182.346 99.4817 182.828L101.312 184.032C101.427 184.107 101.473 184.077 101.449 183.941C101.419 183.755 101.433 183.556 101.475 183.372C102.192 180.288 102.92 177.219 103.657 174.164C103.687 174.043 103.651 173.947 103.55 173.877C102.596 173.205 101.62 172.701 100.623 172.365L98.8982 171.601C97.8059 171.305 95.7427 170.836 94.4613 171.13C94.3851 171.147 94.3228 171.186 94.2746 171.247C94.0645 171.516 93.7821 171.605 93.4273 171.513C93.3249 171.487 93.2351 171.425 93.174 171.339C93.1128 171.253 93.0843 171.148 93.0936 171.044C93.1636 170.216 93.6125 169.749 94.4403 169.643C95.724 169.48 97.3072 169.547 99.19 169.844L102.159 171.125L103.879 172.353C103.994 172.434 104.043 172.405 104.026 172.267C104.01 172.141 104.033 171.956 104.066 171.833C104.714 169.419 105.301 166.96 105.825 164.455C105.961 163.806 106.123 163.178 106.311 162.571C106.328 162.517 106.328 162.458 106.31 162.404C106.293 162.35 106.259 162.302 106.213 162.268C105.15 161.471 104.049 160.815 102.91 160.3C102.633 160.174 102.139 160.014 101.428 159.82C100.929 159.623 100.396 159.493 99.8295 159.427C99.0966 159.343 97.3064 159.068 96.7556 159.663C96.5059 159.934 96.0764 160.013 95.787 159.756C95.7523 159.726 95.7243 159.688 95.7047 159.646C95.685 159.604 95.6741 159.558 95.6726 159.511C95.6477 158.582 96.1005 158.046 97.031 157.903C97.9553 157.76 98.9931 157.711 100.145 157.756C100.742 157.78 101.31 157.83 101.848 157.908L104.941 159.262L106.607 160.513C106.752 160.62 106.816 160.584 106.799 160.405C106.782 160.237 106.802 160.033 106.859 159.792C107.524 157.028 108.163 154.26 108.778 151.487C108.783 151.465 108.781 151.441 108.774 151.419C108.766 151.397 108.752 151.377 108.734 151.361C107.313 150.183 105.713 149.291 103.935 148.684C102.665 148.203 101.331 147.996 99.9322 148.063C99.5891 148.08 99.2506 148.241 99.0172 148.493C98.9624 148.552 98.8944 148.597 98.8186 148.625C98.7429 148.653 98.6616 148.663 98.5815 148.653C98.5013 148.644 98.4246 148.615 98.3575 148.57C98.2905 148.525 98.235 148.465 98.1957 148.395C97.8923 147.851 98.303 147.102 98.7698 146.798C98.983 146.66 99.3284 146.566 99.8061 146.516C100.559 146.438 101.241 146.41 101.851 146.432C102.563 146.457 103.404 146.559 104.374 146.738C105.485 147.125 106.528 147.61 107.504 148.192L109.319 149.438C109.41 149.499 109.46 149.475 109.471 149.368C109.524 148.875 109.621 148.379 109.763 147.881C110.097 146.686 109.954 145.372 109.487 144.217C109.355 143.892 109.142 143.594 108.848 143.323C108.909 143.307 108.969 143.293 109.03 143.279ZM104.14 148.105C105.905 148.711 107.454 149.512 108.787 150.509C109.133 150.768 109.229 150.695 109.077 150.292C108.974 150.018 108.784 149.776 108.507 149.566C107.264 148.617 105.889 147.878 104.383 147.349C102.959 146.916 101.499 146.755 100.002 146.864C99.449 146.903 99.0616 147.181 99.1059 147.76C99.1137 147.856 99.1643 147.89 99.2576 147.86C99.81 147.681 100.353 147.61 100.887 147.645C101.758 147.703 102.843 147.856 104.14 148.105ZM101.431 159.194C103.327 159.792 105.027 160.646 106.53 161.757C106.602 161.81 106.639 161.792 106.642 161.703C106.645 161.607 106.603 161.512 106.514 161.421C105.257 160.135 103.702 159.164 101.851 158.508C100.528 158.057 99.0585 157.939 97.4418 158.155C97.0637 158.205 96.8326 158.444 96.7486 158.872C96.7428 158.901 96.7442 158.932 96.7529 158.961C96.7616 158.99 96.7772 159.016 96.7984 159.037C96.8196 159.059 96.8457 159.075 96.8745 159.084C96.9032 159.093 96.9337 159.095 96.9633 159.089C97.5359 158.986 98.1436 158.936 98.7862 158.937C99.4008 158.937 100.282 159.023 101.431 159.194ZM98.9215 171.139C100.695 171.701 102.353 172.473 103.895 173.455C103.97 173.503 104 173.483 103.986 173.396C103.969 173.294 103.909 173.199 103.807 173.112C102.431 171.941 100.854 171.041 99.0756 170.411C97.8464 170.115 96.5759 169.96 95.2642 169.944C94.8137 169.937 94.0529 170.073 94.2559 170.701C94.2839 170.785 94.3423 170.823 94.431 170.815C95.4424 170.714 96.2351 170.718 96.8093 170.829C97.525 170.967 98.2291 171.071 98.9215 171.139ZM96.4218 183.096C98.0603 183.683 99.6171 184.487 101.092 185.51C101.179 185.57 101.222 185.548 101.221 185.442L101.214 185.043C101.212 184.946 101.175 184.868 101.101 184.807C99.7968 183.729 98.324 182.767 96.6809 182.314C95.1312 181.849 93.4997 181.633 91.7866 181.666C91.5485 181.67 91.41 181.789 91.3711 182.023L91.3524 182.135C91.3213 182.329 91.403 182.439 91.5975 182.464L96.4218 183.096Z" fill="#252722"/>
<path d="M99.801 82.6953C99.4493 80.1248 99.8912 77.6889 101.127 75.3876C102.496 73.2435 104.185 71.8221 106.194 71.1234C107.504 70.6691 108.907 70.6201 110.402 70.9764C111.871 71.3265 113.291 71.9784 114.661 72.9323C117.612 74.9862 118.426 78.3354 117.537 81.7197C117.338 82.479 116.937 83.2601 116.335 84.063C115.703 84.9064 115.099 85.6595 114.524 86.3223C112.239 88.9551 108.532 90.5958 105.19 88.9224C103.454 88.0518 101.881 86.9805 100.83 85.3047C100.547 84.8535 100.204 83.9837 99.801 82.6953ZM105.633 85.9313C106.315 86.2084 107.054 86.3271 107.807 86.2805C108.561 86.234 109.314 86.0231 110.023 85.66C110.733 85.2969 111.385 84.7886 111.943 84.1643C112.5 83.5399 112.953 82.8116 113.274 82.021C113.595 81.2303 113.778 80.3929 113.814 79.5564C113.849 78.7199 113.736 77.9008 113.48 77.1458C113.225 76.3909 112.832 75.7148 112.324 75.1562C111.817 74.5977 111.204 74.1675 110.522 73.8904C109.839 73.6133 109.101 73.4947 108.347 73.5412C107.594 73.5878 106.841 73.7986 106.131 74.1617C105.422 74.5248 104.77 75.0331 104.212 75.6575C103.654 76.2819 103.202 77.0102 102.881 77.8008C102.56 78.5914 102.376 79.4288 102.341 80.2653C102.305 81.1018 102.419 81.9209 102.674 82.6759C102.93 83.4309 103.322 84.107 103.83 84.6655C104.338 85.2241 104.95 85.6542 105.633 85.9313Z" fill="#DBDD52"/>
<path d="M167.165 78.1138C167.179 78.1122 167.187 78.1184 167.19 78.1324C167.502 80.093 167.978 82.0061 168.621 83.8717C168.648 83.9492 168.644 84.034 168.611 84.1092C168.577 84.1845 168.517 84.2446 168.441 84.2778L168.369 84.3105C168.227 84.3712 168.143 84.326 168.117 84.1751C167.76 82.2029 167.097 80.1537 167.134 78.1441C167.134 78.1254 167.144 78.1153 167.162 78.1138H167.165Z" fill="#DBDD52"/>
<path d="M61.3953 113.982C61.3813 114.032 61.389 114.119 61.4186 114.244L60.457 115C59.2371 115.618 58.2078 115.563 57.3691 114.837C58.1137 112.988 58.6178 111.107 59.4907 109.405C59.5146 109.358 59.5499 109.318 59.5935 109.288C59.637 109.258 59.6873 109.24 59.7398 109.235C59.7923 109.229 59.8453 109.237 59.894 109.258C59.9426 109.278 59.9853 109.31 60.0182 109.352C60.352 109.77 60.4943 110.386 60.6577 110.89C60.9845 111.893 61.1385 112.948 61.3953 113.982Z" fill="#DBDD52"/>
<path d="M178.275 82.4993L178.153 80.1046C178.15 80.0557 178.135 80.0085 178.108 79.9679C178.08 79.9272 178.043 79.8947 177.999 79.8735L177.939 79.8432C177.931 79.8392 177.922 79.8372 177.913 79.8376C177.904 79.838 177.896 79.8407 177.888 79.8454C177.881 79.8501 177.874 79.8567 177.87 79.8645C177.866 79.8722 177.864 79.881 177.864 79.8899L177.876 80.8095C177.876 80.8269 177.872 80.8442 177.865 80.8599C177.857 80.8756 177.846 80.8892 177.832 80.8997C177.818 80.9102 177.802 80.9172 177.785 80.9202C177.767 80.9232 177.75 80.922 177.733 80.9168L177.612 80.8772C177.658 80.8429 177.679 80.72 177.673 80.5084L178.492 74.2953L178.639 73.1307C178.662 72.9424 178.769 72.8475 178.959 72.8459L179.094 72.8436C179.287 72.8405 179.37 72.9346 179.344 73.126C179.163 74.4377 178.974 75.7665 178.776 77.1124C178.51 78.9306 178.403 80.6928 178.275 82.4993Z" fill="#89CDA4"/>
<path d="M177.747 85.2556C177.654 85.878 177.575 86.4996 177.511 87.1205C177.393 88.2719 177.25 89.4148 177.082 90.5491C176.895 91.8157 176.737 92.957 176.608 93.973C175.482 102.909 174.337 111.673 173.175 120.265C172.963 121.828 172.763 123.37 172.573 124.891C171.147 136.267 169.602 148.313 167.935 161.028C167.21 166.562 166.455 172.17 165.671 177.854C165.398 179.836 164.019 181.157 161.972 181.047C156.753 180.765 151.964 180.495 147.606 180.235C143.323 179.98 139.022 179.633 134.727 179.367C133.283 179.276 131.73 179.167 130.069 179.04C125.899 178.716 121.654 178.448 117.334 178.237C114.907 178.016 112.375 177.832 109.74 177.686C108.23 177.602 106.722 177.502 105.214 177.385C104.688 177.345 104.158 177.229 103.625 177.04L103.73 176.701C107.333 176.893 110.928 177.142 114.513 177.45C115.55 177.541 116.59 177.568 117.631 177.532L119.776 177.602C120.603 177.744 121.435 177.839 122.271 177.889C123.803 177.978 124.576 178.023 124.588 178.024C130.484 178.519 136.387 178.837 142.285 179.287C144.423 179.449 146.63 179.58 148.906 179.679C151.903 179.812 155.968 180.057 161.101 180.417C162.518 180.517 163.83 180.475 164.619 179.168C164.85 178.782 165.045 177.978 165.202 176.755C166.025 170.319 166.872 163.972 167.744 157.714C167.778 157.476 167.81 157.236 167.839 156.995C168.476 151.901 169.116 146.77 169.76 141.603C169.942 140.14 170.144 138.597 170.365 136.974C170.861 133.322 171.36 129.502 171.861 125.512C172.622 119.469 173.546 112.426 174.634 104.383C175.353 99.0658 176.001 93.6953 176.753 88.3318C176.856 87.6067 176.853 86.8894 176.746 86.1799L177.101 85.4167C177.146 85.3186 177.215 85.2976 177.308 85.3536C177.344 85.3739 177.373 85.4011 177.395 85.4353C177.454 85.5225 177.518 85.5256 177.586 85.4447L177.747 85.2556Z" fill="#89CDA4"/>
<path d="M102.495 181.922C102.919 182.086 103.357 182.185 103.809 182.221C108.592 182.605 113.352 182.953 118.09 183.264C118.147 183.268 118.201 183.29 118.245 183.327C118.289 183.364 118.319 183.414 118.333 183.47L118.819 185.538C118.827 185.573 118.827 185.609 118.818 185.644C118.81 185.678 118.793 185.711 118.77 185.738C118.746 185.765 118.716 185.785 118.683 185.799C118.65 185.812 118.614 185.817 118.578 185.813L101.923 184.182L102.495 181.922Z" fill="#89CDA4"/>
<path d="M105.633 85.9314C104.95 85.6543 104.338 85.2242 103.83 84.6656C103.323 84.1071 102.93 83.431 102.674 82.676C102.419 81.921 102.305 81.1019 102.341 80.2654C102.376 79.429 102.56 78.5915 102.881 77.8009C103.202 77.0103 103.654 76.282 104.212 75.6576C104.77 75.0332 105.422 74.525 106.131 74.1618C106.841 73.7987 107.594 73.5879 108.347 73.5413C109.101 73.4948 109.84 73.6135 110.522 73.8906C111.204 74.1677 111.817 74.5978 112.324 75.1563C112.832 75.7149 113.225 76.391 113.48 77.146C113.736 77.9009 113.849 78.7201 113.814 79.5565C113.778 80.393 113.595 81.2305 113.274 82.0211C112.953 82.8117 112.5 83.54 111.943 84.1644C111.385 84.7888 110.733 85.297 110.023 85.6601C109.314 86.0232 108.561 86.2341 107.807 86.2806C107.054 86.3272 106.315 86.2085 105.633 85.9314ZM109.723 80.4921C109.681 80.4993 109.639 80.4917 109.602 80.4709C109.565 80.45 109.537 80.4171 109.522 80.3778C108.85 78.6522 108.241 76.8799 107.695 75.061C107.634 74.8571 107.506 74.7225 107.312 74.6572C107.242 74.6323 107.173 74.7031 107.106 74.8696C107.09 74.9092 107.085 74.953 107.092 74.9956C107.435 77.0744 107.891 79.2264 108.46 81.4514C108.472 81.5006 108.495 81.5468 108.525 81.5872C108.556 81.6276 108.595 81.6613 108.639 81.6864C108.683 81.7115 108.732 81.7274 108.783 81.7331C108.834 81.7389 108.885 81.7343 108.934 81.7198C109.461 81.5634 110.099 81.26 110.439 80.7909C110.679 80.461 111.027 80.2393 111.483 80.1257C111.741 80.0619 111.753 79.9709 111.518 79.8526C111.448 79.8168 111.378 79.8207 111.31 79.8643C110.82 80.1864 110.291 80.3957 109.723 80.4921ZM109.65 75.3901C111.606 75.9992 112.444 78.4312 112.484 80.2868C112.507 81.2997 112.05 82.1353 111.469 82.9265C111.441 82.9654 111.444 83.0012 111.478 83.0339C111.5 83.0556 111.528 83.0665 111.564 83.0665C111.614 83.065 111.656 83.0471 111.69 83.0129C112.07 82.6519 112.338 82.2566 112.496 81.8272C113.322 79.5586 112.589 77.0122 110.761 75.4251C110.428 75.1357 110.045 74.9699 109.611 74.9279C109.53 74.9217 109.486 74.9583 109.48 75.0376L109.471 75.1193C109.458 75.2594 109.518 75.3496 109.65 75.3901Z" fill="white"/>
<path d="M170.672 87.9632C170.335 88.2339 169.782 88.5272 169.013 88.8431C167.496 89.4663 165.829 89.3122 164.478 88.4627C162.829 87.4217 161.932 85.893 161.787 83.8764C161.577 80.9402 163.677 77.759 166.432 76.7437C168.271 76.0669 169.929 76.3337 171.405 77.5443C172.551 78.4849 173.275 80.1747 173.415 81.6941C173.645 84.2226 172.731 86.3123 170.672 87.9632ZM167.164 78.1138H167.162C167.143 78.1153 167.134 78.1255 167.134 78.1441C167.097 80.1537 167.76 82.2029 168.117 84.1751C168.143 84.3261 168.227 84.3712 168.369 84.3105L168.441 84.2778C168.517 84.2447 168.577 84.1845 168.61 84.1093C168.644 84.034 168.647 83.9493 168.621 83.8717C167.978 82.0061 167.501 80.093 167.19 78.1325C167.187 78.1185 167.178 78.1122 167.164 78.1138ZM169.578 78.1628C170.729 78.7479 171.481 79.6153 171.832 80.7652C172.365 82.5032 172.214 84.0763 171.382 85.4845C171.335 85.5623 171.352 85.623 171.431 85.6666L171.494 85.7016C171.528 85.7202 171.554 85.7117 171.571 85.6759C172.78 83.2906 172.624 81.0982 171.104 79.0987C170.781 78.6739 170.297 78.3277 169.652 78.0601C169.626 78.0492 169.607 78.0562 169.594 78.0811L169.568 78.1325C169.567 78.135 169.566 78.1379 169.565 78.1409C169.565 78.1438 169.565 78.1469 169.566 78.1498C169.567 78.1526 169.569 78.1553 169.571 78.1575C169.573 78.1598 169.575 78.1616 169.578 78.1628Z" fill="white"/>
<path d="M177.672 80.5085C177.678 80.7201 177.658 80.843 177.611 80.8772C177.316 81.9431 177.095 83.0533 176.948 84.2078C176.894 84.6357 176.696 85.0232 176.356 85.3701C176.261 85.4666 176.231 85.4495 176.267 85.3188C177.161 82.1026 176.673 78.1535 174.129 75.8218C174.031 75.732 173.909 75.672 173.777 75.6491C173.733 75.6413 173.691 75.6444 173.651 75.6584C173.549 75.6958 173.537 75.7526 173.613 75.8288C175.975 78.2118 176.524 82.0839 175.38 85.2768C174.51 87.6995 172.844 89.5884 170.381 90.9437C169.43 91.4665 168.406 91.7606 167.309 91.8259C166.204 91.8913 165.099 91.7357 163.992 91.3591C163.541 91.1257 163.073 90.8534 162.587 90.5422C161.332 89.7362 160.408 88.6198 159.817 87.193C159.258 85.8486 159.048 84.4568 159.184 83.0175C159.503 79.6363 161.053 76.96 163.834 74.9886C165.489 73.8146 167.872 73.3618 170.007 73.7982C171.674 74.1406 173.142 74.8089 174.414 75.8031C175.982 77.0308 177.411 78.4149 177.672 80.5085ZM170.672 87.9632C172.731 86.3123 173.645 84.2226 173.415 81.6941C173.275 80.1747 172.551 78.4849 171.405 77.5443C169.929 76.3337 168.271 76.0669 166.431 76.7437C163.677 77.759 161.577 80.9402 161.787 83.8764C161.932 85.893 162.829 87.4217 164.478 88.4627C165.829 89.3122 167.496 89.4663 169.013 88.8431C169.782 88.5272 170.335 88.2339 170.672 87.9632Z" fill="#E3AE2A"/>
<path d="M70.4791 135.798C70.3173 135.968 70.2885 136.245 70.3928 136.629C70.8518 138.319 71.1264 140.299 71.2166 142.569C71.317 145.036 71.4944 147.118 71.38 149.608C71.198 153.582 70.8697 157.143 70.3951 160.289C70.1415 161.971 69.7042 163.998 69.0834 166.371C67.4309 172.687 64.6628 178.685 59.6774 182.711C55.8746 185.784 51.5046 187.201 46.5674 186.962C45.6634 186.918 44.1253 186.747 41.9532 186.448C41.5922 185.539 41.3665 184.901 41.2763 184.532C40.5061 181.372 39.9794 178.793 39.6962 176.795C39.3725 174.518 38.7859 169.759 37.9364 162.518C37.5271 157.591 37.4097 152.627 37.5839 147.625C37.6586 145.504 37.836 143.387 38.1161 141.274C38.2623 140.166 38.523 139.043 38.898 137.904C39.3461 136.536 40.2851 135.829 41.7151 135.782C41.9827 135.773 42.4744 135.819 43.1902 135.92C44.9687 136.102 46.7985 136.167 48.6797 136.116C48.7108 136.114 48.7295 136.099 48.7357 136.071C48.7388 136.053 48.7404 136.032 48.7404 136.011C48.7995 136.143 48.8711 136.209 48.9551 136.209C50.5375 136.211 52.113 136.203 53.6814 136.186C54.1576 136.248 54.6244 136.271 55.0818 136.253C56.7623 136.194 58.4249 136.149 60.0695 136.118C60.6297 136.187 61.1681 136.165 61.6847 136.055L66.4647 135.784C67.5647 135.669 68.6718 135.552 69.7859 135.432C70.1345 135.395 70.3655 135.517 70.4791 135.798Z" fill="#E3AE2A"/>
<path d="M177.611 80.8773L177.733 80.917C177.749 80.9222 177.767 80.9233 177.784 80.9204C177.801 80.9174 177.818 80.9104 177.832 80.8999C177.846 80.8894 177.857 80.8757 177.864 80.86C177.872 80.8443 177.876 80.8271 177.875 80.8096L177.864 79.89C177.863 79.8812 177.866 79.8724 177.87 79.8646C177.874 79.8568 177.88 79.8502 177.888 79.8455C177.895 79.8408 177.904 79.8382 177.913 79.8378C177.922 79.8374 177.93 79.8393 177.938 79.8434L177.999 79.8737C178.043 79.8948 178.08 79.9274 178.107 79.968C178.134 80.0086 178.15 80.0558 178.153 80.1048L178.274 82.4994L177.747 85.2559L177.586 85.4449C177.517 85.5258 177.454 85.5227 177.394 85.4356C177.373 85.4013 177.344 85.3741 177.308 85.3539C177.215 85.2979 177.145 85.3189 177.1 85.4169L176.746 86.1801L176.155 87.074C174.876 88.5896 173.88 89.6663 173.168 90.3043C170.652 92.5542 166.891 93.4365 163.993 91.3592C165.099 91.7358 166.205 91.8914 167.309 91.826C168.406 91.7607 169.43 91.4666 170.381 90.9438C172.844 89.5885 174.51 87.6995 175.38 85.2769C176.524 82.084 175.975 78.2119 173.613 75.8289C173.537 75.7527 173.55 75.6959 173.651 75.6585C173.691 75.6445 173.733 75.6414 173.777 75.6492C173.909 75.6721 174.032 75.732 174.129 75.8219C176.673 78.1535 177.161 82.1027 176.267 85.3189C176.231 85.4496 176.261 85.4667 176.356 85.3702C176.697 85.0232 176.894 84.6358 176.949 84.2079C177.095 83.0534 177.316 81.9432 177.611 80.8773Z" fill="#CA7612"/>
<path d="M70.4791 135.798L71.3263 137.995C71.6297 139.295 71.8787 140.582 72.0732 141.855C72.2163 142.786 72.407 143.9 72.645 145.197C72.8457 146.285 73.0029 147.404 73.1165 148.556C73.1103 148.772 73.1025 149.017 73.0931 149.291C73.0854 149.531 73.09 149.77 73.1072 150.008C73.6502 157.808 73.7342 165.571 73.3592 173.298C73.2347 175.849 72.8745 178.629 72.2786 181.64C71.9254 183.43 71.3598 185.098 70.5818 186.644C70.0201 187.827 69.2903 188.768 68.3925 189.468C67.7016 190.008 66.8552 190.504 65.8531 190.955C65.0269 191.328 64.0513 191.567 63.1364 191.849C60.1271 192.4 57.0929 192.62 54.0338 192.509C49.723 192.355 43.7993 190.985 41.9531 186.448C44.1253 186.747 45.6634 186.918 46.5674 186.962C51.5046 187.201 55.8746 185.785 59.6774 182.711C64.6628 178.685 67.4309 172.687 69.0834 166.371C69.7042 163.998 70.1414 161.971 70.3951 160.289C70.8696 157.143 71.1979 153.583 71.38 149.609C71.4944 147.118 71.317 145.036 71.2166 142.569C71.1264 140.299 70.8517 138.319 70.3927 136.629C70.2885 136.245 70.3173 135.968 70.4791 135.798Z" fill="#CA7612"/>
<path d="M119.775 177.602C122.898 177.737 126.016 177.859 129.13 177.966C132.99 178.102 136.617 178.34 140.737 178.508C147.037 178.763 153.101 179.039 158.928 179.336C160.437 179.412 161.431 179.344 161.908 179.131C163.587 178.379 163.895 177.058 164.133 175.282C165.423 165.646 166.751 155.76 168.119 145.624C170.584 127.335 173.044 109.433 175.499 91.9192C175.532 91.6796 175.587 91.4392 175.665 91.198C175.763 90.8899 175.714 90.5281 175.763 90.1921C175.911 89.1947 176.042 88.1553 176.155 87.0739L176.746 86.1799C176.853 86.8895 176.855 87.6068 176.753 88.3319C176.001 93.6954 175.352 99.0659 174.633 104.383C173.546 112.426 172.621 119.469 171.861 125.512C171.36 129.502 170.861 133.323 170.365 136.974C170.144 138.597 169.942 140.14 169.76 141.603C169.116 146.77 168.476 151.901 167.839 156.995C167.81 157.237 167.778 157.476 167.743 157.714C166.872 163.972 166.025 170.319 165.202 176.755C165.045 177.978 164.85 178.782 164.618 179.168C163.829 180.475 162.518 180.517 161.101 180.417C155.968 180.057 151.903 179.812 148.906 179.679C146.629 179.58 144.422 179.449 142.284 179.287C136.386 178.837 130.484 178.519 124.588 178.025C124.576 178.023 123.803 177.978 122.27 177.889C121.435 177.839 120.603 177.744 119.775 177.602Z" fill="#9DF2A4"/>
<path d="M53.8707 136.153C53.7945 136.223 53.7315 136.234 53.6817 136.186C52.1132 136.203 50.5378 136.21 48.9553 136.209C48.8713 136.209 48.7997 136.143 48.7406 136.01L48.6869 135.824L44.0283 118.783C44.0065 118.707 43.9559 118.672 43.8766 118.678C43.5561 118.702 43.241 118.785 42.9313 118.928C41.6103 119.314 40.2776 119.683 38.9332 120.037C38.801 120.071 38.6827 120.166 38.5784 120.321C38.4228 120.304 38.3015 120.255 38.2143 120.174C38.1521 120.118 38.1389 120.052 38.1747 119.976L38.3917 119.507L38.4174 119.675C38.4299 119.751 38.4719 119.778 38.5434 119.754C40.2597 119.199 42.0024 118.716 43.7716 118.305C43.91 118.274 43.9466 118.195 43.8813 118.069C43.1577 116.677 42.4155 115.309 41.6546 113.966C41.5846 113.843 41.5387 113.708 41.5169 113.56C41.513 113.534 41.5013 113.51 41.4833 113.491C41.4652 113.472 41.4418 113.459 41.4161 113.453C41.3905 113.448 41.3638 113.451 41.3396 113.461C41.3155 113.471 41.2951 113.489 41.2812 113.511C40.567 114.61 39.1993 114.557 38.0486 114.433C37.9973 114.257 38.0058 114.098 38.0743 113.957C38.8476 113.972 39.4778 113.929 39.9648 113.828C40.4736 113.722 40.8751 113.454 41.1692 113.023C41.2221 112.998 41.2796 112.995 41.3419 113.014C41.4197 113.037 41.4843 113.018 41.5356 112.955C41.5776 112.904 41.5901 112.843 41.5729 112.771C41.5574 112.707 41.5574 112.643 41.5729 112.58L42.0608 110.619C42.0755 110.559 42.1055 110.504 42.148 110.46C42.1905 110.415 42.2439 110.383 42.303 110.365C42.362 110.348 42.4245 110.346 42.4844 110.36C42.5443 110.375 42.5994 110.404 42.6442 110.446C42.8699 110.66 43.0504 110.924 43.1857 111.24C44.4445 114.193 45.5711 116.964 46.5653 119.554C46.6789 119.848 46.8478 120.118 47.0718 120.366C47.1045 120.403 47.127 120.447 47.1372 120.495C47.1475 120.543 47.145 120.593 47.1302 120.639C46.9963 121.05 46.9707 121.428 47.0531 121.773C47.5596 123.881 48.0778 125.967 48.6659 128.084C49.3311 130.474 49.9263 133.287 50.7642 135.803C50.797 135.901 50.8595 135.986 50.9429 136.046C51.0262 136.107 51.1262 136.139 51.2286 136.139L53.8707 136.153Z" fill="#9DF2A4"/>
<path d="M66.4648 135.784L61.6848 136.055C61.9851 131.751 62.2676 127.442 62.5321 123.129C62.5834 122.273 62.8635 121.444 62.6955 120.569C62.3703 118.865 62.0629 117.238 61.7735 115.689C61.7237 115.427 61.6623 115.168 61.5891 114.911C61.5191 114.672 61.4623 114.449 61.4188 114.244C61.3892 114.119 61.3814 114.032 61.3954 113.982L62.5321 110.857C62.5528 110.801 62.5888 110.752 62.6361 110.715C62.6833 110.678 62.7398 110.655 62.7992 110.649C62.8585 110.642 62.9184 110.653 62.9718 110.679C63.0253 110.705 63.0703 110.746 63.1016 110.797C63.3287 111.159 63.5038 111.542 63.6267 111.945C64.1705 113.73 64.6 115.591 65.1508 117.402C65.6036 118.891 65.9934 120.323 66.3201 121.699C66.3831 121.96 66.5022 122.177 66.6772 122.38C66.7103 122.418 66.7355 122.461 66.7515 122.509C66.7675 122.556 66.774 122.607 66.7705 122.657C66.767 122.707 66.7537 122.756 66.7313 122.801C66.7089 122.846 66.6778 122.886 66.6399 122.919C66.4322 123.099 66.3365 123.286 66.3225 123.563C66.1217 127.458 65.9288 131.255 65.7436 134.956C65.7359 135.141 65.7615 135.324 65.8207 135.504C65.8456 135.58 65.8969 135.629 65.9747 135.649L66.4648 135.784Z" fill="#9DF2A4"/>
<path d="M206.933 167.858L206.919 168.21C206.243 168.037 205.561 168.025 204.875 168.173L195.67 129.59L194.262 123.311C194.849 122.995 195.498 122.882 196.211 122.971C196.237 122.973 196.261 122.984 196.28 123.002C196.298 123.021 196.31 123.045 196.314 123.071C196.37 123.553 196.452 124.029 196.561 124.499C197.289 127.604 198.137 130.649 198.867 133.793C201.39 144.653 203.783 154.484 206.933 167.858Z" fill="#9DF2A4"/>
<path d="M74.4939 142.217L74.0644 144.343L73.1168 148.556C73.0032 147.404 72.8461 146.285 72.6454 145.197C72.4073 143.899 72.2167 142.785 72.0735 141.855C71.879 140.582 71.6301 139.295 71.3267 137.994C71.5289 137.843 71.8713 137.759 72.3536 137.742C72.7411 137.728 73.0188 137.817 73.2055 138.176C73.6038 138.936 73.8544 139.586 73.9571 140.128C74.1204 141.004 74.2994 141.7 74.4939 142.217Z" fill="#9DF2A4"/>
<path d="M109.03 143.279C108.969 143.293 108.908 143.307 108.848 143.323C108.843 143.465 108.788 143.563 108.682 143.617C108.615 143.651 108.566 143.702 108.535 143.769C108.453 143.951 108.385 144.138 108.332 144.331C107.976 145.615 107.699 146.902 107.503 148.192C106.528 147.61 105.485 147.125 104.374 146.738C104.671 145.686 104.97 144.682 105.272 143.727C105.459 143.131 105.839 142.623 106.413 142.203C107.291 142.38 108.163 142.739 109.03 143.279Z" fill="#9DF2A4"/>
<path d="M104.14 148.105L104.383 147.349C105.889 147.878 107.264 148.617 108.507 149.566C108.784 149.776 108.974 150.018 109.077 150.292C109.229 150.695 109.133 150.767 108.787 150.509C107.454 149.512 105.905 148.71 104.14 148.105Z" fill="#9DF2A4"/>
<path d="M103.734 149.697C104.537 150.103 105.31 150.507 106.054 150.908C106.469 151.132 106.686 151.444 106.705 151.842C106.713 152.019 106.647 152.406 106.507 153.002C106.004 155.152 105.551 156.943 105.146 158.375C105.113 158.49 105.094 158.638 105.088 158.818C105.081 159.05 105.032 159.198 104.941 159.262L101.848 157.908L103.734 149.697Z" fill="#9DF2A4"/>
<path d="M101.85 158.508C103.702 159.164 105.256 160.135 106.514 161.421C106.602 161.512 106.645 161.607 106.642 161.703C106.639 161.792 106.602 161.81 106.53 161.757C105.027 160.646 103.327 159.792 101.43 159.194L101.85 158.508Z" fill="#9DF2A4"/>
<path d="M102.158 171.125L99.1895 169.844L101.18 160.898C101.994 160.999 102.865 161.322 103.794 161.869C104.163 162.086 104.282 162.223 104.184 162.683C103.577 165.509 102.902 168.323 102.158 171.125Z" fill="#9DF2A4"/>
<path d="M98.9214 171.139C99.049 170.879 99.1003 170.637 99.0754 170.411C100.854 171.041 102.431 171.941 103.806 173.112C103.909 173.199 103.969 173.294 103.986 173.396C104 173.483 103.97 173.503 103.895 173.455C102.353 172.473 100.695 171.701 98.9214 171.139Z" fill="#9DF2A4"/>
<path d="M100.622 172.365C100.325 172.464 99.9456 172.351 99.4835 172.024C99.3793 171.951 99.2781 171.954 99.1801 172.033L99.1101 172.091C99.0968 172.103 99.0864 172.117 99.0798 172.133C99.0731 172.149 99.0703 172.166 99.0717 172.184C99.0731 172.201 99.0785 172.218 99.0876 172.233C99.0967 172.247 99.1092 172.26 99.1241 172.269L101.309 173.553C101.409 173.612 101.49 173.698 101.544 173.801C101.598 173.904 101.621 174.02 101.612 174.136C101.576 174.601 101.497 175.091 101.374 175.604C100.946 177.412 100.48 179.307 99.976 181.287C99.8546 181.766 99.6072 182.293 99.4812 182.828C98.5414 182.345 97.5634 181.967 96.5474 181.691L98.8977 171.601L100.622 172.365Z" fill="#9DF2A4"/>
<path d="M96.6805 182.314C98.3236 182.767 99.7963 183.729 101.101 184.807C101.174 184.868 101.211 184.946 101.213 185.043L101.22 185.442C101.222 185.548 101.179 185.57 101.092 185.51C99.6166 184.487 98.0598 183.683 96.4214 183.096C96.4136 182.715 96.5 182.454 96.6805 182.314Z" fill="#9DF2A4"/>
<path d="M96.1485 183.624L98.5805 184.735C98.3674 184.998 98.0601 185.111 97.6586 185.076C97.4174 185.054 97.1514 184.917 96.8604 184.665C96.6083 184.447 96.3407 184.246 96.0575 184.063C96.0217 183.809 96.0521 183.663 96.1485 183.624Z" fill="#9DF2A4"/>
<path d="M211.529 187.19C212.374 190.996 213.258 194.699 214.183 198.298C214.423 199.231 213.858 199.607 213.149 200.004C211.776 200.769 210.74 201.523 209.06 201.602C208.118 201.646 207.115 201.63 206.051 201.553C206.013 201.551 205.977 201.54 205.945 201.519C205.913 201.499 205.887 201.47 205.869 201.437C205.65 201.035 205.627 200.618 205.801 200.186L208.175 200.237C208.695 200.502 209.139 200.537 209.508 200.342C209.736 200.221 209.974 200.104 210.222 199.992C210.254 199.977 210.281 199.954 210.302 199.925C210.322 199.897 210.335 199.863 210.339 199.829C210.36 199.639 210.415 199.465 210.502 199.306C210.447 199.572 210.613 199.588 210.999 199.355C211.128 199.277 211.243 199.178 211.342 199.058C211.524 198.837 211.986 198.636 212.084 198.449C212.134 198.353 212.119 198.271 212.038 198.204L211.993 197.954L209.627 188.147C210.521 188.055 211.138 187.683 211.475 187.029C211.548 187.306 211.566 187.36 211.529 187.19Z" fill="#9DF2A4"/>
<path d="M41.1695 113.023C40.8754 113.454 40.474 113.723 39.9652 113.828C39.4782 113.93 38.848 113.972 38.0747 113.957C38.0295 112.493 38.0856 111.043 38.2427 109.609C38.2692 109.367 38.3112 109.223 38.3688 109.177C38.4243 109.132 38.4886 109.099 38.5575 109.08C38.6264 109.061 38.6985 109.057 38.7691 109.068C38.8398 109.078 38.9075 109.103 38.9679 109.141C39.0284 109.179 39.0803 109.23 39.1203 109.289C39.9403 110.502 40.6234 111.747 41.1695 113.023Z" fill="#476F5B"/>
<path d="M38.3919 119.507L38.0488 114.433C39.1995 114.557 40.5672 114.61 41.2814 113.511C41.2953 113.489 41.3157 113.471 41.3398 113.461C41.364 113.451 41.3906 113.448 41.4163 113.453C41.442 113.459 41.4654 113.472 41.4834 113.491C41.5015 113.51 41.5132 113.534 41.5171 113.56C41.5389 113.708 41.5848 113.843 41.6548 113.966C42.4157 115.309 43.1579 116.677 43.8815 118.069C43.9468 118.195 43.9102 118.274 43.7718 118.305C42.0026 118.716 40.2599 119.199 38.5436 119.754C38.4721 119.778 38.43 119.751 38.4176 119.675L38.3919 119.507Z" fill="#476F5B"/>
<path d="M42.9315 118.928C43.1773 118.931 43.3905 118.973 43.571 119.054C43.6426 119.087 43.6862 119.142 43.7017 119.22C44.4035 122.674 45.2367 126.094 46.2014 129.48C46.7896 131.546 47.2704 133.623 47.9099 135.675C48.0873 136.239 48.3463 136.289 48.6871 135.824L48.7408 136.011C48.7408 136.032 48.7392 136.053 48.7361 136.071C48.7299 136.099 48.7112 136.114 48.6801 136.116C46.7989 136.167 44.9691 136.102 43.1906 135.92L38.5786 120.322C38.6829 120.166 38.8011 120.071 38.9334 120.037C40.2778 119.684 41.6105 119.314 42.9315 118.928Z" fill="#476F5B"/>
<path d="M81.4492 141.169L89.9706 141.472C94.6059 141.638 99.2365 141.804 103.862 141.969C105.084 142.013 105.934 142.09 106.413 142.203C105.839 142.623 105.459 143.131 105.272 143.727C104.97 144.682 104.671 145.686 104.374 146.737C103.404 146.558 102.563 146.457 101.851 146.432C101.241 146.41 100.559 146.438 99.806 146.516C99.3283 146.565 98.9828 146.66 98.7697 146.798C98.3029 147.102 97.8921 147.851 98.1955 148.395C98.2349 148.465 98.2903 148.525 98.3574 148.57C98.4244 148.615 98.5012 148.643 98.5813 148.653C98.6615 148.663 98.7427 148.653 98.8185 148.625C98.8942 148.597 98.9623 148.552 99.0171 148.493C99.2505 148.241 99.5889 148.079 99.932 148.063C101.331 147.996 102.665 148.203 103.935 148.684L103.734 149.697L101.848 157.908C101.31 157.83 100.742 157.78 100.144 157.756C98.993 157.711 97.9551 157.76 97.0309 157.903C96.1004 158.046 95.6476 158.582 95.6725 159.511C95.674 159.558 95.6848 159.603 95.7045 159.646C95.7242 159.688 95.7522 159.725 95.7868 159.756C96.0763 160.013 96.5057 159.934 96.7554 159.663C97.3063 159.068 99.0964 159.343 99.8293 159.427C100.396 159.493 100.929 159.623 101.428 159.819L101.181 160.898L99.1898 169.844C97.3071 169.547 95.7238 169.48 94.4401 169.643C93.6124 169.749 93.1634 170.216 93.0934 171.044C93.0842 171.148 93.1127 171.253 93.1738 171.339C93.2349 171.425 93.3248 171.486 93.4272 171.513C93.782 171.604 94.0644 171.516 94.2744 171.247C94.3227 171.186 94.3849 171.147 94.4611 171.13C95.7425 170.836 97.8057 171.305 98.8981 171.601L96.5477 181.691C95.0695 181.357 93.575 181.228 92.0641 181.306C90.9555 181.364 90.1269 181.712 90.295 182.961C90.3055 183.041 90.3445 183.114 90.4048 183.168C90.4652 183.222 90.5429 183.253 90.6241 183.255C90.9384 183.26 91.1554 183.137 91.2753 182.889C91.3173 182.8 91.3873 182.756 91.4853 182.758C93.1098 182.784 94.6642 183.073 96.1486 183.624C96.0521 183.663 96.0218 183.809 96.0576 184.063C95.3854 186.4 95.5768 188.633 96.6317 190.763L91.9731 190.045C90.8831 186.039 89.6391 182.06 88.5702 178.09C86.6703 171.047 84.7424 164.019 82.7866 157.005C82.3338 155.379 81.8584 153.742 81.3605 152.096C80.6066 149.604 79.701 147.673 77.4744 146.299C75.8562 145.301 74.7195 144.649 74.0645 144.343L74.4939 142.217C75.0074 141.362 75.6944 140.948 76.5548 140.975C78.1513 141.023 79.7827 141.088 81.4492 141.169Z" fill="#476F5B"/>
<path d="M104.383 147.349L104.14 148.105C102.843 147.856 101.758 147.703 100.887 147.646C100.353 147.61 99.8101 147.681 99.2577 147.86C99.1643 147.89 99.1138 147.856 99.106 147.76C99.0616 147.181 99.4491 146.903 100.002 146.864C101.499 146.755 102.959 146.917 104.383 147.349Z" fill="#476F5B"/>
<path d="M111.8 150.498L111.866 150.899C111.816 150.935 111.763 150.966 111.707 150.992C111.657 151.016 111.597 151.024 111.527 151.018C110.99 150.967 110.455 150.982 109.921 151.065C110.041 150.965 110.218 150.901 110.451 150.871C110.526 150.862 110.58 150.824 110.612 150.757C110.696 150.576 110.838 150.518 111.037 150.582L111.8 150.498Z" fill="#476F5B"/>
<path d="M101.851 158.508L101.431 159.194C100.282 159.023 99.4008 158.937 98.7862 158.937C98.1436 158.936 97.536 158.986 96.9634 159.089C96.9337 159.095 96.9032 159.093 96.8745 159.084C96.8457 159.075 96.8196 159.059 96.7984 159.037C96.7772 159.016 96.7616 158.99 96.7529 158.961C96.7443 158.932 96.7428 158.901 96.7486 158.872C96.8327 158.444 97.0637 158.205 97.4418 158.155C99.0585 157.939 100.528 158.057 101.851 158.508Z" fill="#476F5B"/>
<path d="M99.0756 170.411C99.1005 170.637 99.0491 170.879 98.9216 171.139C98.2291 171.071 97.5251 170.967 96.8093 170.829C96.2351 170.718 95.4424 170.714 94.431 170.815C94.3423 170.823 94.2839 170.785 94.2559 170.701C94.0529 170.073 94.8137 169.937 95.2642 169.944C96.5759 169.96 97.8464 170.116 99.0756 170.411Z" fill="#476F5B"/>
<path d="M96.6811 182.314C96.5006 182.454 96.4143 182.715 96.422 183.096L91.5977 182.464C91.4032 182.439 91.3215 182.329 91.3526 182.135L91.3713 182.023C91.4102 181.789 91.5487 181.67 91.7868 181.666C93.4999 181.633 95.1314 181.849 96.6811 182.314Z" fill="#476F5B"/>
<path d="M61.6846 136.055C61.168 136.165 60.6296 136.186 60.0695 136.118C60.264 134.45 60.4172 132.768 60.5293 131.072C60.5759 130.352 60.6444 129.651 60.7346 128.969C60.8373 128.197 60.8957 127.504 60.9097 126.889C60.9494 125.067 61.2645 123.248 61.1758 121.363C61.1739 121.316 61.1553 121.271 61.1232 121.236C61.0912 121.202 61.0478 121.179 61.0007 121.173C59.7621 121.015 58.5477 120.809 57.3574 120.557C57.0508 120.494 56.493 120.439 55.6839 120.394C55.1984 120.251 55.0592 120.014 55.2661 119.684L61.0241 120.639C61.1594 120.661 61.2287 120.603 61.2318 120.466C61.2707 118.602 61.0124 116.78 60.4569 115L61.4185 114.244C61.4621 114.449 61.5189 114.672 61.5889 114.911C61.662 115.168 61.7235 115.427 61.7733 115.689C62.0627 117.238 62.37 118.865 62.6952 120.569C62.8632 121.444 62.5832 122.273 62.5318 123.129C62.2673 127.443 61.9849 131.751 61.6846 136.055Z" fill="#67DBD5"/>
<path d="M108.847 143.323C109.141 143.594 109.355 143.892 109.487 144.217C109.954 145.372 110.096 146.686 109.762 147.881C109.621 148.379 109.523 148.875 109.47 149.368C109.46 149.475 109.409 149.499 109.319 149.438L107.503 148.192C107.699 146.902 107.975 145.615 108.331 144.331C108.384 144.138 108.452 143.951 108.535 143.769C108.566 143.702 108.615 143.651 108.682 143.617C108.787 143.563 108.843 143.465 108.847 143.323Z" fill="#67DBD5"/>
<path d="M104.94 159.262C105.032 159.198 105.081 159.05 105.087 158.818C105.093 158.638 105.113 158.49 105.145 158.375C105.55 156.943 106.004 155.152 106.506 153.002C106.646 152.406 106.712 152.019 106.705 151.842C106.686 151.444 106.469 151.132 106.053 150.908C105.31 150.507 104.536 150.103 103.733 149.697L103.934 148.684C105.713 149.291 107.312 150.183 108.733 151.361C108.751 151.377 108.765 151.397 108.773 151.419C108.781 151.441 108.782 151.465 108.777 151.487C108.163 154.26 107.523 157.028 106.859 159.792C106.801 160.033 106.781 160.237 106.798 160.405C106.815 160.584 106.751 160.62 106.607 160.513L104.94 159.262Z" fill="#67DBD5"/>
<path d="M109.996 149.312L111.473 149.482C111.554 149.492 111.61 149.533 111.641 149.606C111.763 149.886 111.815 150.183 111.8 150.498L111.037 150.582C110.551 150.6 110.177 150.39 109.914 149.949C109.875 149.884 109.872 149.816 109.905 149.746C109.983 149.573 110.013 149.429 109.996 149.312Z" fill="#67DBD5"/>
<path d="M112.078 151.112C113.769 159.878 115.441 168.596 117.093 177.266C117.129 177.459 117.308 177.548 117.63 177.532C116.589 177.568 115.55 177.541 114.512 177.451C110.927 177.142 107.333 176.893 103.729 176.701L104.123 174.79C104.161 174.605 104.228 174.593 104.324 174.755C104.432 174.934 104.579 175.04 104.768 175.075C104.807 175.081 104.848 175.077 104.885 175.062C104.922 175.046 104.954 175.021 104.977 174.988C105 174.955 105.014 174.917 105.016 174.877C105.018 174.837 105.009 174.797 104.989 174.762C104.843 174.5 104.713 174.245 104.6 173.996C104.584 173.962 104.58 173.926 104.588 173.889C104.624 173.722 104.692 173.708 104.793 173.847C104.904 173.998 105.025 173.977 105.157 173.784C105.204 173.716 105.225 173.634 105.218 173.553C105.21 173.471 105.175 173.394 105.118 173.336L104.679 172.885C104.615 172.82 104.593 172.742 104.614 172.652L106.777 162.968C106.781 162.952 106.789 162.938 106.801 162.927C106.813 162.916 106.828 162.909 106.844 162.906C106.86 162.904 106.876 162.906 106.891 162.913C106.906 162.92 106.918 162.931 106.927 162.945C107.04 163.138 107.189 163.23 107.372 163.22C107.701 163.203 107.766 163.063 107.568 162.8L107.099 162.175C107.086 162.157 107.078 162.136 107.077 162.114C107.076 162.092 107.081 162.07 107.091 162.05C107.102 162.031 107.119 162.015 107.138 162.005C107.158 161.995 107.18 161.99 107.202 161.993C107.291 162.003 107.361 162.046 107.414 162.121C107.475 162.207 107.554 162.263 107.65 162.291C107.775 162.326 107.845 162.177 107.862 161.846C107.866 161.772 107.85 161.698 107.817 161.632C107.783 161.565 107.733 161.509 107.671 161.467C107.47 161.337 107.291 161.157 107.347 160.898C107.96 158.102 108.588 155.241 109.233 152.316C109.237 152.298 109.246 152.281 109.259 152.267C109.271 152.253 109.287 152.243 109.305 152.237C109.323 152.231 109.342 152.231 109.36 152.235C109.378 152.239 109.394 152.247 109.408 152.26C109.566 152.408 109.747 152.48 109.949 152.477C110.052 152.475 110.101 152.423 110.096 152.321C110.074 151.882 109.933 151.574 109.671 151.399C109.594 151.346 109.594 151.293 109.671 151.24L109.921 151.065C110.455 150.982 110.99 150.967 111.527 151.018C111.597 151.024 111.657 151.016 111.707 150.993C111.763 150.966 111.815 150.935 111.865 150.899L112.078 151.112Z" fill="#67DBD5"/>
<path d="M102.158 171.125C102.902 168.323 103.577 165.509 104.184 162.683C104.282 162.224 104.163 162.086 103.794 161.869C102.865 161.323 101.994 160.999 101.18 160.898L101.428 159.82C102.139 160.014 102.633 160.174 102.91 160.3C104.049 160.815 105.15 161.471 106.212 162.268C106.258 162.302 106.292 162.35 106.31 162.404C106.327 162.458 106.327 162.517 106.31 162.571C106.122 163.178 105.96 163.806 105.825 164.455C105.3 166.96 104.714 169.419 104.065 171.833C104.032 171.956 104.009 172.141 104.025 172.267C104.042 172.405 103.993 172.434 103.878 172.353L102.158 171.125Z" fill="#67DBD5"/>
<path d="M206.919 168.21L211.475 187.029C211.137 187.683 210.521 188.055 209.627 188.147L204.875 168.173C205.561 168.025 206.242 168.037 206.919 168.21Z" fill="#67DBD5"/>
<path d="M100.622 172.365C101.62 172.701 102.595 173.205 103.549 173.877C103.65 173.947 103.686 174.043 103.657 174.164C102.919 177.219 102.192 180.288 101.474 183.372C101.432 183.556 101.418 183.755 101.449 183.941C101.472 184.077 101.426 184.107 101.311 184.032L99.4811 182.828C99.6072 182.294 99.8546 181.766 99.9759 181.288C100.48 179.307 100.946 177.412 101.374 175.604C101.497 175.091 101.576 174.602 101.612 174.136C101.621 174.021 101.598 173.905 101.544 173.801C101.49 173.698 101.409 173.612 101.309 173.553L99.124 172.269C99.1092 172.26 99.0967 172.248 99.0876 172.233C99.0785 172.218 99.073 172.201 99.0716 172.184C99.0703 172.167 99.073 172.149 99.0797 172.133C99.0864 172.117 99.0968 172.103 99.11 172.092L99.18 172.033C99.2781 171.954 99.3792 171.951 99.4834 172.024C99.9456 172.351 100.325 172.464 100.622 172.365Z" fill="#67DBD5"/>
<path d="M98.58 184.735L100.727 186.117C100.794 186.16 100.824 186.222 100.816 186.303C100.607 188.141 99.7073 189.621 98.1155 190.743C97.6254 190.914 97.1306 190.921 96.6311 190.764C95.5762 188.633 95.3848 186.4 96.057 184.063C96.3402 184.246 96.6078 184.447 96.8599 184.665C97.1508 184.917 97.4169 185.054 97.6581 185.076C98.0595 185.111 98.3668 184.998 98.58 184.735Z" fill="#67DBD5"/>
<path d="M48.6868 135.824C48.346 136.289 48.0869 136.239 47.9095 135.675C47.27 133.623 46.7892 131.546 46.2011 129.48C45.2363 126.094 44.4031 122.674 43.7014 119.22C43.6858 119.142 43.6422 119.087 43.5707 119.054C43.3902 118.973 43.177 118.931 42.9312 118.928C43.2408 118.785 43.5559 118.702 43.8764 118.678C43.9558 118.672 44.0063 118.707 44.0281 118.783L48.6868 135.824Z" fill="#476F5B"/>
<path d="M194.262 123.311L195.669 129.59C195.081 128.676 194.718 127.749 194.579 126.808C194.315 125.018 193.909 123.396 193.363 121.941C193.276 121.706 192.971 121.43 192.448 121.113C193.004 121.099 193.491 121.192 193.909 121.393C193.956 121.415 193.995 121.451 194.021 121.496C194.048 121.54 194.06 121.591 194.056 121.643C194.022 122.195 194.091 122.751 194.262 123.311Z" fill="#476F5B"/>
<path d="M74.0643 144.343C74.7194 144.65 75.8561 145.302 77.4743 146.299C79.7009 147.674 80.6065 149.604 81.3604 152.097C81.8583 153.743 82.3336 155.379 82.7864 157.005C84.7423 164.019 86.6702 171.048 88.57 178.09C89.639 182.06 90.883 186.04 91.973 190.045L90.5656 189.872C84.2452 188.921 77.924 187.963 71.602 186.997C71.0745 186.917 70.7345 186.8 70.582 186.644C71.36 185.097 71.9256 183.429 72.2788 181.64C72.8748 178.629 73.235 175.849 73.3595 173.298C73.7345 165.571 73.6504 157.808 73.1074 150.008C73.0903 149.77 73.0856 149.531 73.0934 149.291C73.1027 149.017 73.1105 148.772 73.1167 148.556L74.0643 144.343Z" fill="#476F5B"/>
</svg>
