<svg width="30" height="30" viewBox="0 0 30 30" fill="none" xmlns="http://www.w3.org/2000/svg">
<path d="M6.90918 11.8561V15.8561M18.9092 9.85611V13.8561M17.9092 4.85611C20.3579 4.85611 21.6823 5.23087 22.3413 5.52155C22.4291 5.56026 22.4729 5.57962 22.5996 5.70048C22.6755 5.77293 22.8141 5.9855 22.8497 6.0842C22.9092 6.24885 22.9092 6.33885 22.9092 6.51885V17.2673C22.9092 18.176 22.9092 18.6304 22.7729 18.864C22.6343 19.1015 22.5006 19.212 22.2411 19.3033C21.986 19.3931 21.4711 19.2941 20.4414 19.0963C19.7206 18.9578 18.8657 18.8561 17.9092 18.8561C14.9092 18.8561 11.9092 20.8561 7.90918 20.8561C5.46047 20.8561 4.13605 20.4813 3.47706 20.1907C3.3893 20.152 3.34542 20.1326 3.21878 20.0117C3.14287 19.9393 3.0043 19.7267 2.96865 19.628C2.90918 19.4634 2.90918 19.3734 2.90918 19.1934L2.90918 8.44496C2.90918 7.5362 2.90918 7.08181 3.04546 6.84825C3.18408 6.61067 3.31777 6.50023 3.57724 6.40892C3.83232 6.31916 4.34721 6.41809 5.37701 6.61596C6.0978 6.75445 6.95266 6.85611 7.90918 6.85611C10.9092 6.85611 13.9092 4.85611 17.9092 4.85611ZM15.4092 12.8561C15.4092 14.2368 14.2899 15.3561 12.9092 15.3561C11.5285 15.3561 10.4092 14.2368 10.4092 12.8561C10.4092 11.4754 11.5285 10.3561 12.9092 10.3561C14.2899 10.3561 15.4092 11.4754 15.4092 12.8561Z" stroke="#0F6326" stroke-width="2" stroke-linecap="round" stroke-linejoin="round"/>
</svg>
