<svg width="104" height="24" viewBox="0 0 104 24" fill="none" xmlns="http://www.w3.org/2000/svg">
<path d="M6.94391 11.0309H1.32955C0.63652 11.0309 0.074707 11.5927 0.074707 12.2857V22.7447C0.074707 23.4377 0.63652 23.9996 1.32955 23.9996H6.94391C7.63694 23.9996 8.19875 23.4377 8.19875 22.7447V12.2857C8.19875 11.5927 7.63694 11.0309 6.94391 11.0309Z" fill="#0A4020"/>
<path d="M19.2296 9.37844V22.7452C19.2296 23.4382 18.6677 24 17.9747 24H12.3599C11.6669 24 11.1051 23.4382 11.1051 22.7452V9.37844C11.1051 8.68544 10.5432 8.12359 9.85025 8.12359H1.32955C0.636551 8.12405 0.074707 7.5622 0.074707 6.8692V1.25485C0.074707 0.561844 0.636551 0 1.32955 0H11.789C12.482 0 13.0439 0.561844 13.0439 1.25485V6.86966C13.0439 7.56266 13.6057 8.1245 14.2987 8.1245H17.9757C18.6687 8.1245 19.2305 8.68634 19.2305 9.37935L19.2296 9.37844Z" fill="#0A4020"/>
<path d="M98.3785 19.7548C94.6806 19.7548 92.0703 17.275 92.0703 13.6423V13.5988C92.0703 10.1837 94.5284 7.44286 98.0088 7.44286C102.055 7.44286 103.925 10.423 103.925 13.8816C103.925 14.1426 103.925 14.4472 103.904 14.7299H96.0293C96.3556 16.0351 97.2692 16.6659 98.5743 16.6659C99.5967 16.6659 100.336 16.3179 101.185 15.4695L103.469 17.362C102.338 18.8194 100.728 19.7548 98.3785 19.7548ZM95.964 12.62H100.075C99.923 11.3148 99.1399 10.4882 98.0088 10.4882C96.8994 10.4882 96.2033 11.3148 95.964 12.62Z" fill="#0A4020"/>
<path d="M86.4654 19.733C84.4641 19.733 82.5499 19.1674 80.9185 17.9711L82.4629 15.4913C83.8333 16.3831 85.269 16.8399 86.4871 16.8399C87.2049 16.8399 87.553 16.6224 87.553 16.2091V16.1656C87.553 15.6653 86.8787 15.4913 85.6388 15.1432C83.3112 14.5559 81.4623 13.7511 81.4623 11.4018V11.3583C81.4623 8.85675 83.4853 7.46458 86.1826 7.46458C87.9228 7.46458 89.663 7.96489 91.0334 8.83499L89.6195 11.4453C88.4013 10.7492 87.0744 10.3359 86.1391 10.3359C85.5082 10.3359 85.182 10.5752 85.182 10.9232V10.9667C85.182 11.4235 85.878 11.6411 87.0962 12.0109C89.4237 12.6417 91.2727 13.4683 91.2727 15.7523V15.7958C91.2727 18.3844 89.3367 19.733 86.4654 19.733Z" fill="#0A4020"/>
<path d="M68.437 19.472V7.70389H72.57V9.35708C73.3313 8.37821 74.419 7.44286 76.0939 7.44286C78.6172 7.44286 80.0964 9.0743 80.0964 11.7716V19.472H75.9851V13.0985C75.9851 11.7934 75.3326 11.0973 74.3102 11.0973C73.2878 11.0973 72.57 11.7934 72.57 13.0985V19.472H68.437Z" fill="#0A4020"/>
<path d="M61.5319 19.7548C57.8339 19.7548 55.2236 17.275 55.2236 13.6423V13.5988C55.2236 10.1837 57.6817 7.44286 61.1621 7.44286C65.208 7.44286 67.0788 10.423 67.0788 13.8816C67.0788 14.1426 67.0788 14.4472 67.057 14.7299H59.1826C59.5089 16.0351 60.4225 16.6659 61.7276 16.6659C62.75 16.6659 63.4896 16.3179 64.3379 15.4695L66.622 17.362C65.4908 18.8194 63.8811 19.7548 61.5319 19.7548ZM59.1173 12.62H63.2286C63.0763 11.3148 62.2932 10.4882 61.1621 10.4882C60.0527 10.4882 59.3566 11.3148 59.1173 12.62Z" fill="#0A4020"/>
<path d="M51.7429 19.7113C49.2414 19.7113 47.8057 18.6237 47.8057 15.8176V11.0103H46.4136V7.70388H47.8057V4.72379H51.917V7.70388H54.6578V11.0103H51.917V15.0127C51.917 15.8611 52.2868 16.1874 53.0481 16.1874C53.5919 16.1874 54.114 16.0351 54.6143 15.7958V19.0152C53.8529 19.4285 52.8958 19.7113 51.7429 19.7113Z" fill="#0A4020"/>
<path d="M33.7144 19.472V7.70389H37.8473V9.35708C38.6087 8.37821 39.6963 7.44286 41.3712 7.44286C43.8945 7.44286 45.3737 9.0743 45.3737 11.7716V19.472H41.2625V13.0985C41.2625 11.7934 40.6099 11.0973 39.5875 11.0973C38.5652 11.0973 37.8473 11.7934 37.8473 13.0985V19.472H33.7144Z" fill="#0A4020"/>
<path d="M27.3813 19.472V4.24524H31.6013V19.472H27.3813Z" fill="#0A4020"/>
</svg>
