<svg width="35" height="36" viewBox="0 0 35 36" fill="none" xmlns="http://www.w3.org/2000/svg">
<path d="M13.125 22.4019H21.875M30.625 12.1936H4.375M23.3333 3.4436V7.8186M11.6667 3.4436V7.8186M11.375 32.6103H23.625C26.0752 32.6103 27.3003 32.6103 28.2362 32.1334C29.0594 31.714 29.7287 31.0447 30.1482 30.2215C30.625 29.2856 30.625 28.0605 30.625 25.6103V13.3603C30.625 10.91 30.625 9.68493 30.1482 8.74906C29.7287 7.92585 29.0594 7.25656 28.2362 6.83712C27.3003 6.36027 26.0752 6.36027 23.625 6.36027H11.375C8.92477 6.36027 7.69966 6.36027 6.76379 6.83712C5.94058 7.25656 5.27129 7.92585 4.85185 8.74906C4.375 9.68493 4.375 10.91 4.375 13.3603V25.6103C4.375 28.0605 4.375 29.2856 4.85185 30.2215C5.27129 31.0447 5.94058 31.714 6.76379 32.1334C7.69966 32.6103 8.92477 32.6103 11.375 32.6103Z" stroke="#138232" stroke-width="2" stroke-linecap="round" stroke-linejoin="round"/>
</svg>
