<svg width="29" height="30" viewBox="0 0 29 30" fill="none" xmlns="http://www.w3.org/2000/svg">
<path d="M25.0682 12.6515H3.93188M19.197 3.25757V7.95454M9.8031 3.25757V7.95454M9.56825 26.7424H19.4319C21.4048 26.7424 22.3913 26.7424 23.1448 26.3585C23.8077 26.0207 24.3466 25.4818 24.6843 24.819C25.0682 24.0654 25.0682 23.079 25.0682 21.1061V11.2424C25.0682 9.2695 25.0682 8.28305 24.6843 7.5295C24.3466 6.86665 23.8077 6.32774 23.1448 5.99001C22.3913 5.60605 21.4048 5.60605 19.4319 5.60605H9.56825C7.59534 5.60605 6.60888 5.60605 5.85533 5.99001C5.19248 6.32774 4.65357 6.86665 4.31584 7.5295C3.93188 8.28305 3.93188 9.2695 3.93188 11.2424V21.1061C3.93188 23.079 3.93188 24.0654 4.31584 24.819C4.65357 25.4818 5.19248 26.0207 5.85533 26.3585C6.60888 26.7424 7.59534 26.7424 9.56825 26.7424Z" stroke="#0F6326" stroke-width="1.87879" stroke-linecap="round" stroke-linejoin="round"/>
</svg>
