<svg width="60" height="78" viewBox="0 0 60 78" fill="none" xmlns="http://www.w3.org/2000/svg">
<g id="Object" opacity="0.5">
<g id="Group">
<path id="Vector" d="M17.6421 71.4992L-86.1262 44.5144C-88.2758 43.9554 -89.5113 42.2453 -89.0872 40.4076L-74.5597 -22.7332C-73.9871 -25.2237 -70.6924 -26.8577 -67.7791 -26.1001L29.2323 -0.872411C31.2328 -0.352187 32.4558 1.17268 32.2538 2.88969L24.482 67.7908C24.1663 70.432 20.7227 72.3003 17.6421 71.4992Z" fill="#D8C9BF"/>
<path id="Vector_2" d="M24.3132 67.4279L31.5727 6.78246C31.7614 5.17804 30.6188 3.75306 28.7507 3.26704L27.5366 2.95117C29.4051 3.43729 30.5474 4.86217 30.3586 6.4666L23.0991 67.1121C22.8041 69.5803 19.5881 71.3263 16.7108 70.5777L17.9249 70.8936C20.8018 71.6421 24.0182 69.8962 24.3132 67.4279Z" fill="#B6A191"/>
<path id="Vector_3" d="M20.9902 66.4445L28.2497 5.79907C28.4384 4.19464 27.2958 2.76966 25.4277 2.28364L24.2136 1.96777C26.0821 2.45389 27.2244 3.87877 27.0356 5.4832L19.7761 66.1287C19.4811 68.5969 16.2651 70.3429 13.3878 69.5943L14.6019 69.9102C17.4788 70.6587 20.6952 68.9128 20.9902 66.4445Z" fill="#B6A191"/>
<path id="Vector_4" d="M8.67938 68.8268L-86.1416 44.2331C-88.2867 43.6767 -89.52 41.9737 -89.0972 40.1433L-86.3516 28.2232L-74.6145 -22.7462C-74.0438 -25.2269 -70.7564 -26.8549 -67.8491 -26.1008L20.2252 -3.25698C22.225 -2.73831 23.4457 -1.21978 23.2411 0.489484L16.7228 54.9576L15.5035 65.132C15.1891 67.7626 11.7498 69.6231 8.67938 68.8268Z" fill="#46435B"/>
<path id="Vector_5" d="M12.1194 68.4279L-85.1363 41.4035C-87.3364 40.7921 -88.5929 38.9464 -88.1474 36.971L-85.2539 24.1069L20.4666 53.4835L19.1517 64.4691C18.8131 67.3095 15.2686 69.303 12.1194 68.4279Z" fill="#645D7F"/>
<path id="Vector_6" d="M-128.02 27.256L-75.4116 -25.9825C-74.0188 -27.392 -71.7055 -27.9979 -69.7039 -27.4774L27.3066 -2.24996C30.2203 -1.49225 31.265 1.27299 29.4567 3.44183L-16.3926 58.438C-17.7271 60.0386 -20.2133 60.7815 -22.3636 60.2224L-126.133 33.2373C-129.212 32.4369 -130.162 29.4246 -128.02 27.256Z" fill="#EEEAE7"/>
<path id="Vector_7" d="M16.0057 6.12354C15.8121 5.57106 15.3093 5.15513 14.6309 4.97801L7.42442 3.09627L5.91453 2.70202L-4.37056 0.0164087L-5.88046 -0.377851L-16.1656 -3.06346L-17.6755 -3.45772L-27.964 -6.14422L-29.4739 -6.53848L-39.759 -9.22409L-41.2689 -9.61835L-51.5536 -12.3039L-53.0635 -12.6981L-63.3486 -15.3837L-64.8623 -15.779L-72.908 -17.8798C-73.8708 -18.1313 -75.0052 -17.8271 -75.6648 -17.1416L-80.1385 -12.4946L-81.1828 -11.4111L-87.8593 -4.47031L-88.9037 -3.38683L-95.585 3.55585L-96.6294 4.63934L-103.311 11.582L-104.355 12.6655L-111.035 19.6054L-112.076 20.6898L-117.121 25.9305C-117.598 26.4297 -117.77 27.0426 -117.585 27.6099C-117.401 28.1804 -116.896 28.6101 -116.196 28.793L-107.825 30.9786L-106.312 31.3739L-96.0304 34.0585L-94.5205 34.4527L-84.2358 37.1382L-82.7221 37.5335L-72.4374 40.219L-70.9275 40.6133L-60.6427 43.2988L-59.1291 43.694L-48.8477 46.3786L-47.3378 46.7729L-37.0493 49.4594L-35.5394 49.8537L-26.1773 52.2983C-25.1743 52.5602 -24.0137 52.2291 -23.3581 51.4948L-17.8337 45.2976L-16.855 44.197L-10.5761 37.1524L-9.59357 36.0528L-3.31321 29.0054L-2.33071 27.9057L3.94963 20.8583L4.92834 19.7577L11.2073 12.7131L12.1898 11.6135L15.6112 7.77314C16.0549 7.27564 16.201 6.67292 16.0057 6.12354ZM4.91003 3.7959L0.522083 8.56723L-9.75923 5.88261L-5.3747 1.11039L4.91003 3.7959ZM-41.8005 8.91295L-31.5119 11.5994L-37.949 18.6059L-48.2375 15.9194L-41.8005 8.91295ZM-49.7474 15.5252L-60.0325 12.8396L-53.5955 5.83308L-43.3107 8.51859L-49.7474 15.5252ZM-61.5424 12.4453L-71.8271 9.75979L-65.3901 2.75331L-55.105 5.43892L-61.5424 12.4453ZM-62.5503 13.5383L-68.9873 20.5448L-79.2721 17.8593L-72.8312 10.8538L-62.5503 13.5383ZM-61.037 13.9334L-50.7519 16.6191L-57.1889 23.6255L-67.4774 20.939L-61.037 13.9334ZM-49.242 17.0133L-38.9569 19.6989L-45.3939 26.7054L-55.679 24.0198L-49.242 17.0133ZM-37.4436 20.0941L-27.1623 22.7787L-33.5993 29.7852L-43.8844 27.0996L-37.4436 20.0941ZM-36.4391 19.0002L-30.002 11.9937L-19.7169 14.6793L-26.154 21.6858L-36.4391 19.0002ZM-28.9978 10.8994L-22.5622 3.89573L-12.277 6.58135L-18.7127 13.585L-28.9978 10.8994ZM-30.5077 10.5052L-40.7928 7.81954L-34.3572 0.815867L-24.072 3.50148L-30.5077 10.5052ZM-42.3061 7.4244L-52.5912 4.73879L-46.1556 -2.26489L-35.8705 0.420717L-42.3061 7.4244ZM-54.1011 4.34453L-64.3862 1.65892L-57.9506 -5.34476L-47.6658 -2.65925L-54.1011 4.34453ZM-65.8957 1.26476L-76.1808 -1.42085L-69.7452 -8.42453L-59.4601 -5.73892L-65.8957 1.26476ZM-66.9 2.35905L-73.337 9.36553L-83.6217 6.68002L-77.1847 -0.326461L-66.9 2.35905ZM-74.3453 10.4584L-80.7823 17.4649L-91.0675 14.7793L-84.6266 7.7738L-74.3453 10.4584ZM-81.7866 18.5592L-88.2222 25.5629L-98.5073 22.8773L-92.0717 15.8736L-81.7866 18.5592ZM-80.2767 18.9535L-69.992 21.639L-76.4276 28.6426L-86.7127 25.957L-80.2767 18.9535ZM-68.4821 22.0332L-58.1936 24.7197L-64.6292 31.7234L-74.9177 29.0369L-68.4821 22.0332ZM-56.6833 25.1141L-46.3982 27.7997L-52.8338 34.8034L-63.1185 32.1179L-56.6833 25.1141ZM-44.8887 28.1938L-34.6036 30.8795L-41.0392 37.8831L-51.3239 35.1976L-44.8887 28.1938ZM-33.0937 31.2737L-22.809 33.9592L-29.2446 40.9629L-39.5297 38.2773L-33.0937 31.2737ZM-32.0896 30.1797L-25.6487 23.1743L-15.364 25.8598L-21.801 32.8662L-32.0896 30.1797ZM-24.6441 22.0801L-18.207 15.0736L-7.92194 17.7592L-14.359 24.7657L-24.6441 22.0801ZM-17.2028 13.9793L-10.7672 6.9756L-0.482423 9.66112L-6.91803 16.6648L-17.2028 13.9793ZM-6.88459 0.716133L-11.2725 5.48746L-21.5539 2.80284L-17.1697 -1.96948L-6.88459 0.716133ZM-18.6834 -2.36473L-23.0675 2.40759L-33.3527 -0.278017L-28.9685 -5.05034L-18.6834 -2.36473ZM-30.478 -5.4445L-34.8625 -0.672275L-45.1473 -3.35779L-40.7631 -8.13011L-30.478 -5.4445ZM-42.2764 -8.52526L-46.661 -3.75304L-56.9423 -6.43766L-52.5577 -11.2099L-42.2764 -8.52526ZM-54.068 -11.6042L-58.456 -6.8329L-68.7373 -9.51752L-64.3527 -14.2897L-54.068 -11.6042ZM-74.4419 -16.4357C-74.2212 -16.6662 -73.8391 -16.7664 -73.5181 -16.6826L-65.8666 -14.6847L-70.2507 -9.91237L-78.6174 -12.097L-74.4419 -16.4357ZM-79.6616 -11.0139L-71.2589 -8.81978L-77.6911 -1.81521L-86.3384 -4.07318L-79.6616 -11.0139ZM-87.3826 -2.98929L-78.6988 -0.721809L-85.1358 6.28467L-94.0639 3.9534L-87.3826 -2.98929ZM-95.1082 5.03688L-86.1399 7.37865L-92.577 14.3851L-101.79 11.9795L-95.1082 5.03688ZM-102.831 13.0642L-93.5816 15.4793L-100.017 22.483L-109.511 20.004L-102.831 13.0642ZM-115.586 27.5968C-115.819 27.5359 -115.989 27.39 -116.049 27.201C-116.112 27.0082 -116.055 26.8062 -115.895 26.6379L-110.552 21.0884L-101.026 23.5759L-106.822 29.8852L-115.586 27.5968ZM-105.308 30.2805L-99.5115 23.9712L-89.2264 26.6569L-95.0228 32.9661L-105.308 30.2805ZM-93.5133 33.3603L-87.7168 27.051L-77.4317 29.7366L-83.232 36.0449L-93.5133 33.3603ZM-81.7183 36.4401L-75.9218 30.1309L-65.6371 32.8164L-71.4336 39.1257L-81.7183 36.4401ZM-69.9233 39.52L-64.123 33.2117L-53.8383 35.8973L-59.6386 42.2055L-69.9233 39.52ZM-58.1249 42.6008L-52.3284 36.2915L-42.0433 38.9771L-47.8436 45.2854L-58.1249 42.6008ZM-46.3299 45.6806L-40.5334 39.3714L-30.2483 42.057L-36.0448 48.3662L-46.3299 45.6806ZM-24.6237 50.8332C-24.8434 51.0777 -25.2312 51.1898 -25.5669 51.1022L-34.5353 48.7604L-28.735 42.4521L-19.3399 44.9054L-24.6237 50.8332ZM-18.3578 43.8056L-27.7309 41.3582L-21.2953 34.3545L-12.0792 36.7609L-18.3578 43.8056ZM-11.1002 35.6604L-20.2911 33.2605L-13.8541 26.254L-4.81638 28.6139L-11.1002 35.6604ZM-3.83752 27.513L-12.8495 25.1598L-6.40863 18.1543L2.44663 20.4666L-3.83752 27.513ZM3.4255 19.3657L-5.40434 17.06L1.03125 10.0564L9.70404 12.321L3.4255 19.3657ZM2.03576 8.96248L6.4203 4.19026L14.021 6.17492C14.2471 6.23396 14.4161 6.37297 14.4782 6.55884C14.5457 6.74259 14.4969 6.9436 14.3493 7.11173L10.6869 11.2214L2.03576 8.96248Z" fill="#B6A191"/>
<g id="Group_2">
<path id="Vector_8" d="M9.96751 -10.1795C9.08995 -11.0485 7.69006 -11.5708 6.28924 -11.7904C3.44029 -12.2322 0.297696 -11.7603 -2.03207 -10.1265C-3.90966 -8.80552 -5.17767 -6.99458 -5.79027 -5.14086C-6.49766 -2.99903 -6.16819 -0.790447 -3.97017 0.573751C-3.28333 0.999332 -2.04782 0.788652 -1.52581 0.181389C-0.954982 -0.481651 -1.10094 -1.24234 -1.83642 -1.69983C-1.86775 -1.71777 -1.89769 -1.7384 -1.92902 -1.75634C-1.95524 -1.77601 -1.97044 -1.78672 -1.98694 -1.79404C-2.01617 -1.82431 -2.04168 -1.85362 -2.0565 -1.86423C-2.11414 -1.91813 -2.17361 -1.97587 -2.22637 -2.03189C-2.2724 -2.07633 -2.29593 -2.10207 -2.31135 -2.11894C-2.37782 -2.22729 -2.4691 -2.39761 -2.47509 -2.40899C-2.50333 -2.46508 -2.52479 -2.5262 -2.55419 -2.57921C-2.56181 -2.60388 -2.56943 -2.62854 -2.57689 -2.65351C-2.61342 -2.79644 -2.64096 -2.94043 -2.66004 -3.08528C-2.66443 -3.1484 -2.66998 -3.20844 -2.67925 -3.26944C-2.74425 -3.30898 -2.6512 -3.7049 -2.63996 -3.77381C-2.61758 -3.96007 -2.57951 -4.14566 -2.53633 -4.33298C-2.51745 -4.40939 -2.49842 -4.48609 -2.47466 -4.56462C-2.47219 -4.57685 -2.46995 -4.58948 -2.46633 -4.6048C-2.47077 -4.59613 -2.47185 -4.58659 -2.4763 -4.57791C-2.51245 -4.66553 -2.33367 -4.95117 -2.29802 -5.03644C-2.1584 -5.36509 -1.99207 -5.68986 -1.80923 -6.00731C-1.72476 -6.14836 -1.63809 -6.28545 -1.54707 -6.42446L-1.54263 -6.43313C-1.53777 -6.43933 -1.53231 -6.44503 -1.52708 -6.45112C-1.53194 -6.44493 -1.53717 -6.43883 -1.54165 -6.43255C-1.33121 -6.6358 -1.41728 -6.57816 -1.49748 -6.48749C-1.47139 -6.52443 -1.44524 -6.56643 -1.41893 -6.60297C-1.12906 -6.98686 -0.799108 -7.35426 -0.424455 -7.69687C-0.395594 -7.72191 -0.366352 -7.74686 -0.340844 -7.77277C-0.309636 -7.79415 -0.165966 -7.91647 -0.133006 -7.94045C0.044883 -8.07355 0.227951 -8.20193 0.419282 -8.32172C0.536456 -8.3923 0.655826 -8.45893 0.773 -8.52952C0.784521 -8.53636 0.801142 -8.54492 0.81792 -8.55378C0.844686 -8.56649 0.871294 -8.57891 0.89806 -8.59162C1.10174 -8.68857 1.30859 -8.77521 1.52281 -8.85317C1.65796 -8.90284 1.79357 -8.94595 1.92902 -8.98876C1.94426 -8.99464 1.949 -8.99646 1.96324 -8.99954C1.97323 -9.00339 1.97695 -9.00243 1.99402 -9.00444C2.27279 -9.04942 2.5451 -9.12215 2.82622 -9.16347C2.9277 -9.17951 3.03138 -9.1916 3.13521 -9.20399C3.16126 -9.20707 3.37767 -9.22585 3.4345 -9.23382C3.70938 -9.24729 3.98315 -9.25122 4.25484 -9.24281C4.51792 -9.23325 4.77328 -9.20943 5.03389 -9.18763C5.06213 -9.18675 5.08863 -9.18327 5.10789 -9.18133C5.1295 -9.17573 5.156 -9.17225 5.18979 -9.16654C5.28819 -9.14443 5.38897 -9.12781 5.48737 -9.1057C5.75846 -9.04833 6.02199 -8.977 6.27953 -8.89401C6.31377 -8.88175 6.38473 -8.85388 6.43532 -8.834C6.55199 -8.78412 6.67218 -8.73367 6.78288 -8.67213C6.83071 -8.64687 6.87701 -8.61861 6.92331 -8.59035C6.93303 -8.57801 7.08063 -8.47812 7.11344 -8.44658C7.17108 -8.39269 7.22857 -8.3385 7.28096 -8.28259C7.31201 -8.24846 7.40801 -8.10299 7.41174 -8.10203L7.41546 -8.10106C7.48639 -7.97835 7.55703 -7.86249 7.6166 -7.73324C7.63394 -7.69623 7.68538 -7.5264 7.68873 -7.52553C7.70728 -7.45874 7.72225 -7.39321 7.73926 -7.32343C7.77925 -7.14031 7.79745 -6.95335 7.81155 -6.76745C7.80864 -6.76177 7.81143 -6.51343 7.80963 -6.49425C7.8014 -6.35953 7.78691 -6.22 7.77022 -6.08442C7.7338 -5.80729 7.66715 -5.5346 7.60066 -5.2622C7.58941 -5.21634 7.58551 -5.18483 7.57707 -5.16093C7.56901 -5.13694 7.56056 -5.11304 7.54514 -5.07469C7.49298 -4.94153 7.4447 -4.80771 7.38445 -4.6736C7.27123 -4.41297 7.14249 -4.15332 6.9992 -3.89744C6.93259 -3.7748 6.85699 -3.6511 6.77768 -3.52836C6.75671 -3.49484 6.65546 -3.34493 6.62939 -3.30968C6.4528 -3.0753 6.26323 -2.84767 6.04969 -2.62929C5.9623 -2.53778 5.86762 -2.4485 5.77842 -2.36084C5.77688 -2.35785 5.77316 -2.35882 5.77178 -2.35613L9.11375 -1.49021C10.5982 -3.17664 11.3415 -5.23769 11.2753 -7.19243C11.2392 -8.2739 10.8043 -9.35706 9.96751 -10.1795ZM-1.86458 -1.70746C-1.88537 -1.70641 -1.93096 -1.74431 -1.97282 -1.78124C-1.945 -1.76387 -1.9095 -1.73841 -1.86458 -1.70746Z" fill="#F1664E"/>
<path id="Vector_9" d="M28.0695 -2.22127C28.0308 -3.30272 27.5959 -4.38588 26.7629 -5.20739C25.882 -6.07721 24.4854 -6.5986 23.0809 -6.81924C20.2357 -7.26004 17.0931 -6.78811 14.7634 -5.15439C12.8858 -3.83337 11.6178 -2.02244 11.0052 -0.168725C10.2978 1.97309 10.6269 4.18157 12.8215 5.54489C13.5084 5.97047 14.7476 5.76076 15.2696 5.15349C15.8404 4.49046 15.6911 3.72891 14.9556 3.27142C14.928 3.25444 14.8977 3.23372 14.8668 3.21587C14.8402 3.19611 14.8253 3.18549 14.8088 3.17817C14.7796 3.1479 14.7508 3.11772 14.7393 3.10798C14.6779 3.05312 14.6218 2.99624 14.5661 2.93946C14.5234 2.89588 14.5002 2.87024 14.4844 2.85327C14.4146 2.74406 14.3233 2.57373 14.317 2.56226C14.2925 2.50713 14.271 2.44602 14.2416 2.39301C14.234 2.36834 14.2264 2.34367 14.2185 2.31861C14.1824 2.17578 14.1548 2.03179 14.1354 1.88684C14.1253 1.79615 14.1203 1.7102 14.1134 1.62067C14.0923 1.36115 14.1101 1.69806 14.1124 1.70172C14.0474 1.66218 14.1442 1.26722 14.1517 1.19735C14.1778 1.01205 14.2126 0.825593 14.2595 0.639245C14.2783 0.562838 14.2974 0.486138 14.3211 0.40761C14.3263 0.389299 14.3317 0.371381 14.3335 0.352202C14.331 0.364434 14.3236 0.378788 14.3199 0.394407C14.2837 0.306792 14.4588 0.0201872 14.4978 -0.0642138C14.6378 -0.392764 14.8004 -0.718503 14.9869 -1.03499C15.0714 -1.17603 15.1543 -1.31409 15.2457 -1.453C15.2395 -1.44819 15.238 -1.4452 15.2313 -1.44048C15.2457 -1.453 15.2584 -1.46938 15.2704 -1.48556C15.2786 -1.49326 15.2864 -1.50107 15.2907 -1.50944C15.3184 -1.54798 15.3456 -1.59277 15.3733 -1.63131C15.6666 -2.01433 15.9969 -2.38163 16.3712 -2.72434C16.3967 -2.75025 16.4255 -2.77528 16.4548 -2.80023C16.486 -2.82161 16.6297 -2.94394 16.6622 -2.96801C16.8401 -3.10111 17.0232 -3.22948 17.2145 -3.34928C17.328 -3.42083 17.4511 -3.48649 17.5645 -3.55804C17.576 -3.56488 17.5927 -3.57344 17.6128 -3.58144C17.8436 -3.691 18.0745 -3.79411 18.3181 -3.88073C18.4532 -3.93039 18.5888 -3.9735 18.7243 -4.01632C18.7395 -4.02219 18.7442 -4.02402 18.7581 -4.0272C18.7681 -4.03105 18.7718 -4.03008 18.7855 -4.03296C19.0643 -4.07793 19.3366 -4.15066 19.6177 -4.19198C19.7226 -4.20716 19.8262 -4.21925 19.9301 -4.23165C19.9561 -4.23472 20.1688 -4.25447 20.2294 -4.26148C20.5005 -4.27591 20.778 -4.27886 21.046 -4.27142C21.3087 -4.26196 21.5681 -4.23707 21.825 -4.21624C21.8566 -4.21449 21.8798 -4.21189 21.9024 -4.20907C21.924 -4.20348 21.9505 -4.2 21.9839 -4.19439C22.0823 -4.17228 22.1831 -4.15565 22.2815 -4.13354C22.5485 -4.07724 22.8124 -4.00581 23.0703 -3.92272C23.1045 -3.91046 23.1788 -3.88172 23.2261 -3.86271C23.3461 -3.81197 23.4629 -3.76239 23.5733 -3.70094C23.6248 -3.67471 23.6711 -3.64646 23.7174 -3.6182C23.7238 -3.60673 23.8714 -3.50683 23.9075 -3.47443C23.9652 -3.42054 24.019 -3.36732 24.0713 -3.3114C24.1061 -3.27631 24.1984 -3.13181 24.2021 -3.13084L24.2055 -3.12997C24.2801 -3.0063 24.3508 -2.89044 24.41 -2.76129C24.4239 -2.72514 24.4787 -2.55445 24.4787 -2.55445C24.4973 -2.48766 24.516 -2.42116 24.5293 -2.35234C24.5693 -2.16922 24.5908 -1.9814 24.6053 -1.79541C24.6008 -1.78674 24.6052 -1.54139 24.6034 -1.52221C24.5955 -1.38739 24.5807 -1.24795 24.564 -1.11237C24.5275 -0.835241 24.4609 -0.562549 24.3944 -0.290157C24.3831 -0.244294 24.3755 -0.213748 24.3712 -0.18879C24.3627 -0.164894 24.3509 -0.14187 24.3393 -0.102557C24.2871 0.0306017 24.2355 0.163559 24.1786 0.298541C24.0653 0.559165 23.9366 0.818811 23.7933 1.07469C23.723 1.19637 23.6511 1.32104 23.5718 1.44377C23.5508 1.47729 23.4458 1.62624 23.4235 1.66245C23.2465 1.89674 23.057 2.12437 22.8438 2.34283C22.7564 2.43435 22.6584 2.52276 22.5688 2.61032C22.5673 2.61331 22.5639 2.61244 22.5625 2.61513L25.9078 3.48191C27.3924 1.7945 28.1353 -0.266641 28.0695 -2.22127ZM14.9308 3.26465C14.9063 3.26474 14.8645 3.2278 14.8226 3.19088C14.8463 3.20718 14.8822 3.23274 14.9308 3.26465Z" fill="#F1664E"/>
</g>
<g id="Group_3">
<path id="Vector_10" d="M-74.8942 -20.5896C-62.9268 -17.0757 -50.9589 -13.5617 -38.9915 -10.0478C-27.0889 -6.55286 -15.1862 -3.05797 -3.28394 0.436804C3.41516 2.40381 10.1146 4.37094 16.8137 6.33794C17.567 6.55911 18.0789 5.49389 17.3241 5.27227C5.35665 1.75836 -6.61118 -1.75567 -18.5786 -5.26959C-30.4813 -8.76448 -42.3839 -12.2594 -54.2862 -15.7541C-60.9853 -17.7212 -67.6848 -19.6883 -74.3839 -21.6553C-75.1371 -21.8765 -75.6486 -20.8111 -74.8942 -20.5896Z" fill="#D8C9BF"/>
</g>
</g>
</g>
</svg>
