<svg width="127" height="58" viewBox="0 0 127 58" fill="none" xmlns="http://www.w3.org/2000/svg">
<g opacity="0.5">
<path d="M46.6436 14.5868C20.883 21.4894 5.79381 48.7078 12.9409 75.3811C20.088 102.054 46.7649 118.082 72.5255 111.179C98.2864 104.277 113.375 77.0582 106.228 50.3848C99.0813 23.7115 72.4042 7.68431 46.6436 14.5868ZM70.3635 103.111C48.9071 108.86 26.6879 95.5078 20.7355 73.2929C14.783 51.0779 27.3493 28.405 48.8057 22.6558C70.2623 16.9065 92.4812 30.2587 98.4337 52.4737C104.386 74.6886 91.8199 97.3615 70.3635 103.111Z" fill="#645D7F"/>
<path d="M54.4385 12.498C28.6779 19.4005 13.5887 46.6189 20.7358 73.2922C27.8829 99.9656 54.5598 115.993 80.3204 109.091C106.081 102.188 121.17 74.9693 114.023 48.2959C106.876 21.6226 80.1994 5.59538 54.4385 12.498ZM78.1584 101.022C56.702 106.771 34.4829 93.4189 28.5304 71.204C22.5779 48.9891 35.1442 26.3162 56.6006 20.5669C78.0573 14.8176 100.276 28.1699 106.229 50.3848C112.181 72.5998 99.6151 95.2726 78.1584 101.022Z" fill="#908BAF"/>
<path d="M56.0546 18.5325C33.5128 24.5726 20.3084 48.3913 26.5624 71.7315C32.8164 95.0718 56.1611 109.097 78.7029 103.057C101.245 97.0171 114.449 73.1984 108.195 49.8581C101.941 26.5179 78.5964 12.4925 56.0546 18.5325ZM78.1577 101.022C56.7013 106.772 34.4821 93.4194 28.5296 71.2044C22.5772 48.9895 35.1435 26.3166 56.5998 20.5674C78.0565 14.8181 100.275 28.1703 106.228 50.3852C112.18 72.6002 99.6144 95.273 78.1577 101.022Z" fill="#645D7F"/>
<path d="M106.228 50.3849C106.592 51.7445 106.888 53.1062 107.116 54.4628C110.536 74.8614 98.8257 94.7469 79.4493 100.649C79.0226 100.784 78.5926 100.905 78.1579 101.022C78.0749 101.044 77.9885 101.067 77.9043 101.086C76.6725 101.41 75.4395 101.668 74.2069 101.866C73.6719 101.953 73.1365 102.027 72.6008 102.088C54.3036 104.247 36.5181 93.1607 29.7999 75.1793C29.319 73.8905 28.8941 72.5634 28.5298 71.2038C28.4249 70.8123 28.3271 70.4221 28.2322 70.0311C23.4798 50.112 33.464 30.0741 51.2548 22.422C51.7489 22.207 52.2499 22.0035 52.7568 21.8115C53.923 21.3669 55.1197 20.9735 56.3484 20.6376C56.431 20.6123 56.5173 20.5892 56.6004 20.5669C57.0353 20.4504 57.4684 20.341 57.905 20.2438C78.5731 15.4493 99.6261 28.149 105.9 49.2204C106.013 49.6065 106.123 49.9934 106.228 50.3849Z" fill="white"/>
<path d="M106.228 50.3852C106.593 51.7453 106.888 53.1067 107.117 54.4623C107.948 59.4076 107.888 64.3209 107.041 69.0142C97.4291 57.6285 82.2789 51.943 67.3299 55.4132C66.8931 55.5098 66.4593 55.6174 66.0222 55.7345C65.9407 55.7563 65.8539 55.7796 65.7711 55.8076C64.5427 56.1425 63.3474 56.5356 62.1801 56.9793C61.6734 57.1732 61.1716 57.3746 60.6796 57.5909C48.1741 62.9698 39.5255 74.4677 37.1402 87.7413C34.0607 84.0998 31.5523 79.8747 29.7995 75.1795C29.3204 73.8908 28.8951 72.5644 28.5307 71.2042C28.4259 70.8133 28.3273 70.4236 28.2341 70.0324C23.481 50.1109 33.4649 30.0757 51.2561 22.422C51.7489 22.2085 52.25 22.0044 52.7574 21.8132C53.9239 21.3668 55.1193 20.9737 56.3477 20.6388C56.4311 20.6135 56.518 20.5902 56.5994 20.5684C57.0365 20.4513 57.4697 20.341 57.9064 20.2444C78.5731 15.4487 99.6269 28.148 105.899 49.2221C106.014 49.6074 106.124 49.9942 106.228 50.3852Z" fill="#EEEAE7"/>
<path d="M82.3596 56.2648C79.7852 47.6191 71.1485 42.4085 62.6677 44.3768C62.4863 44.4155 62.3099 44.4596 62.131 44.5076C62.097 44.5167 62.0601 44.5265 62.027 44.5386C61.5252 44.6763 61.0332 44.8381 60.5531 45.0194C60.346 45.0981 60.1409 45.1828 59.9392 45.2697C52.6379 48.4092 48.5392 56.6322 50.491 64.8037C50.5307 64.9651 50.5707 65.126 50.6136 65.2865C50.7632 65.8447 50.9358 66.39 51.1336 66.9184C53.8902 74.2958 61.1902 78.8467 68.6981 77.9584C68.916 77.9332 69.1363 77.9039 69.3549 77.8683C69.8614 77.7855 70.3684 77.6794 70.8717 77.5477C70.9065 77.5416 70.9434 77.5317 70.9773 77.5226C71.1562 77.4747 71.3311 77.4246 71.5075 77.3675C79.4574 74.9466 84.264 66.7883 82.8603 58.4169C82.7673 57.8602 82.6441 57.3016 82.4946 56.7437C82.4515 56.5839 82.4056 56.4245 82.3596 56.2648ZM81.7822 58.5874C83.0936 66.405 78.6064 74.0285 71.1788 76.2896C71.0171 76.3396 70.8512 76.3873 70.6848 76.4319L70.5892 76.4575C70.1165 76.5809 69.6435 76.678 69.1717 76.7546C68.9664 76.7899 68.7594 76.8188 68.5538 76.8408C61.5418 77.6689 54.7263 73.4211 52.1518 66.5268C51.967 66.0345 51.8043 65.5261 51.6647 65.0052C51.6242 64.8542 51.5877 64.7051 51.5511 64.5563C49.73 56.9215 53.5584 49.2436 60.3729 46.3105C60.5621 46.2269 60.7558 46.1485 60.9511 46.0761C61.3981 45.9068 61.8562 45.7541 62.3273 45.6247L62.4229 45.5991C62.5893 45.5545 62.7568 45.5128 62.9219 45.4753C70.8428 43.6371 78.9117 48.5041 81.3169 56.5803C81.3595 56.7275 81.4022 56.8746 81.4427 57.0259C81.5829 57.547 81.6962 58.0686 81.7822 58.5874Z" fill="#D8C9BF"/>
<path d="M106.229 50.3852C112.182 72.6002 99.6153 95.2731 78.1589 101.022C77.2 101.279 76.2374 101.498 75.2779 101.678C94.9946 94.7761 106.209 73.1365 100.522 51.9144C94.8356 30.6923 74.3043 17.5589 53.778 21.4396C54.6994 21.1167 55.6421 20.8243 56.601 20.5674C78.0577 14.8181 100.277 28.1703 106.229 50.3852Z" fill="#D8C9BF"/>
<path d="M88.9218 73.7978L70.5527 63.1924C70.8287 62.1678 70.8522 61.0532 70.5549 59.9439C69.9144 57.5534 67.9905 55.8673 65.7691 55.4651L61.5599 39.7561C61.3269 38.8865 60.433 38.3707 59.5636 38.6036L57.9893 39.0255C57.1197 39.2585 56.6038 40.1521 56.8368 41.0217L61.046 56.7306C59.3232 58.1897 58.5002 60.6118 59.1407 63.0023C60.0152 66.2662 63.2794 68.2271 66.4314 67.3826C66.7721 67.2913 67.094 67.1657 67.4023 67.0197L86.4771 78.0325C87.2568 78.4827 88.2537 78.2155 88.7039 77.4358L89.5187 76.0242C89.9686 75.2446 89.7015 74.2479 88.9218 73.7978Z" fill="#46435B"/>
<path d="M67.9449 59.757C68.8142 59.5241 69.3305 58.6304 69.0974 57.7608L64.0912 39.0774C63.8582 38.2078 62.9643 37.6919 62.095 37.9249L60.5207 38.3467C59.6511 38.5797 59.1351 39.4733 59.3681 40.3429L64.3743 59.0263C64.6073 59.8959 65.501 60.4118 66.3706 60.1788L67.9449 59.757Z" fill="#645D7F"/>
<path d="M91.4535 73.1195L70.6534 61.1106C69.8737 60.6604 68.8768 60.9276 68.4267 61.7073L67.6116 63.119C67.1615 63.8987 67.4286 64.8956 68.2082 65.3455L89.0083 77.3544C89.788 77.8045 90.7849 77.5374 91.235 76.7577L92.0498 75.3461C92.5002 74.5663 92.2332 73.5697 91.4535 73.1195Z" fill="#645D7F"/>
<path d="M68.963 66.7043C72.1151 65.8598 73.9614 62.5293 73.0868 59.2656C72.2123 56.0018 68.9482 54.0407 65.7961 54.8853C62.6441 55.7299 60.7978 59.0603 61.6723 62.3241C62.5468 65.5878 65.811 67.5489 68.963 66.7043Z" fill="#908BAF"/>
<path d="M68.1086 63.5141C69.5593 63.1254 70.409 61.5926 70.0065 60.0905C69.604 58.5884 68.1017 57.6858 66.6511 58.0745C65.2004 58.4632 64.3507 59.996 64.7532 61.4981C65.1557 63.0002 66.6579 63.9028 68.1086 63.5141Z" fill="#645D7F"/>
<path d="M56.3476 20.6384L58.0916 27.1471C58.4031 28.3093 57.8997 29.5019 56.9344 30.1173C56.7075 30.2576 56.4601 30.3701 56.1889 30.4428C54.7551 30.827 53.2776 29.9737 52.8934 28.54L51.2543 22.4227C51.7484 22.2077 52.2494 22.0042 52.7563 21.8122C53.9224 21.3674 55.1191 20.974 56.3476 20.6384Z" fill="#46435B"/>
<path d="M57.9047 20.244L59.643 26.7313C60.0271 28.165 59.1772 29.642 57.7434 30.0261C57.4722 30.0988 57.2025 30.128 56.9353 30.117C55.7892 30.0705 54.7594 29.2855 54.448 28.1233L52.7568 21.8117C53.923 21.3671 55.1197 20.9737 56.3484 20.6378C56.4309 20.6125 56.5173 20.5893 56.6004 20.5671C57.0347 20.4507 57.4681 20.3413 57.9047 20.244Z" fill="#645D7F"/>
<path d="M106.228 50.385C106.593 51.7446 106.888 53.1064 107.116 54.463L98.4677 56.7804C97.0339 57.1645 95.5572 56.3142 95.1722 54.8775C94.7881 53.4438 95.6421 51.969 97.0755 51.5849L105.9 49.2204C106.013 49.6066 106.124 49.9935 106.228 50.385Z" fill="#46435B"/>
<path d="M106.228 50.3848C106.593 51.7444 106.888 53.1062 107.116 54.4628L100.752 56.168C99.3154 56.553 97.8414 55.7019 97.4564 54.2652C97.0722 52.8315 97.9233 51.3574 99.36 50.9725L105.9 49.2202C106.013 49.6064 106.123 49.9933 106.228 50.3848Z" fill="#645D7F"/>
<path d="M52.8479 44.0356C49.0039 47.4008 46.6795 52.3569 46.3848 57.4428C46.3013 58.8857 46.3938 60.3324 46.6448 61.7556C46.7391 62.2899 47.553 62.0686 47.4593 61.5374C46.612 56.7377 47.8519 51.6694 50.6593 47.7059C51.4615 46.5732 52.4032 45.5428 53.4471 44.629C53.8556 44.2716 53.2552 43.6792 52.8479 44.0356Z" fill="#B7A192"/>
<path d="M65.5168 23.2426C69.8584 23.6276 74.08 25.2721 77.5308 27.937C77.9545 28.2643 78.5537 27.6693 78.1238 27.3376C74.4848 24.5272 70.1039 22.8055 65.5227 22.3992C64.9814 22.3513 64.9797 23.1951 65.5168 23.2426Z" fill="#B7A192"/>
<path d="M80.7343 29.8365C83.7617 32.117 86.395 34.912 88.5022 38.0611C88.8022 38.5097 89.5325 38.0868 89.2296 37.634C87.0358 34.3553 84.3062 31.4791 81.156 29.1061C80.7227 28.7802 80.3056 29.5138 80.7343 29.8365Z" fill="#B7A192"/>
</g>
</svg>
