<svg width="104" height="130" viewBox="0 0 104 130" fill="none" xmlns="http://www.w3.org/2000/svg">
<g opacity="0.5">
<path d="M71.0455 128.246L-34.4514 88.6222C-36.6368 87.8014 -38.0721 85.8716 -37.8923 83.9885L-31.7573 19.2834C-31.5158 16.7311 -28.4875 15.3743 -25.5257 16.4868L73.1017 53.5304C75.1355 54.2942 76.5347 56.0282 76.5575 57.8087L77.2913 125.097C77.3217 127.836 74.1773 129.422 71.0455 128.246Z" fill="#D8C9BF"/>
<path d="M75.4935 124.422L74.7598 57.1334C74.7369 55.3528 73.3374 53.6187 71.3039 52.855L69.9824 52.3586C72.0162 53.1225 73.4154 54.8565 73.4382 56.637L74.172 123.925C74.2023 126.664 71.0583 128.251 67.9264 127.075L69.2479 127.571C72.3794 128.747 75.5238 127.16 75.4935 124.422Z" fill="#B6A191"/>
<path d="M72.221 123.193L71.4873 55.9044C71.4644 54.1238 70.0649 52.3897 68.0315 51.626L66.71 51.1296C68.7438 51.8935 70.1429 53.6275 70.1658 55.408L70.8995 122.696C70.9299 125.435 67.7858 127.022 64.654 125.846L65.9755 126.342C69.107 127.518 72.2514 125.931 72.221 123.193Z" fill="#B6A191"/>
<path d="M62.1495 124.905L-34.4514 88.6222C-36.6368 87.8014 -38.0721 85.8716 -37.8923 83.9885L-36.7289 71.7244L-31.7573 19.2834C-31.5158 16.7311 -28.4875 15.3743 -25.5257 16.4868L64.2019 50.1877C66.2392 50.9528 67.6383 52.6868 67.6577 54.466L68.2803 111.165L68.3949 121.756C68.4254 124.494 65.2775 126.079 62.1495 124.905Z" fill="#46435B"/>
<path d="M62.1499 124.905L-34.4511 88.6227C-36.6364 87.8019 -38.0717 85.8721 -37.8919 83.989L-36.7285 71.7249L68.2803 111.165L68.3949 121.756C68.4257 124.495 65.2779 126.08 62.1499 124.905Z" fill="#645D7F"/>
<path d="M-76.9781 67.1531L-32.1282 16.9883C-30.9408 15.6602 -28.7448 15.2759 -26.7098 16.0402L71.9168 53.0835C74.8791 54.1961 76.2629 57.2128 74.765 59.2929L36.7865 112.039C35.6811 113.574 33.3328 114.083 31.1467 113.262L-74.3514 73.6378C-77.4818 72.4624 -78.8046 69.1965 -76.9781 67.1531Z" fill="#EEEAE7"/>
<path d="M61.6042 60.8666C61.3433 60.269 60.797 59.7805 60.1093 59.5222L52.8033 56.7781L51.2725 56.2032L40.8454 52.2869L39.3147 51.7119L28.8876 47.7956L27.3568 47.2207L16.9263 43.303L15.3955 42.7281L4.96839 38.8118L3.43766 38.2368L-6.98908 34.3206L-8.51982 33.7457L-18.9469 29.8294L-20.4815 29.253L-28.6383 26.1894C-29.6144 25.8227 -30.6873 26.0174 -31.2456 26.6615L-35.0332 31.0274L-35.9175 32.0452L-41.5693 38.5666L-42.4537 39.5844L-48.11 46.1074L-48.9943 47.1252L-54.6506 53.6481L-55.5349 54.6659L-61.1902 61.186L-62.0711 62.2051L-66.342 67.1289C-66.7461 67.5982 -66.8358 68.2193 -66.5808 68.8315C-66.327 69.4468 -65.7774 69.9499 -65.0674 70.2166L-56.5814 73.4038L-55.0468 73.9802L-44.6235 77.8951L-43.0928 78.47L-32.666 82.3862L-31.1315 82.9626L-20.7047 86.8788L-19.174 87.4537L-8.74725 91.3699L-7.21267 91.9463L3.21061 95.8612L4.74135 96.4361L15.1719 100.354L16.7027 100.929L26.194 104.494C27.2109 104.875 28.306 104.656 28.8542 103.96L33.4723 98.09L34.2901 97.0472L39.5388 90.3744L40.3604 89.333L45.6102 82.6574L46.4319 81.6161L51.6816 74.9405L52.4994 73.8977L57.7482 67.2248L58.5698 66.1835L61.4296 62.5456C61.8006 62.0744 61.8663 61.4611 61.6042 60.8666ZM50.4286 57.2361L46.7411 61.7411L36.3178 57.8262L40.0019 53.32L50.4286 57.2361ZM5.29995 57.5206L15.7305 61.4382L10.3219 68.0542L-0.108661 64.1366L5.29995 57.5206ZM-1.6394 63.5616L-12.0665 59.6453L-6.65791 53.0293L3.76883 56.9455L-1.6394 63.5616ZM-13.5973 59.0704L-24.024 55.1542L-18.6154 48.5382L-8.18826 52.4546L-13.5973 59.0704ZM-14.4447 60.102L-19.8533 66.718L-30.28 62.8018L-24.8676 56.1873L-14.4447 60.102ZM-12.9105 60.6783L-2.48335 64.5946L-7.89197 71.2106L-18.3225 67.2929L-12.9105 60.6783ZM-0.952615 65.1695L9.47451 69.0859L4.06589 75.7018L-6.36123 71.7855L-0.952615 65.1695ZM11.0087 69.6621L21.432 73.577L16.0234 80.193L5.59625 76.2766L11.0087 69.6621ZM11.8527 68.6291L17.2613 62.0132L27.6884 65.9295L22.2798 72.5455L11.8527 68.6291ZM18.105 60.9798L23.5125 54.3666L33.9396 58.2829L28.5321 64.8961L18.105 60.9798ZM16.5742 60.4048L6.1471 56.4885L11.5547 49.8753L21.9818 53.7916L16.5742 60.4048ZM4.61289 55.9123L-5.81422 51.9959L-0.40665 45.3827L10.0205 49.2991L4.61289 55.9123ZM-7.34496 51.421L-17.7721 47.5047L-12.3645 40.8915L-1.93777 44.8077L-7.34496 51.421ZM-19.3024 46.9299L-29.7295 43.0135L-24.322 36.4004L-13.8949 40.3167L-19.3024 46.9299ZM-20.1461 47.9633L-25.5547 54.5793L-35.9815 50.6631L-30.5728 44.0471L-20.1461 47.9633ZM-26.4025 55.6108L-31.8111 62.2267L-42.2383 58.3104L-36.8258 51.6959L-26.4025 55.6108ZM-32.6548 63.2602L-38.0624 69.8733L-48.4895 65.957L-43.0819 59.3438L-32.6548 63.2602ZM-31.1241 63.8351L-20.6973 67.7513L-26.1049 74.3645L-36.532 70.4481L-31.1241 63.8351ZM-19.1666 68.3262L-8.73603 72.2438L-14.1436 78.857L-24.5742 74.9394L-19.1666 68.3262ZM-7.20491 72.8189L3.22221 76.7352L-2.18536 83.3484L-12.6121 79.4322L-7.20491 72.8189ZM4.75256 77.31L15.1797 81.2264L9.77211 87.8396L-0.654624 83.9234L4.75256 77.31ZM16.7104 81.8013L27.1372 85.7175L21.7296 92.3307L11.3025 88.4143L16.7104 81.8013ZM17.554 80.7682L22.9664 74.1537L33.3932 78.0699L27.9846 84.6858L17.554 80.7682ZM23.8105 73.1204L29.2191 66.5044L39.6462 70.4208L34.2376 77.0367L23.8105 73.1204ZM30.0628 65.471L35.4704 58.8578L45.8971 62.774L40.4895 69.3872L30.0628 65.471ZM38.4711 52.745L34.7836 57.2499L24.3603 53.3351L28.044 48.8287L38.4711 52.745ZM26.5094 48.2523L22.8257 52.7587L12.3986 48.8423L16.0823 44.336L26.5094 48.2523ZM14.5519 43.7612L10.8679 48.2674L0.441153 44.3512L4.12483 39.8449L14.5519 43.7612ZM2.59062 39.2686L-1.09344 43.7748L-11.5167 39.86L-7.83265 35.3537L2.59062 39.2686ZM-9.36377 34.7787L-13.0513 39.2836L-23.4746 35.3687L-19.7905 30.8625L-9.36377 34.7787ZM-29.9561 27.5306C-29.7694 27.3139 -29.4077 27.2507 -29.0824 27.3729L-21.3252 30.2864L-25.0089 34.7928L-33.491 31.6069L-29.9561 27.5306ZM-34.3753 32.6244L-25.8566 35.824L-31.2607 42.4385L-40.0274 39.1457L-34.3753 32.6244ZM-40.9115 40.164L-32.1078 43.4706L-37.5164 50.0865L-46.5678 46.6869L-40.9115 40.164ZM-47.4521 47.7047L-38.36 51.1197L-43.7686 57.7356L-53.1088 54.2275L-47.4521 47.7047ZM-53.9894 55.2471L-44.6127 58.7689L-50.0202 65.3821L-59.6451 61.7671L-53.9894 55.2471ZM-64.6233 69.0341C-64.8598 68.9453 -65.0446 68.7748 -65.1286 68.5708C-65.2151 68.3628 -65.1847 68.1583 -65.0493 67.9999L-60.5259 62.7862L-50.8681 66.4136L-55.7384 72.3712L-64.6233 69.0341ZM-54.2034 72.9477L-49.3331 66.9901L-38.906 70.9065L-43.7763 76.864L-54.2034 72.9477ZM-42.246 77.4388L-37.3756 71.4812L-26.9485 75.3976L-31.8227 81.3537L-42.246 77.4388ZM-30.2881 81.9301L-25.4177 75.9725L-14.991 79.8887L-19.8614 85.8463L-30.2881 81.9301ZM-18.3303 86.4214L-13.456 80.4652L-3.02932 84.3814L-7.90353 90.3376L-18.3303 86.4214ZM-6.36894 90.9139L-1.49858 84.9563L8.92854 88.8727L4.05433 94.8288L-6.36894 90.9139ZM5.58891 95.4052L10.4593 89.4476L20.8864 93.3639L16.016 99.3215L5.58891 95.4052ZM27.5285 103.133C27.3446 103.364 26.9789 103.439 26.6385 103.311L17.5464 99.8963L22.4206 93.9402L31.9454 97.5176L27.5285 103.133ZM32.7667 96.4761L23.2642 92.9071L28.6717 86.2939L38.015 89.8031L32.7667 96.4761ZM38.8332 88.7605L29.5153 85.2608L34.9239 78.6448L44.0864 82.0862L38.8332 88.7605ZM44.9043 81.0431L35.768 77.6115L41.1804 70.997L50.158 74.3689L44.9043 81.0431ZM50.9759 73.3258L42.0241 69.9636L47.4317 63.3504L56.2242 66.6528L50.9759 73.3258ZM48.2756 62.3174L51.9597 57.8112L59.6653 60.7054C59.8946 60.7915 60.0781 60.9549 60.1629 61.1556C60.2527 61.3547 60.2307 61.5592 60.1076 61.7187L57.0463 65.6116L48.2756 62.3174Z" fill="#B6A191"/>
<path d="M5.39094 18.8636C4.40061 17.8267 2.93545 17.111 1.50736 16.7231C-1.39255 15.9411 -4.47514 16.1164 -6.59919 17.6376C-8.3139 18.867 -9.35457 20.6937 -9.73422 22.6369C-10.1725 24.8822 -9.56569 27.3107 -7.19685 29.0241C-6.45711 29.5586 -5.24412 29.464 -4.80235 28.8604C-4.31492 28.2029 -4.55637 27.363 -5.34914 26.7886C-5.38271 26.7658 -5.41524 26.7402 -5.44881 26.7174C-5.47749 26.6933 -5.49403 26.6801 -5.51145 26.6704C-5.54447 26.6345 -5.57365 26.6 -5.5898 26.5869C-5.6542 26.5223 -5.72091 26.4534 -5.7807 26.387C-5.83229 26.334 -5.85905 26.3036 -5.87659 26.2836C-5.95665 26.1591 -6.0693 25.9648 -6.07671 25.9518C-6.11199 25.888 -6.14112 25.8195 -6.17717 25.7589C-6.18789 25.7313 -6.19861 25.7038 -6.20575 25.6772C-6.26368 25.5172 -6.30929 25.3582 -6.3431 25.2005C-6.36179 25.1159 -6.37922 25.0384 -6.39561 24.9582C-6.39269 24.9726 -6.39335 24.986 -6.39208 24.9932C-6.45868 24.9345 -6.41592 24.5285 -6.41346 24.4554C-6.41447 24.2559 -6.39971 24.0589 -6.38007 23.8605C-6.37079 23.7797 -6.36141 23.6987 -6.34752 23.6161C-6.34477 23.5866 -6.33752 23.5556 -6.33373 23.5233C-6.33801 23.5452 -6.34307 23.5704 -6.35032 23.6014C-6.39747 23.5025 -6.2546 23.2121 -6.22967 23.1235C-6.13136 22.7823 -6.00585 22.4482 -5.85908 22.1252C-5.79619 21.9799 -5.72675 21.8407 -5.65282 21.6999L-5.64947 21.691C-5.64212 21.6843 -5.63642 21.6738 -5.62991 21.6646C-5.63642 21.6738 -5.64242 21.6827 -5.64766 21.692C-5.4611 21.4921 -5.54322 21.5483 -5.61232 21.64C-5.59015 21.602 -5.5692 21.5579 -5.54714 21.5202C-5.3017 21.1366 -5.01758 20.7739 -4.69027 20.4411C-4.66456 20.4171 -4.63846 20.3932 -4.61276 20.3691C-4.58809 20.3479 -4.45981 20.2307 -4.42987 20.2082C-4.26913 20.0829 -4.098 19.9649 -3.92214 19.8554C-3.81732 19.7902 -3.70634 19.7307 -3.59806 19.6668C-3.5874 19.6606 -3.57186 19.6531 -3.5562 19.6453C-3.33919 19.5513 -3.11745 19.4657 -2.88906 19.3963C-2.76017 19.3569 -2.63002 19.3247 -2.49998 19.2928C-2.48202 19.2893 -2.47713 19.288 -2.46713 19.2847C-2.45378 19.2831 -2.45377 19.2831 -2.43696 19.2827C-2.16391 19.2638 -1.9008 19.2141 -1.62493 19.1994C-1.52549 19.1929 -1.42336 19.1909 -1.32111 19.1885C-1.29583 19.1879 -1.08145 19.1908 -1.02563 19.1882C-0.752513 19.203 -0.479285 19.2281 -0.206603 19.2662C0.057616 19.3047 0.315901 19.3579 0.579189 19.4093C0.611 19.4146 0.634468 19.4199 0.653969 19.4241C0.676276 19.4325 0.703197 19.4391 0.737697 19.4489C0.838851 19.4833 0.941704 19.5121 1.04286 19.5466C1.32071 19.6376 1.59351 19.7433 1.86142 19.8607C1.89718 19.8777 1.97163 19.9155 2.02471 19.9424C2.14762 20.009 2.27411 20.0765 2.39213 20.1549C2.44312 20.1874 2.49334 20.2231 2.54318 20.2586C2.55444 20.2731 2.71456 20.3971 2.75131 20.4348C2.81572 20.4993 2.88 20.5642 2.9394 20.6304C2.97473 20.6707 3.08897 20.8386 3.09282 20.8401L3.09666 20.8415C3.18299 20.9821 3.27163 21.1165 3.34395 21.2616C3.36593 21.3036 3.43869 21.4931 3.44216 21.4944C3.46908 21.5688 3.49612 21.6428 3.51805 21.7188C3.58103 21.9215 3.62271 22.1261 3.66015 22.329C3.65795 22.3349 3.69193 22.6043 3.69254 22.6249C3.70508 22.7714 3.70773 22.9209 3.70461 23.0647C3.703 23.3612 3.67062 23.6495 3.63835 23.9376C3.63286 23.9861 3.63292 24.0198 3.63133 24.0463C3.62243 24.0699 3.61738 24.0951 3.60678 24.135C3.5752 24.2751 3.53989 24.4136 3.4965 24.5524C3.41989 24.8242 3.31992 25.0903 3.20881 25.3523C3.15762 25.4781 3.09758 25.604 3.03754 25.73C3.01694 25.7626 2.93455 25.9143 2.91637 25.951C2.76926 26.1861 2.60446 26.411 2.42224 26.6263C2.34253 26.7146 2.25947 26.8014 2.18091 26.8867C2.17975 26.8898 2.1759 26.8883 2.17486 26.8911L5.6248 28.1869C6.89712 26.5182 7.38136 24.3642 7.06972 22.2389C6.8978 21.0632 6.32698 19.8429 5.39094 18.8636ZM-5.37825 26.7773C-5.39891 26.7762 -5.44924 26.7303 -5.49572 26.6858C-5.46573 26.7076 -5.42705 26.739 -5.37825 26.7773Z" fill="#F1664E"/>
<path d="M10.8934 27.9041C10.9587 27.7889 11.1144 27.6676 10.8934 27.9041V27.9041Z" fill="white"/>
<path d="M11.0584 28.0208L10.7105 27.8125C10.8403 27.5849 10.9558 27.5953 10.9999 27.5992L11.1243 27.6105L11.1848 27.7098C11.2487 27.8166 11.1928 27.8767 11.0584 28.0208Z" fill="black"/>
<path d="M21.9297 25.0756C20.9397 24.0388 19.478 23.3244 18.0461 22.9351C15.1462 22.1531 12.0636 22.3284 9.93955 23.8496C8.2283 25.0803 7.18802 26.9071 6.80837 28.8503C6.37012 31.0956 6.97652 33.524 9.34189 35.2361C10.082 35.7707 11.295 35.6761 11.7402 35.0738C12.2277 34.4163 11.9828 33.5751 11.1938 33.0021C11.1603 32.9794 11.1277 32.9538 11.0938 32.9309C11.0651 32.9067 11.0489 32.8937 11.0311 32.8838C10.9981 32.8479 10.9689 32.8134 10.9528 32.8003C10.8845 32.7343 10.8213 32.6667 10.7584 32.5992C10.7103 32.5474 10.6839 32.5171 10.666 32.497C10.5825 32.3712 10.4737 32.1783 10.4659 32.1652C10.4306 32.1014 10.4015 32.0329 10.3654 31.9723L10.333 31.8892C10.2785 31.7304 10.2329 31.5715 10.1956 31.4125C10.1741 31.3131 10.1584 31.2194 10.1403 31.1217C10.0862 30.838 10.1505 31.2066 10.1495 31.2094C10.0834 31.161 10.1267 30.7419 10.1254 30.667C10.1282 30.469 10.1395 30.2707 10.1626 30.0736C10.1719 29.9929 10.1813 29.9118 10.1956 29.8294C10.1994 29.7971 10.2031 29.7648 10.2116 29.7307C10.2148 29.7116 10.2175 29.6926 10.2182 29.6792C10.2106 29.71 10.2026 29.7544 10.1928 29.8146C10.1456 29.7158 10.2885 29.4254 10.313 29.3367C10.4117 28.9956 10.5334 28.66 10.6802 28.337C10.7469 28.1932 10.8125 28.0525 10.8899 27.913L10.8976 27.8924C10.9093 27.8835 10.9188 27.8698 10.9244 27.8551C10.9473 27.8163 10.9688 27.7706 10.9917 27.7318C11.2368 27.3481 11.5209 26.9854 11.852 26.6541C11.8743 26.6288 11.9 26.6047 11.9261 26.5808C11.9546 26.561 12.0829 26.4438 12.1124 26.4212C12.2736 26.296 12.4405 26.1764 12.6167 26.0671C12.7215 26.0018 12.836 25.9437 12.9408 25.8785C12.9515 25.8723 12.9708 25.8662 12.9861 25.8583C13.2031 25.7642 13.4214 25.6773 13.6536 25.6094C13.7825 25.57 13.9127 25.5378 14.0427 25.5059C14.0572 25.5011 14.0617 25.4997 14.0752 25.4977C14.0847 25.4946 14.0885 25.4961 14.1054 25.4957C14.3746 25.4753 14.6415 25.4271 14.9174 25.4124C15.0168 25.4058 15.119 25.4038 15.2212 25.4015C15.2469 25.401 15.457 25.4023 15.5167 25.4012C15.786 25.4146 16.063 25.441 16.3353 25.4791C16.5957 25.5161 16.8578 25.5707 17.1177 25.6209C17.1495 25.6261 17.1768 25.6329 17.1959 25.6369C17.2182 25.6453 17.2451 25.6519 17.2792 25.6615C17.3804 25.696 17.4833 25.7248 17.5844 25.7593C17.8626 25.8505 18.1351 25.9559 18.3995 26.0721C18.4391 26.0905 18.5132 26.1282 18.5628 26.1538C18.6892 26.2216 18.8157 26.2892 18.9302 26.3662C18.9851 26.4002 19.0349 26.4358 19.0847 26.4713C19.0925 26.4844 19.2526 26.6085 19.2929 26.6475C19.3573 26.712 19.4177 26.7754 19.4771 26.8416C19.5124 26.8819 19.6176 27.0296 19.6317 27.0482C19.7218 27.1902 19.8097 27.3278 19.8851 27.4741C19.9048 27.5117 19.9625 27.6619 19.9783 27.698C20.0081 27.7766 20.035 27.851 20.0597 27.9312C20.1189 28.1324 20.164 28.3383 20.2018 28.5414C20.1985 28.5503 20.2332 28.8165 20.2342 28.8372C20.2433 28.9825 20.2459 29.132 20.2463 29.2771C20.2447 29.5735 20.2123 29.8619 20.18 30.15C20.1745 30.1985 20.1707 30.2307 20.1695 30.2573C20.1641 30.2823 20.1552 30.306 20.1484 30.3474C20.113 30.4861 20.0781 30.6246 20.0382 30.7648C19.9577 31.0351 19.8616 31.3027 19.7505 31.5647C19.6954 31.689 19.6392 31.8164 19.5754 31.9409C19.5586 31.975 19.4724 32.1252 19.4546 32.162C19.3071 32.397 19.1461 32.6234 18.9604 32.8373C18.8846 32.9272 18.7977 33.0125 18.7191 33.0978C18.718 33.1009 18.7145 33.0996 18.7135 33.1023L22.1669 34.3994C23.4392 32.7307 23.923 30.5766 23.6118 28.4515C23.4404 27.2766 22.8692 26.0562 21.9297 25.0756ZM11.1639 32.9906C11.1394 32.988 11.093 32.9435 11.0465 32.899C11.0765 32.9208 11.1117 32.9509 11.1639 32.9906Z" fill="#F1664E"/>
<path d="M38.472 31.2886C37.4817 30.2517 36.0204 29.5375 34.5884 29.1482C31.6881 28.366 28.6055 28.5413 26.4819 30.0627C24.7672 31.2921 23.7265 33.1187 23.3468 35.0619C22.9086 37.3072 23.5192 39.7372 25.8842 41.4492C26.6243 41.9838 27.8369 41.8891 28.2826 41.2868C28.7661 40.628 28.5251 39.7882 27.7323 39.2138C27.6987 39.191 27.6662 39.1654 27.6361 39.1439C27.607 39.1197 27.5909 39.1066 27.5735 39.0969C27.537 39.0597 27.5074 39.025 27.4951 39.0134C27.4272 38.9475 27.364 38.8799 27.3007 38.8122C27.2526 38.7605 27.2262 38.7302 27.2049 38.7088C27.1252 38.5844 27.0125 38.3901 27.0047 38.377C26.9698 38.3133 26.9442 38.2461 26.9043 38.1841C26.8974 38.158 26.8828 38.129 26.8761 38.1026C26.8216 37.9438 26.776 37.7848 26.7387 37.6258C26.7168 37.5263 26.7015 37.4328 26.6834 37.335C26.6296 37.0515 26.6901 37.4187 26.6925 37.4227C26.6226 37.373 26.6697 36.9553 26.6685 36.8804C26.6713 36.6824 26.6826 36.4841 26.7057 36.287C26.7111 36.2048 26.7244 36.1251 26.7348 36.0413C26.736 36.0382 26.7382 36.0324 26.7354 36.0281C26.6882 35.9293 26.8272 35.6375 26.8522 35.5489C26.9509 35.2078 27.0764 34.8737 27.2231 34.5507C27.286 34.4054 27.3551 34.266 27.4294 34.1254C27.4233 34.1298 27.4222 34.1329 27.4165 34.1374C27.4294 34.1254 27.4399 34.109 27.45 34.0927C27.4543 34.0884 27.4571 34.0831 27.4602 34.0783C27.4511 34.091 27.4422 34.1042 27.4349 34.1176C27.625 33.9141 27.5364 33.976 27.4664 34.0701C27.4666 34.0695 27.4667 34.0692 27.4673 34.0687C27.4902 34.0299 27.5118 33.9843 27.5347 33.9455C27.7801 33.562 28.0642 33.1993 28.395 32.8678C28.4173 32.8424 28.443 32.8184 28.4691 32.7945C28.4976 32.7746 28.6224 32.6562 28.6519 32.6336C28.8131 32.5083 28.9838 32.3903 29.1601 32.2809C29.2649 32.2157 29.3755 32.1561 29.4842 32.0923C29.4948 32.0861 29.5104 32.0786 29.526 32.0708C29.5512 32.0599 29.5762 32.0493 29.6014 32.0383C29.7967 31.9565 29.9926 31.8848 30.1931 31.8217C30.322 31.7824 30.4556 31.7515 30.5857 31.7195C30.6002 31.7148 30.6047 31.7133 30.6147 31.7101C30.628 31.7084 30.6315 31.7097 30.6449 31.7081C30.9179 31.6891 31.1814 31.6396 31.4569 31.6248C31.5602 31.6197 31.6585 31.6162 31.7607 31.6139C31.7864 31.6133 32.0004 31.6161 32.0562 31.6136C32.3293 31.6284 32.6025 31.6534 32.8748 31.6914C33.1391 31.7299 33.3973 31.783 33.6606 31.8345C33.6924 31.8398 33.7155 31.845 33.7389 31.8506C33.7573 31.8575 33.7881 31.8656 33.8222 31.8752C33.9234 31.9097 34.0228 31.9372 34.1235 31.9715C34.4018 32.0627 34.6742 32.1682 34.9421 32.2856C34.9779 32.3026 35.0523 32.3404 35.1054 32.3673C35.2317 32.4352 35.3548 32.5014 35.4728 32.5798C35.5238 32.6123 35.5736 32.6478 35.6238 32.6836C35.6351 32.698 35.7952 32.822 35.8355 32.861C35.896 32.9241 35.9603 32.989 36.0197 33.0552C36.0589 33.0969 36.1693 33.2634 36.1731 33.2648L36.1766 33.2661C36.2667 33.4081 36.3519 33.5412 36.4277 33.6877C36.4462 33.7283 36.5186 33.9177 36.5221 33.919C36.549 33.9934 36.576 34.0674 36.5983 34.1436C36.6613 34.3463 36.7065 34.5521 36.7443 34.7552C36.7399 34.7669 36.7757 35.0303 36.7767 35.0511C36.7854 35.1962 36.7884 35.3458 36.7887 35.4909C36.7833 35.7859 36.7513 36.0744 36.7225 36.3638C36.717 36.4123 36.7132 36.4446 36.7116 36.471C36.7027 36.4947 36.6977 36.5198 36.6867 36.5596C36.6551 36.6998 36.6198 36.8382 36.5799 36.9784C36.4994 37.2487 36.4033 37.5163 36.2883 37.7768C36.2367 37.9024 36.1771 38.0285 36.1171 38.1545C36.0999 38.1884 36.0141 38.3387 35.9959 38.3754C35.8484 38.6104 35.684 38.8355 35.5018 39.0507C35.4259 39.1406 35.339 39.2259 35.2604 39.3112C35.2593 39.3143 35.2554 39.3128 35.2544 39.3156L38.7078 40.6126C39.9801 38.9439 40.4643 36.79 40.1492 34.6634C39.9792 33.4884 39.408 32.2679 38.472 31.2886ZM27.7066 39.2038C27.6821 39.2013 27.6318 39.1553 27.5892 39.1123C27.6153 39.1326 27.654 39.164 27.7066 39.2038Z" fill="#F1664E"/>
<path d="M55.0112 37.5006C54.0247 36.4651 52.5596 35.7495 51.1315 35.3616C48.2277 34.5782 45.1451 34.7535 43.0211 36.2746C41.3098 37.5053 40.2696 39.3321 39.8899 41.2754C39.4517 43.5207 40.0584 45.9492 42.4273 47.6626C43.1674 48.1972 44.3762 48.101 44.8218 47.4988C45.3092 46.8414 45.0678 46.0015 44.275 45.427C44.2414 45.4043 44.2089 45.3787 44.1753 45.3559C44.1466 45.3318 44.1301 45.3186 44.1127 45.3089C44.0796 45.2729 44.0505 45.2384 44.0343 45.2254C43.9699 45.1608 43.9032 45.0919 43.8434 45.0255C43.7918 44.9724 43.7651 44.942 43.7475 44.9221C43.6675 44.7976 43.5548 44.6032 43.5474 44.5903C43.5121 44.5265 43.483 44.4579 43.4469 44.3974C43.4362 44.3698 43.4255 44.3423 43.4149 44.3144C43.3604 44.1556 43.3148 43.9966 43.2776 43.8376C43.2652 43.7688 43.2522 43.7031 43.2352 43.636C43.1653 43.5862 43.2086 43.1671 43.2112 43.0937C43.2102 42.8942 43.2249 42.6972 43.2446 42.4988C43.2538 42.418 43.2632 42.337 43.2771 42.2544C43.278 42.2414 43.2787 42.228 43.2804 42.2118C43.277 42.2207 43.2772 42.2309 43.2738 42.2398C43.2267 42.141 43.3695 41.8506 43.3945 41.762C43.4928 41.4208 43.6183 41.0867 43.7612 40.7622C43.8279 40.6184 43.8974 40.4791 43.9709 40.3382L43.9743 40.3293C43.9783 40.3231 43.9831 40.3175 43.9876 40.3115C43.9835 40.3177 43.979 40.3237 43.9753 40.33C44.1602 40.1323 44.0814 40.1856 44.0126 40.2752C44.034 40.238 44.0549 40.1953 44.0766 40.1585C44.3182 39.7735 44.6019 39.4107 44.9335 39.0795C44.9592 39.0554 44.9853 39.0315 45.0075 39.0062C45.036 38.9863 45.1643 38.8691 45.1943 38.8467C45.3554 38.7215 45.5223 38.6019 45.6985 38.4926C45.8068 38.4286 45.9178 38.3692 46.0261 38.3052C46.0367 38.2991 46.0523 38.2916 46.0679 38.2838C46.0931 38.2728 46.1181 38.2622 46.1433 38.2513C46.3348 38.1681 46.5307 38.0963 46.7351 38.0347C46.8639 37.9954 46.9941 37.9631 47.1241 37.9312C47.1386 37.9265 47.1432 37.925 47.157 37.9232C47.1665 37.9201 47.1703 37.9216 47.1872 37.9212C47.4602 37.9023 47.7233 37.8526 47.9992 37.8379C48.0986 37.8313 48.2008 37.8293 48.303 37.827C48.3287 37.8265 48.5427 37.8293 48.5985 37.8267C48.8716 37.8415 49.1448 37.8665 49.4175 37.9047C49.6817 37.9432 49.94 37.9963 50.2033 38.0478C50.2317 38.0518 50.2586 38.0584 50.2781 38.0626C50.3004 38.0709 50.3273 38.0775 50.3618 38.0873C50.463 38.1218 50.5658 38.1506 50.667 38.1851C50.9452 38.2763 51.2176 38.3817 51.4855 38.4992C51.5213 38.5162 51.5958 38.5539 51.6488 38.5809C51.7717 38.6474 51.8982 38.715 52.0166 38.7935C52.0676 38.826 52.1175 38.8615 52.1673 38.8971C52.1786 38.9115 52.3387 39.0356 52.3754 39.0732C52.4398 39.1378 52.5041 39.2027 52.5635 39.2689C52.5989 39.3092 52.7131 39.4771 52.7169 39.4785L52.7208 39.48C52.8071 39.6205 52.8923 39.7536 52.9681 39.9001C52.9901 39.942 53.0628 40.1316 53.0663 40.1329C53.0932 40.2072 53.1164 40.2798 53.1422 40.3573C53.2052 40.56 53.2468 40.7645 53.2843 40.9675C53.2821 40.9733 53.3161 41.2427 53.3167 41.2633C53.3254 41.4084 53.3284 41.5581 53.3287 41.7032C53.3271 41.9996 53.2947 42.288 53.2625 42.5761C53.257 42.6246 53.257 42.6583 53.2516 42.6833C53.2466 42.7084 53.2411 42.7334 53.2305 42.7733C53.1951 42.912 53.1636 43.0519 53.1202 43.1908C53.0398 43.4611 52.9437 43.7287 52.8326 43.9906C52.7814 44.1164 52.7213 44.2424 52.6574 44.3669C52.6407 44.401 52.5583 44.5526 52.5366 44.588C52.3895 44.8231 52.2286 45.0495 52.0425 45.2633C51.9667 45.3531 51.8832 45.4397 51.805 45.5252C51.8039 45.5283 51.8 45.5268 51.799 45.5296L55.2489 46.8253C56.5212 45.1566 57.0055 43.0027 56.6938 40.8774C56.5219 39.7016 55.9511 38.4814 55.0112 37.5006ZM44.2459 45.4158C44.2252 45.4147 44.1749 45.3687 44.1284 45.3242C44.1584 45.346 44.1971 45.3774 44.2459 45.4158Z" fill="#F1664E"/>
<path d="M43.2255 43.5812C43.2254 43.5709 43.2259 43.5578 43.222 43.5461C43.2146 43.5097 43.2078 43.4836 43.2021 43.4646C43.2079 43.4938 43.2157 43.5406 43.2255 43.5812Z" fill="white"/>
<path d="M43.4143 45.165L43.0287 43.5916C43.0208 43.5591 43.0138 43.5227 43.0082 43.4933L43.0104 43.4931C43.0092 43.4894 43.0083 43.4859 43.0072 43.4831L43.3958 43.4461C43.4024 43.4683 43.4105 43.4994 43.4195 43.5421L43.4257 43.6037L43.4143 45.165Z" fill="black"/>
<path d="M73.2345 47.0894C73.0601 45.9133 72.4893 44.6931 71.5532 43.7137C70.5633 42.677 69.1016 41.9626 67.6696 41.5733C64.7697 40.7913 61.6871 40.9666 59.5631 42.4878C57.8518 43.7185 56.8116 45.5453 56.4319 47.4885C55.9937 49.7338 56.6001 52.1622 58.9654 53.8743C59.7055 54.4089 60.9182 54.3142 61.3638 53.712C61.8512 53.0545 61.6063 52.2133 60.8135 51.6389C60.7838 51.6175 60.7509 51.5918 60.7177 51.5692C60.6886 51.5449 60.6725 51.5318 60.655 51.5221C60.622 51.4862 60.5894 51.4504 60.5767 51.4386C60.5084 51.3726 60.4452 51.305 60.3823 51.2375C60.3342 51.1857 60.3078 51.1554 60.2899 51.1354C60.2064 51.0096 60.0937 50.8152 60.0859 50.8021C60.0545 50.7397 60.0254 50.6712 59.9893 50.6106C59.9786 50.5831 59.9679 50.5555 59.9569 50.5275C59.9028 50.3689 59.8572 50.2099 59.8196 50.0508C59.7981 49.9514 59.7823 49.8577 59.7642 49.76C59.7105 49.4765 59.7706 49.8435 59.7734 49.8477C59.7034 49.7979 59.7506 49.3803 59.7493 49.3054C59.7521 49.1074 59.7634 48.909 59.7869 48.7121C59.7962 48.6313 59.8056 48.5502 59.8195 48.4677C59.8223 48.4484 59.8255 48.4296 59.8249 48.409C59.8239 48.422 59.8184 48.4367 59.8166 48.4532C59.7694 48.3544 59.9084 48.0626 59.9368 47.9753C60.0355 47.6342 60.1572 47.2986 60.304 46.9756C60.3707 46.8318 60.4363 46.6911 60.5102 46.5503C60.5046 46.5549 60.5034 46.558 60.4974 46.5624C60.5102 46.5503 60.5208 46.5339 60.5308 46.5177C60.538 46.5102 60.5448 46.5026 60.5481 46.494C60.571 46.4552 60.5925 46.4096 60.6154 46.3708C60.8605 45.9871 61.1446 45.6244 61.4757 45.293C61.498 45.2677 61.5237 45.2437 61.5498 45.2197C61.5783 45.1999 61.7066 45.0827 61.7361 45.0601C61.8973 44.9349 62.0642 44.8154 62.2404 44.706C62.3448 44.6406 62.4597 44.5826 62.5641 44.5172C62.5748 44.5111 62.5903 44.5036 62.6094 44.4971C62.8264 44.403 63.0443 44.316 63.2769 44.2482C63.4058 44.2088 63.536 44.1766 63.666 44.1447C63.6805 44.1399 63.685 44.1385 63.6985 44.1365C63.708 44.1334 63.7118 44.1349 63.7252 44.1332C63.9983 44.1143 64.2614 44.0646 64.5372 44.0499C64.6401 44.0446 64.7423 44.0426 64.8445 44.0403C64.8702 44.0398 65.0803 44.0411 65.14 44.04C65.4093 44.0533 65.6863 44.0798 65.9552 44.1165C66.219 44.1549 66.4815 44.2096 66.741 44.2597C66.7728 44.2649 66.7962 44.2702 66.8192 44.2757C66.8415 44.2841 66.8684 44.2907 66.9026 44.3003C67.0037 44.3348 67.1066 44.3636 67.2077 44.3981C67.4817 44.4877 67.7545 44.5933 68.0228 44.7109C68.0586 44.7279 68.1365 44.767 68.1861 44.7926C68.3125 44.8604 68.4355 44.9267 68.5535 45.005C68.6084 45.039 68.6582 45.0745 68.708 45.1101C68.7158 45.1232 68.8759 45.2473 68.9162 45.2862C68.9806 45.3508 69.041 45.4142 69.1004 45.4804C69.1396 45.5222 69.25 45.6886 69.2538 45.6901L69.2573 45.6914C69.3475 45.8334 69.4326 45.9665 69.508 46.1128C69.5265 46.1534 69.6028 46.3443 69.6028 46.3443C69.6297 46.4186 69.6567 46.4927 69.6787 46.5687C69.7417 46.7714 69.7868 46.9772 69.8246 47.1803C69.8213 47.1893 69.8564 47.4556 69.857 47.4762C69.8661 47.6214 69.8687 47.7709 69.8691 47.9161C69.8675 48.2125 69.8351 48.5009 69.8028 48.7889C69.7973 48.8374 69.7935 48.8697 69.7923 48.8963C69.7869 48.9213 69.778 48.945 69.7712 48.9863C69.7358 49.125 69.7009 49.2636 69.661 49.4038C69.5805 49.6741 69.4844 49.9417 69.3733 50.2036C69.3182 50.328 69.262 50.4554 69.1982 50.5799C69.1814 50.614 69.0952 50.7642 69.0774 50.801C68.9299 51.036 68.7689 51.2624 68.5832 51.4763C68.5074 51.5661 68.4205 51.6514 68.3419 51.7367C68.3408 51.7398 68.3373 51.7385 68.3362 51.7413L71.7896 53.0384C73.0619 51.3686 73.5458 49.2145 73.2345 47.0894ZM60.7879 51.6289C60.7634 51.6264 60.7169 51.5819 60.6704 51.5374C60.6962 51.5576 60.7352 51.5891 60.7879 51.6289Z" fill="#F1664E"/>
<path d="M60.5165 46.5423C60.5821 46.4272 60.7374 46.3058 60.5165 46.5423V46.5423Z" fill="white"/>
<path d="M60.6805 46.6587L60.3326 46.4504C60.4623 46.2229 60.5782 46.2334 60.622 46.2372L60.7467 46.2486L60.8068 46.348C60.8714 46.4552 60.8156 46.515 60.6805 46.6587Z" fill="black"/>
<path d="M-20.218 90.5382C-13.1189 93.2046 -6.01976 95.8709 1.07972 98.5374C3.08545 99.2908 5.0908 100.044 7.09653 100.797C7.83883 101.076 8.18706 100.154 7.44323 99.8742C0.344128 97.2079 -6.75497 94.5415 -13.8545 91.875C-15.8602 91.1217 -17.8655 90.3685 -19.8713 89.6151C-20.6139 89.3362 -20.9618 90.2588 -20.218 90.5382Z" fill="#D8C9BF"/>
<path d="M-27.6733 21.6689C-15.8797 26.0985 -4.08569 30.5283 7.70794 34.9578C19.4377 39.3634 31.1675 43.769 42.8969 48.1745C49.4987 50.6541 56.1009 53.1338 62.7027 55.6134C63.445 55.8922 63.7932 54.9697 63.0494 54.6903C51.2558 50.2607 39.4617 45.831 27.6681 41.4014C15.9383 36.9958 4.20855 32.5902 -7.52085 28.1848C-14.1227 25.7052 -20.7248 23.2255 -27.3266 20.7459C-28.0689 20.4671 -28.4168 21.3897 -27.6733 21.6689Z" fill="#D8C9BF"/>
<path d="M10.49 37.8409C15.483 39.7162 20.476 41.5916 25.469 43.4669C26.2113 43.7457 26.5595 42.8232 25.8157 42.5438C20.8227 40.6685 15.8297 38.7932 10.8367 36.9179C10.0941 36.6389 9.74621 37.5615 10.49 37.8409Z" fill="#D8C9BF"/>
</g>
</svg>
