<svg width="70" height="71" viewBox="0 0 70 71" fill="none" xmlns="http://www.w3.org/2000/svg">
<g opacity="0.5">
<path d="M84.4901 92.2122L41.0982 103.426C37.4728 104.363 33.2868 101.993 31.7511 98.1352L5.37117 31.8791C3.83555 28.0212 5.52819 24.1328 9.15605 23.1962L52.5457 11.9823C56.1711 11.0459 60.3571 13.4153 61.895 17.2733L88.2725 83.5298C89.8106 87.3875 88.1155 91.2758 84.4901 92.2122Z" fill="#F1664E"/>
<path d="M27.2585 22.9374L11.8431 26.5194C10.5309 26.8242 9.85369 28.1603 10.2994 29.5654L31.3415 95.9129C31.8109 97.3935 33.3463 98.3933 34.7508 98.133L86.3488 88.5714C87.8123 88.3002 88.5305 86.7774 87.9088 85.2635L60.5737 18.7002C60.007 17.3202 58.5275 16.4554 57.2026 16.7301L27.2585 22.9374Z" fill="#D8C9BF"/>
<path d="M26.1119 22.5843L11.2416 27.5315C9.97578 27.9525 9.42245 29.3618 9.97988 30.7445L36.3104 96.0352C36.8979 97.4924 38.4939 98.3714 39.8541 97.9874L89.8335 83.8843C91.2512 83.4844 91.829 81.8826 91.0888 80.4049L58.5458 15.4367C57.8709 14.0896 56.3416 13.3423 55.0607 13.7341L26.1119 22.5843Z" fill="#EEEAE7"/>
<path d="M25.9427 25.9506L11.6574 30.5382C10.4415 30.9287 9.89816 32.2238 10.4189 33.4908L35.0112 93.3242C35.5599 94.6595 37.0796 95.4611 38.3859 95.1046L86.3751 82.0021C87.7361 81.6303 88.3047 80.1585 87.61 78.805L57.0663 19.2873C56.4331 18.0533 54.9757 17.3724 53.7456 17.7357L25.9427 25.9506Z" fill="#D8C9BF"/>
<path d="M23.1586 22.6846L9.66313 28.4425C8.51451 28.9325 8.09799 30.3259 8.71403 31.619L37.7993 92.6847C38.4484 94.0474 39.9956 94.7864 41.2349 94.3258L86.7698 77.4027C88.0615 76.9227 88.4871 75.3425 87.6946 73.9703L52.8488 13.6312C52.1263 12.3803 50.6501 11.7636 49.4856 12.2263L23.1586 22.6846Z" fill="white"/>
<path d="M52.2119 20.8967L68.1086 57.5192L26.2549 69.0504L20.9779 57.9937L52.2119 20.8967Z" fill="#EEEAE7"/>
<path d="M16.7067 24.1419C16.053 24.2469 15.6692 24.854 15.8233 25.5431C16.5607 28.8434 18.4672 38.2486 18.1442 45.9522C17.9086 51.5675 17.2586 55.0865 16.7654 57.0277C16.5369 57.9274 17.37 58.9147 18.3227 58.8771L57.5242 57.332C58.1531 57.3071 58.6011 56.8268 58.5876 56.1886C58.5351 53.7389 58.2831 47.4005 57.0806 39.1973C55.8481 30.7899 52.9537 22.7518 51.8073 19.7824C51.5441 19.1005 50.8278 18.657 50.1657 18.7636L16.7067 24.1419Z" fill="#BFC663"/>
<path d="M28.7803 69.3822C33.526 67.9982 38.2595 66.5842 42.9807 65.1389C47.7019 63.6937 52.4102 62.2175 57.106 60.7107C59.7547 59.8605 62.3994 59.0007 65.0403 58.1314C65.507 57.9779 65.0911 57.131 64.625 57.2845C59.9438 58.8257 55.2498 60.3367 50.5428 61.8167C45.836 63.2967 41.1166 64.7461 36.3847 66.1645C33.7155 66.9646 31.0421 67.755 28.365 68.5356C27.8927 68.6731 28.3095 69.5193 28.7803 69.3822Z" fill="#D8C9BF"/>
<path d="M31.5405 75.9972C38.7508 73.8252 45.9218 71.5564 53.051 69.1898C55.0827 68.5154 57.1111 67.8327 59.1362 67.1428C59.5998 66.9848 59.1852 66.1444 58.7216 66.3025C51.6153 68.724 44.4673 71.0498 37.2785 73.2771C35.231 73.9115 33.18 74.538 31.1258 75.1566C30.6559 75.2985 31.0717 76.1384 31.5405 75.9972Z" fill="#D8C9BF"/>
<path d="M60.8227 73.7138C65.1462 72.4676 69.4412 71.1508 73.7065 69.7637C74.172 69.6123 73.7577 68.7778 73.2926 68.9288C69.0273 70.3159 64.7323 71.6327 60.4088 72.8789C59.9377 73.0148 60.3534 73.8493 60.8227 73.7138Z" fill="#D8C9BF"/>
<path d="M18.6523 56.0395C24.2058 55.5049 29.7591 54.9704 35.3127 54.4358C35.8246 54.3864 35.6177 53.3851 35.1053 53.4346C29.5517 53.9692 23.9984 54.5037 18.4448 55.0383C17.9329 55.0877 18.1398 56.089 18.6523 56.0395Z" fill="#8AAA4C"/>
<path d="M37.29 53.9096C42.1761 53.4691 47.0262 52.8596 51.8342 52.0826C52.3353 52.0015 52.1326 51.0349 51.6284 51.1166C46.8205 51.8939 41.9703 52.5031 37.0842 52.9436C36.573 52.9898 36.7783 53.9558 37.29 53.9096Z" fill="#8AAA4C"/>
<path d="M25.0596 51.6746C29.1458 51.6525 33.2094 51.4915 37.2458 51.1921C37.7573 51.1541 37.5534 50.2202 37.0416 50.2582C33.0055 50.5576 28.9416 50.7183 24.8554 50.7407C24.3375 50.7433 24.5441 51.6773 25.0596 51.6746Z" fill="#8AAA4C"/>
<path d="M20.4951 26.5801C20.4951 26.5801 35.6429 50.5856 37.5406 50.8121C39.438 51.0385 58.3758 46.0609 58.3758 46.0609C58.3758 46.0609 57.8794 38.949 56.1152 33.4631C54.351 27.9771 51.7258 26.5227 51.7258 26.5227L20.4951 26.5801Z" fill="#8AAA4D"/>
<path d="M24.1785 23.6123L20.2693 25.6316C19.6033 25.9757 19.4239 26.8433 19.8657 27.585L31.7057 47.465C32.1621 48.2312 33.1037 48.5677 33.7904 48.2105L58.661 35.264C59.4288 34.8645 59.5244 33.7916 58.8594 33.0356L45.1774 17.4751C44.7213 16.9564 44.0289 16.7388 43.4596 16.9358L24.3403 23.5435C24.2844 23.5624 24.2304 23.5854 24.1785 23.6123Z" fill="#4692C6"/>
<path d="M27.6048 21.3507L24.8472 13.0762C24.7817 12.8802 24.6032 12.7345 24.4126 12.7223C22.7398 12.6157 21.661 11.7502 21.4534 10.3477C21.2452 8.9442 22.8111 7.96071 23.7632 7.49943C25.5749 6.62123 28.1005 6.1735 29.2136 7.07388C29.75 7.50778 30.088 8.04529 30.1918 8.62826C30.3955 9.77577 29.6535 10.7957 29.1933 11.3012C29.087 11.4182 29.0807 11.6086 29.1776 11.7755L33.7942 19.7118L33.0336 20.0773L28.4172 12.141C28.0986 11.5931 28.12 10.9658 28.4714 10.5795C29.0927 9.89675 29.3913 9.1814 29.2912 8.61659C29.2361 8.3064 29.0574 8.03282 28.7456 7.78049C28.1848 7.32653 26.1101 7.48808 24.2766 8.37682C23.0207 8.98569 22.268 9.77536 22.3588 10.3887C22.4838 11.2333 23.1331 11.699 24.2883 11.7727C24.9101 11.8122 25.4941 12.2892 25.7086 12.9323L28.4663 21.2068L27.6048 21.3507Z" fill="#908BAF"/>
<path d="M23.4696 27.1583L20.7273 21.4074C20.3588 20.635 20.6378 19.8229 21.3413 19.6211L37.3286 15.0332C38.0492 14.8265 38.9138 15.345 39.2058 16.1595L41.1219 21.5043C41.3775 22.217 41.1014 22.9111 40.4812 23.1153L25.3202 28.1092C24.6518 28.3295 23.8256 27.9049 23.4696 27.1583Z" fill="#46435B"/>
<path d="M23.9239 31.0212L29.785 39.5104C30.1247 40.0025 30.7478 40.205 31.2103 39.9733L42.5811 34.2794C43.102 34.0186 43.2072 33.3193 42.8075 32.7759L37.6037 25.7008C37.2853 25.268 36.7417 25.0711 36.2996 25.2285L24.2716 29.5084C23.6886 29.7154 23.5224 30.4395 23.9239 31.0212Z" fill="white"/>
</g>
</svg>
