<svg width="103" height="73" viewBox="0 0 103 73" fill="none" xmlns="http://www.w3.org/2000/svg">
<g opacity="0.5">
<path d="M28.3781 32.3303C28.3781 32.3303 27.7409 17.5282 31.271 14.9654C34.8009 12.4024 49.1596 7.59677 52.8328 10.745C56.5061 13.8933 60.7323 23.6611 60.7323 23.6611L56.3321 24.8401C56.3321 24.8401 50.9481 14.0649 48.6092 14.0327C46.2703 14.0005 35.7547 16.9978 34.9085 18.6022C34.0623 20.2064 34.5847 31.8885 34.5847 31.8885L28.3781 32.3303Z" fill="#603D24"/>
<path d="M30.8127 31.678C30.8127 31.678 30.1755 16.8758 33.7055 14.3131C37.2355 11.7501 51.5941 6.94443 55.2674 10.0927C58.9406 13.2409 63.1668 23.0087 63.1668 23.0087L58.7666 24.1877C58.7666 24.1877 53.3826 13.4126 51.0437 13.3804C48.7049 13.3482 38.1893 16.3455 37.3431 17.9499C36.4969 19.554 37.0193 31.2361 37.0193 31.2361L30.8127 31.678Z" fill="#875838"/>
<path d="M95.187 49.904C95.2013 50.2027 95.1928 50.4771 95.1596 50.73C94.8499 53.2948 92.4068 53.6843 92.4068 53.6843C92.4068 53.6843 93.4158 55.9966 94.5191 59.2126C95.4157 61.8318 96.3751 65.0535 96.9014 68.112C96.9179 68.2085 96.9337 68.3028 96.9496 68.397C98.0745 75.2829 87.3161 78.046 65.1679 86.1364C43.0197 94.2267 29.5722 97.2318 24.3194 93.7273C19.0693 90.2244 11.4233 60.052 7.9202 50.8477C6.57699 47.323 6.13024 44.649 6.40797 42.4376C6.85646 38.8762 9.18569 36.5209 12.6848 33.7607C16.9368 30.4047 35.3532 25.2307 44.2902 22.8572C47.2657 22.0646 49.1895 21.5843 49.1895 21.5843C57.4685 19.3988 74.4959 15.0029 80.1786 17.4328C82.8913 18.5919 86.3956 25.2883 89.338 32.33C92.557 40.0458 95.0991 48.1753 95.187 49.904Z" fill="#875838"/>
<path d="M96.9014 68.112C96.9179 68.2085 96.9337 68.3028 96.9496 68.397C98.0745 75.2829 87.3161 78.046 65.1679 86.1364C43.0197 94.2267 29.5722 97.2318 24.3194 93.7273C19.0693 90.2244 11.4233 60.052 7.9202 50.8477C6.57699 47.323 6.13024 44.649 6.40797 42.4376C6.85646 38.8762 9.18569 36.5209 12.6848 33.7607C16.9368 30.4047 35.3532 25.2307 44.2902 22.8572C40.365 43.0244 33.5944 68.4532 33.5944 68.4532C33.5944 68.4532 38.0633 88.2478 42.1347 88.2359C45.9859 88.2244 83.116 78.7586 96.9014 68.112Z" fill="#603D24"/>
<path d="M95.1872 49.9041C95.2016 50.2029 95.193 50.4773 95.1599 50.7301C94.8502 53.2949 92.4071 53.6844 92.4071 53.6844C92.4071 53.6844 93.4161 55.9967 94.5194 59.2127L35.9026 76.9879L33.5947 68.4533C33.5947 68.4533 49.7198 43.68 68.051 35.8947C78.8148 31.3216 84.408 31.2116 89.3382 32.3301C92.5572 40.0459 95.0993 48.1754 95.1872 49.9041Z" fill="#603D24"/>
<path d="M95.1879 49.9042C95.2023 50.2029 95.1937 50.4773 95.1606 50.7302C93.8925 52.4586 92.9199 53.5473 92.4078 53.6845C89.243 54.5325 49.5992 69.307 38.5802 70.5025C27.5613 71.6981 25.9441 40.0299 19.8449 37.8313C13.7456 35.6326 6.41123 42.4465 6.41123 42.4465C6.41123 42.4465 6.41064 42.4443 6.40888 42.4378C6.52629 41.5102 6.76873 40.6641 7.12916 39.8732C8.14931 37.6224 10.0968 35.8034 12.6858 33.7609C18.3529 29.2867 49.1905 21.5845 49.1905 21.5845C57.053 19.5082 72.8053 15.4399 79.236 17.1157C79.5788 17.2045 79.8933 17.3102 80.1795 17.4329C85.8623 19.8628 95.021 46.5945 95.1879 49.9042Z" fill="#A3643A"/>
<path d="M95.1873 49.9049C95.2017 50.2036 95.0806 51.6008 95.0475 51.8536C93.7795 53.5821 92.9193 53.548 92.4069 53.6853C89.2422 54.5332 49.5984 69.3077 38.5794 70.5033C33.316 71.0739 30.1986 64.1494 27.7129 56.5186C24.9931 48.1717 23.0303 38.9816 19.844 37.832C13.7448 35.6334 6.41041 42.4473 6.41041 42.4473C6.41041 42.4473 6.40983 42.4451 6.40807 42.4385C6.52547 41.511 6.76791 40.6649 7.12835 39.874C8.81803 38.0208 11.4567 35.9275 15.2498 34.9909C22.8141 33.1235 26.6948 36.8737 29.3521 44.7072C30.0369 46.7287 30.7036 49.0506 31.4086 51.3928C33.4407 58.1365 35.8056 65.0538 39.9362 65.4295C45.5019 65.9344 90.3512 51.5197 91.4063 48.6027C91.8979 47.2419 90.1388 40.8519 87.3799 33.7423C85.1093 27.8858 82.161 21.5401 79.2352 17.1165C79.578 17.2053 79.8925 17.311 80.1787 17.4337C82.9816 18.632 86.6286 25.7382 89.6269 33.0323C92.7086 40.5316 95.1035 48.2266 95.1873 49.9049Z" fill="#E5B798"/>
<path d="M13.0699 40.5645C13.0699 40.5645 7.84724 42.0838 8.64189 45.9433C9.4366 49.8031 21.1687 88.2239 24.9728 90.798C28.777 93.3722 37.7635 92.0423 35.7871 84.6663C33.8107 77.2902 20.7036 42.2322 19.1669 40.967C17.6302 39.702 14.944 39.7323 13.0699 40.5645Z" fill="#875838"/>
<path d="M12.5238 41.3921C12.7463 41.9598 12.9419 42.5391 13.1464 43.1134C13.5934 44.3675 14.0373 45.623 14.4806 46.8785C15.1091 48.6576 15.7361 50.4372 16.3629 52.217C17.1107 54.341 17.8582 56.4651 18.6052 58.5896C19.4174 60.8992 20.2293 63.2088 21.0412 65.5185C21.8602 67.8484 22.6792 70.1783 23.4984 72.5079C24.2694 74.7008 25.0406 76.8936 25.8125 79.0863C26.4718 80.9593 27.1314 82.832 27.7922 84.7044C28.2866 86.1056 28.7814 87.5067 29.2787 88.9066C29.5461 89.6593 29.8107 90.4131 30.0874 91.1623C30.1123 91.2298 30.1372 91.2972 30.1633 91.3641C30.3212 91.7668 30.9795 91.5956 30.8199 91.1882C30.5974 90.6206 30.4019 90.0413 30.1973 89.4669C29.7503 88.2128 29.3065 86.9574 28.8631 85.7018C28.2346 83.9228 27.6076 82.1431 26.9809 80.3634C26.233 78.2394 25.4856 76.1152 24.7385 73.9908C23.9264 71.6811 23.1145 69.3716 22.3025 67.0618C21.4835 64.7319 20.6645 62.402 19.8454 60.0724C19.0744 57.8795 18.3031 55.6867 17.5312 53.4941C16.872 51.621 16.2123 49.7483 15.5515 47.8759C15.0572 46.4747 14.5624 45.0736 14.065 43.6737C13.7977 42.9211 13.5331 42.1672 13.2563 41.418C13.2314 41.3506 13.2065 41.2831 13.1804 41.2162C13.0225 40.8135 12.3642 40.9848 12.5238 41.3921Z" fill="#603D24"/>
<path d="M39.7792 61.2698C43.5753 60.2527 47.3715 59.2355 51.1674 58.2184C52.2389 57.9313 53.3107 57.6441 54.3822 57.357C54.8046 57.2438 54.6296 56.587 54.2063 56.7004C50.4102 57.7176 46.614 58.7347 42.8181 59.7519C41.7466 60.039 40.6748 60.3261 39.6033 60.6133C39.1809 60.7264 39.3559 61.3833 39.7792 61.2698Z" fill="black"/>
<path d="M55.7235 56.9974C57.1641 56.6114 58.6044 56.2255 60.0449 55.8395C60.4673 55.7263 60.2923 55.0695 59.869 55.1829C58.4285 55.5689 56.9881 55.9548 55.5476 56.3408C55.1252 56.454 55.3003 57.1108 55.7235 56.9974Z" fill="black"/>
<path d="M73.1194 50.6893C77.8084 49.6128 82.3666 47.9675 86.6623 45.8015L73.1194 50.6893Z" fill="white"/>
<path d="M73.2077 51.0176C76.8713 50.1729 80.45 48.9858 83.8942 47.4781C84.8869 47.0437 85.8669 46.5815 86.8347 46.0946C87.2252 45.8983 86.8807 45.312 86.4904 45.5083C83.1699 47.1789 79.6984 48.5383 76.125 49.5629C75.1011 49.8565 74.0695 50.1217 73.0316 50.3611C72.6054 50.4593 72.7818 51.1158 73.2077 51.0176Z" fill="black"/>
<path d="M21.7936 32.2948C26.5414 30.8216 31.3129 29.4246 36.1062 28.106C37.4627 27.7329 38.8211 27.3661 40.1809 27.0052C40.6038 26.8931 40.4283 26.2364 40.0049 26.3487C35.2 27.6235 30.4154 28.9752 25.6543 30.4052C24.3068 30.81 22.9614 31.2211 21.6176 31.638C21.2009 31.7674 21.3747 32.4248 21.7936 32.2948Z" fill="#E5B798"/>
<path d="M31.6558 30.655C33.3863 30.2603 35.1045 29.8144 36.8084 29.318C37.2279 29.1957 37.0533 28.5388 36.6325 28.6614C34.9283 29.1579 33.2101 29.6035 31.4799 29.9984C31.053 30.0959 31.2296 30.7523 31.6558 30.655Z" fill="#E5B798"/>
<path d="M33.1432 32.6265C33.697 32.5079 34.2507 32.3893 34.8042 32.2708C34.9783 32.2335 35.098 32.0237 35.0445 31.8546C34.9865 31.6714 34.8148 31.5743 34.6283 31.6142C34.0745 31.7328 33.5208 31.8514 32.9673 31.9699C32.7932 32.0072 32.6735 32.2171 32.727 32.3862C32.785 32.5693 32.9567 32.6666 33.1432 32.6265Z" fill="#E5B798"/>
<path d="M59.2909 21.2856C61.4471 20.8479 63.5909 20.3527 65.7208 19.8008C66.1443 19.691 65.9688 19.0344 65.5448 19.1442C63.415 19.6961 61.2711 20.1913 59.1149 20.629C58.686 20.716 58.8634 21.3722 59.2909 21.2856Z" fill="#E5B798"/>
<path d="M74.3568 77.7192C78.3527 76.1995 82.2868 74.5186 86.1463 72.6796C86.5407 72.4916 86.1954 71.906 85.802 72.0933C81.9969 73.9062 78.1202 75.5647 74.1806 77.0627C73.7759 77.2166 73.9476 77.8748 74.3568 77.7192Z" fill="#603D24"/>
<path d="M91.4071 48.6027C90.352 51.5197 45.5027 65.9344 39.937 65.4295C35.8064 65.0538 33.4415 58.1365 31.4094 51.3928L87.3807 33.7423C90.1396 40.8519 91.8986 47.2419 91.4071 48.6027Z" fill="#875838"/>
<path d="M45.9775 22.4105C45.9775 22.4105 52.5332 25.7181 57.1216 35.9877C61.71 46.2573 64.2055 55.5705 64.2055 55.5705L71.3581 53.6539C71.3581 53.6539 65.7127 36.1612 61.9788 29.9746C58.2449 23.7882 53.9318 20.3572 53.9318 20.3572C53.9318 20.3572 50.3291 20.1731 45.9775 22.4105Z" fill="#E5B798"/>
<path d="M49.4865 23.6105C53.0594 26.5665 55.5191 30.5785 57.4042 34.7651C57.9417 35.9584 58.4332 37.1713 58.8983 38.3943C59.0523 38.7992 59.7105 38.6275 59.5549 38.2184C57.8879 33.8352 55.8602 29.5007 52.7883 25.9118C51.9271 24.9056 50.9852 23.9715 49.9645 23.1272C49.6303 22.8506 49.1484 23.3309 49.4865 23.6105Z" fill="#A36439"/>
<path d="M60.1965 41.3127C61.1738 44.4698 62.3003 47.5789 63.5723 50.6293C63.6434 50.8 63.7937 50.9197 63.9885 50.8696C64.1481 50.8287 64.2996 50.6228 64.2289 50.4534C62.957 47.4032 61.8304 44.2939 60.8531 41.1368C60.724 40.7198 60.0667 40.8939 60.1965 41.3127Z" fill="#A36439"/>
<path d="M72.32 55.6053L73.6709 59.6999C73.8882 60.3584 73.5291 61.071 72.8707 61.2883L67.3751 63.1014C66.7167 63.3187 66.0043 62.9597 65.787 62.3013L64.436 58.2066C64.2188 57.5482 64.5777 56.8356 65.2361 56.6183L70.7317 54.8052C71.3901 54.5877 72.1027 54.9468 72.32 55.6053Z" fill="#E5B798"/>
<path d="M69.8384 53.3032L62.5312 55.7142C61.3111 56.1166 60.6458 57.4337 61.049 58.656L62.7977 63.9556C63.2009 65.1778 64.5194 65.8402 65.7395 65.4378L73.0467 63.0268C74.2668 62.6244 74.9322 61.3072 74.5289 60.085L72.7803 54.7854C72.377 53.5632 71.0585 52.9008 69.8384 53.3032ZM72.4065 60.1173C72.6237 60.7757 72.2646 61.4884 71.6062 61.7056L66.1106 63.5188C65.4522 63.736 64.7398 63.377 64.5225 62.7186L63.1715 58.6239C62.9543 57.9655 63.3132 57.2529 63.9716 57.0357L69.4672 55.2225C70.1256 55.0053 70.8382 55.3642 71.0555 56.0226L72.4065 60.1173Z" fill="#FFE2CF"/>
<path d="M71.1031 52.8857L63.7959 55.2967C62.5758 55.6991 61.9104 57.0163 62.3137 58.2385L64.0623 63.5381C64.4656 64.7603 65.7841 65.4228 67.0041 65.0203L74.3114 62.6094C75.5315 62.2069 76.1968 60.8898 75.7936 59.6676L74.0449 54.3679C73.6419 53.1457 72.3232 52.4833 71.1031 52.8857ZM73.6711 59.6998C73.8883 60.3582 73.5292 61.0709 72.8708 61.2881L67.3752 63.1013C66.7168 63.3185 66.0044 62.9596 65.7872 62.3011L64.4362 58.2065C64.219 57.548 64.5778 56.8354 65.2363 56.6182L70.7318 54.805C71.3903 54.5878 72.1029 54.9467 72.3201 55.6051L73.6711 59.6998Z" fill="white"/>
<path d="M89.2769 57.1503C89.4559 57.731 89.1277 58.3444 88.5464 58.5213L87.1083 58.9582C86.527 59.1351 85.912 58.8096 85.7349 58.2284L83.4735 50.7955C83.2966 50.2142 83.6227 49.6014 84.204 49.4245L85.6443 48.987C86.2234 48.8107 86.8384 49.1362 87.0152 49.7175L89.2769 57.1503Z" fill="#FFE2CF"/>
<path d="M48.6481 61.7951L50.9095 69.228C51.0863 69.8093 50.7603 70.4221 50.179 70.599L48.7392 71.0387C48.1602 71.215 47.5446 70.8873 47.3677 70.306L45.1069 62.8753C44.93 62.294 45.2555 61.679 45.8368 61.5022L47.2749 61.0652C47.8562 60.8884 48.4718 61.216 48.6481 61.7951Z" fill="#FFE2CF"/>
</g>
</svg>
