<svg width="77" height="114" viewBox="0 0 77 114" fill="none" xmlns="http://www.w3.org/2000/svg">
<g clip-path="url(#clip0_2469_103)">
<mask id="mask0_2469_103" style="mask-type:luminance" maskUnits="userSpaceOnUse" x="-65" y="0" width="164" height="123">
<path d="M98.0735 0.947021H-64.0317V122.018H98.0735V0.947021Z" fill="white"/>
</mask>
<g mask="url(#mask0_2469_103)">
<mask id="mask1_2469_103" style="mask-type:luminance" maskUnits="userSpaceOnUse" x="-51" y="-28" width="172" height="171">
<path d="M-50.6582 -27.7065H120.363V142.601H-50.6582V-27.7065Z" fill="white"/>
</mask>
<g mask="url(#mask1_2469_103)">
<path d="M1.43408 27.7982C1.43408 27.3535 1.61159 26.9265 1.92769 26.6126C2.58422 25.962 3.64439 25.962 4.30091 26.6126L19.1684 41.418C19.8257 42.0726 19.8257 43.1348 19.1684 43.7902C18.5111 44.4448 17.4452 44.4448 16.7879 43.7902L1.92769 28.9831C1.61159 28.6692 1.43408 28.243 1.43408 27.7982Z" fill="#E8EDEA"/>
<path d="M21.8102 3.88905C22.7115 3.6574 23.6314 4.19818 23.8632 5.09572L28.9112 25.2057C29.023 25.6367 28.959 26.0935 28.7312 26.4777C28.5035 26.8611 28.1331 27.1388 27.6994 27.2502C26.7989 27.481 25.879 26.941 25.6464 26.0435L20.5984 5.93354C20.3666 5.036 20.9097 4.11989 21.8102 3.88905Z" fill="#E8EDEA"/>
<path d="M49.9547 14.1107V34.7816C49.9547 35.7066 49.2017 36.4572 48.2728 36.4572C47.3423 36.4572 46.5894 35.7066 46.5894 34.7816V14.1107C46.5894 13.1857 47.3423 12.4351 48.2728 12.4351C49.2017 12.4351 49.9547 13.1857 49.9547 14.1107Z" fill="#E8EDEA"/>
<path d="M54.3542 64.5604H54.355L54.3461 64.5523C53.6271 63.8355 52.6723 63.4021 51.6567 63.3335C50.642 63.2633 49.6369 63.5635 48.8264 64.1754L44.8718 68.1134C44.1059 68.8778 43.6747 69.9125 43.6747 70.9917C43.6747 72.0708 44.1059 73.1064 44.8718 73.8699L44.9804 73.9797C45.4894 74.4923 46.1273 74.8579 46.8276 75.0411C47.5279 75.2243 48.2655 75.2163 48.9609 75.0177C50.5925 73.7448 52.8053 71.9764 53.8322 71.0885C54.8567 70.1805 55.4897 68.9141 55.5991 67.5524C55.6032 66.4289 55.1558 65.3514 54.3542 64.5604ZM61.2712 76.5206C61.2339 75.6473 60.8667 74.8208 60.2443 74.2049H60.2281C59.672 73.6617 58.9499 73.3187 58.1758 73.2291C57.4009 73.1387 56.6188 73.3082 55.9525 73.7101C54.4547 74.9919 51.6365 77.2139 50.9629 77.7329C50.3656 78.4755 50.06 79.4078 50.1038 80.3578C50.1475 81.3078 50.5366 82.2094 51.1996 82.8938L51.4006 83.0956C51.9258 83.5952 52.5807 83.9391 53.2916 84.0868C54.0024 84.2353 54.7408 84.182 55.4224 83.9334L60.2524 79.1236C60.3107 79.0486 60.3756 78.9784 60.4461 78.9138C61.0135 78.2487 61.3085 77.3939 61.2712 76.5206ZM65.7721 82.9366C64.9785 82.1383 63.8965 81.692 62.7682 81.696L62.4238 81.646L58.2163 85.8358C57.6157 86.5873 57.3166 87.5325 57.375 88.4897C57.4342 89.4478 57.8483 90.3502 58.5365 91.0225L58.6872 91.1815C59.2522 91.7312 59.9727 92.096 60.7517 92.226C61.5306 92.3559 62.3322 92.247 63.0471 91.9104H63.0454L65.7137 88.9861C66.5299 88.1935 66.9959 87.1087 67.0073 85.9739C67.0178 84.8382 66.5737 83.7445 65.7721 82.9366ZM9.81007 56.9522C8.09338 55.5696 6.47071 55.5196 4.85452 56.7932C2.79254 58.4358 3.13782 61.0001 4.40792 62.7758C9.86843 70.5518 10.2729 74.5576 10.2226 78.9897C10.1383 86.8407 11.9466 92.523 14.5808 96.662C14.6692 96.7242 14.7502 96.7944 14.8248 96.8719H14.824C14.8751 96.922 18.2323 100.4 22.5994 100.115C25.7304 99.9051 28.7334 97.8268 31.5354 93.9387C32.0858 93.2115 33.1184 93.0541 33.8616 93.5852C34.6041 94.1155 34.7864 95.139 34.2709 95.8912C30.8376 100.625 26.9924 103.164 22.785 103.432H22.0701H21.2701C24.9094 105.809 29.0852 107.247 33.4207 107.621C42.3641 108.281 51.1226 104.855 57.225 98.3127H57.2259L57.2931 98.2376L59.8171 95.4642C58.4757 95.1608 57.2477 94.4876 56.2743 93.5198L56.1487 93.377C54.5965 91.8378 53.8289 89.6811 54.0616 87.5123C52.1398 87.5187 50.2942 86.7641 48.9285 85.4169L48.862 85.3499L48.7948 85.2918C47.0059 83.4959 46.2797 80.9042 46.8754 78.4456C45.2479 78.2398 43.7346 77.5005 42.5756 76.343L42.4832 76.2502C41.0769 74.8571 40.2875 72.9635 40.2875 70.9884C40.2875 69.0142 41.0769 67.1198 42.4832 65.7267L59.6145 48.7C60.4137 47.9058 60.8627 46.8282 60.8627 45.7047C60.8627 44.5804 60.4137 43.5028 59.6145 42.7086C58.7991 41.8982 57.6887 41.4502 56.5361 41.4688C55.3852 41.4841 54.2893 41.9692 53.5064 42.8095C47.1267 49.5879 31.6027 65.6331 24.9807 68.3394C24.2058 68.6647 23.3904 68.8883 22.5572 69.0013C23.4585 72.1499 22.8895 75.5343 21.0091 78.2188C20.4944 78.9622 19.4837 79.1656 18.7194 78.6805C17.9551 78.1946 17.7143 77.1946 18.1739 76.4173L18.1747 76.4165C21.4565 71.3137 18.2331 67.8027 18.0904 67.6525C18.0539 67.6097 18.0199 67.5646 17.9891 67.5185C16.839 66.332 15.8582 64.993 15.0777 63.5385C13.7371 61.0436 11.9523 58.8119 9.81007 56.9522ZM6.84841 78.9646C6.88245 75.6634 6.92379 72.2605 1.63997 64.7194C-0.909947 61.0662 -0.447947 56.7262 2.7585 54.2047C5.59452 51.9673 9.01819 52.0335 11.9296 54.3888C14.375 56.4897 16.4167 59.0161 17.9534 61.8459C20.1662 65.4579 20.8567 66.37 23.7171 65.1972C28.6232 63.2132 41.0607 51.1126 51.0651 40.4801C52.46 38.9941 54.3963 38.128 56.4388 38.078C58.4814 38.0263 60.4574 38.7956 61.9253 40.2113C63.3932 41.627 64.2272 43.5698 64.2418 45.6038C64.2572 47.6386 63.4499 49.5927 62.0031 51.0294L52.8733 60.1542C54.5949 60.4964 56.1438 61.4222 57.2542 62.775C58.3655 64.1277 58.9701 65.8219 58.9661 67.5702C58.9604 68.3701 58.8186 69.1627 58.5446 69.9158C60.5369 70.1361 62.3322 71.2153 63.458 72.8675C64.583 74.5197 64.925 76.5795 64.3925 78.5046C66.1862 78.8904 67.7813 79.9066 68.8829 81.3683C69.9844 82.83 70.5201 84.6364 70.3912 86.4598C70.2616 88.2831 69.4762 89.9991 68.1793 91.2913L65.4446 94.2987L65.3522 94.4077L59.8414 100.458C53.6004 107.299 44.7186 111.151 35.4389 111.04L35.4397 111.041C34.707 111.041 33.9751 111.016 33.2181 110.974C23.298 110.379 6.59633 102.962 6.84841 78.9646Z" fill="#E8EDEA"/>
<path d="M27.3701 38.5275L31.0896 37.9908L32.7471 34.6395L34.4047 37.9908L38.1242 38.5275L35.4316 41.1419L36.0711 44.8289L32.7463 43.0855L29.4232 44.8289L30.0627 41.1419L27.3701 38.5275Z" fill="#E8EDEA"/>
<path d="M37.6366 20.3862L36.5019 17.8388L33.7412 17.3279L35.8283 15.4594L35.4668 12.686L37.8976 14.0856L40.4305 12.887L39.842 15.6184L41.7687 17.6459L38.9837 17.9308L37.6366 20.3862Z" fill="#E8EDEA"/>
<path d="M12.0819 14.7976L14.1107 16.7162L16.8535 16.1472L15.6417 18.6598L17.0464 21.082L14.2614 20.7132L12.385 22.7916L11.872 20.0424L9.31396 18.9035L11.7796 17.571L12.0819 14.7976Z" fill="#E8EDEA"/>
</g>
</g>
</g>
<defs>
<clipPath id="clip0_2469_103">
<rect width="77" height="113" fill="white" transform="translate(0 0.947021)"/>
</clipPath>
</defs>
</svg>
