<svg width="483" height="608" viewBox="0 0 483 608" fill="none" xmlns="http://www.w3.org/2000/svg">
<g clip-path="url(#clip0_1668_5147)">
<path d="M350.985 203.302C349.979 201.127 348.38 199.99 346.19 199.889C343.985 199.788 341.754 201.346 340.332 202.91C338.45 204.986 335.84 208.683 333.149 208.979C330.44 209.278 329.012 207.84 328.865 204.664C328.742 202.073 328.745 199.037 328.871 195.555C328.905 194.684 328.81 193.937 328.587 193.315C328.519 193.13 328.391 193.065 328.201 193.119C321.146 195.239 315.419 193.824 311.022 188.874C310.965 188.811 310.895 188.76 310.818 188.724C310.741 188.689 310.658 188.669 310.573 188.667C310.489 188.665 310.405 188.68 310.326 188.711C310.248 188.742 310.177 188.789 310.118 188.849C309.019 189.967 307.763 190.846 306.352 191.486C305.552 191.847 305.59 192.039 306.466 192.06C308.783 192.127 311.036 192.476 313.227 193.107C314.497 193.473 316.323 194.085 316.165 195.756C316.151 195.901 316.108 196.042 316.038 196.169C315.968 196.297 315.873 196.409 315.758 196.499C315.643 196.588 315.512 196.654 315.371 196.691C315.23 196.728 315.083 196.737 314.939 196.715C310.373 196.055 305.87 195.727 301.43 195.731C301.064 195.731 300.817 195.58 300.691 195.277C300.464 194.739 300.47 194.184 300.71 193.612C300.857 193.254 300.737 193.084 300.35 193.101C294.297 193.315 288.952 190.445 285.811 185.227C285.765 185.15 285.699 185.087 285.62 185.042C285.542 184.998 285.453 184.975 285.363 184.975C285.273 184.975 285.184 184.998 285.105 185.042C285.027 185.087 284.961 185.15 284.914 185.227C282.57 189.088 276.662 188.937 273.288 186.931C272.296 186.344 271.064 186.394 270.293 187.322C263.773 190.438 256.797 188.161 252.874 182.603C250.302 178.957 249.658 173.531 250.959 169.21C253.525 160.706 261.884 156.176 270.483 157.766C270.706 157.808 270.837 157.718 270.875 157.495C271.968 150.808 277.686 145.445 284.086 143.83C291.407 141.976 297.837 143.275 303.376 147.729C303.52 147.843 303.642 147.824 303.743 147.672C308.665 140.121 318.041 137.225 326.527 139.408C333.759 141.271 338.443 145.734 340.579 152.795C340.629 152.963 340.729 153.112 340.864 153.223C340.999 153.334 341.163 153.403 341.337 153.419C344.686 153.764 347.605 155.007 350.094 157.148C357.152 163.223 358.435 172.282 354.435 180.736C354.333 180.952 354.313 181.198 354.378 181.43C354.549 182.048 354.978 182.571 355.25 183.152C358.346 189.744 357.19 198.223 351.889 203.447C351.703 203.627 351.402 203.579 350.985 203.302Z" fill="#20243B"/>
<path d="M270.173 193.208C270.081 192.106 270.194 191.252 270.514 190.647C274.324 189.177 278.918 188.445 282.924 189.593C284.154 189.942 284.796 190.756 284.851 192.034L284.876 192.627C284.927 193.818 284.366 194.299 283.195 194.072C279.906 193.429 277.692 193.136 276.555 193.195C274.499 193.3 272.372 193.305 270.173 193.208Z" fill="#20243B"/>
<path d="M306.801 198.598L306.397 198.579C305.149 198.52 304.09 199.482 304.031 200.728L303.763 206.412C303.704 207.658 304.668 208.716 305.916 208.775L306.32 208.794C307.567 208.853 308.627 207.89 308.686 206.644L308.954 200.96C309.013 199.714 308.049 198.657 306.801 198.598Z" fill="#20243B"/>
<path d="M279.931 198.9L279.224 198.868C278.084 198.817 277.118 199.697 277.066 200.836L276.794 206.823C276.742 207.961 277.624 208.925 278.764 208.977L279.471 209.009C280.611 209.061 281.577 208.18 281.629 207.042L281.901 201.055C281.953 199.917 281.071 198.952 279.931 198.9Z" fill="#20243B"/>
<path d="M104.525 334.703L103.495 334.81L103.192 323.499C103.188 323.285 103.103 323.108 102.939 322.969C89.8347 311.9 76.4419 301.211 62.7605 290.903C62.7292 290.878 62.7063 290.845 62.6949 290.808C62.6836 290.77 62.6844 290.731 62.6974 290.694L62.7542 290.53C62.8342 290.308 62.9711 290.263 63.1649 290.398C66.0756 292.362 68.7946 294.314 71.3219 296.252C82.7624 305.038 92.817 313.222 101.486 320.805C101.899 321.167 102.311 321.55 102.724 321.954C103.049 322.269 103.188 322.202 103.141 321.752C102.781 317.935 102.781 314.188 102.307 310.283C101.368 302.603 100.639 297.35 100.121 294.524C98.0528 283.215 95.3527 273.056 92.0209 264.047C89.4008 256.96 85.892 249.884 81.4945 242.819C81.4779 242.793 81.4669 242.764 81.4621 242.734C81.4573 242.703 81.4588 242.672 81.4664 242.642C81.4741 242.612 81.4878 242.584 81.5067 242.559C81.5257 242.534 81.5494 242.513 81.5766 242.497L81.7282 242.402C81.8257 242.347 81.9412 242.331 82.0498 242.36C82.1584 242.388 82.2517 242.458 82.3095 242.554C83.1983 244.063 84.0871 245.483 84.9759 246.812C85.6646 247.834 85.9995 249.014 86.7324 250.036C87.023 250.444 87.2652 250.868 87.459 251.31C88.6342 253.96 90.0495 256.483 91.2121 259.145C92.7032 262.548 93.9248 265.872 94.8768 269.119C95.2474 270.389 95.6371 271.575 96.0457 272.677C96.5174 273.968 96.9302 275.266 97.2841 276.57C100.262 287.584 102.214 299.135 103.141 311.223C103.196 311.933 103.4 311.98 103.754 311.361C110.464 299.59 118.244 288.423 127.094 277.863C130.034 274.351 133.193 271.06 136.572 267.99C136.647 267.918 136.723 267.923 136.799 268.002L136.906 268.116C137.05 268.267 137.048 268.415 136.9 268.558C132.8 272.526 129.129 276.437 125.723 280.746C117.678 290.928 110.452 301.482 104.045 312.409C103.615 313.145 103.426 313.904 103.476 314.686C103.748 319.058 104.291 323.505 104.335 328.054C104.352 330.262 104.415 332.478 104.525 334.703Z" fill="#20243B"/>
<path d="M350.985 203.302C351.865 205.602 352.196 207.715 351.977 209.642C351.606 212.893 350.153 215.603 347.617 217.773C344.551 220.406 341.057 220.94 337.135 219.376C336.92 219.292 336.708 219.287 336.497 219.363C336.215 219.468 336.025 219.702 335.928 220.063C335.587 219.685 335.191 219.412 334.74 219.243C334.53 219.163 334.435 219.235 334.456 219.458C334.599 221.098 335.208 222.328 336.282 223.148L336.421 232.163L337.002 248.616C337.027 249.35 336.846 250.08 336.478 250.723L328.466 264.615C324.667 266.621 321.411 268.091 318.698 269.024C313.65 270.772 307.748 270.728 302.965 268.293C299.979 266.77 297.567 264.575 295.731 261.706L295.232 258.117C296.087 258.92 297.972 259.154 300.887 258.817C305.672 258.27 309.888 256.958 313.536 254.881C322.426 249.821 328.776 242.806 333.824 234.087C334.481 232.948 334.938 231.715 335.195 230.391C335.216 230.277 335.185 230.178 335.101 230.094C335.042 230.039 334.972 230.018 334.892 230.031C334.757 230.052 334.66 230.121 334.601 230.239C328.58 241.45 314.749 245.247 302.934 245.607C299.699 245.708 296.422 245.678 293.102 245.519L283.107 243.859C283.107 243.616 282.774 243.567 282.109 243.714L282.178 243.563C282.233 243.445 282.21 243.34 282.109 243.248C282.02 243.168 281.902 243.105 281.755 243.058C276.241 240.379 272.789 235.94 271.399 229.741C270.679 226.532 270.304 223.394 270.274 220.328C270.19 211.261 270.156 202.221 270.173 193.208C272.372 193.305 274.499 193.3 276.555 193.195C277.692 193.136 279.906 193.429 283.195 194.072C284.366 194.299 284.927 193.818 284.876 192.627L284.851 192.034C284.796 190.756 284.154 189.942 282.924 189.593C278.918 188.445 274.324 189.177 270.514 190.646L270.293 187.322C271.064 186.394 272.296 186.344 273.288 186.931C276.662 188.937 282.57 189.088 284.914 185.227C284.961 185.15 285.026 185.087 285.105 185.042C285.184 184.998 285.272 184.975 285.362 184.975C285.453 184.975 285.541 184.998 285.62 185.042C285.699 185.087 285.764 185.15 285.811 185.227C288.951 190.445 294.297 193.315 300.35 193.101C300.737 193.084 300.857 193.254 300.71 193.612C300.47 194.183 300.463 194.739 300.691 195.277C300.817 195.58 301.064 195.731 301.43 195.731C305.87 195.727 310.373 196.055 314.939 196.715C315.083 196.737 315.23 196.728 315.371 196.691C315.511 196.654 315.643 196.588 315.758 196.499C315.872 196.409 315.968 196.297 316.037 196.169C316.107 196.042 316.151 195.901 316.165 195.756C316.322 194.085 314.496 193.473 313.226 193.107C311.036 192.476 308.783 192.127 306.466 192.06C305.59 192.039 305.552 191.847 306.352 191.486C307.763 190.846 309.018 189.967 310.118 188.849C310.177 188.789 310.248 188.742 310.326 188.711C310.404 188.68 310.488 188.665 310.573 188.667C310.658 188.669 310.741 188.689 310.818 188.724C310.895 188.76 310.964 188.811 311.021 188.874C315.419 193.824 321.145 195.239 328.201 193.119C328.391 193.065 328.519 193.13 328.586 193.315C328.81 193.937 328.904 194.684 328.871 195.555C328.744 199.037 328.742 202.073 328.864 204.664C329.012 207.84 330.44 209.278 333.148 208.979C335.84 208.683 338.449 204.986 340.332 202.91C341.754 201.346 343.984 199.788 346.189 199.889C348.38 199.99 349.978 201.127 350.985 203.302ZM308.954 200.96C308.982 200.362 308.771 199.777 308.368 199.334C307.964 198.891 307.4 198.626 306.801 198.598L306.397 198.579C305.798 198.551 305.212 198.761 304.768 199.164C304.325 199.568 304.059 200.13 304.031 200.728L303.763 206.412C303.735 207.011 303.945 207.596 304.349 208.039C304.753 208.482 305.316 208.747 305.916 208.775L306.32 208.794C306.919 208.822 307.505 208.611 307.948 208.208C308.392 207.805 308.657 207.243 308.686 206.644L308.954 200.96ZM281.901 201.055C281.926 200.508 281.732 199.974 281.363 199.57C280.993 199.166 280.478 198.925 279.931 198.9L279.224 198.868C278.676 198.844 278.142 199.037 277.737 199.406C277.332 199.775 277.091 200.289 277.066 200.836L276.794 206.823C276.769 207.369 276.963 207.903 277.332 208.307C277.702 208.711 278.217 208.952 278.764 208.977L279.471 209.009C280.018 209.034 280.553 208.84 280.958 208.472C281.363 208.103 281.604 207.588 281.629 207.042L281.901 201.055ZM290.714 218.726C290.992 214.011 291.352 209.257 291.795 204.462C291.946 202.843 292.056 201.184 292.123 199.485C292.125 199.452 292.12 199.419 292.108 199.388C292.096 199.357 292.077 199.329 292.054 199.305C292.03 199.281 292.001 199.263 291.97 199.25C291.938 199.238 291.904 199.232 291.87 199.232L291.706 199.239C291.428 199.247 291.276 199.388 291.251 199.661C290.645 205.966 290.154 212.27 289.779 218.575C289.596 221.634 293.456 221.527 295.333 220.896C295.493 220.846 295.581 220.736 295.598 220.568C295.615 220.341 295.512 220.238 295.289 220.259C294.025 220.379 290.575 221.035 290.714 218.726ZM337.306 210.373C337.271 210.38 337.235 210.376 337.202 210.362C337.169 210.348 337.141 210.325 337.122 210.295C337.103 210.265 337.094 210.23 337.095 210.194C337.096 210.159 337.108 210.125 337.129 210.096C338.531 208.031 340.229 206.33 342.221 204.992C342.771 204.62 343.296 204.008 343.662 203.453C344.104 202.78 343.961 202.616 343.232 202.961C342.356 203.377 341.463 204.05 340.553 204.98C340.528 205.005 340.497 205.022 340.459 205.03C340.395 205.043 340.33 205.057 340.263 205.074C340.145 205.104 340.044 205.165 339.959 205.257C338.702 206.651 335.84 209.295 335.682 211.074C335.661 211.322 335.777 211.446 336.029 211.446L340.825 211.383C340.977 211.383 341.025 211.454 340.97 211.597C340.237 213.49 339.233 215.258 337.957 216.903C337.914 216.958 337.904 217.018 337.925 217.086C337.946 217.161 337.99 217.208 338.058 217.225C338.235 217.267 338.39 217.227 338.525 217.105C339.966 215.856 340.553 213.938 341.198 212.203C341.539 211.269 342.36 210.903 342.405 209.799C342.408 209.69 342.384 209.582 342.335 209.484C342.286 209.386 342.214 209.302 342.124 209.239C342.035 209.175 341.931 209.135 341.822 209.122C341.714 209.109 341.603 209.123 341.501 209.162C340.103 209.713 338.704 210.117 337.306 210.373ZM299.433 226.006C296.14 228.433 292.894 228.454 289.697 226.069C289.671 226.05 289.641 226.038 289.609 226.032C289.578 226.027 289.545 226.029 289.515 226.038C289.485 226.047 289.458 226.063 289.435 226.085C289.413 226.107 289.397 226.134 289.387 226.164L289.324 226.366C289.305 226.425 289.305 226.489 289.325 226.549C289.344 226.609 289.381 226.661 289.432 226.7C292.881 229.375 296.308 229.341 299.712 226.599C299.747 226.571 299.774 226.533 299.789 226.489C299.804 226.446 299.805 226.398 299.794 226.353L299.73 226.107C299.68 225.93 299.581 225.897 299.433 226.006Z" fill="#F08F7F"/>
<path d="M256.165 384.775C258.44 386.688 260.717 388.566 262.995 390.408C266.058 392.881 268.307 394.904 269.743 396.477C272.705 399.724 275.369 403.534 277.736 407.908C279.72 411.573 281.578 415.34 282.513 419.276C283.6 423.837 283.745 428.575 279.278 431.3C279.177 431.359 279.154 431.439 279.208 431.54L279.284 431.679C279.293 431.704 279.31 431.71 279.335 431.698C283.827 429.547 288.193 427.572 293.052 425.818C298.178 423.968 303.218 421.928 308.172 419.699C309.035 419.144 309.252 418.391 308.823 417.44C310.625 417.079 312.131 417.083 313.34 417.453C312.805 418.761 311.95 419.941 310.775 420.992C310.726 421.037 310.689 421.093 310.666 421.156C310.644 421.219 310.637 421.286 310.646 421.351C310.656 421.417 310.681 421.48 310.72 421.534C310.759 421.588 310.81 421.631 310.87 421.661C315.777 424.029 319.869 427.667 323.146 432.575C326.16 437.085 328.7 441.918 328.744 447.507C328.763 450.491 328.662 453.513 330.374 456.15C330.488 456.327 330.648 456.425 330.855 456.447L331.986 456.56C331.56 456.421 331.185 456.575 330.861 457.021C330.103 458.089 329.201 458.812 328.157 459.191C325.726 460.082 322.971 461.264 319.892 462.736C313.928 465.197 307.576 467.842 300.836 470.672C298.271 471.749 294.573 473.015 289.741 474.47C284.472 476.06 279.368 476.756 274.432 476.558C271.327 476.432 269.15 475.034 267.899 472.363L265.396 463.556C265.645 460.831 265.597 458.406 265.251 456.282C267.778 454.297 269.901 452.706 271.62 451.507C276.426 448.151 281.776 445.055 287.669 442.221C287.764 442.175 287.841 442.1 287.889 442.007C287.937 441.913 287.953 441.807 287.934 441.703L287.909 441.527C287.903 441.493 287.889 441.462 287.87 441.435C287.85 441.407 287.825 441.385 287.795 441.369C287.766 441.353 287.734 441.345 287.701 441.343C287.668 441.342 287.635 441.349 287.605 441.363C279.387 445.118 271.774 449.883 264.765 455.658C264.676 455.734 264.624 455.816 264.607 455.904C264.577 456.043 264.6 456.144 264.676 456.207C263.969 456.604 263.343 457.071 262.522 457.185C260.192 457.496 258.025 457.403 256.02 456.907C255.009 456.655 254.339 455.965 254.011 454.838L253.986 454.554C254.103 454.205 254.129 453.866 254.061 453.538L255.432 450.346L256.5 448.649L258.813 445.93C261.618 443.217 264.773 440.465 268.278 437.672C268.375 437.596 268.446 437.506 268.492 437.401C268.543 437.279 268.583 437.167 268.613 437.066L277.363 432.379C277.368 432.377 277.371 432.374 277.373 432.37C277.374 432.366 277.374 432.361 277.372 432.357C277.369 432.353 277.365 432.349 277.361 432.346C277.356 432.343 277.35 432.341 277.344 432.341C275.752 432.724 274.143 433.05 272.517 433.319C269.118 433.874 265.795 435.237 262.376 436.127L252.008 434.612C248.208 433.082 244.754 431.303 241.646 429.275C237.383 425.898 232.271 421.495 226.311 416.065C222.676 412.747 219.767 409.29 217.585 405.694C217.628 405.467 217.691 405.267 217.775 405.095C219.544 401.558 221.916 398.477 224.889 395.852C229.814 391.512 234.552 388.415 239.106 386.56C243.044 384.958 247.069 383.202 251.18 381.292L256.165 384.775ZM266.199 410.047C262.025 404.605 257.6 399.905 252.924 395.947C252.444 395.537 252.096 394.881 251.395 394.786C250.902 394.719 250.809 394.881 251.117 395.272C251.74 396.067 252.446 396.795 253.234 397.455C256.384 400.075 259.291 402.966 261.953 406.129C267.361 412.543 271.666 419.06 274.868 425.679C274.891 425.727 274.932 425.763 274.981 425.781C275.031 425.798 275.085 425.796 275.133 425.774L275.329 425.679C275.391 425.649 275.439 425.596 275.463 425.532C275.486 425.467 275.484 425.395 275.455 425.333C273.206 420.256 270.12 415.161 266.199 410.047ZM241.949 399.694C252.951 407.896 261.346 418.254 267.134 430.771C267.429 431.406 267.57 431.374 267.557 430.676C267.549 430.159 267.446 429.683 267.248 429.25C263.693 421.608 259.19 414.896 253.739 409.113C250.765 405.95 246.995 402.594 242.429 399.045C242.386 399.012 242.333 398.994 242.279 398.994C242.226 398.994 242.174 399.012 242.132 399.045L241.943 399.202C241.732 399.371 241.734 399.535 241.949 399.694ZM254.668 425.112C252.073 421.436 249.898 418.559 248.141 416.482C244.67 412.377 240.475 408.215 235.555 403.997C235.497 403.945 235.421 403.918 235.344 403.92C235.266 403.923 235.193 403.954 235.138 404.009L235.011 404.129C234.995 404.147 234.981 404.167 234.973 404.189C234.964 404.212 234.96 404.235 234.96 404.259C234.961 404.282 234.966 404.306 234.976 404.327C234.986 404.348 235 404.367 235.018 404.382C243.826 411.984 251.357 420.765 257.075 430.909C257.265 431.246 257.389 431.425 257.448 431.446C258.164 431.736 258.349 431.536 258.004 430.846C257.012 428.872 255.938 426.916 254.668 425.112ZM268.499 464.805C267.871 465.508 267.233 466.191 266.584 466.856C266.565 466.876 266.55 466.9 266.54 466.927C266.53 466.953 266.526 466.981 266.527 467.009C266.528 467.036 266.535 467.063 266.547 467.088C266.559 467.113 266.576 467.135 266.597 467.152L266.761 467.285C266.846 467.355 266.955 467.389 267.065 467.381C267.176 467.373 267.28 467.322 267.355 467.241C268.577 465.89 269.88 464.517 271.266 463.121C273.583 460.791 276.075 458.768 278.741 457.052C283.459 454.024 288.486 451.21 293.823 448.611C294.097 448.477 294.229 448.262 294.221 447.968C294.217 447.724 294.103 447.652 293.88 447.753C284.143 452.144 275.165 457.368 268.499 464.805ZM274.495 471.802L274.647 471.865C274.752 471.906 274.867 471.916 274.978 471.894C275.089 471.871 275.191 471.818 275.272 471.739C282.399 464.929 290.508 459.323 299.598 454.92C299.72 454.862 299.821 454.768 299.888 454.651C299.955 454.533 299.984 454.398 299.971 454.264L299.952 454.049C299.948 454.011 299.935 453.974 299.915 453.941C299.894 453.909 299.865 453.882 299.832 453.863C299.798 453.844 299.761 453.833 299.722 453.831C299.684 453.83 299.645 453.837 299.61 453.854C290.289 458.228 281.879 464.025 274.381 471.246C274.133 471.49 274.171 471.675 274.495 471.802Z" fill="#F08F7F"/>
<path d="M134.518 415.201L116.706 413.813C116.616 413.807 116.531 413.772 116.462 413.714C116.392 413.656 116.343 413.578 116.321 413.491L112.555 398.679C112.538 398.612 112.536 398.542 112.552 398.475C112.567 398.408 112.598 398.345 112.643 398.292C112.687 398.24 112.744 398.199 112.808 398.173C112.872 398.146 112.941 398.136 113.01 398.142L130.815 399.53C130.905 399.537 130.991 399.571 131.06 399.629C131.129 399.687 131.178 399.765 131.201 399.852L134.973 414.665C134.99 414.731 134.991 414.801 134.976 414.869C134.961 414.936 134.93 414.998 134.885 415.051C134.84 415.104 134.784 415.145 134.72 415.171C134.656 415.197 134.587 415.207 134.518 415.201Z" fill="#F08F7F"/>
<path d="M290.714 218.726C290.575 221.035 294.025 220.379 295.289 220.259C295.512 220.238 295.615 220.341 295.598 220.568C295.582 220.736 295.493 220.846 295.333 220.896C293.457 221.527 289.596 221.634 289.779 218.575C290.154 212.27 290.645 205.966 291.251 199.661C291.277 199.388 291.428 199.247 291.706 199.239L291.871 199.232C291.905 199.232 291.938 199.238 291.97 199.25C292.001 199.262 292.03 199.281 292.054 199.305C292.077 199.328 292.096 199.357 292.108 199.388C292.12 199.419 292.125 199.452 292.123 199.485C292.056 201.184 291.946 202.843 291.795 204.462C291.353 209.257 290.992 214.011 290.714 218.726Z" fill="#C91A34"/>
<path d="M337.306 210.373C338.704 210.117 340.103 209.713 341.501 209.162C341.603 209.123 341.714 209.109 341.823 209.122C341.931 209.135 342.035 209.175 342.124 209.238C342.214 209.302 342.286 209.386 342.335 209.484C342.384 209.582 342.408 209.69 342.405 209.799C342.361 210.903 341.539 211.269 341.198 212.203C340.554 213.938 339.966 215.856 338.525 217.105C338.391 217.227 338.235 217.267 338.058 217.225C337.99 217.208 337.946 217.161 337.925 217.086C337.904 217.018 337.915 216.957 337.957 216.903C339.233 215.258 340.238 213.49 340.971 211.597C341.025 211.454 340.977 211.383 340.825 211.383L336.03 211.446C335.777 211.446 335.661 211.322 335.682 211.074C335.84 209.295 338.702 206.651 339.96 205.257C340.044 205.165 340.145 205.104 340.263 205.074C340.33 205.057 340.396 205.043 340.459 205.03C340.497 205.022 340.528 205.005 340.554 204.98C341.463 204.05 342.356 203.377 343.233 202.961C343.961 202.616 344.104 202.78 343.662 203.453C343.296 204.008 342.771 204.62 342.222 204.992C340.229 206.33 338.532 208.031 337.129 210.096C337.108 210.125 337.096 210.159 337.095 210.194C337.094 210.23 337.103 210.265 337.123 210.295C337.142 210.325 337.169 210.348 337.202 210.362C337.235 210.376 337.271 210.38 337.306 210.373Z" fill="#C91A34"/>
<path d="M335.929 220.063C336.43 220.938 336.548 221.967 336.283 223.148C335.208 222.328 334.6 221.098 334.456 219.458C334.435 219.235 334.53 219.163 334.741 219.243C335.192 219.412 335.587 219.685 335.929 220.063Z" fill="#C91A34"/>
<path d="M299.434 226.006C299.581 225.897 299.68 225.93 299.731 226.107L299.794 226.353C299.806 226.398 299.804 226.446 299.789 226.489C299.775 226.533 299.748 226.571 299.712 226.599C296.308 229.341 292.882 229.375 289.432 226.7C289.382 226.661 289.344 226.608 289.325 226.549C289.306 226.489 289.306 226.425 289.325 226.366L289.388 226.164C289.397 226.134 289.413 226.107 289.436 226.085C289.458 226.063 289.485 226.047 289.516 226.038C289.546 226.029 289.578 226.027 289.61 226.032C289.641 226.037 289.671 226.05 289.697 226.069C292.894 228.454 296.14 228.433 299.434 226.006Z" fill="#C91A34"/>
<path d="M364.873 242.982C365.046 243.504 365.056 243.922 364.905 244.238C360.64 258.205 356.451 271.926 350.012 285.149C346.659 292.042 342.418 298.252 337.287 303.778C335.863 305.318 334.233 306.714 332.397 307.967C332.257 308.063 332.097 308.125 331.93 308.148C331.762 308.171 331.591 308.154 331.431 308.1C331.271 308.045 331.126 307.954 331.007 307.833C330.888 307.713 330.8 307.567 330.748 307.406C328.144 299.381 326.401 292.587 318.338 288.114C318.298 288.092 318.264 288.061 318.238 288.023C318.212 287.985 318.195 287.942 318.189 287.897C318.183 287.852 318.187 287.807 318.202 287.765C318.217 287.722 318.242 287.684 318.275 287.654L318.42 287.521C318.656 287.294 318.915 287.262 319.198 287.426C326.192 291.432 329.162 297.88 331.108 305.45C331.217 305.883 331.386 306.308 331.613 306.724C331.656 306.804 331.717 306.873 331.791 306.926C331.865 306.979 331.951 307.014 332.04 307.028C332.13 307.043 332.222 307.037 332.309 307.01C332.396 306.984 332.476 306.938 332.542 306.876C337.325 302.435 341.514 297.829 344.863 292.303C354.005 277.219 358.845 260.918 363.894 243.689C364.045 243.176 364.372 242.94 364.873 242.982Z" fill="#C91A34"/>
<path d="M283.107 243.859C278.672 248.204 274.706 252.46 271.21 256.628C265.182 263.82 260.532 272.153 260.115 281.673C259.803 288.793 260.475 295.579 262.13 302.031C262.345 302.868 262.604 302.883 262.907 302.075C265.214 295.874 267.425 290.133 272.676 286.026C273.265 285.568 273.889 285.2 274.546 284.922C274.578 284.908 274.613 284.902 274.649 284.903C274.684 284.904 274.719 284.912 274.751 284.928C274.783 284.943 274.812 284.965 274.835 284.993C274.859 285.02 274.876 285.052 274.887 285.086L274.95 285.294C275.009 285.488 274.95 285.631 274.773 285.723C271.178 287.553 268.739 291.3 266.964 294.921C265.38 298.155 264.017 301.469 262.876 304.864C262.845 304.954 262.791 305.034 262.72 305.096C262.649 305.158 262.563 305.2 262.471 305.217C262.105 305.284 261.871 305.139 261.77 304.782C259.946 298.431 259.028 291.592 259.015 284.266C258.994 275.867 261.536 268.126 266.642 261.044C271.292 254.59 275.854 249.834 281.022 244.497C281.338 244.169 281.7 243.908 282.109 243.714C282.774 243.567 283.107 243.615 283.107 243.859Z" fill="#C91A34"/>
<path d="M241.027 346.431C240.041 337.885 238.354 329.726 235.966 321.953C235.957 321.923 235.955 321.891 235.961 321.86C235.967 321.829 235.979 321.8 235.998 321.775C236.017 321.75 236.042 321.729 236.07 321.716C236.099 321.702 236.13 321.695 236.162 321.695L236.351 321.701C236.616 321.71 236.791 321.84 236.876 322.092C241.368 335.296 243.023 349.604 243.548 364.095C243.556 364.339 243.442 364.431 243.207 364.372L243.023 364.328C242.716 364.253 242.554 364.059 242.537 363.748C242.183 357.868 241.68 352.096 241.027 346.431Z" fill="#C91A34"/>
<path d="M247.453 378.434C245.089 377.644 242.162 377.488 238.67 377.968C228.952 379.305 220.397 382.703 213.005 388.162C212.242 388.722 211.495 389.39 210.762 390.168C210.084 390.888 209.395 391.626 208.696 392.383C208.363 391.76 208.329 391.298 208.595 390.995C209.391 389.998 209.999 389.321 210.421 388.963C218.837 381.847 229.319 377.904 240.123 376.763C241.88 376.578 243.691 376.632 245.557 376.927C246.442 377.065 246.8 376.695 246.631 375.816C245.968 372.302 244.11 369.4 242.252 366.416C241.01 364.419 239.63 362.455 238.114 360.524C232.175 352.971 226.136 346.568 219.999 341.315C213.839 336.047 206.623 333.542 198.454 334.949C194.17 335.689 190.078 336.789 186.177 338.249C185.625 338.459 185.337 338.562 185.311 338.558C184.039 338.398 183.997 338.078 185.185 337.599C189.006 336.043 193.098 334.846 197.462 334.009C207.59 332.066 215.387 335.561 222.583 342.191C226.012 345.35 229.395 348.759 232.731 352.418C237.213 357.326 241.511 363.325 245.626 370.416C247.236 373.188 247.844 375.86 247.453 378.434Z" fill="#C91A34"/>
<path d="M328.365 403.858C334.637 401.166 341.139 399.137 347.87 397.77L362.845 394.767C362.926 394.752 363.003 394.717 363.069 394.665C363.135 394.614 363.188 394.547 363.224 394.471C371.122 377.681 379.361 361.084 387.941 344.677C387.996 344.574 388.085 344.494 388.193 344.45C388.3 344.407 388.419 344.402 388.529 344.437L388.706 344.494C388.739 344.505 388.77 344.523 388.796 344.546C388.821 344.57 388.842 344.599 388.855 344.632C388.868 344.664 388.874 344.699 388.872 344.734C388.87 344.77 388.861 344.804 388.845 344.835C384.771 352.935 380.679 361.065 376.568 369.224C372.575 377.156 368.575 385.403 364.569 393.966C364.535 394.039 364.522 394.121 364.531 394.201C364.539 394.281 364.569 394.358 364.618 394.423C364.666 394.487 364.732 394.538 364.806 394.568C364.881 394.599 364.963 394.609 365.043 394.597C374.79 393.138 384.618 392.887 394.525 393.846C403.503 394.717 412.684 397.341 420.392 401.757C425.784 404.844 430.952 408.652 435.897 413.182C436.137 413.401 436.182 413.651 436.03 413.933L435.948 414.078C435.928 414.116 435.899 414.149 435.864 414.174C435.828 414.199 435.788 414.216 435.745 414.224C435.703 414.231 435.659 414.228 435.617 414.216C435.576 414.204 435.538 414.183 435.506 414.154C428.977 408.139 422.281 403.568 415.42 400.439C399.099 392.988 379.828 393.297 362.307 395.985C354.7 397.15 347.15 398.819 339.656 400.994C338.11 401.444 336.432 401.97 334.62 402.571C332.577 403.252 330.492 403.681 328.365 403.858Z" fill="#C91A34"/>
<path d="M266.199 410.047C270.121 415.161 273.206 420.256 275.455 425.332C275.484 425.395 275.486 425.467 275.463 425.531C275.439 425.596 275.391 425.649 275.329 425.679L275.133 425.774C275.085 425.796 275.031 425.798 274.981 425.78C274.932 425.763 274.891 425.727 274.868 425.679C271.667 419.06 267.362 412.543 261.953 406.129C259.291 402.966 256.385 400.075 253.234 397.455C252.446 396.794 251.741 396.067 251.117 395.272C250.81 394.881 250.902 394.719 251.395 394.786C252.097 394.881 252.444 395.537 252.924 395.947C257.6 399.905 262.025 404.604 266.199 410.047Z" fill="#C91A34"/>
<path d="M215.02 404.249L212.828 407.321L210.642 398.546L214.761 403.423C214.847 403.524 214.892 403.654 214.888 403.789C214.888 403.94 214.932 404.093 215.02 404.249Z" fill="#C91A34"/>
<path d="M241.949 399.694C241.735 399.534 241.732 399.37 241.943 399.202L242.133 399.044C242.174 399.012 242.226 398.994 242.28 398.994C242.333 398.994 242.386 399.012 242.43 399.044C246.996 402.594 250.766 405.95 253.739 409.113C259.19 414.896 263.693 421.608 267.248 429.25C267.446 429.683 267.549 430.158 267.558 430.676C267.57 431.374 267.429 431.405 267.134 430.77C261.347 418.254 252.952 407.895 241.949 399.694Z" fill="#C91A34"/>
<path d="M254.668 425.112C255.938 426.916 257.012 428.872 258.004 430.846C258.35 431.536 258.164 431.736 257.448 431.445C257.389 431.424 257.265 431.246 257.076 430.909C251.357 420.765 243.826 411.983 235.018 404.382C235.001 404.366 234.986 404.348 234.976 404.327C234.967 404.305 234.961 404.282 234.961 404.259C234.96 404.235 234.964 404.211 234.973 404.189C234.982 404.167 234.995 404.146 235.012 404.129L235.138 404.009C235.193 403.954 235.267 403.922 235.344 403.92C235.422 403.918 235.497 403.945 235.555 403.997C240.475 408.215 244.67 412.377 248.141 416.481C249.898 418.559 252.073 421.436 254.668 425.112Z" fill="#C91A34"/>
<path d="M332.321 456.85C334.448 455.05 335.842 453.986 336.503 453.658C337.637 453.094 338.717 452.503 339.745 451.885C340.436 451.469 340.627 450.888 340.32 450.144C335.505 438.566 328.195 428.684 318.389 420.5C316.864 419.226 315.181 418.21 313.34 417.453C312.131 417.083 310.626 417.079 308.823 417.44C309.547 416.536 310.537 416.113 311.792 416.172C315.463 416.343 320.613 420.872 323.184 423.37C331.834 431.754 339.821 442.593 342.721 454.213C343.104 455.736 343.19 457.233 342.98 458.705C342.544 461.764 338.228 462.282 336.105 461.329C334.37 460.551 333.108 459.058 332.321 456.85Z" fill="#C91A34"/>
<path d="M265.252 456.282L264.677 456.207C264.601 456.144 264.578 456.043 264.607 455.904C264.624 455.815 264.677 455.734 264.765 455.658C271.774 449.883 279.388 445.118 287.606 441.363C287.636 441.349 287.668 441.342 287.701 441.343C287.734 441.344 287.766 441.353 287.796 441.369C287.825 441.385 287.85 441.407 287.87 441.435C287.89 441.462 287.903 441.493 287.909 441.527L287.935 441.703C287.953 441.807 287.937 441.913 287.889 442.007C287.841 442.1 287.764 442.175 287.669 442.22C281.776 445.055 276.427 448.151 271.62 451.507C269.902 452.705 267.779 454.297 265.252 456.282Z" fill="#C91A34"/>
<path d="M268.499 464.805C275.165 457.367 284.143 452.144 293.88 447.753C294.103 447.652 294.217 447.724 294.221 447.968C294.23 448.262 294.097 448.477 293.823 448.611C288.486 451.21 283.459 454.024 278.741 457.052C276.075 458.768 273.583 460.791 271.267 463.121C269.881 464.517 268.577 465.89 267.356 467.24C267.28 467.322 267.176 467.373 267.066 467.381C266.955 467.389 266.846 467.355 266.762 467.285L266.597 467.152C266.576 467.134 266.56 467.113 266.548 467.088C266.536 467.063 266.529 467.036 266.528 467.009C266.526 466.981 266.531 466.953 266.541 466.927C266.55 466.9 266.565 466.876 266.585 466.856C267.233 466.191 267.872 465.508 268.499 464.805Z" fill="#C91A34"/>
<path d="M274.381 471.246C281.879 464.025 290.289 458.227 299.611 453.854C299.646 453.837 299.684 453.829 299.723 453.831C299.761 453.833 299.799 453.843 299.832 453.863C299.866 453.882 299.894 453.909 299.915 453.941C299.936 453.974 299.948 454.011 299.952 454.049L299.971 454.264C299.984 454.398 299.955 454.533 299.888 454.651C299.822 454.768 299.72 454.862 299.598 454.92C290.508 459.323 282.399 464.929 275.272 471.738C275.191 471.817 275.089 471.871 274.978 471.894C274.867 471.916 274.752 471.906 274.647 471.865L274.495 471.801C274.171 471.675 274.133 471.49 274.381 471.246Z" fill="#C91A34"/>
<path d="M116.915 328.893C114.64 330.272 112.223 331.852 109.661 333.631C108.469 334.455 106.757 334.813 104.525 334.703C104.415 332.478 104.352 330.262 104.335 328.054C104.291 323.505 103.748 319.058 103.476 314.686C103.425 313.904 103.615 313.145 104.044 312.409C110.451 301.482 117.677 290.928 125.723 280.746C129.128 276.437 132.799 272.526 136.9 268.558C137.047 268.415 137.049 268.267 136.906 268.116L136.799 268.002C136.723 267.922 136.647 267.918 136.571 267.99C133.193 271.06 130.034 274.351 127.094 277.863C118.244 288.423 110.464 299.59 103.754 311.361C103.4 311.98 103.196 311.933 103.141 311.223C102.214 299.135 100.262 287.584 97.2838 276.569C96.93 275.266 96.5172 273.968 96.0454 272.677C95.6368 271.575 95.2472 270.389 94.8765 269.119C93.9246 265.872 92.703 262.548 91.2119 259.145C90.0493 256.483 88.634 253.959 87.4588 251.31C87.265 250.868 87.0228 250.443 86.7322 250.036C85.9992 249.014 85.6644 247.834 84.9757 246.812C84.0869 245.483 83.1981 244.063 82.3093 242.554C82.2515 242.457 82.1582 242.388 82.0496 242.36C81.9409 242.331 81.8255 242.347 81.728 242.402L81.5764 242.497C81.5492 242.513 81.5255 242.534 81.5065 242.559C81.4876 242.584 81.4739 242.612 81.4662 242.642C81.4585 242.672 81.4571 242.703 81.4619 242.734C81.4667 242.764 81.4777 242.793 81.4943 242.818C85.8918 249.884 89.4006 256.96 92.0206 264.047C95.3525 273.056 98.0526 283.215 100.121 294.524C100.639 297.35 101.368 302.603 102.307 310.283C102.781 314.188 102.781 317.935 103.141 321.752C103.187 322.202 103.048 322.269 102.724 321.953C102.311 321.55 101.898 321.167 101.486 320.805C92.8167 313.222 82.7621 305.038 71.3217 296.252C68.7943 294.313 66.0753 292.362 63.1647 290.398C62.9709 290.263 62.834 290.307 62.754 290.53L62.6971 290.694C62.6842 290.731 62.6834 290.77 62.6947 290.808C62.7061 290.845 62.729 290.878 62.7603 290.903C76.4417 301.211 89.8345 311.9 102.939 322.969C103.103 323.108 103.187 323.285 103.191 323.499L103.495 334.81C94.7333 334.907 86.1804 333.452 77.8359 330.445C75.2707 329.751 72.9202 328.639 70.7846 327.108C67.2274 324.565 65.4267 321.032 67.398 316.982C68.4342 314.863 70.4687 313.525 72.2 311.999C72.2642 311.941 72.3141 311.869 72.3456 311.789C72.3772 311.708 72.3894 311.622 72.3814 311.537C72.3734 311.451 72.3454 311.369 72.2996 311.297C72.2538 311.225 72.1915 311.165 72.1178 311.122C71.3175 310.651 70.4287 310.297 69.4515 310.062C56.1955 306.87 43.5335 301.665 33.7211 292.436C28.8813 287.887 22.4808 279.629 23.4917 272.892C24.6417 265.271 32.8113 263.769 39.2371 265.675C49.0621 268.583 56.303 274.134 64.4473 279.888C65.9932 280.981 67.855 281.955 70.0327 282.809C74.1776 284.43 78.8153 282.865 78.6826 277.838C78.6405 276.096 78.2656 274.284 77.5579 272.399C76.3195 269.085 74.7547 265.771 72.8634 262.457C69.5989 256.729 66.3112 251.055 63.0004 245.437C58.7482 238.22 53.2449 226.151 58.4259 218.234C61.1723 214.045 65.0813 212.045 70.1528 212.234C79.365 212.575 88.6277 219.338 94.4216 226.404C101.814 235.425 105.681 245.653 106.022 257.089C106.106 259.818 106.052 262.77 105.858 265.946C105.723 268.183 106.456 270.204 108.057 272.008C110.268 274.494 113.876 274.002 116.024 271.712C117.713 269.908 119.202 267.815 120.491 265.435C125.35 256.483 130.992 247.531 139.396 242.528C143.421 240.125 148.778 239.204 152.841 241.784C154.897 243.096 155.88 245.125 155.792 247.872C155.672 251.587 154.503 255.442 153.612 259.164C152.319 264.598 150.632 269.868 148.551 274.973C146.125 280.916 142.454 286.077 137.418 290.013C134.33 292.423 130.771 294.793 126.74 297.123C125.561 297.804 124.59 298.671 123.827 299.722C123.659 299.949 123.633 300.191 123.751 300.448C124.8 302.801 127.523 302.378 129.646 302.719C133.063 303.27 135.306 304.937 136.376 307.721C138.606 313.525 132.913 319.531 128.49 322.3C124.931 324.53 121.072 326.727 116.915 328.893Z" fill="#3A5946"/>
<path d="M295.231 258.117L293.102 245.519C296.421 245.678 299.698 245.708 302.933 245.607C314.749 245.247 328.58 241.45 334.601 230.239C334.66 230.121 334.757 230.052 334.892 230.031C334.972 230.018 335.041 230.039 335.1 230.094C335.184 230.178 335.216 230.277 335.195 230.391C334.938 231.715 334.481 232.948 333.824 234.087C328.776 242.806 322.426 249.821 313.536 254.881C309.888 256.958 305.671 258.27 300.886 258.817C297.971 259.154 296.086 258.92 295.231 258.117Z" fill="#D76972"/>
<path d="M269.326 326.521C271.664 326.521 273.559 324.629 273.559 322.294C273.559 319.96 271.664 318.067 269.326 318.067C266.988 318.067 265.093 319.96 265.093 322.294C265.093 324.629 266.988 326.521 269.326 326.521Z" fill="#D76972"/>
<path d="M269.446 356.209C271.582 354.443 268.429 352.55 266.913 351.888C265.228 351.148 265.295 350.91 267.115 351.175C269.661 351.547 271.386 354.096 270.957 356.474C269.996 361.805 263.128 362.284 261.921 356.752C261.669 355.578 262.075 354.8 263.141 354.418C265.719 353.503 267.147 358.108 269.446 356.209Z" fill="#D76972"/>
<path d="M247.452 378.434C247.574 379.128 247.913 379.559 248.469 379.728C249.164 379.938 250.068 380.459 251.18 381.292C247.069 383.202 243.044 384.957 239.106 386.56C234.552 388.415 229.813 391.512 224.889 395.852C221.915 398.477 219.544 401.557 217.775 405.094C217.691 405.267 217.627 405.467 217.585 405.694L216.972 405.549C216.433 404.943 215.968 404.499 215.576 404.218C215.386 404.083 215.201 404.093 215.02 404.249C214.932 404.093 214.887 403.94 214.887 403.789C214.891 403.654 214.846 403.524 214.761 403.423L210.641 398.546C209.664 396.797 209.015 394.742 208.695 392.383C209.395 391.626 210.083 390.888 210.761 390.168C211.494 389.39 212.242 388.722 213.004 388.162C220.397 382.703 228.952 379.305 238.67 377.968C242.162 377.488 245.089 377.644 247.452 378.434Z" fill="#D76972"/>
<path d="M313.34 417.453C315.181 418.21 316.863 419.226 318.388 420.5C328.194 428.684 335.505 438.566 340.319 450.144C340.627 450.889 340.435 451.469 339.744 451.885C338.717 452.504 337.636 453.094 336.503 453.658C335.842 453.986 334.447 455.05 332.32 456.85C332.215 456.804 332.103 456.707 331.985 456.56L330.854 456.446C330.648 456.425 330.488 456.327 330.374 456.15C328.662 453.513 328.763 450.491 328.744 447.507C328.7 441.918 326.16 437.085 323.146 432.575C319.869 427.667 315.777 424.029 310.869 421.661C310.81 421.631 310.758 421.588 310.72 421.534C310.681 421.48 310.655 421.417 310.646 421.351C310.637 421.286 310.644 421.218 310.666 421.156C310.688 421.093 310.726 421.037 310.775 420.992C311.95 419.941 312.805 418.761 313.34 417.453Z" fill="#D76972"/>
<path d="M364.873 242.983C364.371 242.94 364.045 243.176 363.893 243.689C358.845 260.918 354.005 277.219 344.862 292.303C341.514 297.829 337.325 302.435 332.542 306.876C332.475 306.938 332.396 306.984 332.309 307.01C332.222 307.037 332.13 307.043 332.04 307.028C331.95 307.014 331.865 306.979 331.791 306.926C331.717 306.873 331.656 306.804 331.613 306.725C331.385 306.308 331.217 305.883 331.107 305.45C329.161 297.88 326.192 291.432 319.197 287.427C318.915 287.263 318.656 287.294 318.42 287.521L318.275 287.654C318.242 287.684 318.217 287.722 318.202 287.765C318.187 287.807 318.182 287.852 318.188 287.897C318.194 287.942 318.211 287.985 318.237 288.023C318.263 288.061 318.298 288.092 318.338 288.114C326.4 292.587 328.144 299.381 330.747 307.406C330.799 307.567 330.888 307.713 331.007 307.834C331.125 307.954 331.271 308.045 331.431 308.1C331.591 308.154 331.762 308.171 331.929 308.148C332.097 308.125 332.257 308.063 332.396 307.967C334.233 306.714 335.863 305.318 337.287 303.778C342.417 298.252 346.659 292.042 350.012 285.149C356.45 271.926 360.639 258.205 364.904 244.238C373.485 247.901 381.894 251.859 390.134 256.111C394.885 258.563 398.467 260.758 400.881 262.697C408.488 268.81 415.059 277.364 420.506 285.414C421.129 286.339 421.694 287.302 422.199 288.303C432.174 303.368 438.511 313.231 441.211 317.891C443.098 321.159 445.223 325.236 447.586 330.123C453.496 342.366 458.3 353.206 461.999 362.644C465.284 371.03 467.801 378.603 469.549 385.361C471.28 392.057 471.653 399.124 470.667 406.564C469.84 410.299 469.044 414.368 467.698 417.718C466.586 420.498 465.217 423.145 463.591 425.66C461.961 428.19 459.541 430.613 457.487 433.048C448.37 441.855 436.542 445.633 424.253 448.397C415.441 450.382 406.791 452.167 398.303 453.753C394.302 454.501 390.18 455.33 385.938 456.238C371.739 459.287 357.933 461.443 344.521 462.705C341.766 462.969 338.26 463.241 335.701 462.061C333.426 461.01 331.813 459.329 330.861 457.02C331.185 456.575 331.56 456.421 331.986 456.56C332.104 456.707 332.215 456.804 332.321 456.85C333.108 459.058 334.37 460.551 336.105 461.329C338.228 462.282 342.544 461.765 342.98 458.705C343.19 457.233 343.104 455.736 342.721 454.213C339.82 442.593 331.834 431.755 323.184 423.37C320.613 420.872 315.463 416.343 311.792 416.172C310.537 416.113 309.547 416.536 308.823 417.44C309.252 418.391 309.035 419.144 308.172 419.699C304.918 417.384 311.04 412.658 312.923 411.466C317.86 408.358 323.007 405.822 328.365 403.858C330.492 403.681 332.577 403.252 334.62 402.571C336.432 401.97 338.11 401.444 339.656 400.994C347.15 398.819 354.7 397.15 362.307 395.985C379.828 393.297 399.099 392.988 415.42 400.439C422.281 403.568 428.977 408.139 435.506 414.154C435.538 414.183 435.576 414.204 435.617 414.216C435.659 414.228 435.703 414.231 435.745 414.224C435.788 414.216 435.828 414.199 435.864 414.174C435.899 414.149 435.928 414.116 435.948 414.078L436.03 413.933C436.182 413.651 436.137 413.401 435.897 413.182C430.952 408.652 425.784 404.844 420.392 401.757C412.684 397.341 403.503 394.717 394.525 393.846C384.618 392.887 374.79 393.138 365.043 394.597C364.963 394.609 364.881 394.599 364.806 394.568C364.732 394.538 364.666 394.487 364.618 394.423C364.569 394.358 364.539 394.281 364.531 394.201C364.522 394.121 364.535 394.039 364.569 393.966C368.575 385.403 372.575 377.156 376.568 369.224C380.679 361.065 384.771 352.935 388.845 344.835C388.861 344.804 388.87 344.77 388.872 344.735C388.874 344.699 388.868 344.664 388.855 344.632C388.842 344.599 388.821 344.57 388.796 344.546C388.77 344.523 388.739 344.505 388.706 344.494L388.529 344.437C388.419 344.402 388.3 344.407 388.193 344.45C388.085 344.494 387.996 344.574 387.941 344.677C379.361 361.084 371.122 377.681 363.224 394.471C363.188 394.547 363.135 394.614 363.069 394.665C363.003 394.717 362.926 394.752 362.845 394.767L347.87 397.77C346.337 397.122 344.78 396.71 343.201 396.534C336.541 395.789 329.749 395.184 323.159 393.941C322.877 384.318 322.466 374.708 321.927 365.111C320.92 347.24 319.648 329.892 318.111 313.065C317.74 309.027 317.27 305.004 316.702 300.996C315.943 295.691 314.604 292.492 311.021 289.426C310.448 288.934 310.404 288.4 310.889 287.824C317.178 280.262 323.037 272.526 328.466 264.615L336.478 250.723C336.846 250.08 337.027 249.35 337.002 248.616L336.421 232.163C346.891 231.684 357.228 236.106 364.873 242.983Z" fill="#EFD68A"/>
<path d="M282.109 243.714C281.7 243.908 281.338 244.169 281.022 244.497C275.854 249.834 271.292 254.59 266.641 261.044C261.536 268.126 258.994 275.867 259.015 284.266C259.028 291.592 259.946 298.431 261.77 304.782C261.871 305.139 262.105 305.284 262.471 305.217C262.563 305.2 262.649 305.158 262.72 305.096C262.791 305.034 262.845 304.954 262.876 304.864C264.017 301.469 265.38 298.155 266.964 294.921C268.739 291.3 271.178 287.553 274.773 285.723C274.95 285.631 275.009 285.488 274.95 285.294L274.887 285.086C274.876 285.052 274.858 285.02 274.835 284.993C274.812 284.965 274.783 284.943 274.751 284.928C274.719 284.912 274.684 284.904 274.648 284.903C274.613 284.902 274.578 284.908 274.546 284.922C273.889 285.2 273.265 285.568 272.675 286.026C267.425 290.133 265.213 295.874 262.907 302.075C262.604 302.883 262.345 302.868 262.13 302.031C260.475 295.579 259.803 288.793 260.114 281.673C260.531 272.153 265.182 263.82 271.21 256.628C274.706 252.46 278.671 248.204 283.107 243.859L293.103 245.519L295.232 258.117L295.731 261.706C290.508 267.994 286.763 275.058 284.497 282.897C283.381 286.745 282.534 290.236 281.957 293.369C280.377 301.854 278.848 310.939 278.103 319.903C277.631 325.606 277.088 331.284 276.473 336.936C275.569 345.232 274.918 353.944 274.268 362.461C274.141 364.08 273.777 368.128 273.175 374.605C272.795 378.643 272.503 382.695 272.296 386.762C271.816 387.086 271.117 387.18 270.199 387.046C265.586 386.364 262.023 385.752 259.508 385.21C258.514 384.999 257.4 384.854 256.166 384.774L251.18 381.292C250.068 380.459 249.165 379.938 248.47 379.728C247.914 379.559 247.575 379.128 247.452 378.434C247.844 375.86 247.236 373.188 245.626 370.416C241.511 363.325 237.213 357.326 232.731 352.418C229.395 348.759 226.012 345.35 222.583 342.191C215.387 335.561 207.59 332.066 197.462 334.009C193.098 334.846 189.006 336.043 185.185 337.599C183.997 338.078 184.039 338.398 185.311 338.558C185.337 338.562 185.625 338.459 186.177 338.249C190.078 336.789 194.17 335.689 198.454 334.949C206.623 333.542 213.839 336.047 219.999 341.315C226.136 346.568 232.175 352.971 238.114 360.524C239.63 362.455 241.01 364.419 242.252 366.416C244.11 369.4 245.968 372.302 246.631 375.816C246.8 376.695 246.442 377.065 245.557 376.927C243.691 376.632 241.88 376.577 240.123 376.763C229.319 377.904 218.837 381.847 210.421 388.963C209.999 389.321 209.391 389.998 208.595 390.995C208.477 391.062 208.38 391.079 208.304 391.045C208.245 391.02 208.207 390.976 208.19 390.913C205.865 381.534 203.517 372.162 201.145 362.795C200.012 358.325 197.245 355.871 192.843 355.433C179.098 354.079 165.067 352.626 150.75 351.074C152.477 346.389 154.941 342.149 158.142 338.356C161.184 334.752 164.387 331.379 167.753 328.237C173.507 322.87 178.953 318.109 184.092 313.954C210.368 292.719 235.347 272.288 259.028 252.66C265.106 247.619 272.359 245.878 279.941 244.383C280.733 244.227 281.338 243.786 281.755 243.058C281.902 243.104 282.02 243.168 282.109 243.247C282.21 243.34 282.233 243.445 282.178 243.563L282.109 243.714ZM273.56 322.294C273.56 321.173 273.114 320.098 272.32 319.305C271.526 318.513 270.449 318.067 269.327 318.067C268.204 318.067 267.127 318.513 266.333 319.305C265.539 320.098 265.093 321.173 265.093 322.294C265.093 323.415 265.539 324.49 266.333 325.283C267.127 326.076 268.204 326.521 269.327 326.521C270.449 326.521 271.526 326.076 272.32 325.283C273.114 324.49 273.56 323.415 273.56 322.294ZM241.027 346.431C241.68 352.096 242.183 357.868 242.537 363.748C242.554 364.059 242.716 364.253 243.023 364.328L243.207 364.372C243.442 364.431 243.556 364.339 243.548 364.095C243.023 349.604 241.368 335.296 236.876 322.092C236.791 321.84 236.616 321.71 236.351 321.701L236.162 321.695C236.13 321.695 236.099 321.702 236.07 321.716C236.042 321.729 236.017 321.75 235.998 321.775C235.979 321.8 235.967 321.829 235.961 321.86C235.955 321.891 235.957 321.923 235.966 321.953C238.354 329.726 240.041 337.885 241.027 346.431ZM269.447 356.209C267.147 358.108 265.719 353.503 263.141 354.418C262.075 354.8 261.669 355.578 261.922 356.752C263.128 362.284 269.996 361.805 270.957 356.474C271.386 354.096 269.662 351.547 267.115 351.175C265.296 350.91 265.228 351.148 266.913 351.888C268.429 352.55 271.582 354.443 269.447 356.209Z" fill="#EFD68A"/>
<path d="M295.731 261.706C297.567 264.575 299.979 266.77 302.965 268.293C307.748 270.728 313.65 270.772 318.698 269.024C321.411 268.091 324.667 266.621 328.466 264.615C323.037 272.526 317.177 280.262 310.889 287.824C310.404 288.4 310.448 288.934 311.021 289.426C314.604 292.492 315.943 295.691 316.701 300.996C317.27 305.004 317.74 309.027 318.11 313.065C319.648 329.892 320.92 347.24 321.927 365.111C322.466 374.708 322.877 384.318 323.159 393.941C306.478 391.809 289.712 389.567 272.858 387.216C272.34 387.144 272.153 386.993 272.296 386.762C272.502 382.695 272.795 378.643 273.174 374.605C273.777 368.128 274.141 364.08 274.267 362.461C274.918 353.944 275.569 345.232 276.472 336.936C277.087 331.284 277.631 325.606 278.103 319.903C278.848 310.939 280.377 301.854 281.957 293.369C282.534 290.236 283.381 286.745 284.497 282.897C286.763 275.058 290.508 267.994 295.731 261.706Z" fill="#FADFE2"/>
<path d="M116.915 328.893C120.222 329.208 122.701 329.843 124.352 330.798C125.186 331.284 125.445 332.716 125.432 333.757C125.369 338.602 125.297 343.52 125.217 348.513L78.0192 343.706C77.9223 343.281 77.8654 342.919 77.8486 342.62C77.6127 338.642 77.6085 334.583 77.836 330.445C86.1804 333.452 94.7334 334.907 103.495 334.81L104.525 334.703C106.757 334.812 108.469 334.455 109.662 333.631C112.223 331.852 114.64 330.272 116.915 328.893Z" fill="#FADFE2"/>
<path d="M216.972 405.549C216.966 405.902 216.941 406.192 216.669 406.463C215.764 407.372 214.763 408.169 213.668 408.854C213.521 408.947 213.243 408.92 212.834 408.772L212.828 407.321L215.02 404.249C215.201 404.093 215.387 404.083 215.576 404.218C215.968 404.499 216.433 404.943 216.972 405.549Z" fill="#FADFE2"/>
<path d="M480.056 407.75C478.974 407.788 478.22 407.776 477.794 407.713C475.457 407.347 473.081 406.964 470.667 406.564C471.653 399.124 471.28 392.057 469.549 385.361C467.801 378.603 465.284 371.03 461.999 362.644C458.3 353.206 453.496 342.366 447.586 330.123C445.223 325.236 443.098 321.159 441.211 317.891C438.511 313.231 432.174 303.368 422.199 288.303C424.882 288.606 428.035 289.088 431.658 289.748C445.312 292.234 458.839 297.905 469.246 307.046C489.774 325.07 490.292 351.837 486.223 377.33C484.623 387.344 482.567 397.484 480.056 407.75Z" fill="#999C72"/>
<path d="M78.0193 343.706L125.217 348.513L150.75 351.074C165.067 352.626 179.098 354.079 192.843 355.433C197.245 355.871 200.012 358.325 201.145 362.795C203.517 372.162 205.865 381.534 208.19 390.913C208.207 390.976 208.245 391.02 208.304 391.045C208.38 391.079 208.477 391.062 208.595 390.995C208.329 391.298 208.363 391.76 208.696 392.383C209.016 394.742 209.664 396.797 210.642 398.546L212.828 407.321L212.834 408.772L214.963 416.362L218.546 430.487C218.607 430.722 218.739 430.934 218.923 431.092C219.107 431.251 219.335 431.35 219.576 431.376L252.008 434.612L262.376 436.126L268.613 437.066C268.583 437.167 268.543 437.279 268.493 437.401C268.446 437.506 268.375 437.596 268.278 437.672C264.773 440.465 261.618 443.217 258.813 445.93C257.553 445.131 255.885 444.736 253.809 444.744C250.864 444.763 248.47 446.22 245.911 447.129C245.688 447.204 245.635 447.343 245.753 447.545C245.934 447.856 246.199 448.008 246.549 447.999C250.117 447.894 253.434 448.111 256.5 448.649L255.433 450.346C253.137 450.262 250.86 450.043 248.602 449.69C245.388 449.194 243.131 448.92 241.829 448.87C238.573 448.739 235.235 448.803 231.815 449.059C231.574 449.08 231.389 448.988 231.258 448.781C231.17 448.643 231.134 448.491 231.151 448.327C231.164 448.207 231.15 448.086 231.111 447.971C231.072 447.856 231.008 447.749 230.923 447.657C230.839 447.565 230.735 447.489 230.619 447.436C230.503 447.382 230.377 447.35 230.248 447.343C227.973 447.221 225.639 447.122 223.247 447.047C222.885 447.038 222.809 447.181 223.019 447.476C223.407 448.022 223.617 448.67 223.651 449.419C223.676 450.016 223.858 450.51 224.195 450.901C224.565 451.33 225.069 451.522 225.705 451.475C227.322 451.345 228.862 451.366 230.323 451.538C234.076 451.967 237.836 451.797 241.526 452.333C245.616 452.926 249.658 453.431 253.651 453.847C253.811 453.864 253.948 453.761 254.061 453.538C254.129 453.866 254.104 454.205 253.986 454.554C253.329 454.356 252.737 454.419 252.21 454.743C252.033 454.852 251.842 454.916 251.635 454.932C248.868 455.193 246.153 454.97 243.491 454.264C241.728 453.791 240.237 453.772 238.48 453.803C238.352 453.807 238.226 453.847 238.114 453.917L234.133 456.535C233.999 456.623 233.885 456.735 233.792 456.869C233.485 457.332 233.019 457.553 232.396 457.531C232.355 457.53 232.314 457.538 232.277 457.555C232.239 457.573 232.206 457.599 232.181 457.632L231.935 457.96C231.825 458.112 231.863 458.204 232.048 458.238C232.562 458.331 233.042 458.263 233.489 458.036C233.663 457.949 233.856 457.908 234.051 457.916C237.754 458.055 241.279 459.014 244.912 459.064C246.865 459.096 249.089 457.115 250.681 456.131C251.549 455.597 252.629 455.233 253.922 455.04C253.944 455.035 253.958 455.023 253.967 455.002C253.984 454.947 253.998 454.892 254.011 454.838C254.339 455.965 255.009 456.655 256.02 456.907C258.025 457.403 260.192 457.496 262.522 457.185C263.343 457.071 263.969 456.604 264.676 456.207L265.251 456.282C265.597 458.406 265.645 460.831 265.397 463.556C264.499 464.17 263.354 464.795 261.959 465.43C258.189 467.15 254.428 468.883 250.675 470.628C244.319 473.593 237.937 476.173 231.511 479.258C229.544 480.205 227.421 480.539 225.142 480.261C218.449 479.441 211.926 478.562 205.574 477.624C201.733 477.057 197.86 476.792 193.999 476.186C191.282 475.763 188.382 475.751 185.64 475.29C180.307 474.401 174.823 473.839 169.522 473.101C166.548 472.689 163.233 472.287 159.577 471.896C154.602 471.362 149.002 470.668 142.776 469.814C135.085 468.754 125.428 467.589 113.807 466.319C109.11 465.806 104.927 465.306 101.258 464.818C95.2053 464.015 89.2407 463.199 83.3647 462.37C81.5323 462.156 79.5673 462.093 78.0762 461.127C76.5303 460.126 75.4941 458.692 74.9675 456.825C69.6559 437.987 64.3422 419.156 59.0263 400.331C58.6851 399.133 58.3587 397.846 58.047 396.471C57.7268 395.083 57.3414 393.861 56.8907 392.805C52.4889 376.874 48.6769 363.386 45.4545 352.342C44.2035 348.058 44.8542 342.16 49.9974 341.22C50.7177 341.09 52.8575 341.207 56.4168 341.573C63.6113 342.305 70.8122 343.016 78.0193 343.706ZM134.518 415.201C134.587 415.207 134.656 415.197 134.72 415.171C134.784 415.145 134.841 415.104 134.885 415.051C134.93 414.998 134.961 414.936 134.976 414.868C134.992 414.801 134.991 414.731 134.973 414.665L131.201 399.852C131.179 399.765 131.129 399.687 131.06 399.629C130.991 399.571 130.905 399.537 130.816 399.53L113.01 398.142C112.942 398.136 112.872 398.146 112.808 398.172C112.744 398.199 112.688 398.24 112.643 398.292C112.599 398.345 112.567 398.408 112.552 398.475C112.537 398.542 112.538 398.612 112.555 398.679L116.321 413.491C116.344 413.578 116.393 413.656 116.462 413.714C116.531 413.772 116.617 413.806 116.707 413.813L134.518 415.201ZM223.222 445.949C223.592 446.1 223.967 446.184 224.346 446.201C226.478 446.281 228.683 446.292 230.962 446.233C231.728 446.212 232.482 445.962 233.224 445.482C233.944 445.015 234.704 444.563 235.504 444.126C236.878 443.381 236.793 442.87 235.252 442.593C231.145 441.853 226.739 441.421 222.034 441.299C221.987 441.298 221.941 441.308 221.899 441.327C221.856 441.347 221.819 441.376 221.789 441.412C221.759 441.449 221.738 441.492 221.727 441.538C221.715 441.584 221.715 441.632 221.724 441.678L222.425 445.003C222.47 445.214 222.566 445.411 222.705 445.576C222.844 445.741 223.021 445.869 223.222 445.949ZM233.268 447.368C234.816 446.92 236.427 447.021 237.924 446.416C239.917 445.608 241.77 444.799 243.485 443.987C243.539 443.962 243.584 443.919 243.612 443.866C243.641 443.813 243.651 443.751 243.642 443.69C243.613 443.518 243.512 443.413 243.339 443.375C239.46 442.485 237.286 443.962 233.299 446.548C233.106 446.674 232.981 446.834 232.927 447.028C232.834 447.352 232.948 447.465 233.268 447.368ZM246.208 446.126C247.155 445.692 248.112 445.324 249.076 445.022C249.363 444.933 249.594 444.763 249.771 444.511C249.801 444.467 249.819 444.417 249.824 444.364C249.828 444.311 249.819 444.259 249.796 444.211C249.774 444.163 249.739 444.122 249.696 444.091C249.653 444.061 249.603 444.042 249.55 444.037C247.844 443.886 246.157 443.842 244.571 444.656C242.701 445.619 240.911 446.477 239.201 447.23C238.969 447.33 238.718 447.377 238.449 447.368C238.343 447.364 238.285 447.415 238.272 447.52L238.253 447.677C238.244 447.745 238.274 447.783 238.341 447.791C240.066 447.987 241.614 447.4 243.282 447.066C244.31 446.864 245.285 446.55 246.208 446.126ZM234.923 454.926C235.694 454.333 236.553 453.856 237.501 453.494C238.15 453.25 238.129 453.099 237.438 453.04C233.588 452.703 229.319 452.483 224.631 452.377C224.243 452.369 224.138 452.537 224.315 452.882C224.559 453.353 224.717 453.856 224.788 454.39C224.835 454.757 225.005 455.098 225.269 455.359C225.534 455.62 225.878 455.785 226.248 455.828C227.267 455.946 228.23 455.948 229.136 455.834C230.639 455.645 232.173 455.492 233.735 455.374C234.178 455.345 234.574 455.195 234.923 454.926ZM225.818 457.771C226.012 458.133 226.315 458.318 226.728 458.326C227.581 458.339 228.276 458.415 229.091 458.049C230.208 457.544 231.332 457.157 232.465 456.888C232.672 456.842 232.76 456.713 232.731 456.503L232.705 456.327C232.702 456.304 232.69 456.284 232.671 456.27C232.653 456.256 232.629 456.249 232.604 456.251L225.913 456.39C225.357 456.398 225.212 456.648 225.477 457.14L225.818 457.771ZM229.091 459.172C228.198 459.092 227.299 459.033 226.393 458.995C226.086 458.982 225.978 459.123 226.071 459.418L226.76 461.537C226.844 461.79 227.013 461.954 227.265 462.03C229.7 462.757 232.164 463.226 234.658 463.436C236.073 463.554 237.425 463.331 238.714 462.768C240.239 462.099 241.625 461.336 242.872 460.478C242.922 460.442 242.962 460.392 242.986 460.335C243.011 460.277 243.018 460.215 243.008 460.154C242.998 460.093 242.971 460.036 242.93 459.991C242.889 459.946 242.836 459.913 242.777 459.897C239.251 458.93 235.582 458.675 231.77 459.134C230.865 459.243 229.972 459.256 229.091 459.172ZM229.218 468.363L233.994 465.613C234.163 465.516 234.344 465.445 234.538 465.398C234.837 465.327 235.115 465.205 235.372 465.032C235.62 464.868 235.597 464.767 235.302 464.73L228.712 463.909C228.072 463.83 227.811 464.107 227.929 464.742L228.535 468.048C228.549 468.12 228.579 468.188 228.625 468.246C228.67 468.304 228.728 468.351 228.795 468.381C228.862 468.412 228.935 468.427 229.008 468.424C229.082 468.421 229.154 468.4 229.218 468.363Z" fill="#918CB5"/>
<path d="M272.296 386.762C272.153 386.993 272.34 387.144 272.858 387.216C289.711 389.567 306.478 391.809 323.159 393.941C329.749 395.184 336.541 395.789 343.2 396.534C344.78 396.71 346.336 397.122 347.87 397.77C341.139 399.137 334.637 401.166 328.365 403.858C323.007 405.822 317.86 408.358 312.923 411.466C311.04 412.658 304.917 417.384 308.171 419.699C303.218 421.928 298.178 423.968 293.052 425.818C288.193 427.572 283.827 429.547 279.334 431.698C279.309 431.71 279.292 431.704 279.284 431.679L279.208 431.54C279.153 431.439 279.176 431.359 279.278 431.3C283.745 428.575 283.599 423.837 282.513 419.276C281.577 415.34 279.72 411.573 277.736 407.908C275.369 403.534 272.704 399.724 269.743 396.477C268.307 394.904 266.057 392.881 262.995 390.408C260.716 388.566 258.44 386.688 256.165 384.774C257.399 384.854 258.513 384.999 259.507 385.21C262.022 385.752 265.586 386.364 270.198 387.046C271.116 387.18 271.816 387.085 272.296 386.762Z" fill="#E5B5A2"/>
<path d="M83.3644 462.37C81.2373 463.602 79.485 464.925 78.1076 466.338C77.9733 466.477 77.8972 466.661 77.8948 466.854C77.8925 467.048 77.964 467.236 78.0949 467.379C80.0726 469.537 83.4213 470.458 86.2393 470.931C88.7877 471.356 91.393 471.736 94.0551 472.073C135.39 477.328 176.807 482.722 218.249 487.977C221.1 488.338 223.986 488.61 226.905 488.791C230.197 488.999 232.756 488.425 235.618 487.144C242.897 483.889 249.828 480.451 256.999 477.252C260.626 475.637 264.259 474.007 267.898 472.363C269.149 475.034 271.327 476.432 274.432 476.558C279.368 476.756 284.471 476.06 289.741 474.47C294.572 473.015 298.271 471.749 300.836 470.672C307.576 467.842 313.928 465.196 319.892 462.736C328.371 465.487 337.299 466.921 346.676 467.039C358.921 467.19 370.083 466.811 380.163 465.903C396.907 464.389 414.288 462.446 430.685 460.648C440.697 459.546 452.205 458.051 465.208 456.162C475.642 454.648 484.814 452.979 492.725 451.153C499.1 449.677 505.62 447.835 511.351 444.498C512.316 443.934 513.152 443.24 513.86 442.416C514.135 442.098 514.277 441.686 514.256 441.266C514.235 440.845 514.052 440.448 513.746 440.158C512.116 438.614 509.902 437.493 507.105 436.795C503.099 435.798 499.049 435.1 494.955 434.701C482.483 433.489 469.928 432.385 457.487 433.048C459.541 430.613 461.961 428.19 463.591 425.66C465.217 423.145 466.586 420.498 467.698 417.718C469.043 414.368 469.839 410.299 470.667 406.564C473.081 406.964 475.457 407.347 477.794 407.713C478.22 407.776 478.974 407.788 480.056 407.75C501.185 410.501 522.278 413.22 543.335 415.907C546.266 416.28 551.422 416.595 550.74 420.897C550.605 421.755 550.062 422.531 549.11 423.225C532.935 435.018 518.35 445.493 505.355 454.648C492.664 463.586 480.075 472.453 467.59 481.252C429.448 508.131 391.787 534.662 354.605 560.847C349.835 564.203 345.974 567.642 339.612 566.752C277.431 558.004 212.552 548.798 144.975 539.133C121.508 535.781 97.5534 532.358 73.1097 528.863C52.3897 525.906 32.4911 523.088 13.4139 520.409C9.21007 519.816 4.85883 519.173 0.360154 518.479C-0.164609 518.395 -0.642846 518.129 -0.989801 517.727C-1.33676 517.325 -1.53002 516.814 -1.53535 516.283C-1.63224 505.803 -1.79862 494.891 -2.0345 483.548C-2.13139 478.808 -2.15666 474.6 -2.11033 470.925C-1.92078 454.926 -1.69753 439.426 -1.44058 424.424C-1.43688 424.216 -1.37752 424.013 -1.26865 423.835C-1.15978 423.658 -1.00535 423.512 -0.821381 423.415L56.8905 392.805C57.3412 393.861 57.7266 395.083 58.0468 396.471C58.3585 397.846 58.6849 399.133 59.0261 400.331C64.342 419.156 69.6557 437.987 74.9673 456.825C75.4939 458.692 76.5301 460.126 78.076 461.127C79.5671 462.093 81.5321 462.156 83.3644 462.37Z" fill="#E5B5A2"/>
<path d="M241.646 429.275C244.754 431.302 248.208 433.081 252.008 434.612L219.576 431.376C219.334 431.35 219.107 431.251 218.923 431.092C218.739 430.934 218.607 430.722 218.546 430.487L214.963 416.362C223.847 421.068 232.741 425.372 241.646 429.275Z" fill="#E5B5A2"/>
<path d="M268.612 437.066L262.376 436.126C265.794 435.237 269.118 433.874 272.517 433.319C274.143 433.05 275.752 432.724 277.344 432.341C277.35 432.341 277.355 432.343 277.36 432.346C277.365 432.348 277.369 432.352 277.371 432.357C277.373 432.361 277.374 432.366 277.372 432.37C277.371 432.374 277.368 432.377 277.363 432.379L268.612 437.066Z" fill="#E5B5A2"/>
<path d="M217.585 405.694C219.767 409.29 222.676 412.747 226.311 416.065C232.271 421.495 237.383 425.898 241.646 429.275C232.741 425.372 223.847 421.068 214.963 416.362L212.834 408.772C213.243 408.92 213.521 408.947 213.668 408.854C214.763 408.169 215.764 407.372 216.669 406.463C216.941 406.192 216.966 405.902 216.973 405.549L217.585 405.694Z" fill="#D4A28A"/>
<path d="M319.893 462.736C322.972 461.264 325.727 460.082 328.157 459.191C329.202 458.812 330.103 458.089 330.861 457.02C331.813 459.329 333.426 461.01 335.701 462.061C338.26 463.241 341.767 462.969 344.522 462.704C357.933 461.443 371.739 459.287 385.938 456.238C390.18 455.33 394.302 454.501 398.303 453.753C406.791 452.167 415.441 450.382 424.253 448.397C436.542 445.633 448.37 441.855 457.487 433.048C469.928 432.385 482.483 433.489 494.955 434.701C499.05 435.1 503.1 435.798 507.106 436.795C509.902 437.493 512.116 438.614 513.746 440.158C514.052 440.448 514.235 440.845 514.256 441.266C514.278 441.686 514.136 442.098 513.86 442.416C513.152 443.24 512.316 443.934 511.351 444.498C505.621 447.835 499.1 449.677 492.725 451.153C484.814 452.979 475.642 454.648 465.209 456.162C452.205 458.051 440.697 459.546 430.685 460.648C414.289 462.446 396.907 464.389 380.163 465.903C370.083 466.811 358.921 467.19 346.676 467.038C337.3 466.921 328.372 465.487 319.893 462.736Z" fill="#D4A28A"/>
<path d="M265.397 463.556L267.899 472.363C264.259 474.007 260.626 475.637 257 477.252C249.828 480.451 242.897 483.889 235.618 487.144C232.756 488.425 230.197 488.999 226.905 488.791C223.986 488.61 221.101 488.338 218.249 487.977C176.807 482.722 135.39 477.328 94.0554 472.073C91.3932 471.736 88.7879 471.356 86.2395 470.931C83.4216 470.458 80.0728 469.537 78.0952 467.379C77.9643 467.235 77.8927 467.048 77.8951 466.854C77.8974 466.661 77.9735 466.476 78.1078 466.338C79.4852 464.925 81.2375 463.602 83.3647 462.37C89.2408 463.199 95.2053 464.015 101.258 464.818C104.927 465.306 109.11 465.806 113.807 466.319C125.428 467.589 135.085 468.754 142.776 469.814C149.002 470.668 154.602 471.362 159.577 471.896C163.233 472.287 166.548 472.689 169.522 473.101C174.823 473.839 180.307 474.401 185.64 475.29C188.382 475.751 191.282 475.763 193.999 476.186C197.86 476.792 201.733 477.057 205.574 477.624C211.926 478.562 218.449 479.441 225.142 480.261C227.421 480.539 229.544 480.205 231.511 479.258C237.937 476.173 244.319 473.593 250.675 470.628C254.428 468.883 258.189 467.15 261.959 465.43C263.354 464.795 264.499 464.17 265.397 463.556Z" fill="#D4A28A"/>
<path d="M223.221 445.949C223.021 445.869 222.844 445.741 222.705 445.576C222.566 445.411 222.47 445.214 222.425 445.003L221.724 441.678C221.714 441.632 221.715 441.584 221.726 441.538C221.738 441.492 221.759 441.449 221.789 441.412C221.818 441.376 221.856 441.347 221.898 441.327C221.941 441.308 221.987 441.298 222.033 441.3C226.738 441.421 231.144 441.853 235.251 442.593C236.793 442.87 236.877 443.381 235.504 444.126C234.704 444.563 233.944 445.015 233.223 445.482C232.482 445.962 231.728 446.212 230.961 446.233C228.682 446.292 226.477 446.281 224.346 446.201C223.967 446.184 223.592 446.1 223.221 445.949Z" fill="#4645CE"/>
<path d="M233.267 447.368C232.947 447.465 232.834 447.351 232.926 447.028C232.981 446.834 233.105 446.674 233.299 446.548C237.286 443.962 239.459 442.485 243.339 443.375C243.512 443.413 243.613 443.518 243.642 443.69C243.651 443.751 243.64 443.813 243.612 443.866C243.583 443.919 243.539 443.962 243.484 443.987C241.77 444.799 239.916 445.608 237.924 446.416C236.427 447.021 234.815 446.92 233.267 447.368Z" fill="#4645CE"/>
<path d="M243.282 447.066C241.614 447.4 240.066 447.987 238.341 447.791C238.274 447.783 238.244 447.745 238.253 447.678L238.272 447.52C238.284 447.415 238.343 447.364 238.449 447.368C238.718 447.377 238.969 447.331 239.201 447.23C240.911 446.477 242.701 445.619 244.571 444.656C246.157 443.842 247.844 443.886 249.55 444.037C249.603 444.042 249.653 444.061 249.696 444.091C249.739 444.122 249.774 444.163 249.796 444.211C249.819 444.259 249.828 444.311 249.824 444.364C249.819 444.417 249.801 444.467 249.771 444.511C249.594 444.763 249.363 444.933 249.076 445.022C248.112 445.324 247.155 445.692 246.208 446.126C245.285 446.55 244.31 446.864 243.282 447.066Z" fill="#4645CE"/>
<path d="M258.813 445.93L256.5 448.649C253.434 448.111 250.116 447.894 246.549 447.999C246.199 448.008 245.934 447.856 245.753 447.545C245.635 447.343 245.687 447.204 245.911 447.129C248.469 446.22 250.864 444.763 253.808 444.744C255.885 444.736 257.553 445.131 258.813 445.93Z" fill="#4645CE"/>
<path d="M255.432 450.346L254.061 453.538C253.947 453.761 253.81 453.864 253.65 453.847C249.657 453.431 245.616 452.926 241.525 452.333C237.836 451.797 234.076 451.967 230.323 451.538C228.861 451.366 227.322 451.345 225.704 451.475C225.068 451.522 224.565 451.33 224.194 450.901C223.857 450.51 223.676 450.016 223.651 449.419C223.617 448.67 223.407 448.022 223.019 447.476C222.808 447.181 222.884 447.038 223.246 447.047C225.639 447.122 227.973 447.221 230.247 447.343C230.376 447.35 230.503 447.382 230.619 447.436C230.735 447.489 230.838 447.565 230.923 447.657C231.007 447.749 231.071 447.856 231.11 447.971C231.149 448.086 231.163 448.207 231.151 448.327C231.134 448.491 231.17 448.643 231.258 448.781C231.389 448.988 231.574 449.08 231.814 449.059C235.234 448.803 238.573 448.739 241.829 448.87C243.13 448.92 245.388 449.194 248.602 449.69C250.86 450.043 253.136 450.262 255.432 450.346Z" fill="#4645CE"/>
<path d="M234.923 454.926C234.573 455.195 234.177 455.345 233.735 455.374C232.172 455.492 230.639 455.645 229.135 455.834C228.229 455.948 227.267 455.946 226.248 455.828C225.878 455.785 225.533 455.62 225.269 455.359C225.004 455.098 224.835 454.757 224.788 454.39C224.716 453.856 224.558 453.353 224.314 452.882C224.137 452.537 224.243 452.369 224.63 452.377C229.318 452.483 233.587 452.703 237.437 453.04C238.128 453.099 238.149 453.25 237.501 453.494C236.553 453.856 235.693 454.333 234.923 454.926Z" fill="#4645CE"/>
<path d="M253.985 454.554L254.01 454.838C253.998 454.892 253.983 454.947 253.966 455.002C253.958 455.023 253.943 455.035 253.922 455.04C252.629 455.233 251.548 455.597 250.681 456.131C249.088 457.115 246.864 459.096 244.912 459.064C241.279 459.014 237.753 458.055 234.051 457.916C233.856 457.908 233.662 457.949 233.488 458.036C233.042 458.263 232.562 458.331 232.048 458.238C231.862 458.204 231.825 458.112 231.934 457.96L232.18 457.632C232.206 457.599 232.239 457.573 232.276 457.555C232.314 457.538 232.354 457.53 232.395 457.531C233.019 457.553 233.484 457.332 233.792 456.869C233.884 456.734 233.998 456.623 234.133 456.535L238.113 453.917C238.225 453.847 238.351 453.807 238.48 453.803C240.236 453.772 241.728 453.79 243.49 454.264C246.152 454.97 248.867 455.193 251.635 454.932C251.841 454.916 252.033 454.852 252.21 454.743C252.736 454.419 253.328 454.356 253.985 454.554Z" fill="#4645CE"/>
<path d="M225.818 457.771L225.477 457.14C225.211 456.648 225.357 456.398 225.913 456.39L232.604 456.251C232.628 456.249 232.652 456.256 232.671 456.27C232.69 456.284 232.702 456.304 232.705 456.327L232.73 456.503C232.76 456.713 232.671 456.842 232.465 456.888C231.332 457.157 230.207 457.544 229.091 458.049C228.276 458.415 227.581 458.339 226.728 458.326C226.315 458.318 226.012 458.133 225.818 457.771Z" fill="#4645CE"/>
<path d="M231.77 459.134C235.582 458.676 239.251 458.93 242.777 459.897C242.836 459.913 242.889 459.946 242.93 459.991C242.971 460.037 242.998 460.093 243.008 460.154C243.018 460.215 243.01 460.278 242.986 460.335C242.962 460.392 242.922 460.442 242.871 460.478C241.624 461.336 240.239 462.099 238.714 462.768C237.425 463.331 236.073 463.554 234.657 463.436C232.164 463.226 229.7 462.757 227.265 462.03C227.012 461.954 226.844 461.79 226.759 461.538L226.071 459.418C225.978 459.123 226.085 458.983 226.393 458.995C227.299 459.033 228.198 459.092 229.091 459.172C229.971 459.256 230.864 459.243 231.77 459.134Z" fill="#4645CE"/>
<path d="M229.217 468.363C229.153 468.4 229.082 468.421 229.008 468.424C228.935 468.427 228.861 468.412 228.795 468.382C228.728 468.351 228.669 468.304 228.624 468.246C228.579 468.188 228.548 468.12 228.535 468.048L227.928 464.742C227.81 464.107 228.072 463.83 228.712 463.91L235.302 464.73C235.597 464.767 235.62 464.868 235.371 465.032C235.114 465.205 234.836 465.327 234.537 465.398C234.344 465.445 234.163 465.516 233.994 465.613L229.217 468.363Z" fill="#4645CE"/>
</g>
<defs>
<clipPath id="clip0_1668_5147">
<rect width="647" height="646" fill="white" transform="translate(-52 0.947021)"/>
</clipPath>
</defs>
</svg>
