<svg width="19" height="18" viewBox="0 0 19 18" fill="none" xmlns="http://www.w3.org/2000/svg">
<g id="Frame" clip-path="url(#clip0_1709_88)">
<path id="Vector" d="M6.55029 5.41125L7.15779 7.03125H5.94279L6.55029 5.41125ZM8.22373 6.71063C8.92404 5.79094 9.93092 5.12437 11.1769 4.77844C10.4428 3.18094 8.80873 2.25 6.55029 2.25C3.42561 2.25 1.48779 4.0275 1.48779 6.89062C1.48779 8.35031 1.99404 9.52594 2.90248 10.3275L1.48779 11.7422L1.90967 12.375C3.05154 12.375 4.10342 11.9925 4.94998 11.3541C5.43936 11.4694 5.97373 11.5312 6.55029 11.5312C6.78092 11.5312 7.00311 11.5172 7.22248 11.5003C7.15217 11.1094 7.11279 10.6987 7.11279 10.2656C7.11279 9.49781 7.23373 8.79469 7.45592 8.15625H5.52092L5.20592 9H4.01904L5.70654 4.5H7.39404L8.22373 6.71063ZM13.3003 10.4963C13.5787 10.2431 13.8178 9.93656 13.9753 9.5625H12.6281C12.7856 9.93656 13.0247 10.2431 13.3031 10.4963H13.3003ZM16.9481 13.7025L18.3628 15.1172L17.9409 15.75C16.799 15.75 15.7472 15.3675 14.9006 14.7291C14.4112 14.8444 13.8769 14.9062 13.3003 14.9062C10.1756 14.9062 8.23779 13.1287 8.23779 10.2656C8.23779 7.4025 10.1756 5.625 13.3003 5.625C16.425 5.625 18.3628 7.4025 18.3628 10.2656C18.3628 11.7253 17.8565 12.9009 16.9481 13.7025ZM15.8315 8.4375H13.8628V7.59375H12.7378V8.4375H10.769V9.5625H11.4694C11.6325 10.1166 11.9419 10.6481 12.375 11.115C11.5987 11.4975 10.8619 11.6044 10.8619 11.6044L11.2556 12.6591C12.0375 12.5184 12.7209 12.2428 13.2975 11.8772C13.874 12.2428 14.5603 12.5212 15.3394 12.6591L15.7331 11.6044C15.7331 11.6044 14.9962 11.4975 14.22 11.115C14.6559 10.6481 14.9625 10.1166 15.1256 9.5625H15.8259V8.4375H15.8315Z" fill="#0A4020"/>
</g>
<defs>
<clipPath id="clip0_1709_88">
<rect width="18" height="18" fill="white" transform="translate(0.925293)"/>
</clipPath>
</defs>
</svg>
