<svg width="44" height="36" viewBox="0 0 44 36" fill="none" xmlns="http://www.w3.org/2000/svg">
<path d="M3.08333 26V7.66667C3.08333 5.33311 3.08333 4.16634 3.53747 3.27504C3.93695 2.49103 4.57436 1.85361 5.35837 1.45414C6.24967 1 7.41645 1 9.75 1H33.9167C36.2502 1 37.417 1 38.3083 1.45414C39.0923 1.85361 39.7297 2.49103 40.1292 3.27504C40.5833 4.16634 40.5833 5.33311 40.5833 7.66667V26H29.464C28.9545 26 28.6997 26 28.4599 26.0576C28.2474 26.1086 28.0441 26.1928 27.8577 26.307C27.6475 26.4358 27.4673 26.616 27.107 26.9763L26.9763 27.107C26.616 27.4673 26.4358 27.6475 26.2256 27.7763C26.0392 27.8906 25.836 27.9747 25.6234 28.0258C25.3836 28.0833 25.1289 28.0833 24.6193 28.0833H19.0474C18.5378 28.0833 18.283 28.0833 18.0433 28.0258C17.8307 27.9747 17.6275 27.8906 17.4411 27.7763C17.2308 27.6475 17.0507 27.4673 16.6904 27.107L16.5596 26.9763C16.1993 26.616 16.0192 26.4358 15.8089 26.307C15.6225 26.1928 15.4193 26.1086 15.2067 26.0576C14.967 26 14.7122 26 14.2026 26H3.08333ZM3.08333 26C1.93274 26 1 26.9327 1 28.0833V28.7778C1 30.0694 1 30.7152 1.14198 31.2451C1.52726 32.683 2.65037 33.8061 4.08825 34.1914C4.61811 34.3333 5.26393 34.3333 6.55555 34.3333H37.1111C38.4027 34.3333 39.0486 34.3333 39.5784 34.1914C41.0163 33.8061 42.1394 32.683 42.5247 31.2451C42.6667 30.7152 42.6667 30.0694 42.6667 28.7778C42.6667 28.132 42.6667 27.8091 42.5957 27.5441C42.403 26.8252 41.8415 26.2636 41.1225 26.071C40.8576 26 40.5347 26 39.8889 26H38.5" stroke="black" stroke-width="2" stroke-linecap="round" stroke-linejoin="round"/>
</svg>
