<svg width="48" height="44" viewBox="0 0 48 44" fill="none" xmlns="http://www.w3.org/2000/svg">
<path d="M28 20.46H16M20 27.6266H16M32 13.2933H16M40 12.935V31.5683C40 34.5786 40 36.0837 39.346 37.2335C38.7708 38.2449 37.8529 39.0671 36.7239 39.5825C35.4405 40.1683 33.7603 40.1683 30.4 40.1683H17.6C14.2397 40.1683 12.5595 40.1683 11.2761 39.5825C10.1471 39.0671 9.2292 38.2449 8.65396 37.2335C8 36.0837 8 34.5786 8 31.5683V12.935C8 9.92468 8 8.41954 8.65396 7.26976C9.2292 6.25839 10.1471 5.43612 11.2761 4.9208C12.5595 4.33496 14.2397 4.33496 17.6 4.33496H30.4C33.7603 4.33496 35.4405 4.33496 36.7239 4.9208C37.8529 5.43612 38.7708 6.25839 39.346 7.26976C40 8.41954 40 9.92468 40 12.935Z" stroke="black" stroke-width="2" stroke-linecap="round" stroke-linejoin="round"/>
</svg>
