<svg width="50" height="51" viewBox="0 0 50 51" fill="none" xmlns="http://www.w3.org/2000/svg">
<path d="M43.75 16.9185H6.25M33.3333 4.41846V10.6685M16.6667 4.41846V10.6685M25 37.7518V25.2518M18.75 31.5018H31.25M16.25 46.0851H33.75C37.2503 46.0851 39.0005 46.0851 40.3374 45.4039C41.5135 44.8047 42.4696 43.8486 43.0688 42.6726C43.75 41.3356 43.75 39.5855 43.75 36.0851V18.5851C43.75 15.0848 43.75 13.3346 43.0688 11.9977C42.4696 10.8217 41.5135 9.86554 40.3374 9.26633C39.0005 8.58512 37.2503 8.58512 33.75 8.58512H16.25C12.7497 8.58512 10.9995 8.58512 9.66256 9.26633C8.48655 9.86554 7.53042 10.8217 6.93121 11.9977C6.25 13.3346 6.25 15.0848 6.25 18.5851V36.0851C6.25 39.5855 6.25 41.3356 6.93121 42.6726C7.53042 43.8486 8.48655 44.8047 9.66256 45.4039C10.9995 46.0851 12.7497 46.0851 16.25 46.0851Z" stroke="black" stroke-width="2" stroke-linecap="round" stroke-linejoin="round"/>
</svg>
