<svg width="161" height="37" viewBox="0 0 161 37" fill="none" xmlns="http://www.w3.org/2000/svg">
<path d="M10.59 17.0059H1.93455C0.866129 17.0059 0 17.872 0 18.9404V35.0647C0 36.1332 0.866129 36.9993 1.93455 36.9993H10.59C11.6584 36.9993 12.5246 36.1332 12.5246 35.0647V18.9404C12.5246 17.872 11.6584 17.0059 10.59 17.0059Z" fill="#B6EC2E"/>
<path d="M29.5305 14.4584V35.0654C29.5305 36.1338 28.6643 37 27.5959 37H18.9397C17.8714 37 17.0052 36.1338 17.0052 35.0654V14.4584C17.0052 13.39 16.139 12.5239 15.0706 12.5239H1.93455C0.866176 12.5246 0 11.6584 0 10.59V1.93455C0 0.866176 0.866176 0 1.93455 0H18.0596C19.1279 0 19.9941 0.866176 19.9941 1.93455V10.5907C19.9941 11.6591 20.8603 12.5253 21.9287 12.5253H27.5973C28.6657 12.5253 29.5318 13.3914 29.5318 14.4598L29.5305 14.4584Z" fill="#F0FDF4"/>
<path d="M151.552 30.4555C145.851 30.4555 141.827 26.6325 141.827 21.0321V20.965C141.827 15.7 145.616 11.4746 150.982 11.4746C157.219 11.4746 160.103 16.0689 160.103 21.401C160.103 21.8034 160.103 22.2729 160.07 22.7089H147.93C148.433 24.721 149.842 25.6935 151.854 25.6935C153.43 25.6935 154.57 25.1569 155.878 23.8491L159.399 26.7666C157.655 29.0135 155.174 30.4555 151.552 30.4555ZM147.829 19.456H154.168C153.933 17.4439 152.726 16.1695 150.982 16.1695C149.271 16.1695 148.198 17.4439 147.829 19.456Z" fill="#F0FDF4"/>
<path d="M133.185 30.4211C130.1 30.4211 127.149 29.5492 124.634 27.7048L127.015 23.8818C129.128 25.2567 131.341 25.961 133.219 25.961C134.326 25.961 134.862 25.6256 134.862 24.9885V24.9214C134.862 24.1501 133.823 23.8818 131.911 23.3452C128.323 22.4398 125.472 21.199 125.472 17.5772V17.5101C125.472 13.6536 128.591 11.5073 132.75 11.5073C135.432 11.5073 138.115 12.2786 140.228 13.62L138.048 17.6443C136.17 16.5711 134.124 15.934 132.682 15.934C131.71 15.934 131.207 16.3028 131.207 16.8394V16.9065C131.207 17.6107 132.28 17.9461 134.158 18.5162C137.746 19.4887 140.597 20.763 140.597 24.2842V24.3513C140.597 28.342 137.612 30.4211 133.185 30.4211Z" fill="#F0FDF4"/>
<path d="M105.392 30.0195V11.877H111.764V14.4257C112.937 12.9166 114.614 11.4746 117.196 11.4746C121.087 11.4746 123.367 13.9897 123.367 18.1481V30.0195H117.029V20.1937C117.029 18.1816 116.023 17.1085 114.447 17.1085C112.87 17.1085 111.764 18.1816 111.764 20.1937V30.0195H105.392Z" fill="#F0FDF4"/>
<path d="M94.7464 30.4555C89.0455 30.4555 85.0212 26.6325 85.0212 21.0321V20.965C85.0212 15.7 88.8107 11.4746 94.1763 11.4746C100.414 11.4746 103.298 16.0689 103.298 21.401C103.298 21.8034 103.298 22.2729 103.264 22.7089H91.1246C91.6277 24.721 93.0361 25.6935 95.0482 25.6935C96.6244 25.6935 97.7646 25.1569 99.0725 23.8491L102.594 26.7666C100.85 29.0135 98.3682 30.4555 94.7464 30.4555ZM91.024 19.456H97.3622C97.1274 17.4439 95.9202 16.1695 94.1763 16.1695C92.466 16.1695 91.3929 17.4439 91.024 19.456Z" fill="#F0FDF4"/>
<path d="M79.6551 30.3879C75.7985 30.3879 73.5852 28.7112 73.5852 24.3852V16.9739H71.439V11.8765H73.5852V7.28223H79.9234V11.8765H84.1488V16.9739H79.9234V23.1444C79.9234 24.4522 80.4935 24.9553 81.6672 24.9553C82.5056 24.9553 83.3104 24.7205 84.0817 24.3516V29.3148C82.908 29.952 81.4324 30.3879 79.6551 30.3879Z" fill="#F0FDF4"/>
<path d="M51.8616 30.0195V11.877H58.2332V14.4257C59.407 12.9166 61.0837 11.4746 63.6659 11.4746C67.556 11.4746 69.8364 13.9897 69.8364 18.1481V30.0195H63.4983V20.1937C63.4983 18.1816 62.4922 17.1085 60.9161 17.1085C59.3399 17.1085 58.2332 18.1816 58.2332 20.1937V30.0195H51.8616Z" fill="#F0FDF4"/>
<path d="M42.0979 30.019V6.54443H48.6037V30.019H42.0979Z" fill="#F0FDF4"/>
</svg>
