<svg width="104" height="24" viewBox="0 0 104 24" fill="none" xmlns="http://www.w3.org/2000/svg">
<path d="M6.8692 11.0308H1.25485C0.561813 11.0308 0 11.5926 0 12.2856V22.7446C0 23.4377 0.561813 23.9995 1.25485 23.9995H6.8692C7.56223 23.9995 8.12405 23.4377 8.12405 22.7446V12.2856C8.12405 11.5926 7.56223 11.0308 6.8692 11.0308Z" fill="#B6EC2E"/>
<path d="M19.1549 9.37844V22.7452C19.1549 23.4382 18.593 24 17.9 24H12.2852C11.5922 24 11.0304 23.4382 11.0304 22.7452V9.37844C11.0304 8.68544 10.4685 8.12359 9.77554 8.12359H1.25485C0.561844 8.12405 0 7.5622 0 6.8692V1.25485C0 0.561844 0.561844 0 1.25485 0H11.7143C12.4073 0 12.9692 0.561844 12.9692 1.25485V6.86966C12.9692 7.56266 13.531 8.1245 14.224 8.1245H17.9009C18.5939 8.1245 19.1558 8.68634 19.1558 9.37935L19.1549 9.37844Z" fill="#154B2C"/>
<path d="M98.3038 19.7548C94.6059 19.7548 91.9956 17.275 91.9956 13.6423V13.5988C91.9956 10.1837 94.4536 7.44287 97.934 7.44287C101.98 7.44287 103.851 10.423 103.851 13.8816C103.851 14.1426 103.851 14.4472 103.829 14.73H95.9546C96.2809 16.0351 97.1945 16.6659 98.4996 16.6659C99.522 16.6659 100.262 16.3179 101.11 15.4696L103.394 17.362C102.263 18.8194 100.653 19.7548 98.3038 19.7548ZM95.8893 12.62H100.001C99.8483 11.3148 99.0652 10.4882 97.934 10.4882C96.8247 10.4882 96.1286 11.3148 95.8893 12.62Z" fill="#154B2C"/>
<path d="M86.3906 19.7328C84.3894 19.7328 82.4752 19.1672 80.8438 17.9708L82.3882 15.491C83.7586 16.3829 85.1943 16.8397 86.4124 16.8397C87.1302 16.8397 87.4783 16.6222 87.4783 16.2089V16.1654C87.4783 15.6651 86.8039 15.491 85.564 15.143C83.2365 14.5557 81.3876 13.7508 81.3876 11.4016V11.3581C81.3876 8.85652 83.4105 7.46436 86.1079 7.46436C87.8481 7.46436 89.5883 7.96466 90.9587 8.83476L89.5448 11.4451C88.3266 10.749 86.9997 10.3357 86.0644 10.3357C85.4335 10.3357 85.1072 10.575 85.1072 10.923V10.9665C85.1072 11.4233 85.8033 11.6408 87.0215 12.0106C89.349 12.6415 91.1979 13.4681 91.1979 15.7521V15.7956C91.1979 18.3841 89.262 19.7328 86.3906 19.7328Z" fill="#154B2C"/>
<path d="M68.3623 19.472V7.7039H72.4953V9.35709C73.2566 8.37823 74.3442 7.44287 76.0192 7.44287C78.5425 7.44287 80.0217 9.07431 80.0217 11.7716V19.472H75.9104V13.0985C75.9104 11.7934 75.2579 11.0973 74.2355 11.0973C73.2131 11.0973 72.4953 11.7934 72.4953 13.0985V19.472H68.3623Z" fill="#154B2C"/>
<path d="M61.4572 19.7548C57.7592 19.7548 55.1489 17.275 55.1489 13.6423V13.5988C55.1489 10.1837 57.607 7.44287 61.0874 7.44287C65.1333 7.44287 67.0041 10.423 67.0041 13.8816C67.0041 14.1426 67.0041 14.4472 66.9823 14.73H59.1079C59.4342 16.0351 60.3478 16.6659 61.6529 16.6659C62.6753 16.6659 63.4149 16.3179 64.2632 15.4696L66.5472 17.362C65.4161 18.8194 63.8064 19.7548 61.4572 19.7548ZM59.0426 12.62H63.1539C63.0016 11.3148 62.2185 10.4882 61.0874 10.4882C59.978 10.4882 59.2819 11.3148 59.0426 12.62Z" fill="#154B2C"/>
<path d="M51.6682 19.7111C49.1667 19.7111 47.731 18.6235 47.731 15.8174V11.0101H46.3389V7.70373H47.731V4.72363H51.8423V7.70373H54.5831V11.0101H51.8423V15.0126C51.8423 15.8609 52.212 16.1872 52.9734 16.1872C53.5172 16.1872 54.0393 16.0349 54.5396 15.7957V19.015C53.7782 19.4283 52.8211 19.7111 51.6682 19.7111Z" fill="#154B2C"/>
<path d="M33.6396 19.472V7.7039H37.7726V9.35709C38.534 8.37823 39.6216 7.44287 41.2965 7.44287C43.8198 7.44287 45.299 9.07431 45.299 11.7716V19.472H41.1878V13.0985C41.1878 11.7934 40.5352 11.0973 39.5128 11.0973C38.4905 11.0973 37.7726 11.7934 37.7726 13.0985V19.472H33.6396Z" fill="#154B2C"/>
<path d="M27.3066 19.4719V4.24512H31.5266V19.4719H27.3066Z" fill="#154B2C"/>
</svg>
