<svg width="353" height="445" viewBox="0 0 353 445" fill="none" xmlns="http://www.w3.org/2000/svg">
<g clip-path="url(#clip0_1668_5602)">
<path d="M256.517 148.292C255.781 146.703 254.613 145.872 253.012 145.798C251.4 145.724 249.77 146.863 248.731 148.006C247.355 149.523 245.448 152.225 243.481 152.442C241.501 152.66 240.458 151.609 240.35 149.288C240.261 147.395 240.262 145.175 240.355 142.63C240.379 141.994 240.31 141.448 240.147 140.994C240.098 140.858 240.004 140.811 239.865 140.851C234.709 142.4 230.523 141.365 227.309 137.748C227.268 137.702 227.217 137.665 227.161 137.639C227.105 137.613 227.044 137.598 226.982 137.597C226.92 137.595 226.859 137.606 226.801 137.629C226.744 137.651 226.692 137.686 226.649 137.729C225.846 138.547 224.928 139.189 223.897 139.656C223.312 139.921 223.34 140.061 223.98 140.076C225.673 140.125 227.32 140.38 228.921 140.841C229.849 141.109 231.184 141.556 231.068 142.778C231.058 142.884 231.027 142.986 230.976 143.08C230.924 143.173 230.855 143.255 230.771 143.32C230.687 143.386 230.591 143.434 230.488 143.461C230.385 143.488 230.278 143.494 230.172 143.479C226.835 142.996 223.544 142.756 220.3 142.759C220.032 142.759 219.852 142.649 219.759 142.427C219.593 142.034 219.598 141.628 219.773 141.21C219.881 140.949 219.793 140.824 219.51 140.837C215.086 140.994 211.18 138.896 208.885 135.083C208.85 135.026 208.802 134.98 208.745 134.948C208.687 134.915 208.623 134.898 208.557 134.898C208.491 134.898 208.426 134.915 208.369 134.948C208.311 134.98 208.263 135.026 208.229 135.083C206.516 137.904 202.198 137.794 199.732 136.328C199.007 135.899 198.107 135.936 197.543 136.613C192.778 138.891 187.68 137.227 184.812 133.165C182.933 130.5 182.462 126.535 183.413 123.376C185.288 117.161 191.397 113.851 197.682 115.013C197.845 115.043 197.94 114.977 197.968 114.814C198.767 109.927 202.946 106.008 207.624 104.828C212.974 103.472 217.674 104.422 221.722 107.677C221.827 107.76 221.916 107.746 221.99 107.636C225.587 102.117 232.44 100 238.641 101.596C243.927 102.957 247.351 106.219 248.911 111.379C248.948 111.502 249.021 111.611 249.119 111.692C249.218 111.774 249.339 111.824 249.466 111.836C251.913 112.088 254.046 112.996 255.866 114.561C261.024 119.001 261.961 125.622 259.038 131.8C258.964 131.958 258.949 132.138 258.997 132.307C259.121 132.759 259.435 133.142 259.634 133.566C261.897 138.384 261.051 144.581 257.177 148.398C257.042 148.53 256.822 148.495 256.517 148.292Z" fill="#20243B"/>
<path d="M197.456 140.915C197.388 140.11 197.471 139.486 197.705 139.043C200.49 137.969 203.847 137.434 206.774 138.273C207.673 138.528 208.143 139.123 208.183 140.058L208.201 140.491C208.238 141.361 207.829 141.713 206.973 141.547C204.569 141.077 202.951 140.863 202.12 140.906C200.617 140.983 199.063 140.986 197.456 140.915Z" fill="#20243B"/>
<path d="M224.225 144.854L223.93 144.841C223.018 144.798 222.244 145.501 222.201 146.412L222.004 150.566C221.961 151.476 222.666 152.249 223.578 152.292L223.873 152.306C224.785 152.349 225.559 151.646 225.602 150.735L225.799 146.581C225.842 145.67 225.137 144.897 224.225 144.854Z" fill="#20243B"/>
<path d="M204.587 145.076L204.07 145.052C203.237 145.014 202.531 145.658 202.493 146.49L202.294 150.865C202.256 151.697 202.901 152.402 203.734 152.44L204.251 152.463C205.084 152.501 205.79 151.857 205.828 151.026L206.027 146.65C206.065 145.818 205.42 145.113 204.587 145.076Z" fill="#20243B"/>
<path d="M76.3916 244.327L75.6389 244.405L75.4173 236.139C75.4142 235.982 75.3526 235.853 75.2326 235.751C65.6553 227.661 55.8672 219.849 45.8682 212.315C45.8453 212.298 45.8285 212.273 45.8202 212.246C45.812 212.219 45.8126 212.19 45.822 212.163L45.8636 212.043C45.9221 211.88 46.0221 211.848 46.1637 211.947C48.291 213.382 50.2781 214.808 52.1253 216.225C60.4865 222.646 67.8349 228.628 74.1705 234.17C74.4722 234.434 74.7739 234.714 75.0756 235.009C75.3126 235.239 75.4142 235.19 75.3803 234.861C75.1171 232.072 75.1171 229.333 74.7708 226.479C74.0843 220.867 73.5517 217.027 73.173 214.962C71.6615 206.697 69.6882 199.272 67.2531 192.688C65.3382 187.509 62.7738 182.337 59.5599 177.173C59.5478 177.154 59.5397 177.133 59.5362 177.111C59.5327 177.089 59.5338 177.066 59.5394 177.044C59.545 177.022 59.555 177.002 59.5688 176.983C59.5827 176.965 59.6 176.95 59.6199 176.938L59.7307 176.869C59.802 176.828 59.8863 176.817 59.9657 176.838C60.0451 176.858 60.1133 176.909 60.1556 176.98C60.8051 178.083 61.4547 179.12 62.1042 180.092C62.6076 180.839 62.8523 181.701 63.388 182.448C63.6004 182.746 63.7774 183.056 63.919 183.379C64.7779 185.316 65.8123 187.16 66.662 189.106C67.7518 191.592 68.6445 194.022 69.3403 196.395C69.6112 197.323 69.896 198.19 70.1946 198.995C70.5394 199.939 70.8411 200.887 71.0997 201.84C73.2762 209.89 74.7031 218.332 75.3803 227.166C75.4203 227.686 75.5697 227.72 75.8282 227.268C80.7323 218.664 86.4183 210.503 92.8863 202.785C95.0351 200.219 97.344 197.813 99.8129 195.57C99.8683 195.517 99.9238 195.52 99.9792 195.579L100.058 195.662C100.162 195.772 100.161 195.88 100.053 195.985C97.0561 198.885 94.3732 201.743 91.8842 204.892C86.0043 212.334 80.7231 220.047 76.0407 228.033C75.7267 228.571 75.5881 229.126 75.6251 229.698C75.8236 232.893 76.2208 236.143 76.2531 239.467C76.2654 241.081 76.3116 242.701 76.3916 244.327Z" fill="#20243B"/>
<path d="M256.517 148.292C257.161 149.973 257.402 151.518 257.242 152.926C256.971 155.302 255.909 157.283 254.056 158.869C251.815 160.793 249.261 161.183 246.395 160.04C246.238 159.979 246.083 159.975 245.929 160.031C245.722 160.108 245.584 160.278 245.513 160.543C245.264 160.266 244.974 160.066 244.645 159.943C244.491 159.885 244.422 159.937 244.437 160.1C244.542 161.299 244.987 162.198 245.772 162.797L245.873 169.386L246.298 181.41C246.316 181.947 246.184 182.48 245.915 182.95L240.059 193.103C237.283 194.569 234.903 195.643 232.92 196.326C229.231 197.603 224.918 197.571 221.422 195.791C219.239 194.678 217.477 193.074 216.135 190.977L215.77 188.354C216.395 188.941 217.773 189.112 219.903 188.866C223.4 188.466 226.482 187.507 229.148 185.989C235.645 182.291 240.286 177.164 243.975 170.792C244.456 169.959 244.79 169.058 244.977 168.09C244.993 168.007 244.97 167.935 244.908 167.873C244.865 167.834 244.814 167.818 244.756 167.827C244.657 167.843 244.586 167.893 244.543 167.98C240.143 176.173 230.034 178.948 221.399 179.211C219.035 179.285 216.64 179.263 214.214 179.146L206.909 177.934C206.909 177.756 206.665 177.72 206.179 177.828L206.23 177.717C206.27 177.631 206.253 177.554 206.179 177.487C206.114 177.428 206.028 177.382 205.92 177.348C201.891 175.39 199.368 172.146 198.352 167.615C197.825 165.27 197.551 162.977 197.53 160.736C197.468 154.109 197.444 147.502 197.456 140.915C199.063 140.986 200.618 140.983 202.12 140.906C202.951 140.863 204.569 141.076 206.973 141.547C207.829 141.713 208.238 141.361 208.201 140.491L208.183 140.058C208.143 139.123 207.674 138.528 206.775 138.273C203.847 137.434 200.49 137.969 197.705 139.043L197.544 136.613C198.107 135.936 199.008 135.899 199.733 136.328C202.198 137.794 206.516 137.904 208.229 135.083C208.263 135.026 208.311 134.98 208.369 134.947C208.426 134.915 208.491 134.898 208.557 134.898C208.623 134.898 208.688 134.915 208.745 134.947C208.803 134.98 208.851 135.026 208.885 135.083C211.18 138.896 215.087 140.994 219.51 140.837C219.794 140.824 219.881 140.949 219.774 141.21C219.598 141.628 219.594 142.034 219.76 142.427C219.852 142.649 220.032 142.759 220.3 142.759C223.545 142.756 226.836 142.996 230.173 143.479C230.278 143.494 230.386 143.488 230.488 143.461C230.591 143.434 230.688 143.386 230.771 143.32C230.855 143.255 230.925 143.173 230.976 143.079C231.027 142.986 231.059 142.884 231.069 142.778C231.184 141.556 229.85 141.109 228.921 140.841C227.321 140.38 225.674 140.125 223.98 140.076C223.34 140.061 223.312 139.921 223.897 139.656C224.929 139.189 225.846 138.547 226.649 137.729C226.693 137.686 226.745 137.651 226.802 137.628C226.859 137.606 226.92 137.595 226.982 137.596C227.044 137.598 227.105 137.613 227.161 137.638C227.218 137.664 227.268 137.702 227.31 137.748C230.524 141.365 234.709 142.4 239.866 140.851C240.004 140.811 240.098 140.858 240.147 140.994C240.31 141.448 240.38 141.994 240.355 142.63C240.263 145.175 240.261 147.395 240.35 149.288C240.458 151.609 241.502 152.66 243.481 152.442C245.448 152.225 247.356 149.523 248.732 148.006C249.771 146.863 251.401 145.724 253.012 145.798C254.613 145.872 255.781 146.703 256.517 148.292ZM225.799 146.581C225.82 146.144 225.665 145.716 225.37 145.392C225.075 145.069 224.663 144.875 224.225 144.854L223.93 144.841C223.492 144.82 223.064 144.974 222.74 145.269C222.416 145.563 222.222 145.974 222.201 146.412L222.005 150.566C221.984 151.003 222.138 151.431 222.433 151.754C222.729 152.078 223.14 152.272 223.578 152.292L223.874 152.306C224.311 152.327 224.74 152.173 225.064 151.878C225.388 151.584 225.582 151.172 225.603 150.735L225.799 146.581ZM206.027 146.65C206.045 146.251 205.904 145.86 205.634 145.565C205.364 145.27 204.987 145.094 204.587 145.076L204.071 145.052C203.671 145.034 203.28 145.175 202.984 145.445C202.688 145.715 202.512 146.09 202.494 146.49L202.295 150.866C202.277 151.265 202.418 151.655 202.688 151.951C202.958 152.246 203.335 152.422 203.735 152.44L204.251 152.463C204.651 152.482 205.042 152.34 205.338 152.071C205.634 151.801 205.81 151.425 205.828 151.026L206.027 146.65ZM212.468 159.565C212.671 156.119 212.935 152.645 213.258 149.14C213.369 147.957 213.449 146.744 213.498 145.503C213.499 145.479 213.496 145.454 213.487 145.432C213.478 145.409 213.465 145.389 213.447 145.371C213.43 145.354 213.409 145.34 213.386 145.331C213.363 145.322 213.338 145.318 213.313 145.318L213.193 145.323C212.99 145.329 212.879 145.432 212.861 145.632C212.418 150.239 212.059 154.847 211.785 159.454C211.651 161.691 214.472 161.612 215.844 161.151C215.961 161.114 216.026 161.034 216.038 160.911C216.05 160.745 215.975 160.67 215.812 160.686C214.888 160.773 212.367 161.253 212.468 159.565ZM246.52 153.461C246.494 153.466 246.468 153.463 246.444 153.453C246.42 153.442 246.4 153.425 246.386 153.403C246.372 153.381 246.365 153.356 246.366 153.33C246.366 153.304 246.375 153.279 246.39 153.258C247.416 151.749 248.656 150.505 250.112 149.528C250.514 149.256 250.897 148.809 251.165 148.403C251.488 147.911 251.384 147.791 250.851 148.043C250.211 148.347 249.558 148.839 248.893 149.519C248.875 149.537 248.852 149.549 248.824 149.555C248.778 149.565 248.73 149.575 248.681 149.588C248.595 149.609 248.521 149.654 248.459 149.721C247.54 150.74 245.448 152.672 245.333 153.972C245.318 154.154 245.402 154.244 245.587 154.244L249.092 154.198C249.203 154.198 249.238 154.251 249.198 154.355C248.662 155.738 247.928 157.031 246.995 158.233C246.965 158.273 246.957 158.317 246.972 158.366C246.988 158.422 247.02 158.455 247.069 158.468C247.199 158.499 247.312 158.469 247.411 158.38C248.464 157.467 248.893 156.066 249.364 154.798C249.614 154.115 250.214 153.848 250.246 153.041C250.249 152.961 250.231 152.882 250.195 152.81C250.16 152.739 250.107 152.677 250.041 152.631C249.976 152.585 249.9 152.556 249.821 152.546C249.741 152.536 249.661 152.546 249.586 152.575C248.564 152.978 247.542 153.273 246.52 153.461ZM218.841 164.886C216.433 166.659 214.061 166.675 211.725 164.932C211.706 164.918 211.684 164.909 211.661 164.905C211.638 164.901 211.614 164.902 211.592 164.909C211.57 164.916 211.55 164.928 211.534 164.944C211.517 164.96 211.505 164.979 211.499 165.001L211.452 165.149C211.439 165.192 211.439 165.239 211.453 165.282C211.467 165.326 211.494 165.365 211.531 165.393C214.052 167.348 216.557 167.323 219.044 165.319C219.07 165.299 219.09 165.271 219.101 165.239C219.111 165.207 219.113 165.172 219.104 165.139L219.058 164.96C219.021 164.83 218.949 164.806 218.841 164.886Z" fill="#F08F7F"/>
<path d="M187.218 280.922C188.881 282.32 190.545 283.692 192.21 285.039C194.448 286.846 196.092 288.325 197.142 289.474C199.306 291.847 201.253 294.632 202.983 297.829C204.433 300.507 205.791 303.26 206.474 306.137C207.269 309.471 207.375 312.933 204.11 314.925C204.036 314.968 204.019 315.026 204.059 315.1L204.115 315.202C204.121 315.22 204.133 315.225 204.152 315.215C207.435 313.643 210.626 312.2 214.177 310.918C217.923 309.566 221.607 308.075 225.227 306.446C225.858 306.04 226.017 305.49 225.703 304.795C227.02 304.531 228.121 304.534 229.004 304.805C228.613 305.76 227.989 306.623 227.13 307.391C227.094 307.424 227.067 307.465 227.05 307.511C227.034 307.557 227.029 307.606 227.036 307.654C227.043 307.702 227.061 307.747 227.089 307.787C227.118 307.826 227.155 307.858 227.199 307.88C230.785 309.61 233.776 312.269 236.171 315.856C238.374 319.153 240.23 322.685 240.263 326.77C240.276 328.95 240.203 331.159 241.454 333.086C241.537 333.215 241.654 333.288 241.805 333.303L242.631 333.386C242.321 333.284 242.047 333.397 241.81 333.722C241.255 334.503 240.597 335.032 239.833 335.308C238.057 335.96 236.043 336.824 233.793 337.9C229.434 339.698 224.792 341.631 219.866 343.7C217.991 344.487 215.288 345.412 211.757 346.475C207.906 347.637 204.176 348.146 200.568 348.002C198.299 347.909 196.708 346.887 195.793 344.935L193.965 338.499C194.146 336.507 194.111 334.735 193.859 333.183C195.706 331.732 197.257 330.569 198.513 329.693C202.026 327.24 205.936 324.978 210.242 322.906C210.312 322.873 210.368 322.818 210.403 322.75C210.438 322.681 210.45 322.603 210.436 322.528L210.418 322.399C210.414 322.374 210.404 322.351 210.389 322.332C210.375 322.312 210.356 322.295 210.335 322.284C210.314 322.272 210.29 322.266 210.266 322.265C210.242 322.264 210.218 322.269 210.196 322.279C204.19 325.024 198.626 328.506 193.503 332.727C193.438 332.782 193.4 332.842 193.388 332.906C193.366 333.008 193.383 333.082 193.438 333.128C192.921 333.418 192.464 333.759 191.864 333.842C190.161 334.07 188.577 334.002 187.112 333.639C186.373 333.455 185.884 332.951 185.644 332.127L185.625 331.92C185.711 331.665 185.73 331.417 185.681 331.177L186.683 328.844L187.463 327.604L189.153 325.617C191.203 323.634 193.509 321.623 196.071 319.582C196.141 319.526 196.194 319.46 196.228 319.383C196.264 319.294 196.294 319.213 196.315 319.139L202.711 315.713C202.714 315.712 202.717 315.71 202.718 315.707C202.719 315.704 202.718 315.7 202.717 315.697C202.715 315.694 202.712 315.691 202.709 315.689C202.705 315.687 202.701 315.686 202.697 315.686C201.533 315.965 200.357 316.204 199.169 316.4C196.685 316.806 194.256 317.802 191.758 318.452L184.18 317.345C181.403 316.227 178.879 314.926 176.607 313.445C173.491 310.977 169.755 307.758 165.399 303.79C162.743 301.365 160.617 298.838 159.022 296.21C159.053 296.044 159.099 295.898 159.161 295.772C160.454 293.187 162.187 290.936 164.36 289.018C167.959 285.846 171.422 283.582 174.75 282.226C177.629 281.055 180.57 279.772 183.575 278.376L187.218 280.922ZM194.551 299.392C191.5 295.414 188.267 291.979 184.849 289.087C184.498 288.787 184.244 288.308 183.732 288.239C183.372 288.189 183.304 288.308 183.529 288.594C183.984 289.175 184.5 289.706 185.076 290.189C187.378 292.104 189.503 294.217 191.448 296.529C195.401 301.216 198.547 305.979 200.887 310.817C200.904 310.851 200.934 310.878 200.97 310.891C201.006 310.904 201.046 310.902 201.081 310.886L201.224 310.817C201.269 310.795 201.304 310.756 201.322 310.709C201.339 310.661 201.337 310.609 201.316 310.563C199.672 306.853 197.417 303.129 194.551 299.392ZM176.828 291.826C184.869 297.819 191.005 305.39 195.235 314.538C195.45 315.002 195.553 314.979 195.544 314.468C195.538 314.09 195.463 313.743 195.318 313.426C192.72 307.841 189.429 302.936 185.445 298.709C183.272 296.398 180.516 293.945 177.179 291.351C177.148 291.327 177.109 291.314 177.07 291.314C177.031 291.314 176.993 291.327 176.962 291.351L176.824 291.466C176.67 291.589 176.671 291.709 176.828 291.826ZM186.124 310.402C184.228 307.715 182.637 305.613 181.354 304.095C178.817 301.095 175.751 298.053 172.155 294.97C172.113 294.932 172.058 294.912 172.001 294.914C171.944 294.916 171.89 294.939 171.85 294.979L171.758 295.067C171.746 295.08 171.736 295.094 171.73 295.111C171.723 295.127 171.72 295.144 171.72 295.162C171.721 295.179 171.725 295.196 171.732 295.211C171.739 295.227 171.75 295.24 171.763 295.251C178.2 300.807 183.704 307.225 187.883 314.639C188.022 314.885 188.113 315.016 188.156 315.031C188.679 315.243 188.815 315.097 188.562 314.593C187.837 313.15 187.052 311.721 186.124 310.402ZM196.232 339.412C195.773 339.925 195.307 340.425 194.833 340.91C194.819 340.925 194.808 340.943 194.801 340.962C194.794 340.982 194.79 341.002 194.791 341.022C194.792 341.042 194.797 341.062 194.806 341.08C194.815 341.098 194.827 341.114 194.842 341.127L194.962 341.224C195.024 341.275 195.104 341.3 195.185 341.294C195.265 341.288 195.341 341.252 195.396 341.192C196.289 340.205 197.242 339.201 198.255 338.181C199.948 336.478 201.769 335 203.718 333.745C207.166 331.532 210.84 329.476 214.74 327.576C214.94 327.478 215.037 327.321 215.031 327.106C215.028 326.928 214.945 326.876 214.782 326.949C207.666 330.158 201.104 333.976 196.232 339.412ZM200.614 344.525L200.725 344.571C200.802 344.601 200.886 344.609 200.967 344.593C201.049 344.576 201.123 344.537 201.182 344.479C206.391 339.503 212.317 335.405 218.961 332.187C219.05 332.145 219.124 332.076 219.173 331.99C219.222 331.905 219.243 331.806 219.233 331.708L219.219 331.551C219.217 331.523 219.208 331.496 219.192 331.472C219.177 331.448 219.156 331.429 219.132 331.415C219.108 331.401 219.08 331.393 219.052 331.391C219.024 331.39 218.996 331.396 218.97 331.408C212.157 334.605 206.011 338.842 200.531 344.119C200.35 344.298 200.377 344.433 200.614 344.525Z" fill="#F08F7F"/>
<path d="M98.3124 303.159L85.2949 302.144C85.2292 302.14 85.1666 302.114 85.1161 302.072C85.0655 302.03 85.0295 301.973 85.0132 301.909L82.261 291.083C82.2482 291.035 82.2473 290.984 82.2585 290.934C82.2697 290.885 82.2925 290.84 82.3251 290.801C82.3578 290.763 82.3992 290.733 82.4459 290.714C82.4926 290.694 82.5433 290.687 82.5935 290.692L95.6064 291.706C95.6721 291.711 95.7347 291.736 95.7852 291.778C95.8358 291.82 95.8718 291.877 95.8881 291.941L98.6449 302.767C98.6577 302.815 98.6586 302.867 98.6474 302.916C98.6363 302.965 98.6134 303.011 98.5808 303.049C98.5482 303.088 98.5067 303.118 98.46 303.137C98.4133 303.156 98.3627 303.163 98.3124 303.159Z" fill="#F08F7F"/>
<path d="M212.468 159.565C212.367 161.253 214.888 160.773 215.812 160.685C215.975 160.67 216.05 160.745 216.038 160.911C216.026 161.034 215.961 161.114 215.844 161.151C214.472 161.612 211.651 161.691 211.785 159.454C212.059 154.847 212.418 150.239 212.861 145.632C212.879 145.432 212.99 145.329 213.193 145.323L213.313 145.318C213.338 145.318 213.363 145.322 213.386 145.331C213.409 145.34 213.43 145.354 213.447 145.371C213.465 145.388 213.478 145.409 213.487 145.432C213.496 145.454 213.499 145.478 213.498 145.503C213.449 146.744 213.369 147.957 213.258 149.14C212.935 152.644 212.671 156.119 212.468 159.565Z" fill="#C91A34"/>
<path d="M246.52 153.461C247.542 153.273 248.564 152.978 249.586 152.575C249.66 152.546 249.741 152.536 249.821 152.546C249.9 152.556 249.976 152.585 250.041 152.631C250.107 152.677 250.16 152.739 250.195 152.81C250.231 152.882 250.249 152.961 250.246 153.041C250.214 153.848 249.613 154.115 249.364 154.798C248.893 156.066 248.464 157.467 247.411 158.38C247.312 158.469 247.198 158.498 247.069 158.468C247.02 158.455 246.988 158.422 246.972 158.366C246.957 158.317 246.964 158.272 246.995 158.233C247.928 157.031 248.662 155.738 249.198 154.355C249.238 154.25 249.202 154.198 249.092 154.198L245.587 154.244C245.402 154.244 245.317 154.154 245.333 153.972C245.448 152.672 247.54 150.74 248.459 149.721C248.521 149.654 248.595 149.609 248.681 149.588C248.73 149.575 248.778 149.565 248.824 149.555C248.852 149.549 248.875 149.537 248.893 149.518C249.558 148.839 250.211 148.347 250.851 148.043C251.384 147.791 251.488 147.911 251.165 148.403C250.897 148.808 250.514 149.256 250.112 149.528C248.656 150.505 247.415 151.748 246.39 153.258C246.375 153.279 246.366 153.304 246.365 153.33C246.365 153.356 246.372 153.381 246.386 153.403C246.4 153.425 246.42 153.442 246.444 153.452C246.468 153.463 246.494 153.466 246.52 153.461Z" fill="#C91A34"/>
<path d="M245.513 160.543C245.879 161.182 245.966 161.933 245.772 162.797C244.987 162.198 244.542 161.299 244.437 160.1C244.422 159.937 244.491 159.885 244.645 159.943C244.974 160.066 245.264 160.266 245.513 160.543Z" fill="#C91A34"/>
<path d="M218.841 164.886C218.949 164.806 219.021 164.83 219.058 164.96L219.104 165.139C219.112 165.172 219.111 165.207 219.101 165.239C219.09 165.271 219.07 165.299 219.044 165.319C216.557 167.323 214.052 167.348 211.531 165.393C211.494 165.365 211.467 165.326 211.453 165.282C211.439 165.239 211.439 165.192 211.452 165.149L211.499 165.001C211.505 164.979 211.517 164.96 211.534 164.944C211.55 164.928 211.57 164.916 211.592 164.909C211.614 164.902 211.638 164.901 211.661 164.905C211.684 164.909 211.706 164.918 211.725 164.932C214.061 166.675 216.433 166.659 218.841 164.886Z" fill="#C91A34"/>
<path d="M266.667 177.293C266.793 177.674 266.801 177.98 266.69 178.211C263.573 188.418 260.512 198.447 255.806 208.11C253.356 213.148 250.256 217.687 246.506 221.726C245.465 222.851 244.274 223.871 242.932 224.787C242.83 224.857 242.713 224.902 242.59 224.919C242.468 224.936 242.343 224.924 242.226 224.884C242.109 224.844 242.003 224.777 241.916 224.689C241.829 224.601 241.764 224.494 241.727 224.377C239.824 218.512 238.549 213.546 232.657 210.277C232.628 210.261 232.603 210.238 232.584 210.211C232.565 210.183 232.552 210.152 232.548 210.119C232.543 210.086 232.547 210.053 232.558 210.022C232.569 209.991 232.587 209.963 232.611 209.941L232.717 209.844C232.89 209.678 233.079 209.655 233.285 209.775C238.397 212.703 240.567 217.415 241.99 222.947C242.07 223.264 242.193 223.575 242.359 223.879C242.391 223.937 242.435 223.988 242.489 224.026C242.543 224.065 242.606 224.09 242.671 224.101C242.737 224.112 242.804 224.107 242.868 224.088C242.931 224.068 242.989 224.035 243.038 223.989C246.534 220.744 249.595 217.378 252.043 213.339C258.724 202.315 262.262 190.401 265.951 177.809C266.062 177.434 266.301 177.262 266.667 177.293Z" fill="#C91A34"/>
<path d="M206.909 177.934C203.667 181.109 200.769 184.22 198.213 187.266C193.808 192.522 190.409 198.612 190.105 205.57C189.877 210.774 190.368 215.733 191.578 220.448C191.735 221.06 191.924 221.071 192.146 220.481C193.831 215.948 195.447 211.753 199.285 208.751C199.716 208.416 200.171 208.147 200.652 207.944C200.675 207.934 200.701 207.93 200.727 207.93C200.753 207.931 200.778 207.937 200.801 207.949C200.825 207.96 200.846 207.976 200.863 207.996C200.88 208.016 200.893 208.039 200.901 208.064L200.947 208.216C200.99 208.358 200.947 208.462 200.818 208.53C198.19 209.867 196.408 212.606 195.11 215.252C193.953 217.616 192.957 220.038 192.123 222.519C192.1 222.584 192.061 222.643 192.009 222.689C191.957 222.734 191.894 222.764 191.827 222.777C191.559 222.826 191.388 222.72 191.314 222.459C189.981 217.817 189.31 212.819 189.301 207.465C189.286 201.327 191.144 195.669 194.875 190.493C198.273 185.776 201.607 182.3 205.385 178.399C205.616 178.16 205.88 177.969 206.179 177.828C206.665 177.72 206.909 177.755 206.909 177.934Z" fill="#C91A34"/>
<path d="M176.154 252.898C175.434 246.652 174.201 240.689 172.455 235.009C172.449 234.987 172.447 234.963 172.452 234.941C172.456 234.918 172.465 234.897 172.479 234.878C172.493 234.86 172.511 234.845 172.532 234.835C172.552 234.825 172.575 234.819 172.598 234.82L172.737 234.824C172.931 234.83 173.059 234.926 173.12 235.11C176.403 244.76 177.613 255.217 177.997 265.808C178.003 265.986 177.92 266.054 177.747 266.011L177.613 265.978C177.388 265.923 177.27 265.782 177.258 265.554C176.999 261.257 176.631 257.038 176.154 252.898Z" fill="#C91A34"/>
<path d="M180.851 276.288C179.123 275.71 176.984 275.596 174.432 275.947C167.33 276.924 161.077 279.408 155.674 283.397C155.117 283.806 154.571 284.295 154.035 284.864C153.54 285.389 153.036 285.929 152.525 286.482C152.282 286.027 152.257 285.689 152.451 285.468C153.033 284.739 153.478 284.244 153.786 283.983C159.937 278.782 167.598 275.901 175.494 275.066C176.778 274.931 178.101 274.971 179.465 275.186C180.112 275.287 180.373 275.017 180.25 274.374C179.765 271.806 178.408 269.685 177.05 267.505C176.142 266.045 175.134 264.609 174.025 263.198C169.685 257.678 165.272 252.998 160.786 249.159C156.284 245.309 151.011 243.479 145.04 244.507C141.909 245.048 138.918 245.852 136.067 246.918C135.664 247.072 135.453 247.147 135.435 247.144C134.505 247.027 134.474 246.794 135.342 246.443C138.135 245.306 141.125 244.431 144.315 243.82C151.717 242.4 157.415 244.954 162.675 249.8C165.181 252.108 167.653 254.599 170.091 257.274C173.367 260.861 176.508 265.245 179.516 270.428C180.692 272.453 181.137 274.407 180.851 276.288Z" fill="#C91A34"/>
<path d="M239.986 294.869C244.569 292.901 249.321 291.418 254.241 290.419L265.185 288.225C265.245 288.213 265.301 288.188 265.349 288.15C265.397 288.112 265.436 288.064 265.462 288.008C271.234 275.738 277.256 263.607 283.526 251.616C283.567 251.541 283.632 251.483 283.71 251.451C283.789 251.419 283.876 251.415 283.956 251.441L284.085 251.483C284.11 251.49 284.132 251.503 284.151 251.521C284.17 251.538 284.185 251.56 284.194 251.583C284.204 251.607 284.208 251.633 284.207 251.658C284.206 251.684 284.199 251.709 284.187 251.732C281.21 257.652 278.219 263.593 275.215 269.556C272.296 275.353 269.373 281.381 266.445 287.639C266.421 287.693 266.411 287.752 266.417 287.811C266.423 287.87 266.445 287.926 266.481 287.973C266.516 288.02 266.564 288.057 266.619 288.079C266.673 288.102 266.733 288.109 266.792 288.1C273.915 287.034 281.098 286.851 288.338 287.552C294.9 288.188 301.61 290.106 307.243 293.333C311.184 295.589 314.961 298.373 318.575 301.683C318.751 301.843 318.783 302.026 318.672 302.232L318.612 302.338C318.597 302.366 318.576 302.39 318.551 302.408C318.525 302.427 318.495 302.439 318.464 302.444C318.433 302.45 318.401 302.448 318.371 302.439C318.34 302.43 318.312 302.414 318.289 302.393C313.517 297.998 308.624 294.657 303.609 292.37C291.681 286.924 277.597 287.15 264.792 289.115C259.232 289.966 253.714 291.186 248.238 292.775C247.108 293.104 245.881 293.488 244.557 293.928C243.064 294.426 241.54 294.739 239.986 294.869Z" fill="#C91A34"/>
<path d="M194.551 299.391C197.417 303.129 199.672 306.853 201.316 310.563C201.337 310.609 201.339 310.661 201.322 310.709C201.304 310.756 201.269 310.795 201.224 310.817L201.081 310.886C201.046 310.902 201.006 310.903 200.97 310.89C200.934 310.878 200.904 310.851 200.887 310.817C198.547 305.979 195.401 301.216 191.448 296.528C189.503 294.217 187.378 292.104 185.076 290.189C184.5 289.706 183.984 289.174 183.529 288.593C183.304 288.308 183.372 288.189 183.732 288.238C184.244 288.308 184.498 288.787 184.849 289.087C188.267 291.979 191.5 295.414 194.551 299.391Z" fill="#C91A34"/>
<path d="M157.147 295.155L155.545 297.4L153.947 290.987L156.958 294.551C157.02 294.625 157.053 294.72 157.05 294.818C157.05 294.929 157.083 295.041 157.147 295.155Z" fill="#C91A34"/>
<path d="M176.828 291.825C176.671 291.709 176.67 291.589 176.824 291.466L176.962 291.351C176.993 291.327 177.031 291.314 177.07 291.314C177.109 291.314 177.148 291.327 177.179 291.351C180.516 293.945 183.272 296.398 185.445 298.709C189.429 302.936 192.72 307.841 195.318 313.426C195.463 313.743 195.538 314.09 195.544 314.468C195.553 314.979 195.45 315.002 195.235 314.537C191.005 305.39 184.869 297.819 176.828 291.825Z" fill="#C91A34"/>
<path d="M186.124 310.402C187.052 311.72 187.837 313.15 188.562 314.593C188.815 315.097 188.679 315.243 188.156 315.031C188.113 315.016 188.022 314.885 187.883 314.639C183.704 307.225 178.2 300.807 171.763 295.251C171.75 295.24 171.739 295.227 171.732 295.211C171.725 295.196 171.721 295.179 171.72 295.162C171.72 295.144 171.723 295.127 171.73 295.111C171.736 295.094 171.746 295.079 171.758 295.067L171.85 294.979C171.89 294.939 171.944 294.916 172.001 294.914C172.058 294.912 172.113 294.932 172.155 294.97C175.751 298.053 178.817 301.095 181.354 304.094C182.637 305.613 184.228 307.715 186.124 310.402Z" fill="#C91A34"/>
<path d="M242.876 333.598C244.431 332.282 245.45 331.505 245.933 331.265C246.761 330.853 247.551 330.421 248.302 329.969C248.807 329.665 248.947 329.241 248.722 328.697C245.204 320.235 239.861 313.013 232.694 307.031C231.58 306.1 230.35 305.358 229.005 304.804C228.121 304.534 227.02 304.531 225.703 304.795C226.232 304.134 226.956 303.825 227.873 303.868C230.556 303.993 234.32 307.303 236.199 309.129C242.521 315.257 248.358 323.178 250.477 331.671C250.757 332.783 250.82 333.877 250.667 334.953C250.348 337.189 247.194 337.568 245.642 336.871C244.374 336.303 243.452 335.211 242.876 333.598Z" fill="#C91A34"/>
<path d="M193.859 333.183L193.439 333.128C193.383 333.081 193.366 333.008 193.388 332.906C193.4 332.842 193.439 332.782 193.503 332.726C198.626 328.506 204.19 325.024 210.196 322.279C210.218 322.269 210.242 322.264 210.266 322.265C210.29 322.265 210.314 322.272 210.335 322.283C210.357 322.295 210.375 322.311 210.389 322.331C210.404 322.351 210.414 322.374 210.418 322.399L210.437 322.528C210.45 322.603 210.438 322.681 210.403 322.749C210.368 322.818 210.312 322.873 210.243 322.906C205.936 324.977 202.026 327.24 198.513 329.693C197.257 330.569 195.706 331.732 193.859 333.183Z" fill="#C91A34"/>
<path d="M196.232 339.412C201.104 333.976 207.666 330.158 214.782 326.949C214.945 326.876 215.028 326.928 215.031 327.106C215.037 327.321 214.94 327.478 214.74 327.576C210.84 329.476 207.165 331.532 203.718 333.745C201.769 335 199.948 336.478 198.255 338.181C197.242 339.201 196.289 340.205 195.396 341.192C195.341 341.252 195.265 341.288 195.184 341.294C195.104 341.3 195.024 341.275 194.962 341.224L194.842 341.127C194.827 341.114 194.815 341.098 194.806 341.08C194.797 341.062 194.792 341.042 194.791 341.022C194.79 341.002 194.794 340.982 194.801 340.962C194.808 340.943 194.819 340.925 194.833 340.91C195.307 340.425 195.773 339.925 196.232 339.412Z" fill="#C91A34"/>
<path d="M200.531 344.119C206.011 338.842 212.157 334.605 218.97 331.408C218.996 331.396 219.024 331.39 219.052 331.391C219.08 331.393 219.107 331.4 219.132 331.414C219.156 331.429 219.177 331.448 219.192 331.472C219.208 331.496 219.217 331.523 219.219 331.551L219.233 331.708C219.243 331.806 219.222 331.904 219.173 331.99C219.124 332.076 219.05 332.145 218.961 332.187C212.317 335.405 206.391 339.503 201.182 344.479C201.123 344.537 201.049 344.576 200.967 344.592C200.886 344.609 200.802 344.601 200.725 344.571L200.614 344.525C200.377 344.433 200.35 344.298 200.531 344.119Z" fill="#C91A34"/>
<path d="M85.4474 240.081C83.785 241.089 82.0179 242.243 80.1462 243.543C79.275 244.146 78.0236 244.407 76.392 244.327C76.3119 242.701 76.2657 241.081 76.2534 239.467C76.2211 236.143 75.824 232.893 75.6254 229.697C75.5885 229.126 75.727 228.571 76.041 228.033C80.7234 220.047 86.0046 212.334 91.8846 204.892C94.3735 201.743 97.0565 198.885 100.053 195.985C100.161 195.88 100.163 195.772 100.058 195.662L99.9795 195.579C99.9241 195.52 99.8687 195.517 99.8133 195.57C97.3443 197.813 95.0354 200.219 92.8866 202.785C86.4187 210.503 80.7327 218.664 75.8286 227.268C75.57 227.72 75.4207 227.686 75.3807 227.166C74.7034 218.332 73.2765 209.89 71.1 201.84C70.8414 200.887 70.5397 199.939 70.1949 198.995C69.8963 198.19 69.6115 197.323 69.3406 196.395C68.6449 194.022 67.7521 191.592 66.6623 189.105C65.8127 187.16 64.7783 185.316 63.9194 183.379C63.7778 183.056 63.6008 182.746 63.3883 182.448C62.8527 181.701 62.6079 180.839 62.1046 180.092C61.455 179.12 60.8055 178.083 60.1559 176.98C60.1136 176.909 60.0455 176.858 59.9661 176.838C59.8867 176.817 59.8023 176.828 59.7311 176.869L59.6202 176.938C59.6004 176.95 59.583 176.965 59.5692 176.983C59.5553 177.002 59.5453 177.022 59.5397 177.044C59.5341 177.066 59.533 177.089 59.5366 177.111C59.5401 177.133 59.5481 177.154 59.5602 177.173C62.7742 182.337 65.3386 187.509 67.2534 192.688C69.6885 199.272 71.6618 206.697 73.1734 214.962C73.552 217.027 74.0846 220.867 74.7711 226.479C75.1175 229.333 75.1175 232.072 75.3807 234.861C75.4145 235.19 75.313 235.239 75.0759 235.009C74.7742 234.714 74.4725 234.434 74.1708 234.17C67.8352 228.628 60.4868 222.646 52.1256 216.225C50.2785 214.808 48.2913 213.382 46.1641 211.947C46.0225 211.848 45.9224 211.88 45.8639 212.043L45.8224 212.163C45.8129 212.19 45.8123 212.219 45.8206 212.246C45.8289 212.273 45.8457 212.298 45.8685 212.315C55.8675 219.849 65.6557 227.661 75.2329 235.751C75.353 235.853 75.4145 235.982 75.4176 236.139L75.6393 244.405C69.236 244.476 62.9851 243.413 56.8865 241.215C55.0117 240.708 53.2939 239.895 51.7331 238.776C49.1333 236.918 47.8172 234.336 49.258 231.376C50.0153 229.827 51.5022 228.849 52.7675 227.733C52.8144 227.691 52.8509 227.639 52.874 227.58C52.897 227.521 52.906 227.458 52.9001 227.396C52.8943 227.333 52.8738 227.273 52.8403 227.221C52.8068 227.168 52.7613 227.124 52.7074 227.092C52.1225 226.748 51.473 226.49 50.7587 226.318C41.0707 223.985 31.8167 220.181 24.6453 213.436C21.1081 210.112 16.4303 204.076 17.1691 199.152C18.0095 193.582 23.9803 192.485 28.6766 193.877C35.8572 196.003 41.1492 200.06 47.1015 204.265C48.2313 205.064 49.592 205.776 51.1836 206.4C54.2128 207.585 57.6023 206.441 57.5053 202.767C57.4745 201.494 57.2005 200.169 56.6833 198.792C55.7783 196.37 54.6346 193.948 53.2523 191.526C50.8665 187.34 48.4637 183.193 46.044 179.087C42.9362 173.812 38.9142 164.992 42.7007 159.206C44.7079 156.144 47.5648 154.683 51.2713 154.821C58.004 155.07 64.7737 160.012 69.0082 165.176C74.4109 171.77 77.237 179.245 77.4864 187.602C77.5479 189.597 77.5079 191.755 77.3663 194.076C77.2678 195.711 77.8035 197.188 78.9733 198.507C80.5895 200.323 83.2263 199.964 84.7963 198.29C86.0308 196.971 87.119 195.442 88.0611 193.702C91.6121 187.16 95.7358 180.617 101.877 176.961C104.819 175.204 108.735 174.531 111.704 176.417C113.206 177.376 113.925 178.859 113.861 180.866C113.773 183.582 112.919 186.399 112.267 189.119C111.322 193.091 110.089 196.942 108.569 200.674C106.795 205.017 104.112 208.788 100.432 211.665C98.1755 213.427 95.5742 215.159 92.628 216.861C91.7661 217.359 91.0564 217.993 90.4992 218.761C90.3761 218.927 90.3576 219.104 90.4438 219.291C91.2104 221.011 93.2006 220.702 94.7522 220.951C97.2489 221.354 98.8882 222.573 99.6701 224.607C101.3 228.849 97.1396 233.238 93.9072 235.263C91.3058 236.892 88.4859 238.498 85.4474 240.081Z" fill="#3A5946"/>
<path d="M215.77 188.354L214.214 179.147C216.64 179.263 219.035 179.285 221.399 179.211C230.034 178.948 240.143 176.173 244.543 167.98C244.586 167.894 244.657 167.843 244.756 167.828C244.814 167.818 244.865 167.834 244.908 167.874C244.97 167.935 244.993 168.007 244.977 168.09C244.79 169.059 244.456 169.959 243.975 170.792C240.286 177.164 235.645 182.291 229.148 185.989C226.482 187.507 223.4 188.466 219.903 188.866C217.773 189.112 216.395 188.941 215.77 188.354Z" fill="#D76972"/>
<path d="M196.837 238.347C198.546 238.347 199.931 236.964 199.931 235.258C199.931 233.552 198.546 232.169 196.837 232.169C195.128 232.169 193.743 233.552 193.743 235.258C193.743 236.964 195.128 238.347 196.837 238.347Z" fill="#D76972"/>
<path d="M196.925 260.045C198.486 258.754 196.181 257.37 195.073 256.886C193.842 256.345 193.891 256.172 195.221 256.365C197.082 256.637 198.343 258.5 198.029 260.238C197.327 264.134 192.307 264.485 191.425 260.441C191.24 259.583 191.538 259.015 192.316 258.735C194.2 258.067 195.244 261.432 196.925 260.045Z" fill="#D76972"/>
<path d="M180.851 276.288C180.94 276.795 181.188 277.11 181.594 277.233C182.102 277.387 182.762 277.768 183.575 278.376C180.57 279.772 177.629 281.055 174.75 282.226C171.423 283.582 167.959 285.846 164.36 289.018C162.187 290.936 160.454 293.187 159.161 295.772C159.099 295.898 159.053 296.044 159.022 296.21L158.574 296.104C158.18 295.662 157.84 295.337 157.554 295.131C157.415 295.033 157.28 295.041 157.148 295.154C157.083 295.041 157.051 294.929 157.051 294.818C157.053 294.72 157.021 294.624 156.958 294.55L153.947 290.986C153.233 289.708 152.759 288.206 152.525 286.482C153.036 285.929 153.54 285.389 154.035 284.864C154.571 284.295 155.117 283.806 155.674 283.397C161.077 279.408 167.33 276.924 174.432 275.947C176.984 275.596 179.123 275.71 180.851 276.288Z" fill="#D76972"/>
<path d="M229.004 304.804C230.35 305.358 231.58 306.1 232.694 307.031C239.861 313.013 245.204 320.235 248.722 328.697C248.947 329.241 248.807 329.665 248.302 329.969C247.551 330.421 246.761 330.853 245.933 331.265C245.45 331.505 244.431 332.282 242.876 333.598C242.799 333.564 242.718 333.493 242.631 333.386L241.805 333.303C241.654 333.287 241.537 333.215 241.454 333.086C240.203 331.159 240.276 328.95 240.263 326.769C240.23 322.684 238.374 319.153 236.171 315.856C233.776 312.269 230.785 309.61 227.199 307.88C227.155 307.858 227.118 307.826 227.089 307.787C227.061 307.747 227.042 307.702 227.036 307.654C227.029 307.605 227.034 307.556 227.05 307.511C227.067 307.465 227.094 307.424 227.13 307.391C227.989 306.623 228.613 305.76 229.004 304.804Z" fill="#D76972"/>
<path d="M266.666 177.293C266.3 177.262 266.061 177.434 265.951 177.809C262.261 190.401 258.724 202.315 252.042 213.339C249.595 217.378 246.533 220.743 243.037 223.989C242.989 224.035 242.931 224.068 242.867 224.088C242.803 224.107 242.736 224.111 242.671 224.101C242.605 224.09 242.543 224.064 242.489 224.026C242.435 223.987 242.39 223.937 242.359 223.879C242.192 223.574 242.069 223.264 241.989 222.947C240.567 217.415 238.396 212.703 233.285 209.775C233.078 209.655 232.889 209.678 232.717 209.844L232.61 209.941C232.586 209.963 232.568 209.991 232.557 210.022C232.546 210.053 232.543 210.086 232.547 210.119C232.552 210.152 232.564 210.183 232.583 210.211C232.602 210.238 232.627 210.261 232.657 210.277C238.549 213.546 239.823 218.512 241.726 224.377C241.764 224.494 241.829 224.601 241.916 224.689C242.002 224.777 242.108 224.844 242.225 224.884C242.342 224.924 242.467 224.936 242.59 224.919C242.712 224.902 242.829 224.857 242.931 224.787C244.273 223.871 245.465 222.851 246.505 221.726C250.255 217.687 253.355 213.148 255.805 208.11C260.511 198.446 263.573 188.418 266.69 178.21C272.96 180.888 279.107 183.78 285.128 186.888C288.601 188.68 291.219 190.284 292.983 191.701C298.543 196.169 303.345 202.421 307.326 208.304C307.781 208.98 308.194 209.684 308.563 210.416C315.853 221.426 320.485 228.634 322.458 232.039C323.837 234.428 325.391 237.408 327.118 240.979C331.437 249.927 334.948 257.85 337.651 264.747C340.052 270.876 341.891 276.411 343.169 281.35C344.434 286.244 344.707 291.409 343.986 296.846C343.381 299.576 342.8 302.55 341.816 304.998C341.003 307.03 340.003 308.965 338.814 310.803C337.623 312.652 335.854 314.422 334.354 316.202C327.69 322.638 319.046 325.4 310.064 327.42C303.624 328.87 297.302 330.175 291.099 331.334C288.174 331.881 285.162 332.487 282.062 333.151C271.684 335.379 261.595 336.954 251.793 337.876C249.779 338.07 247.216 338.268 245.346 337.406C243.684 336.638 242.505 335.41 241.809 333.722C242.046 333.396 242.32 333.284 242.631 333.386C242.717 333.493 242.799 333.564 242.876 333.598C243.451 335.212 244.373 336.303 245.642 336.871C247.193 337.568 250.347 337.189 250.666 334.953C250.82 333.878 250.757 332.783 250.477 331.671C248.357 323.178 242.52 315.257 236.198 309.129C234.319 307.303 230.556 303.993 227.873 303.868C226.955 303.825 226.232 304.134 225.702 304.795C226.016 305.49 225.858 306.04 225.227 306.446C222.848 304.754 227.323 301.3 228.699 300.429C232.307 298.157 236.069 296.304 239.985 294.869C241.54 294.739 243.064 294.426 244.557 293.928C245.88 293.488 247.107 293.104 248.237 292.775C253.714 291.186 259.232 289.966 264.792 289.114C277.597 287.15 291.681 286.924 303.609 292.37C308.623 294.656 313.517 297.998 318.288 302.393C318.312 302.414 318.34 302.43 318.37 302.439C318.4 302.448 318.432 302.45 318.464 302.444C318.495 302.439 318.524 302.427 318.55 302.408C318.576 302.39 318.597 302.366 318.612 302.338L318.672 302.232C318.783 302.026 318.75 301.843 318.575 301.683C314.961 298.373 311.183 295.589 307.243 293.333C301.609 290.106 294.899 288.188 288.338 287.551C281.097 286.851 273.915 287.034 266.791 288.1C266.733 288.109 266.673 288.102 266.618 288.079C266.563 288.057 266.516 288.02 266.48 287.973C266.445 287.926 266.423 287.87 266.416 287.811C266.41 287.752 266.42 287.693 266.445 287.639C269.372 281.381 272.295 275.353 275.214 269.556C278.219 263.593 281.209 257.652 284.186 251.731C284.198 251.709 284.205 251.684 284.206 251.658C284.208 251.633 284.203 251.607 284.194 251.583C284.184 251.56 284.169 251.538 284.15 251.521C284.132 251.503 284.109 251.49 284.085 251.483L283.955 251.441C283.875 251.415 283.788 251.419 283.71 251.451C283.631 251.483 283.566 251.541 283.526 251.616C277.255 263.607 271.233 275.737 265.461 288.008C265.435 288.064 265.397 288.112 265.348 288.15C265.3 288.188 265.244 288.213 265.184 288.225L254.24 290.419C253.119 289.946 251.982 289.645 250.827 289.516C245.96 288.972 240.996 288.529 236.18 287.621C235.974 280.588 235.674 273.564 235.279 266.55C234.544 253.49 233.614 240.81 232.49 228.512C232.219 225.562 231.876 222.622 231.461 219.692C230.906 215.815 229.927 213.477 227.309 211.236C226.891 210.877 226.858 210.486 227.212 210.065C231.808 204.539 236.091 198.884 240.059 193.103L245.914 182.95C246.183 182.48 246.316 181.947 246.297 181.41L245.873 169.386C253.524 169.035 261.079 172.267 266.666 177.293Z" fill="#EFD68A"/>
<path d="M206.178 177.828C205.88 177.969 205.615 178.16 205.384 178.4C201.607 182.3 198.273 185.777 194.874 190.493C191.143 195.669 189.285 201.327 189.3 207.465C189.31 212.819 189.981 217.817 191.314 222.459C191.388 222.72 191.559 222.826 191.826 222.777C191.894 222.765 191.956 222.734 192.008 222.689C192.06 222.643 192.099 222.585 192.122 222.519C192.956 220.038 193.952 217.616 195.11 215.252C196.407 212.606 198.19 209.867 200.817 208.53C200.946 208.462 200.99 208.358 200.946 208.217L200.9 208.064C200.892 208.039 200.88 208.016 200.862 207.996C200.845 207.976 200.824 207.96 200.801 207.949C200.777 207.937 200.752 207.931 200.726 207.931C200.7 207.93 200.675 207.935 200.651 207.945C200.171 208.147 199.715 208.416 199.284 208.751C195.447 211.753 193.83 215.949 192.145 220.481C191.923 221.071 191.734 221.06 191.577 220.449C190.367 215.733 189.876 210.774 190.104 205.57C190.409 198.613 193.807 192.522 198.213 187.266C200.768 184.22 203.666 181.109 206.908 177.934L214.213 179.147L215.769 188.354L216.134 190.977C212.317 195.573 209.58 200.735 207.924 206.465C207.108 209.277 206.489 211.828 206.068 214.118C204.913 220.319 203.796 226.959 203.251 233.51C202.906 237.678 202.509 241.828 202.059 245.959C201.399 252.022 200.923 258.389 200.448 264.614C200.355 265.797 200.089 268.756 199.649 273.489C199.372 276.44 199.158 279.402 199.007 282.374C198.656 282.611 198.145 282.68 197.474 282.581C194.103 282.083 191.499 281.636 189.661 281.24C188.934 281.086 188.12 280.98 187.218 280.922L183.574 278.376C182.762 277.768 182.101 277.387 181.593 277.233C181.187 277.11 180.939 276.795 180.85 276.288C181.136 274.407 180.691 272.453 179.515 270.428C176.508 265.245 173.366 260.861 170.091 257.274C167.652 254.599 165.18 252.108 162.674 249.8C157.415 244.954 151.716 242.4 144.314 243.82C141.125 244.432 138.134 245.306 135.342 246.443C134.474 246.794 134.505 247.027 135.434 247.144C135.453 247.147 135.664 247.072 136.067 246.918C138.918 245.852 141.908 245.048 145.039 244.507C151.01 243.479 156.283 245.309 160.786 249.159C165.271 252.998 169.684 257.678 174.025 263.198C175.133 264.609 176.141 266.045 177.05 267.505C178.407 269.685 179.765 271.806 180.25 274.374C180.373 275.017 180.111 275.287 179.465 275.186C178.101 274.971 176.777 274.931 175.493 275.066C167.597 275.901 159.936 278.782 153.785 283.983C153.477 284.244 153.033 284.739 152.451 285.468C152.364 285.517 152.294 285.529 152.238 285.505C152.195 285.486 152.167 285.454 152.155 285.408C150.456 278.553 148.74 271.703 147.006 264.858C146.178 261.591 144.156 259.797 140.939 259.478C130.893 258.488 120.639 257.426 110.175 256.292C111.437 252.867 113.238 249.769 115.578 246.997C117.801 244.362 120.142 241.897 122.601 239.601C126.807 235.679 130.787 232.2 134.543 229.163C153.747 213.643 172.002 198.711 189.31 184.366C193.752 180.682 199.053 179.409 204.594 178.317C205.173 178.203 205.615 177.88 205.92 177.348C206.028 177.382 206.114 177.428 206.178 177.487C206.252 177.554 206.269 177.631 206.229 177.717L206.178 177.828ZM199.931 235.258C199.931 234.439 199.605 233.653 199.024 233.074C198.444 232.494 197.657 232.169 196.837 232.169C196.016 232.169 195.229 232.494 194.649 233.074C194.069 233.653 193.743 234.439 193.743 235.258C193.743 236.077 194.069 236.863 194.649 237.442C195.229 238.022 196.016 238.347 196.837 238.347C197.657 238.347 198.444 238.022 199.024 237.442C199.605 236.863 199.931 236.077 199.931 235.258ZM176.154 252.898C176.631 257.039 176.999 261.257 177.257 265.554C177.27 265.782 177.388 265.923 177.613 265.979L177.747 266.011C177.919 266.054 178.002 265.986 177.996 265.808C177.613 255.217 176.403 244.76 173.12 235.11C173.058 234.926 172.93 234.831 172.737 234.824L172.598 234.82C172.575 234.82 172.552 234.825 172.531 234.835C172.511 234.845 172.493 234.86 172.479 234.878C172.465 234.897 172.455 234.918 172.451 234.941C172.447 234.963 172.448 234.987 172.455 235.009C174.2 240.689 175.433 246.652 176.154 252.898ZM196.924 260.045C195.244 261.432 194.2 258.067 192.316 258.735C191.537 259.015 191.24 259.584 191.425 260.441C192.307 264.485 197.326 264.134 198.028 260.238C198.342 258.5 197.081 256.637 195.22 256.365C193.891 256.172 193.841 256.345 195.073 256.886C196.181 257.37 198.485 258.754 196.924 260.045Z" fill="#EFD68A"/>
<path d="M216.135 190.977C217.477 193.073 219.239 194.678 221.422 195.791C224.918 197.57 229.231 197.603 232.92 196.326C234.903 195.643 237.282 194.569 240.059 193.103C236.091 198.884 231.809 204.539 227.213 210.065C226.859 210.486 226.891 210.877 227.31 211.236C229.928 213.477 230.907 215.815 231.461 219.692C231.877 222.621 232.22 225.561 232.491 228.512C233.614 240.81 234.544 253.49 235.28 266.55C235.674 273.564 235.974 280.588 236.18 287.621C223.99 286.062 211.735 284.424 199.418 282.706C199.04 282.653 198.903 282.543 199.007 282.374C199.158 279.401 199.372 276.44 199.649 273.489C200.089 268.755 200.356 265.797 200.448 264.614C200.924 258.389 201.399 252.022 202.06 245.959C202.509 241.828 202.906 237.678 203.251 233.51C203.796 226.959 204.914 220.319 206.068 214.118C206.49 211.828 207.108 209.277 207.924 206.464C209.581 200.735 212.317 195.572 216.135 190.977Z" fill="#FADFE2"/>
<path d="M85.4472 240.08C87.8638 240.311 89.6755 240.775 90.8823 241.473C91.4919 241.828 91.6812 242.874 91.672 243.635C91.6258 247.176 91.5735 250.771 91.515 254.419L57.0202 250.906C56.9494 250.596 56.9079 250.331 56.8956 250.113C56.7232 247.205 56.7201 244.239 56.8863 241.215C62.9849 243.412 69.2358 244.476 75.6391 244.405L76.3918 244.327C78.0234 244.407 79.2748 244.145 80.146 243.543C82.0177 242.243 83.7848 241.089 85.4472 240.08Z" fill="#FADFE2"/>
<path d="M158.574 296.104C158.57 296.362 158.551 296.575 158.353 296.773C157.691 297.437 156.959 298.019 156.159 298.52C156.051 298.588 155.848 298.568 155.55 298.46L155.545 297.4L157.147 295.154C157.28 295.041 157.415 295.033 157.554 295.131C157.84 295.337 158.18 295.662 158.574 296.104Z" fill="#FADFE2"/>
<path d="M350.849 297.713C350.058 297.741 349.507 297.732 349.196 297.686C347.487 297.418 345.751 297.139 343.987 296.847C344.707 291.409 344.435 286.244 343.17 281.35C341.892 276.411 340.053 270.876 337.651 264.747C334.948 257.85 331.437 249.927 327.118 240.98C325.391 237.408 323.838 234.428 322.459 232.04C320.485 228.634 315.854 221.426 308.564 210.416C310.525 210.637 312.829 210.989 315.477 211.472C325.456 213.288 335.342 217.433 342.948 224.114C357.951 237.287 358.33 256.849 355.356 275.481C354.186 282.8 352.684 290.21 350.849 297.713Z" fill="#999C72"/>
<path d="M57.0204 250.906L91.5151 254.42L110.175 256.292C120.639 257.426 130.894 258.488 140.939 259.478C144.156 259.797 146.179 261.591 147.007 264.858C148.74 271.703 150.456 278.553 152.156 285.408C152.168 285.454 152.196 285.486 152.239 285.505C152.294 285.529 152.365 285.517 152.451 285.468C152.257 285.689 152.282 286.027 152.525 286.482C152.759 288.206 153.233 289.708 153.947 290.987L155.545 297.4L155.55 298.46L157.106 304.007L159.724 314.33C159.769 314.502 159.865 314.657 159.999 314.773C160.134 314.889 160.3 314.961 160.477 314.98L184.18 317.346L191.758 318.452L196.315 319.139C196.294 319.213 196.264 319.294 196.228 319.383C196.194 319.46 196.141 319.526 196.071 319.582C193.509 321.623 191.203 323.634 189.153 325.617C188.233 325.033 187.014 324.744 185.496 324.75C183.344 324.764 181.594 325.829 179.724 326.493C179.56 326.548 179.522 326.65 179.608 326.797C179.741 327.025 179.935 327.135 180.19 327.129C182.798 327.052 185.222 327.211 187.463 327.604L186.683 328.844C185.005 328.783 183.341 328.623 181.691 328.365C179.342 328.002 177.692 327.802 176.741 327.766C174.361 327.67 171.921 327.716 169.421 327.904C169.246 327.919 169.11 327.852 169.015 327.701C168.95 327.6 168.924 327.489 168.937 327.369C168.946 327.281 168.936 327.193 168.907 327.109C168.878 327.024 168.832 326.946 168.77 326.879C168.708 326.812 168.633 326.757 168.548 326.717C168.463 326.678 168.371 326.655 168.276 326.65C166.614 326.561 164.908 326.488 163.16 326.433C162.895 326.427 162.84 326.531 162.993 326.747C163.277 327.146 163.431 327.62 163.455 328.167C163.474 328.603 163.606 328.964 163.852 329.25C164.123 329.564 164.491 329.704 164.956 329.67C166.138 329.574 167.263 329.59 168.332 329.716C171.075 330.029 173.822 329.905 176.519 330.297C179.508 330.73 182.462 331.099 185.38 331.403C185.497 331.416 185.597 331.34 185.681 331.177C185.73 331.417 185.711 331.665 185.625 331.92C185.145 331.775 184.712 331.821 184.328 332.058C184.198 332.138 184.058 332.184 183.907 332.196C181.885 332.387 179.901 332.224 177.955 331.708C176.667 331.362 175.577 331.348 174.293 331.371C174.199 331.374 174.107 331.403 174.025 331.454L171.116 333.367C171.018 333.432 170.934 333.513 170.867 333.612C170.642 333.95 170.302 334.111 169.846 334.096C169.816 334.095 169.786 334.1 169.759 334.113C169.732 334.126 169.708 334.146 169.689 334.17L169.509 334.409C169.429 334.52 169.457 334.588 169.592 334.612C169.968 334.68 170.319 334.631 170.645 334.465C170.772 334.401 170.914 334.371 171.056 334.377C173.762 334.479 176.339 335.179 178.994 335.216C180.421 335.239 182.046 333.792 183.21 333.072C183.844 332.682 184.634 332.416 185.579 332.275C185.594 332.272 185.605 332.262 185.611 332.247C185.624 332.207 185.634 332.167 185.644 332.127C185.884 332.951 186.373 333.455 187.112 333.64C188.577 334.002 190.161 334.07 191.864 333.842C192.464 333.759 192.921 333.418 193.438 333.128L193.859 333.183C194.111 334.735 194.146 336.507 193.965 338.499C193.309 338.948 192.472 339.404 191.453 339.868C188.697 341.126 185.948 342.392 183.205 343.668C178.56 345.835 173.896 347.72 169.2 349.975C167.762 350.667 166.211 350.911 164.545 350.708C159.653 350.109 154.886 349.466 150.244 348.781C147.436 348.366 144.606 348.172 141.784 347.73C139.798 347.421 137.679 347.411 135.675 347.075C131.777 346.425 127.769 346.014 123.895 345.475C121.721 345.174 119.299 344.88 116.626 344.594C112.991 344.204 108.898 343.697 104.348 343.073C98.7265 342.298 91.669 341.447 83.1754 340.519C79.7429 340.144 76.6859 339.778 74.0045 339.421C69.5807 338.834 65.2215 338.238 60.927 337.632C59.5879 337.476 58.1517 337.429 57.0619 336.724C55.9321 335.992 55.1748 334.944 54.79 333.58C50.908 319.812 47.0245 306.05 43.1394 292.291C42.89 291.415 42.6514 290.475 42.4236 289.47C42.1896 288.455 41.908 287.562 41.5786 286.791C38.3615 275.148 35.5755 265.29 33.2204 257.218C32.3061 254.088 32.7817 249.777 36.5406 249.09C37.067 248.995 38.6309 249.081 41.2322 249.348C46.4903 249.883 51.753 250.402 57.0204 250.906ZM98.3124 303.159C98.3627 303.163 98.4133 303.156 98.4601 303.137C98.5068 303.118 98.5482 303.088 98.5808 303.049C98.6134 303.011 98.6363 302.965 98.6475 302.916C98.6586 302.867 98.6578 302.815 98.6449 302.767L95.8881 291.941C95.8718 291.877 95.8358 291.82 95.7853 291.778C95.7347 291.736 95.6721 291.711 95.6064 291.706L82.5936 290.691C82.5433 290.687 82.4927 290.694 82.4459 290.713C82.3992 290.733 82.3578 290.763 82.3252 290.801C82.2926 290.839 82.2697 290.885 82.2585 290.934C82.2474 290.984 82.2483 291.035 82.2611 291.083L85.0133 301.909C85.0296 301.973 85.0655 302.03 85.1161 302.072C85.1667 302.114 85.2292 302.14 85.295 302.144L98.3124 303.159ZM163.141 325.631C163.412 325.741 163.686 325.803 163.963 325.815C165.521 325.874 167.133 325.881 168.798 325.838C169.358 325.823 169.909 325.64 170.451 325.29C170.978 324.948 171.533 324.618 172.118 324.298C173.122 323.754 173.06 323.381 171.933 323.178C168.932 322.637 165.712 322.322 162.273 322.233C162.239 322.232 162.205 322.239 162.174 322.253C162.143 322.268 162.116 322.289 162.094 322.315C162.073 322.342 162.057 322.373 162.049 322.407C162.041 322.44 162.04 322.475 162.047 322.509L162.559 324.939C162.592 325.094 162.662 325.238 162.764 325.358C162.865 325.479 162.995 325.573 163.141 325.631ZM170.483 326.668C171.615 326.341 172.792 326.415 173.887 325.972C175.343 325.382 176.697 324.79 177.95 324.197C177.99 324.179 178.023 324.148 178.044 324.109C178.065 324.069 178.072 324.024 178.066 323.98C178.044 323.854 177.97 323.777 177.844 323.75C175.009 323.1 173.42 324.178 170.507 326.069C170.365 326.161 170.274 326.278 170.234 326.419C170.166 326.656 170.25 326.739 170.483 326.668ZM179.941 325.76C180.633 325.443 181.332 325.174 182.037 324.953C182.246 324.889 182.416 324.764 182.545 324.58C182.567 324.548 182.58 324.511 182.583 324.472C182.587 324.434 182.58 324.395 182.563 324.361C182.547 324.326 182.522 324.296 182.49 324.273C182.459 324.251 182.422 324.237 182.383 324.234C181.137 324.123 179.904 324.091 178.745 324.686C177.378 325.39 176.069 326.017 174.82 326.567C174.65 326.641 174.467 326.674 174.27 326.668C174.193 326.665 174.15 326.702 174.141 326.779L174.127 326.894C174.121 326.943 174.142 326.971 174.192 326.977C175.452 327.12 176.584 326.691 177.803 326.447C178.554 326.299 179.266 326.07 179.941 325.76ZM171.693 332.192C172.257 331.758 172.885 331.409 173.577 331.145C174.051 330.967 174.036 330.856 173.531 330.813C170.717 330.567 167.597 330.406 164.171 330.329C163.888 330.323 163.811 330.446 163.94 330.698C164.119 331.042 164.234 331.41 164.286 331.8C164.321 332.068 164.444 332.318 164.638 332.508C164.831 332.699 165.083 332.819 165.353 332.851C166.098 332.937 166.802 332.939 167.463 332.856C168.563 332.717 169.683 332.605 170.825 332.519C171.148 332.498 171.438 332.388 171.693 332.192ZM165.039 334.271C165.181 334.535 165.402 334.671 165.704 334.677C166.328 334.686 166.835 334.741 167.431 334.474C168.247 334.105 169.069 333.822 169.897 333.626C170.048 333.592 170.113 333.498 170.091 333.344L170.073 333.215C170.07 333.199 170.061 333.184 170.048 333.174C170.034 333.163 170.016 333.158 169.999 333.16L165.108 333.261C164.702 333.268 164.596 333.45 164.79 333.81L165.039 334.271ZM167.431 335.295C166.779 335.236 166.121 335.193 165.459 335.166C165.235 335.156 165.156 335.259 165.224 335.475L165.727 337.024C165.789 337.208 165.912 337.328 166.097 337.383C167.876 337.915 169.677 338.258 171.499 338.411C172.534 338.498 173.522 338.335 174.464 337.923C175.578 337.434 176.591 336.876 177.503 336.249C177.54 336.223 177.569 336.187 177.586 336.145C177.604 336.103 177.61 336.057 177.602 336.012C177.595 335.968 177.575 335.927 177.545 335.893C177.515 335.86 177.477 335.837 177.433 335.825C174.857 335.118 172.175 334.932 169.389 335.267C168.727 335.347 168.075 335.356 167.431 335.295ZM167.523 342.012L171.015 340.002C171.138 339.931 171.27 339.879 171.412 339.845C171.63 339.793 171.833 339.704 172.021 339.578C172.203 339.458 172.186 339.384 171.97 339.357L167.154 338.757C166.686 338.699 166.495 338.902 166.581 339.366L167.025 341.782C167.035 341.835 167.057 341.884 167.09 341.927C167.123 341.969 167.166 342.003 167.215 342.026C167.263 342.048 167.317 342.059 167.371 342.056C167.424 342.054 167.477 342.039 167.523 342.012Z" fill="#918CB5"/>
<path d="M199.007 282.374C198.903 282.543 199.04 282.654 199.418 282.706C211.735 284.424 223.989 286.062 236.18 287.621C240.997 288.529 245.961 288.972 250.828 289.516C251.982 289.645 253.12 289.946 254.24 290.419C249.321 291.418 244.569 292.901 239.985 294.869C236.069 296.304 232.307 298.158 228.699 300.429C227.323 301.3 222.849 304.754 225.227 306.446C221.607 308.075 217.923 309.566 214.177 310.918C210.625 312.2 207.435 313.643 204.151 315.215C204.133 315.225 204.121 315.22 204.114 315.202L204.059 315.1C204.019 315.026 204.036 314.968 204.11 314.925C207.375 312.933 207.268 309.471 206.474 306.137C205.791 303.26 204.433 300.507 202.983 297.829C201.253 294.632 199.306 291.847 197.142 289.474C196.092 288.325 194.448 286.846 192.21 285.039C190.544 283.692 188.88 282.32 187.218 280.922C188.12 280.98 188.934 281.086 189.661 281.24C191.499 281.636 194.103 282.083 197.474 282.581C198.145 282.68 198.656 282.611 199.007 282.374Z" fill="#E5B5A2"/>
<path d="M60.9267 337.632C59.3721 338.533 58.0914 339.5 57.0848 340.532C56.9866 340.633 56.931 340.768 56.9293 340.91C56.9276 341.051 56.9799 341.188 57.0755 341.293C58.5209 342.87 60.9683 343.543 63.0278 343.889C64.8903 344.199 66.7944 344.478 68.74 344.723C98.9494 348.564 129.219 352.506 159.507 356.347C161.591 356.611 163.7 356.809 165.833 356.942C168.239 357.094 170.109 356.674 172.201 355.738C177.521 353.359 182.586 350.846 187.828 348.509C190.478 347.328 193.133 346.137 195.793 344.936C196.708 346.887 198.299 347.909 200.568 348.002C204.176 348.146 207.906 347.637 211.757 346.475C215.288 345.412 217.991 344.487 219.866 343.7C224.791 341.631 229.434 339.698 233.793 337.9C239.99 339.91 246.515 340.958 253.367 341.044C262.317 341.155 270.475 340.878 277.842 340.214C290.079 339.108 302.782 337.688 314.765 336.374C322.083 335.568 330.493 334.476 339.997 333.095C347.622 331.989 354.326 330.769 360.107 329.435C364.766 328.356 369.532 327.009 373.72 324.57C374.425 324.159 375.036 323.651 375.554 323.049C375.755 322.817 375.859 322.516 375.843 322.208C375.828 321.901 375.694 321.611 375.47 321.398C374.279 320.27 372.661 319.451 370.617 318.941C367.69 318.212 364.73 317.702 361.737 317.41C352.622 316.525 343.446 315.718 334.354 316.202C335.855 314.422 337.623 312.652 338.815 310.803C340.003 308.965 341.003 307.03 341.816 304.998C342.8 302.55 343.382 299.576 343.987 296.847C345.751 297.139 347.487 297.418 349.195 297.686C349.506 297.732 350.057 297.741 350.849 297.713C366.29 299.724 381.706 301.711 397.095 303.675C399.238 303.947 403.006 304.178 402.507 307.322C402.409 307.949 402.012 308.516 401.316 309.023C389.495 317.642 378.835 325.297 369.338 331.989C360.062 338.521 350.862 345.002 341.738 351.432C313.862 371.076 286.337 390.467 259.163 409.604C255.676 412.057 252.855 414.57 248.205 413.92C202.76 407.526 155.343 400.798 105.955 393.734C88.8042 391.285 71.2967 388.783 53.4321 386.228C38.2889 384.067 23.746 382.008 9.80345 380.05C6.73109 379.617 3.55099 379.146 0.263144 378.639C-0.120379 378.578 -0.469897 378.384 -0.723469 378.09C-0.977041 377.796 -1.11829 377.422 -1.12219 377.035C-1.19299 369.375 -1.31459 361.4 -1.48699 353.11C-1.5578 349.646 -1.57627 346.571 -1.5424 343.884C-1.40387 332.192 -1.24071 320.863 -1.05292 309.899C-1.05022 309.747 -1.00683 309.599 -0.927265 309.469C-0.847696 309.339 -0.734836 309.233 -0.60038 309.162L41.5783 286.791C41.9077 287.562 42.1894 288.455 42.4233 289.47C42.6512 290.475 42.8897 291.415 43.1391 292.291C47.0242 306.049 50.9077 319.812 54.7897 333.58C55.1745 334.944 55.9318 335.992 57.0617 336.724C58.1515 337.429 59.5876 337.476 60.9267 337.632Z" fill="#E5B5A2"/>
<path d="M176.607 313.445C178.878 314.926 181.403 316.227 184.18 317.346L160.477 314.98C160.3 314.961 160.134 314.889 159.999 314.773C159.865 314.657 159.769 314.502 159.724 314.33L157.106 304.007C163.598 307.446 170.099 310.592 176.607 313.445Z" fill="#E5B5A2"/>
<path d="M196.315 319.139L191.757 318.452C194.256 317.802 196.684 316.806 199.169 316.4C200.357 316.204 201.533 315.965 202.697 315.686C202.701 315.686 202.705 315.687 202.709 315.689C202.712 315.691 202.715 315.694 202.717 315.697C202.718 315.7 202.719 315.704 202.717 315.707C202.716 315.71 202.714 315.712 202.711 315.713L196.315 319.139Z" fill="#E5B5A2"/>
<path d="M159.022 296.21C160.617 298.838 162.743 301.365 165.399 303.79C169.755 307.758 173.491 310.976 176.607 313.445C170.099 310.592 163.598 307.446 157.106 304.007L155.55 298.46C155.848 298.568 156.051 298.588 156.159 298.52C156.96 298.019 157.691 297.437 158.353 296.773C158.551 296.574 158.57 296.362 158.574 296.104L159.022 296.21Z" fill="#D4A28A"/>
<path d="M233.793 337.9C236.044 336.824 238.057 335.96 239.833 335.309C240.597 335.032 241.256 334.503 241.81 333.722C242.505 335.41 243.684 336.638 245.347 337.406C247.217 338.269 249.78 338.07 251.793 337.877C261.595 336.955 271.685 335.379 282.063 333.151C285.163 332.487 288.175 331.881 291.1 331.334C297.303 330.175 303.625 328.871 310.065 327.42C319.046 325.4 327.691 322.639 334.354 316.202C343.447 315.718 352.622 316.525 361.738 317.41C364.73 317.702 367.69 318.212 370.618 318.941C372.662 319.451 374.279 320.27 375.471 321.398C375.695 321.611 375.828 321.901 375.844 322.208C375.859 322.516 375.755 322.817 375.554 323.049C375.037 323.651 374.426 324.159 373.721 324.57C369.532 327.009 364.767 328.356 360.108 329.435C354.326 330.769 347.623 331.989 339.997 333.095C330.494 334.476 322.083 335.568 314.766 336.374C302.783 337.688 290.079 339.108 277.842 340.214C270.475 340.878 262.317 341.155 253.368 341.044C246.515 340.958 239.99 339.91 233.793 337.9Z" fill="#D4A28A"/>
<path d="M193.965 338.499L195.793 344.935C193.134 346.137 190.478 347.328 187.828 348.509C182.587 350.846 177.521 353.359 172.201 355.738C170.109 356.674 168.239 357.094 165.833 356.942C163.7 356.809 161.591 356.611 159.507 356.347C129.219 352.506 98.9496 348.564 68.7402 344.723C66.7946 344.477 64.8905 344.199 63.028 343.889C60.9685 343.543 58.5211 342.87 57.0757 341.293C56.9801 341.188 56.9278 341.051 56.9295 340.91C56.9312 340.768 56.9868 340.633 57.085 340.532C58.0916 339.5 59.3723 338.533 60.9269 337.632C65.2215 338.238 69.5806 338.834 74.0045 339.421C76.6858 339.778 79.7428 340.143 83.1753 340.518C91.669 341.447 98.7264 342.298 104.348 343.073C108.898 343.697 112.991 344.204 116.626 344.594C119.299 344.88 121.721 345.174 123.895 345.475C127.769 346.014 131.777 346.425 135.675 347.075C137.679 347.411 139.798 347.421 141.784 347.729C144.605 348.172 147.436 348.366 150.244 348.781C154.886 349.466 159.653 350.109 164.545 350.708C166.21 350.911 167.762 350.666 169.2 349.975C173.896 347.72 178.56 345.835 183.205 343.668C185.948 342.392 188.697 341.126 191.453 339.868C192.472 339.404 193.309 338.948 193.965 338.499Z" fill="#D4A28A"/>
<path d="M163.141 325.631C162.995 325.573 162.865 325.479 162.764 325.358C162.662 325.238 162.592 325.094 162.559 324.939L162.047 322.509C162.04 322.476 162.04 322.44 162.049 322.407C162.057 322.373 162.072 322.342 162.094 322.315C162.116 322.289 162.143 322.268 162.174 322.253C162.205 322.239 162.239 322.232 162.273 322.233C165.712 322.322 168.932 322.637 171.933 323.178C173.06 323.381 173.122 323.754 172.118 324.298C171.533 324.618 170.978 324.949 170.451 325.29C169.909 325.64 169.358 325.823 168.798 325.838C167.132 325.881 165.521 325.874 163.963 325.815C163.686 325.803 163.412 325.742 163.141 325.631Z" fill="#4645CE"/>
<path d="M170.483 326.668C170.249 326.739 170.166 326.656 170.234 326.419C170.274 326.278 170.365 326.161 170.506 326.069C173.42 324.179 175.009 323.1 177.844 323.75C177.97 323.777 178.044 323.854 178.066 323.98C178.072 324.025 178.064 324.07 178.044 324.109C178.023 324.148 177.99 324.179 177.95 324.197C176.697 324.79 175.343 325.382 173.887 325.972C172.792 326.415 171.615 326.341 170.483 326.668Z" fill="#4645CE"/>
<path d="M177.802 326.447C176.583 326.691 175.452 327.12 174.191 326.977C174.142 326.971 174.121 326.943 174.127 326.894L174.141 326.779C174.15 326.702 174.193 326.665 174.27 326.668C174.467 326.674 174.65 326.64 174.819 326.567C176.069 326.016 177.378 325.389 178.745 324.686C179.904 324.091 181.137 324.123 182.383 324.234C182.422 324.237 182.459 324.251 182.49 324.273C182.522 324.295 182.547 324.325 182.563 324.36C182.58 324.395 182.586 324.434 182.583 324.472C182.58 324.511 182.567 324.548 182.545 324.579C182.416 324.764 182.246 324.888 182.037 324.953C181.332 325.174 180.633 325.443 179.941 325.76C179.266 326.07 178.554 326.299 177.802 326.447Z" fill="#4645CE"/>
<path d="M189.153 325.617L187.463 327.604C185.222 327.211 182.797 327.052 180.19 327.129C179.934 327.135 179.74 327.025 179.608 326.797C179.522 326.65 179.56 326.548 179.723 326.493C181.594 325.829 183.344 324.764 185.496 324.75C187.013 324.744 188.232 325.033 189.153 325.617Z" fill="#4645CE"/>
<path d="M186.682 328.844L185.68 331.177C185.597 331.34 185.497 331.416 185.38 331.403C182.462 331.099 179.508 330.73 176.519 330.297C173.822 329.905 171.074 330.029 168.331 329.716C167.263 329.59 166.138 329.574 164.956 329.67C164.491 329.703 164.123 329.564 163.852 329.25C163.606 328.964 163.473 328.603 163.455 328.167C163.43 327.619 163.276 327.146 162.993 326.747C162.839 326.531 162.895 326.427 163.159 326.433C164.908 326.488 166.613 326.561 168.276 326.65C168.37 326.655 168.463 326.678 168.547 326.717C168.632 326.757 168.708 326.812 168.77 326.879C168.831 326.946 168.878 327.024 168.907 327.109C168.935 327.193 168.945 327.281 168.936 327.369C168.924 327.489 168.95 327.599 169.015 327.701C169.11 327.852 169.246 327.919 169.421 327.904C171.921 327.716 174.36 327.67 176.74 327.765C177.691 327.802 179.342 328.002 181.69 328.365C183.341 328.623 185.004 328.783 186.682 328.844Z" fill="#4645CE"/>
<path d="M171.693 332.192C171.438 332.388 171.148 332.498 170.825 332.519C169.683 332.605 168.562 332.717 167.463 332.856C166.801 332.939 166.098 332.937 165.353 332.851C165.083 332.819 164.831 332.699 164.638 332.508C164.444 332.318 164.321 332.068 164.286 331.8C164.234 331.41 164.118 331.042 163.94 330.698C163.811 330.446 163.888 330.323 164.171 330.329C167.597 330.406 170.717 330.567 173.531 330.813C174.036 330.856 174.051 330.967 173.577 331.145C172.885 331.409 172.257 331.758 171.693 332.192Z" fill="#4645CE"/>
<path d="M185.625 331.92L185.643 332.127C185.634 332.167 185.623 332.207 185.611 332.247C185.605 332.263 185.594 332.272 185.579 332.275C184.634 332.416 183.844 332.682 183.21 333.072C182.046 333.792 180.421 335.239 178.994 335.216C176.339 335.18 173.762 334.479 171.056 334.377C170.913 334.371 170.772 334.401 170.645 334.465C170.319 334.631 169.968 334.68 169.592 334.612C169.457 334.588 169.429 334.52 169.509 334.41L169.689 334.17C169.708 334.146 169.732 334.126 169.759 334.113C169.786 334.101 169.816 334.095 169.846 334.096C170.302 334.111 170.642 333.95 170.867 333.612C170.934 333.514 171.017 333.432 171.116 333.368L174.025 331.454C174.107 331.403 174.199 331.374 174.293 331.371C175.577 331.348 176.666 331.362 177.955 331.708C179.9 332.224 181.885 332.387 183.907 332.196C184.058 332.184 184.198 332.138 184.327 332.058C184.712 331.821 185.145 331.775 185.625 331.92Z" fill="#4645CE"/>
<path d="M165.039 334.271L164.79 333.81C164.596 333.45 164.702 333.268 165.108 333.261L169.998 333.16C170.016 333.158 170.034 333.163 170.047 333.174C170.061 333.184 170.07 333.199 170.072 333.215L170.091 333.344C170.112 333.498 170.048 333.592 169.897 333.626C169.069 333.822 168.247 334.105 167.431 334.474C166.835 334.741 166.327 334.686 165.704 334.677C165.402 334.671 165.181 334.535 165.039 334.271Z" fill="#4645CE"/>
<path d="M169.389 335.267C172.175 334.932 174.856 335.118 177.433 335.825C177.476 335.837 177.515 335.86 177.545 335.894C177.575 335.927 177.595 335.968 177.602 336.012C177.609 336.057 177.604 336.103 177.586 336.145C177.568 336.187 177.539 336.223 177.502 336.249C176.591 336.876 175.578 337.434 174.464 337.923C173.522 338.335 172.533 338.498 171.499 338.412C169.677 338.258 167.876 337.915 166.096 337.383C165.912 337.328 165.788 337.208 165.727 337.024L165.223 335.475C165.156 335.259 165.234 335.156 165.459 335.166C166.121 335.193 166.778 335.236 167.431 335.295C168.074 335.356 168.727 335.347 169.389 335.267Z" fill="#4645CE"/>
<path d="M167.523 342.012C167.476 342.039 167.424 342.054 167.37 342.057C167.317 342.059 167.263 342.048 167.214 342.026C167.165 342.003 167.123 341.969 167.09 341.927C167.057 341.884 167.034 341.835 167.024 341.782L166.581 339.366C166.495 338.902 166.686 338.699 167.154 338.757L171.97 339.357C172.186 339.384 172.203 339.458 172.021 339.578C171.833 339.704 171.63 339.793 171.411 339.845C171.27 339.879 171.137 339.932 171.014 340.002L167.523 342.012Z" fill="#4645CE"/>
</g>
<defs>
<clipPath id="clip0_1668_5602">
<rect width="472.859" height="472.128" fill="white" transform="translate(-38.0039 0.401611)"/>
</clipPath>
</defs>
</svg>
