<svg width="77" height="114" viewBox="0 0 77 114" fill="none" xmlns="http://www.w3.org/2000/svg">
<g clip-path="url(#clip0_2104_1103)">
<mask id="mask0_2104_1103" style="mask-type:luminance" maskUnits="userSpaceOnUse" x="-65" y="0" width="164" height="122">
<path d="M98.0738 0.0268555H-64.0315V121.098H98.0738V0.0268555Z" fill="white"/>
</mask>
<g mask="url(#mask0_2104_1103)">
<mask id="mask1_2104_1103" style="mask-type:luminance" maskUnits="userSpaceOnUse" x="-51" y="-29" width="172" height="171">
<path d="M-50.6577 -28.6267H120.363V141.68H-50.6577V-28.6267Z" fill="white"/>
</mask>
<g mask="url(#mask1_2104_1103)">
<path d="M1.43481 26.8781C1.43481 26.4333 1.61232 26.0064 1.92843 25.6924C2.58495 25.0418 3.64512 25.0418 4.30165 25.6924L19.1691 40.4978C19.8265 41.1524 19.8265 42.2146 19.1691 42.87C18.5118 43.5246 17.446 43.5246 16.7886 42.87L1.92843 28.063C1.61232 27.749 1.43481 27.3228 1.43481 26.8781Z" fill="#E8EDEA"/>
<path d="M21.8106 2.96888C22.712 2.73723 23.6319 3.27802 23.8637 4.17556L28.9117 24.2855C29.0235 24.7165 28.9595 25.1734 28.7317 25.5576C28.504 25.941 28.1336 26.2186 27.6999 26.33C26.7994 26.5609 25.8795 26.0209 25.6469 25.1233L20.5989 5.01337C20.3671 4.11583 20.9102 3.19972 21.8106 2.96888Z" fill="#E8EDEA"/>
<path d="M49.9551 13.1905V33.8615C49.9551 34.7864 49.2022 35.5371 48.2733 35.5371C47.3428 35.5371 46.5898 34.7864 46.5898 33.8615V13.1905C46.5898 12.2655 47.3428 11.5149 48.2733 11.5149C49.2022 11.5149 49.9551 12.2655 49.9551 13.1905Z" fill="#E8EDEA"/>
<path d="M54.3547 63.6402H54.3555L54.3466 63.6321C53.6276 62.9154 52.6728 62.4819 51.6572 62.4133C50.6424 62.3431 49.6374 62.6434 48.8269 63.2552L44.8723 67.1932C44.1064 67.9576 43.6752 68.9924 43.6752 70.0715C43.6752 71.1507 44.1064 72.1862 44.8723 72.9498L44.9809 73.0596C45.4899 73.5721 46.1278 73.9377 46.8281 74.1209C47.5284 74.3042 48.266 74.2961 48.9614 74.0975C50.593 72.8247 52.8057 71.0562 53.8327 70.1684C54.8572 69.2603 55.4902 67.9939 55.5996 66.6323C55.6037 65.5087 55.1563 64.4312 54.3547 63.6402ZM61.2717 75.6004C61.2344 74.7271 60.8672 73.9006 60.2448 73.2847H60.2285C59.6725 72.7415 58.9503 72.3985 58.1763 72.3089C57.4014 72.2185 56.6193 72.388 55.953 72.79C54.4552 74.0717 51.637 76.2938 50.9634 76.8128C50.3661 77.5553 50.0605 78.4876 50.1043 79.4376C50.148 80.3876 50.5371 81.2892 51.2001 81.9736L51.4011 82.1754C51.9263 82.675 52.5812 83.0189 53.2921 83.1666C54.0029 83.3151 54.7413 83.2618 55.4229 83.0132L60.2529 78.2035C60.3112 78.1284 60.3761 78.0582 60.4466 77.9936C61.0139 77.3285 61.309 76.4738 61.2717 75.6004ZM65.7725 82.0164C64.979 81.2182 63.897 80.7718 62.7687 80.7758L62.4243 80.7258L58.2168 84.9157C57.6162 85.6671 57.3171 86.6123 57.3755 87.5696C57.4347 88.5276 57.8488 89.43 58.537 90.1024L58.6877 90.2614C59.2527 90.811 59.9732 91.1759 60.7521 91.3058C61.5311 91.4358 62.3327 91.3268 63.0476 90.9902H63.0459L65.7142 88.066C66.5304 87.2733 66.9964 86.1885 67.0078 85.0537C67.0183 83.918 66.5742 82.8244 65.7725 82.0164ZM9.81056 56.0321C8.09387 54.6494 6.47119 54.5994 4.855 55.8731C2.79303 57.5156 3.13831 60.0799 4.40841 61.8556C9.86892 69.6316 10.2734 73.6375 10.2231 78.0695C10.1388 85.9206 11.9471 91.6029 14.5813 95.7419C14.6697 95.804 14.7507 95.8743 14.8253 95.9517H14.8245C14.8755 96.0018 18.2327 99.4798 22.5999 99.1948C25.7309 98.985 28.7339 96.9066 31.5359 93.0186C32.0863 92.2913 33.1189 92.134 33.8621 92.6651C34.6046 93.1954 34.7869 94.2188 34.2714 94.9711C30.838 99.705 26.9929 102.244 22.7855 102.512H22.0706H21.2706C24.9099 104.888 29.0857 106.327 33.4212 106.701C42.3645 107.361 51.1231 103.935 57.2255 97.3925H57.2264L57.2936 97.3174L59.8176 94.5441C58.4762 94.2406 57.2482 93.5674 56.2748 92.5997L56.1492 92.4568C54.597 90.9176 53.8294 88.7609 54.0621 86.5921C52.1403 86.5986 50.2947 85.8439 48.929 84.4968L48.8625 84.4298L48.7953 84.3717C47.0064 82.5758 46.2802 79.984 46.8759 77.5255C45.2484 77.3197 43.7351 76.5803 42.5761 75.4229L42.4837 75.33C41.0774 73.9369 40.288 72.0434 40.288 70.0683C40.288 68.094 41.0774 66.1996 42.4837 64.8065L59.615 47.7798C60.4142 46.9856 60.8632 45.9081 60.8632 44.7845C60.8632 43.6602 60.4142 42.5826 59.615 41.7884C58.7996 40.978 57.6892 40.5301 56.5366 40.5486C55.3856 40.564 54.2898 41.0491 53.5068 41.8893C47.1272 48.6677 31.6032 64.7129 24.9812 67.4192C24.2063 67.7445 23.3909 67.9681 22.5577 68.0811C23.459 71.2298 22.89 74.6141 21.0096 77.2987C20.4949 78.042 19.4842 78.2454 18.7199 77.7604C17.9555 77.2745 17.7148 76.2744 18.1744 75.4971L18.1752 75.4963C21.457 70.3936 18.2336 66.8825 18.0909 66.7324C18.0544 66.6896 18.0204 66.6444 17.9896 66.5984C16.8394 65.4119 15.8587 64.0728 15.0782 62.6184C13.7376 60.1235 11.9528 57.8917 9.81056 56.0321ZM6.8489 78.0445C6.88294 74.7433 6.92428 71.3403 1.64046 63.7992C-0.909459 60.1461 -0.447459 55.8061 2.75898 53.2846C5.59501 51.0472 9.01868 51.1133 11.9301 53.4686C14.3754 55.5696 16.4172 58.0959 17.9539 60.9258C20.1667 64.5377 20.8572 65.4498 23.7176 64.277C28.6237 62.2931 41.0612 50.1924 51.0655 39.5599C52.4605 38.0739 54.3968 37.2079 56.4393 37.1578C58.4819 37.1062 60.4579 37.8754 61.9258 39.2911C63.3936 40.7068 64.2277 42.6496 64.2423 44.6836C64.2577 46.7184 63.4504 48.6725 62.0036 50.1093L52.8738 59.234C54.5954 59.5762 56.1443 60.502 57.2547 61.8548C58.366 63.2076 58.9706 64.9018 58.9665 66.65C58.9609 67.4499 58.819 68.2425 58.5451 68.9956C60.5374 69.2159 62.3327 70.2951 63.4585 71.9473C64.5835 73.5995 64.9255 75.6594 64.393 77.5844C66.1867 77.9702 67.7818 78.9864 68.8833 80.4481C69.9848 81.9099 70.5206 83.7163 70.3917 85.5396C70.262 87.3629 69.4766 89.0789 68.1798 90.3712L65.4451 93.3786L65.3527 93.4875L59.8419 99.5379C53.6009 106.378 44.7191 110.231 35.4394 110.12L35.4402 110.121C34.7075 110.121 33.9756 110.096 33.2186 110.054C23.2985 109.458 6.59682 102.042 6.8489 78.0445Z" fill="#E8EDEA"/>
<path d="M27.3708 37.6074L31.0904 37.0706L32.7479 33.7194L34.4054 37.0706L38.1249 37.6074L35.4323 40.2217L36.0718 43.9087L32.7471 42.1653L29.4239 43.9087L30.0634 40.2217L27.3708 37.6074Z" fill="#E8EDEA"/>
<path d="M37.6368 19.466L36.5021 16.9187L33.7415 16.4077L35.8286 14.5392L35.4671 11.7659L37.8978 13.1655L40.4307 11.9668L39.8423 14.6982L41.7689 16.7258L38.9839 17.0107L37.6368 19.466Z" fill="#E8EDEA"/>
<path d="M12.0826 13.8774L14.1114 15.796L16.8542 15.227L15.6425 17.7396L17.0471 20.1619L14.2621 19.793L12.3858 21.8714L11.8727 19.1223L9.3147 17.9834L11.7803 16.6508L12.0826 13.8774Z" fill="#E8EDEA"/>
</g>
</g>
</g>
<defs>
<clipPath id="clip0_2104_1103">
<rect width="77" height="113" fill="white" transform="translate(0 0.0268555)"/>
</clipPath>
</defs>
</svg>
