<svg width="36" height="36" viewBox="0 0 36 36" fill="none" xmlns="http://www.w3.org/2000/svg">
<path d="M18 23.8603C20.4162 23.8603 22.375 21.9015 22.375 19.4853C22.375 17.069 20.4162 15.1103 18 15.1103C15.5838 15.1103 13.625 17.069 13.625 19.4853C13.625 21.9015 15.5838 23.8603 18 23.8603Z" stroke="#138232" stroke-width="2" stroke-linecap="round" stroke-linejoin="round"/>
<path d="M4.875 15.9343C4.875 15.0967 4.875 14.6779 4.98296 14.2922C5.07859 13.9506 5.23574 13.6293 5.44671 13.344C5.68487 13.022 6.01545 12.7649 6.67661 12.2507L16.5675 4.55778C17.0798 4.15928 17.336 3.96004 17.6189 3.88345C17.8685 3.81587 18.1315 3.81587 18.3811 3.88345C18.664 3.96004 18.9202 4.15929 19.4325 4.55778L29.3234 12.2507C29.9846 12.7649 30.3151 13.022 30.5533 13.344C30.7643 13.6293 30.9214 13.9506 31.017 14.2922C31.125 14.6779 31.125 15.0967 31.125 15.9343V26.4853C31.125 28.1187 31.125 28.9355 30.8071 29.5594C30.5275 30.1082 30.0813 30.5544 29.5325 30.834C28.9086 31.1519 28.0918 31.1519 26.4583 31.1519H9.54167C7.90818 31.1519 7.09144 31.1519 6.46753 30.834C5.91872 30.5544 5.47253 30.1082 5.1929 29.5594C4.875 28.9355 4.875 28.1187 4.875 26.4853V15.9343Z" stroke="#138232" stroke-width="2" stroke-linecap="round" stroke-linejoin="round"/>
</svg>
