<svg width="24" height="25" viewBox="0 0 24 25" fill="none" xmlns="http://www.w3.org/2000/svg">
<path d="M3 16.5269V7.72686C3 6.60675 3 6.0467 3.21799 5.61887C3.40973 5.24255 3.71569 4.93659 4.09202 4.74484C4.51984 4.52686 5.0799 4.52686 6.2 4.52686H17.8C18.9201 4.52686 19.4802 4.52686 19.908 4.74484C20.2843 4.93659 20.5903 5.24255 20.782 5.61887C21 6.0467 21 6.60675 21 7.72686V16.5269H15.6627C15.4182 16.5269 15.2959 16.5269 15.1808 16.5545C15.0787 16.579 14.9812 16.6194 14.8917 16.6742C14.7908 16.7361 14.7043 16.8225 14.5314 16.9955L14.4686 17.0582C14.2957 17.2312 14.2092 17.3177 14.1083 17.3795C14.0188 17.4343 13.9213 17.4747 13.8192 17.4992C13.7041 17.5269 13.5818 17.5269 13.3373 17.5269H10.6627C10.4182 17.5269 10.2959 17.5269 10.1808 17.4992C10.0787 17.4747 9.98119 17.4343 9.89172 17.3795C9.7908 17.3177 9.70432 17.2312 9.53137 17.0582L9.46863 16.9955C9.29568 16.8225 9.2092 16.7361 9.10828 16.6742C9.01881 16.6194 8.92127 16.579 8.81923 16.5545C8.70414 16.5269 8.58185 16.5269 8.33726 16.5269H3ZM3 16.5269C2.44772 16.5269 2 16.9746 2 17.5269V17.8602C2 18.4802 2 18.7902 2.06815 19.0445C2.25308 19.7347 2.79218 20.2738 3.48236 20.4587C3.7367 20.5269 4.04669 20.5269 4.66667 20.5269H19.3333C19.9533 20.5269 20.2633 20.5269 20.5176 20.4587C21.2078 20.2738 21.7469 19.7347 21.9319 19.0445C22 18.7902 22 18.4802 22 17.8602C22 17.5502 22 17.3952 21.9659 17.268C21.8735 16.9229 21.6039 16.6534 21.2588 16.5609C21.1317 16.5269 20.9767 16.5269 20.6667 16.5269H20" stroke="black" stroke-width="2" stroke-linecap="round" stroke-linejoin="round"/>
</svg>
