<svg width="24" height="25" viewBox="0 0 24 25" fill="none" xmlns="http://www.w3.org/2000/svg">
<path d="M12 2.52686V3.52686M3 12.5269H2M5.5 6.02686L4.8999 5.42676M18.5 6.02686L19.1002 5.42676M22 12.5269H21M10 14.0269H14M12 14.0269V19.0269M15.5 17.4008C17.0141 16.3116 18 14.5344 18 12.5269C18 9.21315 15.3137 6.52686 12 6.52686C8.68629 6.52686 6 9.21315 6 12.5269C6 14.5344 6.98593 16.3116 8.5 17.4008V19.3269C8.5 20.447 8.5 21.007 8.71799 21.4348C8.90973 21.8112 9.21569 22.1171 9.59202 22.3089C10.0198 22.5269 10.5799 22.5269 11.7 22.5269H12.3C13.4201 22.5269 13.9802 22.5269 14.408 22.3089C14.7843 22.1171 15.0903 21.8112 15.282 21.4348C15.5 21.007 15.5 20.447 15.5 19.3269V17.4008Z" stroke="black" stroke-width="2" stroke-linecap="round" stroke-linejoin="round"/>
</svg>
