<svg width="30" height="30" viewBox="0 0 30 30" fill="none" xmlns="http://www.w3.org/2000/svg">
<path d="M18.8892 12.5986C20.4959 13.0992 22.0014 13.9126 23.3138 15.0058M27.4236 10.8371C23.9919 7.81226 19.5746 6.14329 15.0001 6.14329C14.2896 6.14329 13.583 6.18354 12.8833 6.26288M10.9253 19.1861C12.1174 18.3391 13.5435 17.8841 15.0058 17.8841C16.4681 17.8841 17.8942 18.3391 19.0863 19.1861M15.0002 23.7538H15.0119M2.31055 11.0729C3.87652 9.63792 5.68653 8.46491 7.67114 7.62335M6.46569 15.2323C8.10658 13.7869 10.1173 12.7514 12.3377 12.2861M19.3429 19.3799C18.1462 18.4419 16.6384 17.8826 15 17.8826C13.3368 17.8826 11.8082 18.4589 10.6031 19.4227M4.43198 4.37885L25.5683 25.5152" stroke="#0F6326" stroke-width="2" stroke-linecap="round" stroke-linejoin="round"/>
</svg>
